<svg width="42" height="36" viewBox="0 0 42 36" fill="none" xmlns="http://www.w3.org/2000/svg">
<path d="M39.3051 14.9877C38.068 14.9877 37.0236 15.7949 36.7083 16.9615H31.8758C32.1593 15.6154 32.3654 14.2692 32.5257 12.8333H36.0321C36.4286 12.8333 36.7051 12.5398 36.7051 12.1433V5.28688C37.8718 4.97341 38.7085 3.92906 38.7085 2.69177C38.7085 1.2075 37.5108 0 36.0248 0C34.5388 0 33.3131 1.2075 33.3131 2.69177C33.3131 3.92628 34.1923 4.96865 35.2692 5.28473V11.3974H32.6741C32.7785 10.3205 32.8617 9.16058 32.9389 8.01715C32.9699 7.55883 32.557 7.20946 32.1122 7.27856C31.2597 7.44163 30.3976 7.56449 29.5279 7.56449C26.639 7.56431 23.9846 6.25441 21.4561 3.59988C21.0966 3.29359 20.743 3.30014 20.3954 3.61954C17.7103 6.76963 13.9844 8.07917 9.88831 7.2783C9.44192 7.19097 9.00317 7.55874 9.03422 8.01733C9.11292 9.17888 9.19576 10.3205 9.2969 11.3974H6.91026V5.28473C7.98718 4.96865 8.87573 3.92637 8.87573 2.69177C8.87573 1.2075 7.66303 0 6.17705 0C4.69108 0 3.48779 1.2075 3.48779 2.69177C3.48779 3.92915 4.30769 4.97341 5.47436 5.28688V12.1432C5.47436 12.5397 5.78056 12.8332 6.17705 12.8332H9.4421C9.60077 14.2691 9.80314 15.6153 10.0823 16.9614H5.29182C4.97637 15.7948 3.93212 14.9876 2.695 14.9876C1.20894 14.9877 0 16.1953 0 17.6796C0 19.1638 1.20894 20.3713 2.69491 20.3713C3.93203 20.3713 4.97628 19.5641 5.29173 18.3974H10.4247C10.8092 19.8365 11.3527 21.1712 11.9582 22.5256H6.17705C5.78056 22.5256 5.47436 22.8193 5.47436 23.2158V30.4321C4.30769 30.7469 3.48986 31.7902 3.48986 33.0262C3.48986 34.5105 4.69494 35.7179 6.18091 35.7179C7.66697 35.7179 8.88157 34.5105 8.88157 33.0262C8.88157 31.7902 8.07692 30.7469 6.91026 30.4321V23.9615H12.78C14.6187 26.8333 17.2472 28.856 20.7458 30.1607C20.911 30.2113 21.0876 30.2117 21.2531 30.1619C24.7192 28.8358 27.3293 26.7436 29.162 23.9615H35.2692V30.4321C34.1923 30.7469 33.3147 31.7902 33.3147 33.0262C33.3147 34.5105 34.5349 35.7179 36.0209 35.7179C37.507 35.7179 38.699 34.5105 38.699 33.0262C38.699 31.7902 37.8718 30.7469 36.7051 30.4321V23.2159C36.7051 22.8194 36.4286 22.5257 36.0321 22.5257H29.9886C30.6058 21.1754 31.1478 19.8348 31.5315 18.3975H36.7082C37.0236 19.5642 38.0679 20.3713 39.305 20.3713C40.7911 20.3713 42 19.1638 42 17.6795C42 16.1952 40.7911 14.9877 39.3051 14.9877ZM34.7771 2.69177C34.7771 1.99922 35.3418 1.4359 36.036 1.4359C36.7302 1.4359 37.295 1.99922 37.295 2.69177C37.295 3.38432 36.7302 3.94764 36.036 3.94764C35.3418 3.94764 34.7771 3.38432 34.7771 2.69177ZM4.91418 2.69177C4.91418 1.99922 5.47903 1.4359 6.17319 1.4359C6.86736 1.4359 7.43221 1.99922 7.43221 2.69177C7.43221 3.38432 6.86736 3.94764 6.17319 3.94764C5.47903 3.94764 4.91418 3.38432 4.91418 2.69177ZM2.69491 18.9354C2.00074 18.9354 1.4359 18.372 1.4359 17.6796C1.4359 16.987 2.00074 16.4237 2.69491 16.4237C3.38908 16.4237 3.95392 16.987 3.95392 17.6796C3.95401 18.372 3.38917 18.9354 2.69491 18.9354ZM7.43606 33.0262C7.43606 33.7187 6.87122 34.2821 6.17705 34.2821C5.48288 34.2821 4.91813 33.7187 4.91813 33.0262C4.91813 32.3336 5.48288 31.7703 6.17705 31.7703C6.87122 31.7703 7.43606 32.3336 7.43606 33.0262ZM37.2912 33.0262C37.2912 33.7187 36.7263 34.2821 36.0321 34.2821C35.338 34.2821 34.7731 33.7187 34.7731 33.0262C34.7731 32.3336 35.338 31.7703 36.0321 31.7703C36.7263 31.7703 37.2912 32.3336 37.2912 33.0262ZM10.5302 8.83597C14.4039 9.33522 18.3618 8.12844 20.9695 5.14401C23.7917 7.8803 27.4721 9.49281 31.4436 8.8305C30.7724 18.0569 29.3893 25.3591 20.9934 28.7045C12.5924 25.4378 11.206 18.1095 10.5302 8.83597ZM39.3051 18.9354C38.6109 18.9354 38.0461 18.372 38.0461 17.6796C38.0461 16.987 38.6109 16.4237 39.3051 16.4237C39.9993 16.4237 40.5641 16.987 40.5641 17.6796C40.5641 18.372 39.9993 18.9354 39.3051 18.9354Z" fill="white"/>
</svg>
