<svg width="42" height="42" viewBox="0 0 42 42" fill="none" xmlns="http://www.w3.org/2000/svg">
<path d="M21 22.9688C20.6106 22.9688 20.23 23.0842 19.9062 23.3005C19.5825 23.5169 19.3301 23.8244 19.1811 24.1841C19.0321 24.5438 18.9931 24.9397 19.0691 25.3216C19.145 25.7035 19.3325 26.0543 19.6079 26.3296C19.8832 26.605 20.234 26.7925 20.6159 26.8684C20.9978 26.9444 21.3937 26.9054 21.7534 26.7564C22.1131 26.6074 22.4206 26.355 22.637 26.0313C22.8533 25.7075 22.9688 25.3269 22.9688 24.9375C22.9688 24.4154 22.7613 23.9146 22.3921 23.5454C22.0229 23.1762 21.5221 22.9688 21 22.9688ZM21 25.5938C20.8702 25.5938 20.7433 25.5553 20.6354 25.4832C20.5275 25.411 20.4434 25.3085 20.3937 25.1886C20.344 25.0687 20.331 24.9368 20.3564 24.8095C20.3817 24.6822 20.4442 24.5652 20.536 24.4735C20.6277 24.3817 20.7447 24.3192 20.872 24.2939C20.9993 24.2685 21.1312 24.2815 21.2511 24.3312C21.3711 24.3809 21.4735 24.465 21.5457 24.5729C21.6178 24.6808 21.6563 24.8077 21.6563 24.9375C21.6563 25.1115 21.5871 25.2785 21.464 25.4015C21.341 25.5246 21.174 25.5938 21 25.5938Z" fill="white"/>
<path d="M21 20.3436C20.2114 20.3401 19.4353 20.5415 18.748 20.9282C18.0606 21.3148 17.4855 21.8734 17.0789 22.5492C16.9886 22.698 16.9611 22.8766 17.0024 23.0457C17.0438 23.2148 17.1506 23.3606 17.2994 23.4509C17.4482 23.5412 17.6268 23.5687 17.7959 23.5274C17.965 23.486 18.1108 23.3792 18.2011 23.2304C18.4932 22.7498 18.9042 22.3525 19.3944 22.0768C19.8846 21.8011 20.4376 21.6562 21 21.6562C21.5625 21.6562 22.1154 21.8011 22.6056 22.0768C23.0958 22.3525 23.5068 22.7498 23.7989 23.2304C23.8893 23.3792 24.035 23.486 24.2041 23.5274C24.3732 23.5687 24.5518 23.5412 24.7006 23.4509C24.8494 23.3606 24.9563 23.2148 24.9976 23.0457C25.039 22.8766 25.0114 22.698 24.9211 22.5492C24.5146 21.8734 23.9394 21.3148 23.2521 20.9282C22.5647 20.5415 21.7887 20.3401 21 20.3436Z" fill="white"/>
<path d="M21 17.7185C19.8787 17.7149 18.7721 17.9742 17.7692 18.4757C16.7663 18.9772 15.8949 19.7068 15.225 20.606C15.1206 20.7453 15.0757 20.9203 15.1003 21.0926C15.125 21.2649 15.217 21.4204 15.3563 21.5248C15.4955 21.6292 15.6705 21.6741 15.8428 21.6494C16.0151 21.6248 16.1706 21.5328 16.275 21.3935C16.8252 20.66 17.5385 20.0646 18.3586 19.6546C19.1788 19.2445 20.0831 19.031 21 19.031C21.9169 19.031 22.8212 19.2445 23.6414 19.6546C24.4615 20.0646 25.1749 20.66 25.725 21.3935C25.7767 21.4625 25.8415 21.5206 25.9156 21.5645C25.9898 21.6084 26.0719 21.6373 26.1572 21.6494C26.2425 21.6616 26.3294 21.6569 26.4129 21.6355C26.4964 21.6141 26.5748 21.5765 26.6438 21.5248C26.7127 21.4731 26.7708 21.4083 26.8147 21.3341C26.8586 21.26 26.8875 21.1779 26.8997 21.0926C26.9118 21.0073 26.9071 20.9204 26.8857 20.8369C26.8643 20.7534 26.8267 20.675 26.775 20.606C26.1051 19.7068 25.2337 18.9772 24.2308 18.4757C23.2279 17.9742 22.1213 17.7149 21 17.7185Z" fill="white"/>
<path d="M21 16.4061C22.2658 16.4038 23.516 16.685 24.6589 17.2291C25.8018 17.7731 26.8083 18.5663 27.6045 19.5502C27.6589 19.6171 27.7259 19.6726 27.8018 19.7136C27.8776 19.7545 27.9608 19.7802 28.0465 19.789C28.1322 19.7979 28.2189 19.7897 28.3015 19.7651C28.3841 19.7404 28.461 19.6997 28.5279 19.6454C28.5948 19.591 28.6503 19.524 28.6912 19.4481C28.7322 19.3723 28.7578 19.2891 28.7667 19.2034C28.7755 19.1177 28.7674 19.031 28.7427 18.9484C28.7181 18.8658 28.6774 18.7889 28.623 18.722C27.7021 17.5886 26.5399 16.6747 25.2212 16.0471C23.9025 15.4194 22.4605 15.0938 21 15.0938C19.5396 15.0938 18.0975 15.4194 16.7788 16.0471C15.4601 16.6747 14.298 17.5886 13.377 18.722C13.2672 18.8571 13.2155 19.0302 13.2334 19.2034C13.2512 19.3766 13.3371 19.5355 13.4722 19.6454C13.6072 19.7552 13.7804 19.8069 13.9536 19.789C14.1267 19.7712 14.2857 19.6853 14.3955 19.5502C15.1918 18.5663 16.1983 17.7731 17.3412 17.2291C18.484 16.685 19.7343 16.4038 21 16.4061Z" fill="white"/>
<path d="M32.1228 21.6561H35.5031C35.6658 22.4528 36.1184 23.1608 36.7734 23.6427C37.4283 24.1247 38.2389 24.3462 39.0479 24.2645C39.8569 24.1828 40.6068 23.8036 41.1521 23.2004C41.6974 22.5972 41.9993 21.813 41.9993 20.9999C41.9993 20.1867 41.6974 19.4026 41.1521 18.7994C40.6068 18.1962 39.8569 17.817 39.0479 17.7352C38.2389 17.6535 37.4283 17.8751 36.7734 18.357C36.1184 18.839 35.6658 19.5469 35.5031 20.3436H32.1228C31.9785 17.8449 30.9932 15.4685 29.3272 13.6007L33.5344 9.39213C34.5925 10.2145 35.9243 10.6026 37.2585 10.4774C38.5927 10.3522 39.8291 9.7232 40.7158 8.7184C41.6024 7.7136 42.0728 6.40861 42.031 5.06917C41.9892 3.72973 41.4385 2.45658 40.4909 1.509C39.5433 0.561412 38.2702 0.0106495 36.9307 -0.0311287C35.5913 -0.072907 34.2863 0.397441 33.2815 1.28413C32.2767 2.17082 31.6476 3.40717 31.5225 4.7414C31.3973 6.07563 31.7854 7.4074 32.6078 8.46551L28.3992 12.674C26.5316 11.0075 24.1551 10.0218 21.6563 9.8771V6.49676C22.453 6.33413 23.1609 5.88146 23.6429 5.22653C24.1248 4.57159 24.3464 3.76103 24.2646 2.95201C24.1829 2.14298 23.8037 1.39312 23.2005 0.847798C22.5973 0.302478 21.8131 0.000550967 21 0.000550967C20.1869 0.000550967 19.4027 0.302478 18.7995 0.847798C18.1963 1.39312 17.8171 2.14298 17.7354 2.95201C17.6536 3.76103 17.8752 4.57159 18.3572 5.22653C18.8391 5.88146 19.547 6.33413 20.3438 6.49676V9.87776C17.845 10.0221 15.4686 11.0073 13.6008 12.6734L9.39225 8.46551C10.2146 7.4074 10.6027 6.07563 10.4775 4.7414C10.3524 3.40717 9.72332 2.17082 8.71852 1.28413C7.71373 0.397441 6.40873 -0.072907 5.06929 -0.0311287C3.72985 0.0106495 2.45671 0.561412 1.50912 1.509C0.561534 2.45658 0.0107716 3.72973 -0.0310067 5.06917C-0.0727849 6.40861 0.397563 7.7136 1.28425 8.7184C2.17094 9.7232 3.40729 10.3522 4.74152 10.4774C6.07575 10.6026 7.40752 10.2145 8.46563 9.39213L12.6742 13.6007C11.0076 15.4683 10.0219 17.8448 9.87722 20.3436H6.49688C6.33425 19.5469 5.88159 18.839 5.22665 18.357C4.57171 17.8751 3.76115 17.6535 2.95213 17.7352C2.1431 17.817 1.39324 18.1962 0.84792 18.7994C0.3026 19.4026 0.000673037 20.1867 0.000673037 20.9999C0.000673037 21.813 0.3026 22.5972 0.84792 23.2004C1.39324 23.8036 2.1431 24.1828 2.95213 24.2645C3.76115 24.3462 4.57171 24.1247 5.22665 23.6427C5.88159 23.1608 6.33425 22.4528 6.49688 21.6561H9.87788C10.0222 24.1549 11.0075 26.5313 12.6735 28.3991L8.46563 32.6076C7.40752 31.7853 6.07575 31.3972 4.74152 31.5224C3.40729 31.6475 2.17094 32.2766 1.28425 33.2814C0.397563 34.2862 -0.0727849 35.5912 -0.0310067 36.9306C0.0107716 38.27 0.561534 39.5432 1.50912 40.4908C2.45671 41.4384 3.72985 41.9891 5.06929 42.0309C6.40873 42.0727 7.71373 41.6023 8.71852 40.7156C9.72332 39.8289 10.3524 38.5926 10.4775 37.2584C10.6027 35.9241 10.2146 34.5924 9.39225 33.5343L13.6008 29.3257C15.4684 30.9922 17.8449 31.978 20.3438 32.1227V35.503C19.547 35.6656 18.8391 36.1183 18.3572 36.7732C17.8752 37.4282 17.6536 38.2387 17.7354 39.0478C17.8171 39.8568 18.1963 40.6066 18.7995 41.152C19.4027 41.6973 20.1869 41.9992 21 41.9992C21.8131 41.9992 22.5973 41.6973 23.2005 41.152C23.8037 40.6066 24.1829 39.8568 24.2646 39.0478C24.3464 38.2387 24.1248 37.4282 23.6429 36.7732C23.1609 36.1183 22.453 35.6656 21.6563 35.503V32.1227C24.155 31.9783 26.5314 30.9931 28.3992 29.327L32.6078 33.5343C31.7854 34.5924 31.3973 35.9241 31.5225 37.2584C31.6476 38.5926 32.2767 39.8289 33.2815 40.7156C34.2863 41.6023 35.5913 42.0727 36.9307 42.0309C38.2702 41.9891 39.5433 41.4384 40.4909 40.4908C41.4385 39.5432 41.9892 38.27 42.031 36.9306C42.0728 35.5912 41.6024 34.2862 40.7158 33.2814C39.8291 32.2766 38.5927 31.6475 37.2585 31.5224C35.9243 31.3972 34.5925 31.7853 33.5344 32.6076L29.3258 28.3991C30.9924 26.5315 31.9781 24.155 32.1228 21.6561ZM38.7188 19.0311C39.1081 19.0311 39.4888 19.1466 39.8125 19.3629C40.1363 19.5793 40.3886 19.8867 40.5376 20.2465C40.6866 20.6062 40.7256 21.0021 40.6497 21.384C40.5737 21.7659 40.3862 22.1167 40.1109 22.392C39.8355 22.6673 39.4847 22.8548 39.1028 22.9308C38.7209 23.0068 38.3251 22.9678 37.9653 22.8188C37.6056 22.6698 37.2981 22.4174 37.0818 22.0937C36.8655 21.7699 36.75 21.3893 36.75 20.9999C36.75 20.4777 36.9574 19.977 37.3266 19.6078C37.6959 19.2386 38.1966 19.0311 38.7188 19.0311ZM36.75 1.31238C37.5288 1.31238 38.29 1.54331 38.9376 1.97597C39.5851 2.40863 40.0898 3.02358 40.3878 3.74307C40.6858 4.46255 40.7638 5.25425 40.6118 6.01805C40.4599 6.78185 40.0849 7.48344 39.5342 8.03411C38.9836 8.58478 38.282 8.95979 37.5182 9.11172C36.7544 9.26365 35.9627 9.18568 35.2432 8.88766C34.5237 8.58964 33.9087 8.08496 33.4761 7.43744C33.0434 6.78992 32.8125 6.02865 32.8125 5.24988C32.8135 4.20591 33.2287 3.205 33.9669 2.4668C34.7051 1.7286 35.706 1.31342 36.75 1.31238ZM19.0313 3.28113C19.0313 2.89175 19.1467 2.51111 19.363 2.18735C19.5794 1.86359 19.8869 1.61125 20.2466 1.46224C20.6063 1.31323 21.0022 1.27425 21.3841 1.35021C21.766 1.42617 22.1168 1.61368 22.3921 1.88901C22.6675 2.16435 22.855 2.51515 22.9309 2.89705C23.0069 3.27895 22.9679 3.6748 22.8189 4.03454C22.6699 4.39428 22.4175 4.70176 22.0938 4.91809C21.77 5.13442 21.3894 5.24988 21 5.24988C20.4779 5.24988 19.9771 5.04246 19.6079 4.67325C19.2387 4.30404 19.0313 3.80328 19.0313 3.28113ZM1.3125 5.24988C1.3125 4.47112 1.54343 3.70984 1.97609 3.06232C2.40875 2.41481 3.0237 1.91013 3.74319 1.61211C4.46267 1.31409 5.25437 1.23611 6.01817 1.38804C6.78197 1.53997 7.48357 1.91498 8.03424 2.46565C8.58491 3.01632 8.95992 3.71791 9.11185 4.48171C9.26377 5.24551 9.1858 6.03721 8.88778 6.7567C8.58976 7.47618 8.08508 8.09113 7.43756 8.52379C6.79004 8.95645 6.02877 9.18738 5.25 9.18738C4.20603 9.18634 3.20512 8.77116 2.46692 8.03296C1.72872 7.29476 1.31355 6.29385 1.3125 5.24988ZM3.28125 22.9686C2.89187 22.9686 2.51123 22.8532 2.18747 22.6368C1.86372 22.4205 1.61138 22.113 1.46237 21.7533C1.31336 21.3935 1.27437 20.9977 1.35033 20.6158C1.4263 20.2339 1.6138 19.8831 1.88914 19.6078C2.16447 19.3324 2.51527 19.1449 2.89717 19.069C3.27907 18.993 3.67492 19.032 4.03466 19.181C4.3944 19.33 4.70188 19.5823 4.91821 19.9061C5.13454 20.2299 5.25 20.6105 5.25 20.9999C5.25 21.522 5.04258 22.0228 4.67337 22.392C4.30416 22.7612 3.8034 22.9686 3.28125 22.9686ZM21 11.1561C22.9469 11.1561 24.8501 11.7335 26.4689 12.8151C28.0877 13.8967 29.3494 15.4341 30.0944 17.2328C30.8395 19.0316 31.0344 21.0108 30.6546 22.9203C30.2748 24.8298 29.3373 26.5838 27.9606 27.9605C26.5839 29.3371 24.8299 30.2747 22.9204 30.6545C21.0109 31.0343 19.0317 30.8394 17.233 30.0943C15.4343 29.3493 13.8969 28.0876 12.8152 26.4688C11.7336 24.85 11.1563 22.9468 11.1563 20.9999C11.1592 18.3901 12.1973 15.888 14.0427 14.0426C15.8881 12.1971 18.3902 11.1591 21 11.1561ZM5.25 40.6874C4.47124 40.6874 3.70996 40.4565 3.06245 40.0238C2.41493 39.5911 1.91025 38.9762 1.61223 38.2567C1.31421 37.5372 1.23623 36.7455 1.38816 35.9817C1.54009 35.2179 1.9151 34.5163 2.46577 33.9656C3.01644 33.415 3.71804 33.04 4.48184 32.888C5.24564 32.7361 6.03733 32.8141 6.75682 33.1121C7.4763 33.4101 8.09126 33.9148 8.52391 34.5623C8.95657 35.2098 9.1875 35.9711 9.1875 36.7499C9.18646 37.7938 8.77128 38.7948 8.03308 39.533C7.29489 40.2712 6.29397 40.6863 5.25 40.6874ZM22.9688 38.7186C22.9688 39.108 22.8533 39.4887 22.637 39.8124C22.4206 40.1362 22.1132 40.3885 21.7534 40.5375C21.3937 40.6865 20.9978 40.7255 20.6159 40.6496C20.234 40.5736 19.8832 40.3861 19.6079 40.1107C19.3326 39.8354 19.145 39.4846 19.0691 39.1027C18.9931 38.7208 19.0321 38.325 19.1811 37.9652C19.3301 37.6055 19.5825 37.298 19.9062 37.0817C20.23 36.8653 20.6106 36.7499 21 36.7499C21.5221 36.7499 22.0229 36.9573 22.3921 37.3265C22.7613 37.6957 22.9688 38.1965 22.9688 38.7186ZM40.6875 36.7499C40.6875 37.5286 40.4566 38.2899 40.0239 38.9374C39.5913 39.585 38.9763 40.0896 38.2568 40.3877C37.5373 40.6857 36.7456 40.7637 35.9818 40.6117C35.218 40.4598 34.5164 40.0848 33.9658 39.5341C33.4151 38.9834 33.0401 38.2819 32.8882 37.5181C32.7362 36.7542 32.8142 35.9626 33.1122 35.2431C33.4102 34.5236 33.9149 33.9086 34.5624 33.476C35.21 33.0433 35.9712 32.8124 36.75 32.8124C37.794 32.8134 38.7949 33.2286 39.5331 33.9668C40.2713 34.705 40.6865 35.7059 40.6875 36.7499Z" fill="white"/>
</svg>
