<svg width="40" height="40" viewBox="0 0 40 40" fill="none" xmlns="http://www.w3.org/2000/svg">
<path d="M39.3397 37.1831L31.3581 22.6013C31.6436 21.7793 31.8519 20.9311 32.0004 20.0673H34.2841L36.1766 23.4388C35.796 23.8014 35.5589 24.3124 35.5589 24.8784C35.5589 25.976 36.4514 26.8685 37.549 26.8685C38.6466 26.8685 39.5391 25.976 39.5391 24.8784C39.5391 23.7809 38.6466 22.8884 37.549 22.8884C37.371 22.8884 37.1987 22.9121 37.0346 22.9564L35.0019 19.3348C34.9591 19.2586 34.8969 19.1952 34.8214 19.1511C34.746 19.1069 34.6603 19.0837 34.5729 19.0838H32.1439C32.2826 17.9435 32.3318 16.7861 32.3326 15.6376H35.4703C35.6902 16.4973 36.4711 17.1355 37.3989 17.1355C38.4964 17.1355 39.3889 16.243 39.3889 15.1454C39.3889 14.0479 38.4964 13.1554 37.3989 13.1554C36.4711 13.1554 35.6902 13.7936 35.4703 14.6532H32.3228C32.3039 13.7312 32.2612 12.8215 32.2161 11.9372H34.5721C34.7263 11.9372 34.8715 11.865 34.9642 11.7428L36.7754 9.35566C37.0133 9.45656 37.275 9.51234 37.549 9.51234C38.6466 9.51234 39.5391 8.61984 39.5391 7.52227C39.5391 6.42469 38.6466 5.53219 37.549 5.53219C36.4514 5.53219 35.5589 6.42469 35.5589 7.52227C35.5589 7.98984 35.7213 8.41969 35.992 8.76012L34.3276 10.9536H32.1653C32.162 10.8938 32.1587 10.8339 32.1562 10.774L32.0357 8.34012C32.0302 8.22774 31.9863 8.12065 31.9113 8.03674C31.8364 7.95283 31.7349 7.89719 31.6239 7.8791L29.2745 7.49438L32.3991 3.78246C32.6607 3.90961 32.9544 3.98098 33.2645 3.98098C34.3621 3.98098 35.2546 3.08848 35.2546 1.9909C35.2546 0.89332 34.3621 0.000820331 33.2645 0.000820331C32.1669 0.000820331 31.2744 0.89332 31.2744 1.9909C31.2744 2.42238 31.413 2.82188 31.6468 3.14836L28.3279 7.08996C28.1507 6.91031 28.0161 6.66094 27.8865 6.30574L27.1646 4.31977C27.1301 4.22482 27.0671 4.1428 26.9844 4.08484C26.9016 4.02688 26.803 3.99577 26.702 3.99574H12.8362C12.6295 3.99574 12.4441 4.12535 12.3736 4.31977L11.6517 6.30574C11.5229 6.66094 11.3876 6.91031 11.2104 7.08996L7.89141 3.14754C8.13376 2.81027 8.26403 2.40539 8.26383 1.99008C8.26383 0.8925 7.37133 0 6.27375 0C5.17617 0 4.28367 0.8925 4.28367 1.99008C4.28367 3.08766 5.17617 3.98016 6.27375 3.98016C6.58383 3.98016 6.8775 3.90879 7.13918 3.78164L10.2638 7.49356L7.91438 7.87828C7.80339 7.89651 7.702 7.9522 7.62708 8.03608C7.55215 8.11996 7.50821 8.22697 7.50258 8.3393L7.38199 10.7732C7.37871 10.833 7.37625 10.8929 7.37297 10.9528H5.21145L3.54703 8.7593C3.81773 8.41887 3.98016 7.98902 3.98016 7.52145C3.98016 6.42387 3.08766 5.53137 1.99008 5.53137C0.8925 5.53055 0 6.42387 0 7.52145C0 8.61902 0.8925 9.51152 1.99008 9.51152C2.26406 9.51152 2.52574 9.45574 2.76363 9.35485L4.57488 11.742C4.66758 11.865 4.81277 11.9364 4.96699 11.9364H7.32293C7.27781 12.8207 7.23516 13.7304 7.21629 14.6524H4.06875C3.84891 13.7919 3.06797 13.1545 2.1402 13.1545C1.04262 13.1545 0.150117 14.047 0.150117 15.1446C0.150117 16.2422 1.04262 17.1347 2.1402 17.1347C3.06797 17.1347 3.84891 16.4965 4.06875 15.6368H7.20645C7.20727 16.7844 7.25648 17.9419 7.39512 19.0829H4.96699C4.78898 19.0829 4.62492 19.1789 4.53797 19.3339L2.50523 22.9556C2.34117 22.9113 2.16891 22.8875 1.9909 22.8875C0.89332 22.8875 0.000820331 23.78 0.000820331 24.8776C0.000820331 25.9752 0.89332 26.8677 1.9909 26.8677C3.08848 26.8677 3.98098 25.9752 3.98098 24.8776C3.98098 24.3116 3.74309 23.8005 3.36328 23.438L5.25574 20.0665H7.54031C7.70602 21.0304 7.94473 21.9762 8.28434 22.8867C8.82492 24.3379 9.57797 25.6216 10.468 26.7709L7.0432 29.7207C6.70977 29.4865 6.3121 29.361 5.90461 29.3614C4.80703 29.3614 3.91453 30.2539 3.91453 31.3515C3.91453 32.4491 4.80703 33.3416 5.90461 33.3416C7.00219 33.3416 7.89469 32.4491 7.89469 31.3515C7.89469 31.0332 7.81922 30.733 7.68633 30.4664L11.0931 27.5322C13.0709 29.802 15.5777 31.5164 17.9566 32.9544L18.9418 33.55L16.9534 37.1823C16.677 37.6876 16.6868 38.2618 16.9805 38.7573C17.2741 39.2528 17.7729 39.5374 18.3496 39.5374H37.9452C38.5211 39.5374 39.0206 39.2528 39.3143 38.7573C39.6063 38.2627 39.6162 37.6884 39.3397 37.1831ZM38.5547 24.8784C38.5547 25.433 38.1035 25.8841 37.549 25.8841C36.9945 25.8841 36.5433 25.433 36.5433 24.8784C36.5433 24.3239 36.9945 23.8727 37.549 23.8727C38.1035 23.8727 38.5547 24.3239 38.5547 24.8784ZM37.3989 14.1389C37.9534 14.1389 38.4046 14.5901 38.4046 15.1446C38.4046 15.6991 37.9534 16.1503 37.3989 16.1503C36.8443 16.1503 36.3932 15.6991 36.3932 15.1446C36.3932 14.5901 36.8443 14.1389 37.3989 14.1389ZM37.549 6.51492C38.1035 6.51492 38.5547 6.96609 38.5547 7.52063C38.5547 8.07516 38.1035 8.52633 37.549 8.52633C36.9945 8.52633 36.5433 8.07516 36.5433 7.52063C36.5433 6.96609 36.9945 6.51492 37.549 6.51492ZM0.984375 7.52145C0.984375 6.96691 1.43555 6.51574 1.99008 6.51574C2.54461 6.51574 2.99578 6.96691 2.99578 7.52145C2.99578 8.07598 2.54461 8.52715 1.99008 8.52715C1.43555 8.52715 0.984375 8.07598 0.984375 7.52145ZM2.1402 16.1503C1.58566 16.1503 1.13449 15.6991 1.13449 15.1446C1.13449 14.5901 1.58566 14.1389 2.1402 14.1389C2.69473 14.1389 3.1459 14.5901 3.1459 15.1446C3.1459 15.6991 2.69473 16.1503 2.1402 16.1503ZM1.99008 25.8841C1.43555 25.8841 0.984375 25.433 0.984375 24.8784C0.984375 24.3239 1.43555 23.8727 1.99008 23.8727C2.54461 23.8727 2.99578 24.3239 2.99578 24.8784C2.99578 25.433 2.54461 25.8841 1.99008 25.8841ZM5.90297 32.358C5.34844 32.358 4.89727 31.9069 4.89727 31.3523C4.89727 30.7978 5.34844 30.3466 5.90297 30.3466C6.4575 30.3466 6.90867 30.7978 6.90867 31.3523C6.90867 31.9069 6.4575 32.358 5.90297 32.358ZM33.2645 0.983555C33.819 0.983555 34.2702 1.43473 34.2702 1.98926C34.2702 2.54379 33.819 2.99496 33.2645 2.99496C32.71 2.99496 32.2588 2.54379 32.2588 1.98926C32.2588 1.43473 32.71 0.983555 33.2645 0.983555ZM5.26887 1.98926C5.26887 1.43473 5.72004 0.983555 6.27457 0.983555C6.8291 0.983555 7.28027 1.43473 7.28027 1.98926C7.28027 2.54379 6.8291 2.99496 6.27457 2.99496C5.72004 2.99496 5.26887 2.54379 5.26887 1.98926ZM18.4636 32.112C14.8296 29.916 10.888 27.0613 9.20473 22.5438C7.93734 19.1412 8.13586 15.2832 8.32781 11.5525C8.34012 11.308 8.35324 11.0636 8.36473 10.8216L8.46562 8.78555L10.4779 8.45578C11.5648 8.27777 12.1726 7.75195 12.5762 6.64125L13.1808 4.9793H26.3575L26.962 6.64125C27.3656 7.75195 27.9735 8.27777 29.0604 8.45578L31.0726 8.78555L31.1735 10.8216C31.1858 11.0636 31.1981 11.308 31.2104 11.5525C31.3811 14.8706 31.5558 18.2897 30.7002 21.4003L29.5411 19.2823C29.4377 19.0936 29.3024 18.9328 29.1449 18.8048C29.4238 16.5793 29.3016 14.1061 29.1482 11.0119L29.1441 10.9225C29.1386 10.8101 29.0947 10.703 29.0197 10.6191C28.9448 10.5352 28.8433 10.4795 28.7323 10.4614C26.9128 10.1637 25.7086 9.14074 25.0523 7.33606C25.0178 7.24111 24.9548 7.15909 24.8721 7.10113C24.7893 7.04317 24.6907 7.01206 24.5897 7.01203H14.9494C14.7427 7.01203 14.5573 7.14164 14.4867 7.33606C13.8305 9.14074 12.6271 10.1637 10.8068 10.4614C10.6958 10.4797 10.5944 10.5354 10.5195 10.6192C10.4446 10.7031 10.4006 10.8101 10.395 10.9225L10.3909 11.0111C10.1645 15.5794 10.0004 18.8803 11.121 21.8646C12.2907 24.9802 14.8017 27.5248 19.5152 30.3729C19.5932 30.4205 19.6818 30.4434 19.7695 30.4434C19.8573 30.4434 19.9459 30.4196 20.0238 30.3729C20.3659 30.1662 20.6965 29.9603 21.0172 29.7552L19.4135 32.6854L18.4636 32.112ZM22.0484 27.8726C21.3667 28.3607 20.6021 28.8652 19.7695 29.3754C15.4252 26.7143 13.1078 24.3543 12.0422 21.5184C11.0168 18.7876 11.1464 15.654 11.3589 11.3564C13.2111 10.9413 14.5302 9.8134 15.2857 7.99559H24.2525C25.008 9.8134 26.3271 10.9413 28.1794 11.3564C28.318 14.1602 28.4197 16.4399 28.195 18.4562C28.1786 18.4554 28.1621 18.4546 28.1457 18.4546C27.5551 18.4546 27.0334 18.7638 26.7496 19.2814L22.0484 27.8726ZM38.4661 38.2561C38.3504 38.4505 38.17 38.5539 37.9444 38.5539H18.3479C18.1215 38.5539 17.9411 38.4513 17.8262 38.2561C17.7105 38.0617 17.7073 37.8533 17.8155 37.6556L27.6134 19.7548C27.7249 19.5513 27.9136 19.4389 28.1457 19.4389C28.3779 19.4389 28.5666 19.5513 28.6781 19.7548L38.4759 37.6556C38.585 37.8541 38.5809 38.0617 38.4661 38.2561ZM28.108 24.1516C27.5805 24.1516 27.0539 24.3846 26.6995 24.7751C26.3747 25.1327 26.2197 25.5839 26.2639 26.0449L26.9276 32.9159C26.9522 33.1685 27.1638 33.3605 27.4173 33.3605H28.7971C29.0505 33.3605 29.263 33.1677 29.2868 32.9159L29.9504 26.0449C29.9947 25.5839 29.8405 25.1336 29.5157 24.7751C29.1613 24.3846 28.6355 24.1516 28.108 24.1516ZM28.971 25.9498L28.3508 32.3761H27.8652L27.245 25.9498C27.2229 25.7176 27.3328 25.5421 27.4288 25.4363C27.5994 25.2484 27.8537 25.136 28.108 25.136C28.3623 25.136 28.6166 25.2484 28.7872 25.4363C28.8832 25.5421 28.9939 25.7176 28.971 25.9498ZM28.108 34.4047C27.341 34.4047 26.7176 35.0282 26.7176 35.7952C26.7176 36.5621 27.341 37.1856 28.108 37.1856C28.875 37.1856 29.4984 36.5621 29.4984 35.7952C29.4984 35.0282 28.8742 34.4047 28.108 34.4047ZM28.108 36.2004C27.8841 36.2004 27.702 36.0183 27.702 35.7943C27.702 35.5704 27.8841 35.3883 28.108 35.3883C28.332 35.3883 28.5141 35.5704 28.5141 35.7943C28.5141 36.0183 28.332 36.2004 28.108 36.2004Z" fill="white"/>
</svg>
