<svg width="36" height="39" viewBox="0 0 36 39" fill="none" xmlns="http://www.w3.org/2000/svg">
<path d="M7.4511 3.73886C7.63135 3.91911 7.8676 4.0088 8.10298 4.0088C8.28532 4.00894 8.4636 3.95498 8.61525 3.85375C8.7669 3.75252 8.88511 3.60857 8.95491 3.44012C9.0247 3.27167 9.04295 3.0863 9.00734 2.90747C8.97173 2.72865 8.88386 2.56441 8.75485 2.43555L6.58923 0.269925C6.50365 0.184348 6.40206 0.116465 6.29025 0.0701512C6.17843 0.0238374 6.0586 1.27519e-09 5.93757 0C5.81655 -1.27519e-09 5.69671 0.0238374 5.5849 0.0701512C5.47309 0.116465 5.37149 0.184348 5.28592 0.269925C5.20034 0.355502 5.13246 0.457096 5.08614 0.568907C5.03983 0.680719 5.01599 0.800557 5.01599 0.921581C5.01599 1.0426 5.03983 1.16244 5.08614 1.27425C5.13246 1.38607 5.20034 1.48766 5.28592 1.57324L7.4511 3.73886ZM27.3924 4.00924C27.6286 4.00924 27.8649 3.91911 28.0451 3.7393L30.2107 1.57367C30.2963 1.4881 30.3642 1.3865 30.4105 1.27469C30.4568 1.16288 30.4807 1.04304 30.4807 0.922019C30.4807 0.800995 30.4568 0.681156 30.4105 0.569345C30.3642 0.457533 30.2963 0.355939 30.2107 0.270362C30.1252 0.184786 30.0236 0.116902 29.9117 0.0705886C29.7999 0.0242749 29.6801 0.000437466 29.5591 0.000437468C29.438 0.000437471 29.3182 0.0242749 29.2064 0.0705886C29.0946 0.116902 28.993 0.184786 28.9074 0.270362L26.7409 2.43599C26.6119 2.56482 26.5241 2.72902 26.4885 2.9078C26.4528 3.08659 26.471 3.27192 26.5408 3.44035C26.6105 3.60879 26.7287 3.75274 26.8802 3.85401C27.0318 3.95527 27.2101 4.00929 27.3924 4.00924ZM17.4812 7.63217C17.8872 7.62343 18.2885 7.71978 18.6463 7.91188C19.0041 8.10398 19.3061 8.38531 19.523 8.72855C19.5874 8.83127 19.6713 8.92027 19.7702 8.99044C19.869 9.06061 19.9807 9.11057 20.0989 9.13744C20.217 9.16431 20.3394 9.16757 20.4588 9.14703C20.5782 9.12648 20.6924 9.08255 20.7949 9.01774C21.0017 8.8876 21.1483 8.68064 21.2026 8.44238C21.2568 8.20411 21.2142 7.95407 21.084 7.74724C20.2983 6.49905 18.8839 5.74261 17.4305 5.78899C17.186 5.79574 16.9543 5.89925 16.7861 6.07677C16.618 6.25428 16.5271 6.4913 16.5336 6.73574C16.5485 7.24367 16.975 7.60505 17.4812 7.63217Z" fill="white"/>
<path d="M33.9172 9.33048C31.5039 8.93542 29.0312 8.91792 26.5532 9.23511C26.2662 7.31798 25.3995 5.5496 23.9824 4.17017C22.239 2.4731 19.9386 1.56923 17.5039 1.6401C13.181 1.75473 9.59831 5.05917 8.94556 9.23248C6.43912 8.90217 3.84606 8.93367 1.55444 9.33398C0.639188 9.50854 0 10.2794 0 11.2091V35.9882C0 36.3597 0.182438 36.7053 0.490875 36.9135C0.682063 37.043 1.07931 37.1139 1.31031 37.0833L2.22863 36.9472C6.90856 36.2717 11.5566 36.6309 16.0488 38.0222L17.4781 38.4601C17.5656 38.4864 17.6571 38.4999 17.7481 38.4999C17.8461 38.4999 18.3256 38.3569 18.3256 38.3569C23.1144 36.6992 28.2638 36.214 33.2238 36.9468C33.2238 36.9468 33.7956 36.9822 33.9802 37.0277C34.3341 37.1157 34.7016 37.12 35.0057 36.9131C35.259 36.742 35.4966 36.294 35.4966 35.9878V11.2087C35.4961 10.279 34.8569 9.5081 33.9172 9.33048ZM17.5534 3.48329C17.6186 3.4811 17.6838 3.4811 17.7494 3.4811C19.6096 3.4811 21.3601 4.19029 22.6958 5.49142C23.3776 6.15048 23.9192 6.94054 24.288 7.81415C24.6568 8.68775 24.8453 9.62689 24.8421 10.5752C24.8421 12.5514 24.0083 14.4527 22.5527 15.7919C21.7311 16.5492 21.2787 17.5432 21.2787 18.5924C21.278 19.1449 21.0582 19.6747 20.6675 20.0654C20.2767 20.4561 19.747 20.6759 19.1944 20.6766H18.669V15.83C18.6616 15.5904 18.5613 15.3631 18.3892 15.1963C18.2171 15.0294 17.9869 14.9361 17.7472 14.9361C17.5075 14.9361 17.2772 15.0294 17.1052 15.1963C16.9331 15.3631 16.8328 15.5904 16.8254 15.83V20.6762H16.2999C15.7474 20.6755 15.2176 20.4557 14.8269 20.0649C14.4362 19.6742 14.2164 19.1445 14.2157 18.5919C14.2157 17.5419 13.7633 16.5479 12.9417 15.7915C12.2136 15.1202 11.6338 14.3042 11.2395 13.3957C10.8453 12.4872 10.6452 11.5064 10.6523 10.5161C10.6833 6.73829 13.7786 3.58348 17.5534 3.48329ZM17.7503 25.1312C17.1658 25.1304 16.6056 24.8978 16.1924 24.4844C15.7793 24.071 15.547 23.5107 15.5466 22.9262V22.4437C15.7945 22.4933 16.0467 22.5188 16.2995 22.5198H19.1944C19.4431 22.5183 19.6912 22.4933 19.9351 22.445V22.9262C19.9351 24.142 18.9547 25.1312 17.7503 25.1312ZM1.96088 35.1224L1.84494 35.1417L1.8865 11.1483C4.01581 10.7777 6.49337 10.7528 8.86462 11.0796C8.99763 13.3865 9.98331 15.5767 11.6931 17.1495C12.131 17.5511 12.3716 18.0647 12.3716 18.5924C12.3716 19.7592 12.8927 20.7965 13.7021 21.5166V22.9267C13.7021 24.8403 15.0404 26.438 16.8263 26.8589V36.3321L16.5909 36.2604C11.8379 34.786 6.91731 34.404 1.96088 35.1224ZM33.6525 35.1447L33.488 35.1224C28.5596 34.3896 23.4623 34.845 18.6699 36.3487V26.8585C20.4483 26.438 21.7796 24.8403 21.7796 22.9262V21.5267C22.5969 20.8065 23.1223 19.7644 23.1223 18.5919C23.1223 18.0639 23.3643 17.5507 23.8022 17.1477C25.5084 15.5775 26.4998 13.3857 26.6328 11.0814C28.9853 10.7664 31.3351 10.7817 33.6525 11.2087V35.1447Z" fill="white"/>
<path d="M5.5646 19.0763H8.5291C8.76867 19.0689 8.99595 18.9686 9.1628 18.7965C9.32964 18.6244 9.42295 18.3942 9.42295 18.1545C9.42295 17.9148 9.32964 17.6845 9.1628 17.5125C8.99595 17.3404 8.76867 17.24 8.5291 17.2327H5.5646C5.32504 17.24 5.09776 17.3404 4.93091 17.5125C4.76407 17.6845 4.67076 17.9148 4.67076 18.1545C4.67076 18.3942 4.76407 18.6244 4.93091 18.7965C5.09776 18.9686 5.32504 19.0689 5.5646 19.0763ZM5.5646 24.8622H10.833C11.0775 24.8622 11.3119 24.7651 11.4848 24.5922C11.6577 24.4194 11.7548 24.1849 11.7548 23.9404C11.7548 23.6959 11.6577 23.4615 11.4848 23.2886C11.3119 23.1157 11.0775 23.0186 10.833 23.0186H5.5646C5.05492 23.0186 4.64148 23.4316 4.64148 23.9404C4.64148 24.4492 5.05492 24.8622 5.5646 24.8622ZM12.3332 28.4322H5.5646C5.05492 28.4322 4.64148 28.8452 4.64148 29.354C4.64148 29.8629 5.05448 30.2759 5.5646 30.2759H12.3332C12.5727 30.2685 12.8 30.1681 12.9669 29.996C13.1337 29.824 13.227 29.5937 13.227 29.354C13.227 29.1144 13.1337 28.8841 12.9669 28.712C12.8 28.54 12.5727 28.4396 12.3332 28.4322ZM26.0466 18.5268C26.0466 19.0356 26.4596 19.4486 26.9697 19.4486H29.9334C30.1729 19.4412 30.4002 19.3409 30.567 19.1688C30.7339 18.9967 30.8272 18.7665 30.8272 18.5268C30.8272 18.2871 30.7339 18.0568 30.567 17.8848C30.4002 17.7127 30.1729 17.6124 29.9334 17.605H26.9697C26.4596 17.605 26.0466 18.018 26.0466 18.5268ZM29.9316 23.0186H24.6632C24.4187 23.0186 24.1843 23.1157 24.0114 23.2886C23.8385 23.4615 23.7414 23.6959 23.7414 23.9404C23.7414 24.1849 23.8385 24.4194 24.0114 24.5922C24.1843 24.7651 24.4187 24.8622 24.6632 24.8622H29.9316C30.4413 24.8622 30.8547 24.4492 30.8547 23.9404C30.8547 23.4316 30.4413 23.0186 29.9316 23.0186ZM29.2723 28.4265H23.1609C22.9213 28.4339 22.694 28.5343 22.5272 28.7063C22.3603 28.8784 22.267 29.1087 22.267 29.3484C22.267 29.588 22.3603 29.8183 22.5272 29.9904C22.694 30.1624 22.9213 30.2628 23.1609 30.2702H29.2723C29.5119 30.2628 29.7391 30.1624 29.906 29.9904C30.0728 29.8183 30.1661 29.588 30.1661 29.3484C30.1661 29.1087 30.0728 28.8784 29.906 28.7063C29.7391 28.5343 29.5119 28.4339 29.2723 28.4265Z" fill="white"/>
</svg>
