<svg width="42" height="42" viewBox="0 0 42 42" fill="none" xmlns="http://www.w3.org/2000/svg">
<path d="M32.7938 26.6708C32.6316 26.5089 32.4118 26.418 32.1827 26.418C31.9535 26.418 31.7337 26.5089 31.5716 26.6708L30.6543 27.5881L28.6699 25.6038C33.4336 19.3391 32.958 10.3362 27.2412 4.61969C24.2354 1.64861 20.176 -0.0121971 15.9497 6.74476e-05C11.7233 0.012332 7.67362 1.69667 4.68515 4.68515C1.69667 7.67362 0.012332 11.7233 6.74476e-05 15.9497C-0.0121971 20.176 1.64861 24.2354 4.61969 27.2412C7.35422 29.9752 10.9864 31.6264 14.8443 31.8892C18.7022 32.1521 22.5247 31.0089 25.6048 28.6711L27.588 30.6543L26.6708 31.5716C26.5088 31.7337 26.4179 31.9535 26.4179 32.1827C26.4179 32.4118 26.5088 32.6316 26.6708 32.7938L34.5482 40.6713C35.3602 41.4833 36.4615 41.9394 37.6098 41.9394C38.7581 41.9394 39.8593 41.4833 40.6713 40.6713C41.4833 39.8593 41.9395 38.7581 41.9395 37.6098C41.9395 36.4615 41.4833 35.3602 40.6714 34.5482L32.7938 26.6708ZM5.31589 26.5456C3.91531 25.1531 2.80327 23.4979 2.04351 21.6748C1.28375 19.8518 0.891193 17.8968 0.888338 15.9217C0.885482 13.9467 1.27238 11.9906 2.02687 10.1653C2.78136 8.34011 3.8886 6.6817 5.28515 5.28515C6.6817 3.8886 8.34011 2.78136 10.1653 2.02687C11.9906 1.27238 13.9467 0.885482 15.9217 0.888338C17.8968 0.891193 19.8518 1.28375 21.6748 2.04351C23.4979 2.80327 25.1531 3.91531 26.5456 5.31589C32.3985 11.1688 32.3985 20.6922 26.5456 26.5456C23.7303 29.3608 19.9121 30.9424 15.9307 30.9424C11.9494 30.9424 8.13113 29.3608 5.31589 26.5456ZM26.3738 28.0482C26.6712 27.7912 26.9604 27.5223 27.2413 27.2415C27.5228 26.96 27.7915 26.6706 28.0473 26.3734L29.9587 28.2847L28.2841 29.9581L26.3738 28.0482ZM32.1828 27.4521L33.1959 28.4651L28.4651 33.1959L27.4519 32.1827L32.1828 27.4521ZM39.9752 39.9755C39.3473 40.6018 38.4966 40.9536 37.6097 40.9536C36.7229 40.9536 35.8722 40.6018 35.2443 39.9755L29.1611 33.8922L33.892 29.1613L39.9752 35.2445C40.5999 35.8733 40.9504 36.7237 40.9504 37.61C40.9504 38.4963 40.5999 39.3467 39.9752 39.9755H39.9752ZM25.0471 6.81378C20.0202 1.78691 11.8408 1.78691 6.81378 6.81378C1.78674 11.8407 1.78691 20.0202 6.81378 25.0471C9.23356 27.4614 12.5122 28.8173 15.9304 28.8173C19.3487 28.8173 22.6273 27.4614 25.0471 25.0471C30.074 20.0202 30.074 11.8407 25.0471 6.81378ZM24.351 24.3511C22.116 26.5811 19.0877 27.8334 15.9305 27.8334C12.7733 27.8334 9.74497 26.5811 7.50998 24.3511C2.86701 19.7081 2.86701 12.153 7.50998 7.51006C9.74497 5.28007 12.7733 4.0277 15.9305 4.0277C19.0877 4.0277 22.116 5.28007 24.351 7.51006C28.9941 12.1529 28.9941 19.7079 24.351 24.3511ZM15.9307 5.77756C13.8383 5.77991 11.8322 6.61217 10.3526 8.09175C8.87299 9.57134 8.04071 11.5774 8.03834 13.6699V18.191C8.035 19.2296 8.23667 20.2586 8.63179 21.2191C9.02692 22.1796 9.60774 23.0527 10.3409 23.7882C11.0741 24.5238 11.9453 25.1074 12.9045 25.5056C13.8637 25.9039 14.8921 26.1089 15.9307 26.1089C16.9693 26.1089 17.9976 25.9039 18.9569 25.5056C19.9161 25.1074 20.7872 24.5238 21.5204 23.7882C22.2537 23.0527 22.8345 22.1796 23.2296 21.2191C23.6247 20.2586 23.8264 19.2296 23.823 18.191V13.6699C23.8207 11.5774 22.9884 9.57136 21.5088 8.09178C20.0292 6.6122 18.0232 5.77993 15.9307 5.77756ZM22.8387 18.191C22.8418 19.1002 22.6654 20.001 22.3197 20.8419C21.9739 21.6828 21.4656 22.4471 20.8238 23.0911C20.182 23.7351 19.4194 24.2461 18.5798 24.5947C17.7401 24.9434 16.8399 25.1228 15.9307 25.1228C15.0215 25.1228 14.1213 24.9434 13.2816 24.5947C12.4419 24.2461 11.6794 23.7351 11.0376 23.0911C10.3958 22.4471 9.88746 21.6828 9.54171 20.8419C9.19595 20.001 9.01959 19.1002 9.02272 18.191V13.6699C9.02902 11.8419 9.7596 10.0909 11.0544 8.80056C12.3492 7.5102 14.1027 6.78566 15.9307 6.78566C17.7587 6.78566 19.5122 7.5102 20.807 8.80056C22.1018 10.0909 22.8324 11.8419 22.8387 13.6699V18.191ZM22.1471 18.191C22.1453 19.8392 21.4898 21.4193 20.3244 22.5847C19.159 23.7501 17.5789 24.4056 15.9307 24.4075C14.6291 24.4094 13.3604 23.9987 12.3067 23.2345C12.2535 23.197 12.2082 23.1493 12.1735 23.0942C12.1389 23.0391 12.1155 22.9776 12.1047 22.9134C12.094 22.8492 12.0961 22.7835 12.1109 22.7201C12.1257 22.6567 12.1529 22.5969 12.191 22.5441C12.2291 22.4913 12.2773 22.4466 12.3328 22.4125C12.3883 22.3785 12.45 22.3558 12.5144 22.3458C12.5787 22.3358 12.6444 22.3386 12.7076 22.3541C12.7708 22.3697 12.8303 22.3976 12.8827 22.4363C13.7689 23.0791 14.836 23.4246 15.9307 23.4231C17.3179 23.4216 18.6478 22.8698 19.6286 21.889C20.6095 20.9081 21.1612 19.5782 21.1628 18.191C21.1628 18.0605 21.2146 17.9353 21.3069 17.843C21.3992 17.7507 21.5244 17.6988 21.655 17.6988C21.7855 17.6988 21.9107 17.7507 22.003 17.843C22.0953 17.9353 22.1471 18.0605 22.1471 18.191ZM11.1114 20.2224C11.1625 20.3425 11.1637 20.478 11.1149 20.5991C11.066 20.7201 10.9711 20.8168 10.8509 20.8679C10.7308 20.9189 10.5953 20.9202 10.4743 20.8713C10.3532 20.8225 10.2565 20.7276 10.2054 20.6074C9.87998 19.8435 9.7128 19.0214 9.71399 18.191V13.6699C9.71294 12.8653 9.86985 12.0684 10.1758 11.3243C10.1998 11.2637 10.2356 11.2084 10.2811 11.1618C10.3265 11.1151 10.3808 11.0779 10.4408 11.0524C10.5008 11.0269 10.5652 11.0136 10.6304 11.0132C10.6955 11.0127 10.7601 11.0253 10.8204 11.05C10.8807 11.0748 10.9355 11.1112 10.9816 11.1573C11.0276 11.2034 11.0641 11.2582 11.0888 11.3185C11.1136 11.3788 11.1261 11.4434 11.1257 11.5085C11.1253 11.5737 11.1119 11.6381 11.0864 11.6981C10.8292 12.3236 10.6974 12.9935 10.6983 13.6699V18.191C10.6973 18.8891 10.8378 19.5801 11.1114 20.2224ZM21.865 11.8224C22.0522 12.4203 22.1473 13.0433 22.1469 13.6699V15.8219C22.1469 15.9524 22.095 16.0776 22.0027 16.1699C21.9104 16.2622 21.7852 16.3141 21.6547 16.3141C21.5242 16.3141 21.399 16.2622 21.3067 16.1699C21.2144 16.0776 21.1625 15.9524 21.1625 15.8219V13.6699C21.1629 13.1431 21.083 12.6194 20.9256 12.1167C20.9061 12.055 20.899 11.99 20.9046 11.9255C20.9103 11.861 20.9286 11.7983 20.9585 11.7409C20.9884 11.6835 21.0294 11.6325 21.079 11.591C21.1286 11.5494 21.186 11.5181 21.2478 11.4987C21.3095 11.4794 21.3745 11.4724 21.439 11.4782C21.5035 11.484 21.5662 11.5024 21.6235 11.5325C21.6808 11.5626 21.7317 11.6036 21.7731 11.6534C21.8145 11.7031 21.8458 11.7605 21.865 11.8224ZM21.4056 10.7338C21.4363 10.7907 21.4555 10.8531 21.4621 10.9174C21.4687 10.9817 21.4625 11.0466 21.444 11.1085C21.4255 11.1705 21.395 11.2282 21.3542 11.2783C21.3134 11.3284 21.2631 11.37 21.2062 11.4007C21.1494 11.4314 21.087 11.4506 21.0227 11.4572C20.9584 11.4638 20.8934 11.4577 20.8315 11.4392C20.7064 11.4018 20.6013 11.3163 20.5393 11.2014C20.1483 10.4679 19.5877 9.83848 18.9043 9.36544C18.2209 8.89239 17.4343 8.58944 16.6101 8.48179C15.786 8.37414 14.948 8.4649 14.166 8.74654C13.384 9.02817 12.6805 9.49252 12.1142 10.1009C12.0703 10.1491 12.0173 10.188 11.9582 10.2154C11.8991 10.2429 11.8351 10.2583 11.77 10.2609C11.7049 10.2635 11.64 10.2531 11.5789 10.2303C11.5179 10.2076 11.4619 10.1729 11.4144 10.1284C11.3668 10.0839 11.3286 10.0304 11.3018 9.97095C11.2751 9.91153 11.2605 9.84739 11.2587 9.78226C11.257 9.71714 11.2682 9.65231 11.2917 9.59155C11.3152 9.53078 11.3505 9.47529 11.3956 9.42828C12.0686 8.70592 12.9043 8.15464 13.8333 7.82026C14.7622 7.48588 15.7575 7.37806 16.7365 7.50575C17.7155 7.63345 18.6499 7.99299 19.462 8.55447C20.2741 9.11594 20.9404 9.86315 21.4056 10.734V10.7338ZM11.3899 16.8398C11.3899 16.7093 11.4417 16.5841 11.5341 16.4918C11.6264 16.3995 11.7515 16.3476 11.8821 16.3476C12.0126 16.3476 12.1378 16.3995 12.2301 16.4918C12.3224 16.5841 12.3743 16.7093 12.3743 16.8398V18.191C12.3754 19.1338 12.7505 20.0377 13.4173 20.7043C14.084 21.3709 14.9879 21.7458 15.9307 21.7467C16.5042 21.7443 17.0687 21.6047 17.5772 21.3397C17.6348 21.3097 17.6978 21.2914 17.7625 21.2859C17.8273 21.2803 17.8925 21.2877 17.9544 21.3074C18.0163 21.3272 18.0736 21.3591 18.1231 21.4011C18.1727 21.4432 18.2134 21.4946 18.2429 21.5525C18.2724 21.6104 18.2902 21.6735 18.2952 21.7383C18.3002 21.8031 18.2924 21.8682 18.2721 21.9299C18.2518 21.9917 18.2195 22.0488 18.177 22.0979C18.1346 22.1471 18.0828 22.1874 18.0247 22.2165C17.3329 22.5773 16.5598 22.7537 15.7801 22.7285C15.0003 22.7033 14.2402 22.4775 13.5732 22.0727C12.9062 21.668 12.3548 21.0981 11.9724 20.418C11.59 19.738 11.3895 18.9708 11.3901 18.1906L11.3899 16.8398ZM20.4708 17.0941C20.4708 17.2246 20.4189 17.3498 20.3266 17.4421C20.2343 17.5344 20.1091 17.5863 19.9786 17.5863C19.848 17.5863 19.7228 17.5344 19.6305 17.4421C19.5382 17.3498 19.4864 17.2246 19.4864 17.0941V13.6699C19.4853 12.7271 19.1104 11.8233 18.4438 11.1567C17.7772 10.49 16.8735 10.1149 15.9307 10.1137C15.8002 10.1137 15.675 10.0619 15.5827 9.96958C15.4904 9.87727 15.4385 9.75208 15.4385 9.62155C15.4385 9.49101 15.4904 9.36582 15.5827 9.27352C15.675 9.18121 15.8002 9.12936 15.9307 9.12936C17.1345 9.1307 18.2887 9.60951 19.1399 10.4607C19.9911 11.3119 20.4699 12.4661 20.4712 13.6699L20.4708 17.0941ZM14.3191 9.92523C14.3851 10.0378 14.4036 10.1721 14.3707 10.2984C14.3377 10.4247 14.256 10.5327 14.1434 10.5987C13.6071 10.9129 13.162 11.3612 12.8517 11.8997C12.5415 12.4382 12.3768 13.0482 12.374 13.6697V15.0795C12.374 15.21 12.3222 15.3352 12.2299 15.4275C12.1376 15.5198 12.0124 15.5717 11.8818 15.5717C11.7513 15.5717 11.6261 15.5198 11.5338 15.4275C11.4415 15.3352 11.3896 15.21 11.3896 15.0795V13.6699C11.3928 12.8768 11.6025 12.0982 11.9981 11.4108C12.3936 10.7234 12.9614 10.1509 13.6455 9.74968C13.7013 9.71695 13.763 9.69553 13.827 9.68664C13.8911 9.67776 13.9562 9.68159 14.0188 9.69791C14.0814 9.71422 14.1401 9.74271 14.1917 9.78175C14.2433 9.82078 14.2866 9.86959 14.3193 9.92539L14.3191 9.92523ZM18.8809 20.1657C19.2805 19.5864 19.4919 18.8981 19.4864 18.1944C19.4859 18.1297 19.4982 18.0656 19.5225 18.0057C19.5468 17.9458 19.5827 17.8913 19.6281 17.8453C19.6735 17.7993 19.7275 17.7626 19.787 17.7375C19.8466 17.7123 19.9105 17.6991 19.9751 17.6987H19.9786C20.1086 17.6987 20.2333 17.75 20.3255 17.8416C20.4177 17.9332 20.4699 18.0575 20.4708 18.1874C20.4781 19.0924 20.2063 19.9777 19.6926 20.7228C19.6187 20.8304 19.5051 20.9043 19.3768 20.9281C19.2485 20.952 19.1159 20.9239 19.0083 20.85C18.9006 20.7762 18.8268 20.6625 18.8029 20.5342C18.779 20.4059 18.807 20.2733 18.8809 20.1657ZM14.0503 14.8676V18.191C14.0497 18.5304 14.1412 18.8636 14.315 19.1551C14.4887 19.4466 14.7382 19.6856 15.037 19.8465C15.3358 20.0075 15.6726 20.0845 16.0116 20.0693C16.3507 20.0541 16.6792 19.9472 16.9624 19.7601C17.0712 19.6881 17.2042 19.6622 17.3321 19.6882C17.4601 19.7142 17.5724 19.7899 17.6445 19.8988C17.7166 20.0076 17.7424 20.1407 17.7164 20.2686C17.6904 20.3965 17.6147 20.5089 17.5058 20.5809C17.0743 20.8663 16.5736 21.0293 16.0568 21.0527C15.54 21.0761 15.0266 20.959 14.5711 20.7138C14.1156 20.4686 13.735 20.1045 13.47 19.6603C13.2049 19.2161 13.0652 18.7083 13.0657 18.191V14.8676C13.0657 14.7371 13.1176 14.6119 13.2099 14.5196C13.3022 14.4273 13.4274 14.3754 13.5579 14.3754C13.6884 14.3754 13.8136 14.4273 13.9059 14.5196C13.9982 14.6119 14.0501 14.7371 14.0501 14.8676H14.0503ZM17.6568 18.9331C17.7587 18.6989 17.8111 18.4462 17.8106 18.1908V13.6699C17.8106 13.5393 17.8625 13.4141 17.9548 13.3218C18.0471 13.2295 18.1723 13.1777 18.3028 13.1777C18.4334 13.1777 18.5586 13.2295 18.6509 13.3218C18.7432 13.4141 18.795 13.5393 18.795 13.6699V18.191C18.7957 18.5813 18.7156 18.9675 18.5598 19.3254C18.5072 19.4442 18.4097 19.5374 18.2887 19.5846C18.1677 19.6319 18.0328 19.6294 17.9137 19.5776C17.7945 19.5259 17.7006 19.4291 17.6525 19.3084C17.6044 19.1877 17.6059 19.0529 17.6568 18.9333V18.9331ZM15.9307 10.8053C16.4462 10.8061 16.9519 10.9458 17.3947 11.2097C17.8375 11.4736 18.201 11.8519 18.447 12.305C18.4779 12.3617 18.4974 12.424 18.5043 12.4882C18.5112 12.5525 18.5053 12.6175 18.4871 12.6795C18.4689 12.7415 18.4386 12.7993 18.3981 12.8497C18.3575 12.9 18.3074 12.9418 18.2507 12.9728C18.1939 13.0037 18.1316 13.0232 18.0674 13.0301C18.0031 13.037 17.9381 13.0312 17.8761 13.0129C17.8141 12.9947 17.7563 12.9644 17.706 12.9239C17.6556 12.8833 17.6138 12.8332 17.5828 12.7765C17.3841 12.4084 17.0682 12.1171 16.6852 11.9488C16.3022 11.7805 15.8741 11.7449 15.4685 11.8475C15.0629 11.9501 14.7032 12.185 14.4463 12.5152C14.1894 12.8453 14.05 13.2518 14.0503 13.6701C14.0503 13.8007 13.9984 13.9258 13.9061 14.0181C13.8138 14.1104 13.6886 14.1623 13.5581 14.1623C13.4275 14.1623 13.3023 14.1104 13.21 14.0181C13.1177 13.9258 13.0659 13.8007 13.0659 13.6701C13.0667 12.9106 13.3688 12.1824 13.9059 11.6453C14.443 11.1082 15.1712 10.8061 15.9307 10.8053ZM15.2342 13.1777C15.3647 13.1777 15.4899 13.2295 15.5822 13.3218C15.6745 13.4141 15.7264 13.5393 15.7264 13.6699V18.191C15.7271 18.245 15.7488 18.2966 15.787 18.3347C15.8252 18.3729 15.8768 18.3947 15.9307 18.3954C16.0613 18.3954 16.1865 18.4472 16.2788 18.5395C16.3711 18.6318 16.4229 18.757 16.4229 18.8876C16.4229 19.0181 16.3711 19.1433 16.2788 19.2356C16.1865 19.3279 16.0613 19.3797 15.9307 19.3797C15.6156 19.3794 15.3134 19.254 15.0906 19.0312C14.8677 18.8083 14.7424 18.5062 14.742 18.191V13.6699C14.742 13.5394 14.7938 13.4142 14.8861 13.3219C14.9783 13.2296 15.1035 13.1777 15.234 13.1777H15.2342ZM16.135 18.191V13.6699C16.1343 13.6159 16.1125 13.5644 16.0744 13.5262C16.0362 13.488 15.9847 13.4663 15.9307 13.4655C15.8002 13.4655 15.675 13.4137 15.5827 13.3214C15.4904 13.2291 15.4385 13.1039 15.4385 12.9733C15.4385 12.8428 15.4904 12.7176 15.5827 12.6253C15.675 12.533 15.8002 12.4812 15.9307 12.4812C16.2459 12.4815 16.548 12.6069 16.7708 12.8297C16.9937 13.0526 17.119 13.3547 17.1194 13.6699V18.191C17.1194 18.3216 17.0675 18.4467 16.9752 18.5391C16.8829 18.6314 16.7577 18.6832 16.6272 18.6832C16.4966 18.6832 16.3715 18.6314 16.2792 18.5391C16.1868 18.4467 16.135 18.3216 16.135 18.191Z" fill="white"/>
</svg>
