<svg width="42" height="36" viewBox="0 0 42 36" fill="none" xmlns="http://www.w3.org/2000/svg">
<path d="M10.4992 22.3125C10.4997 24.7003 11.3172 27.016 12.8157 28.875H5.24917C5.15599 28.8751 5.06391 28.8951 4.97904 28.9335C4.89418 28.972 4.81848 29.0281 4.75698 29.0981L0.163233 34.3481C0.079996 34.4429 0.0258231 34.5596 0.007197 34.6843C-0.0114291 34.8091 0.00628074 34.9365 0.058207 35.0515C0.110133 35.1664 0.194077 35.2639 0.299991 35.3324C0.405905 35.4008 0.529304 35.4373 0.65542 35.4375H41.3429C41.469 35.4373 41.5924 35.4008 41.6983 35.3324C41.8043 35.2639 41.8882 35.1664 41.9401 35.0515C41.9921 34.9365 42.0098 34.8091 41.9911 34.6843C41.9725 34.5596 41.9183 34.4429 41.8351 34.3481L37.2414 29.0981C37.1799 29.0281 37.1042 28.972 37.0193 28.9335C36.9344 28.8951 36.8424 28.8751 36.7492 28.875H29.1826C30.2348 27.5661 30.9577 26.024 31.2907 24.378C31.6237 22.732 31.557 21.0301 31.0962 19.4152C30.6354 17.8003 29.794 16.3195 28.6426 15.097C27.4912 13.8745 26.0633 12.946 24.4788 12.3895C22.8944 11.833 21.1995 11.6646 19.5366 11.8985C17.8736 12.1325 16.291 12.7618 14.9215 13.7339C13.5521 14.7059 12.4358 15.9923 11.6663 17.485C10.8968 18.9777 10.4966 20.6331 10.4992 22.3125ZM11.8445 22.9688H17.0945C17.0945 23.8744 17.1732 24.7734 17.2717 25.6463C15.9538 26.1483 14.7524 26.9143 13.741 27.8972C12.6368 26.4773 11.9769 24.7626 11.8445 22.9688ZM24.556 26.9784C25.6187 27.425 26.5872 28.0685 27.4107 28.875C26.232 30.0217 24.7685 30.8327 23.1714 31.2244C23.8774 29.9008 24.346 28.4638 24.556 26.9784ZM20.9992 31.5C20.2314 31.5 19.2207 29.6559 18.7089 26.5519C20.2134 26.147 21.7981 26.147 23.3026 26.5519C22.7776 29.6559 21.767 31.5 20.9992 31.5ZM23.6242 22.9688C23.6242 23.7759 23.5651 24.5372 23.4864 25.2459C21.8626 24.8348 20.162 24.8348 18.5382 25.2459C18.4464 24.5372 18.3742 23.7759 18.3742 22.9688H23.6242ZM18.3742 21.6562C18.3742 20.8491 18.4332 20.0878 18.512 19.3791C20.1357 19.7902 21.8364 19.7902 23.4601 19.3791C23.5389 20.0878 23.5848 20.8491 23.5979 21.6562H18.3742ZM18.8139 31.2309C17.2207 30.8353 15.7619 30.022 14.5876 28.875C15.4105 28.0661 16.3792 27.4204 17.4423 26.9719C17.6509 28.4617 18.1195 29.9033 18.827 31.2309H18.8139ZM36.4539 30.1875L39.8992 34.125H2.09917L5.54448 30.1875H14.0757C15.9853 31.8791 18.4481 32.8131 20.9992 32.8131C23.5502 32.8131 26.0131 31.8791 27.9226 30.1875H36.4539ZM28.277 27.8972C27.2657 26.9143 26.0642 26.1483 24.7464 25.6463C24.8448 24.7734 24.9039 23.8744 24.9235 22.9688H30.1735C30.0411 24.7626 29.3813 26.4773 28.277 27.8972ZM30.1867 21.6562H24.9367C24.9367 20.7506 24.8579 19.8516 24.7595 18.9788C26.0774 18.4767 27.2788 17.7107 28.2901 16.7278C29.3944 18.1477 30.0542 19.8624 30.1867 21.6562ZM27.4435 15.75C26.6206 16.5589 25.652 17.2046 24.5889 17.6531C24.3796 16.1656 23.9109 14.7262 23.2042 13.4006C24.7896 13.7977 26.2412 14.6084 27.4107 15.75H27.4435ZM20.9992 13.125C21.767 13.125 22.7776 14.9691 23.2895 18.0731C21.785 18.478 20.2002 18.478 18.6957 18.0731C19.2207 14.9691 20.2314 13.125 20.9992 13.125ZM18.827 13.3941C18.1203 14.7197 17.6516 16.159 17.4423 17.6466C16.3797 17.2 15.4111 16.5565 14.5876 15.75C15.7656 14.601 17.2292 13.7876 18.827 13.3941ZM17.252 18.9788C17.1535 19.8516 17.0945 20.7506 17.0748 21.6562H11.8248C11.9515 19.8645 12.6044 18.15 13.7017 16.7278C14.7188 17.713 15.9271 18.4791 17.252 18.9788ZM23.6242 2.625C23.6242 2.10583 23.4702 1.59831 23.1818 1.16663C22.8933 0.73495 22.4834 0.398497 22.0037 0.199817C21.5241 0.00113736 20.9963 -0.0508464 20.4871 0.0504398C19.9779 0.151726 19.5101 0.401733 19.143 0.768846C18.7759 1.13596 18.5259 1.60369 18.4246 2.11289C18.3233 2.62209 18.3753 3.14989 18.574 3.62955C18.7727 4.1092 19.1091 4.51917 19.5408 4.80761C19.9725 5.09605 20.48 5.25 20.9992 5.25C21.6954 5.25 22.363 4.97344 22.8553 4.48116C23.3476 3.98887 23.6242 3.32119 23.6242 2.625ZM20.9992 3.9375C20.7396 3.9375 20.4858 3.86052 20.27 3.71631C20.0541 3.57209 19.8859 3.3671 19.7866 3.12727C19.6872 2.88744 19.6612 2.62355 19.7119 2.36895C19.7625 2.11435 19.8875 1.88048 20.0711 1.69692C20.2546 1.51337 20.4885 1.38836 20.7431 1.33772C20.9977 1.28708 21.2616 1.31307 21.5014 1.41241C21.7413 1.51175 21.9463 1.67998 22.0905 1.89582C22.2347 2.11165 22.3117 2.36541 22.3117 2.625C22.3117 2.9731 22.1734 3.30694 21.9272 3.55308C21.6811 3.79922 21.3473 3.9375 20.9992 3.9375ZM28.8742 2.625C28.355 2.625 27.8475 2.77895 27.4158 3.06739C26.9841 3.35583 26.6477 3.7658 26.449 4.24546C26.2503 4.72511 26.1983 5.25291 26.2996 5.76211C26.4009 6.27131 26.6509 6.73904 27.018 7.10616C27.3851 7.47327 27.8529 7.72328 28.3621 7.82456C28.8713 7.92585 29.3991 7.87387 29.8787 7.67519C30.3584 7.47651 30.7683 7.14005 31.0568 6.70837C31.3452 6.27669 31.4992 5.76918 31.4992 5.25C31.4992 4.55381 31.2226 3.88613 30.7303 3.39385C30.238 2.90156 29.5704 2.625 28.8742 2.625ZM28.8742 6.5625C28.6146 6.5625 28.3608 6.48552 28.145 6.3413C27.9291 6.19709 27.7609 5.9921 27.6616 5.75227C27.5622 5.51244 27.5362 5.24855 27.5869 4.99395C27.6375 4.73935 27.7625 4.50548 27.9461 4.32192C28.1296 4.13837 28.3635 4.01336 28.6181 3.96272C28.8727 3.91208 29.1366 3.93807 29.3764 4.03741C29.6163 4.13675 29.8213 4.30498 29.9655 4.52082C30.1097 4.73665 30.1867 4.99041 30.1867 5.25C30.1867 5.5981 30.0484 5.93194 29.8022 6.17808C29.5561 6.42422 29.2223 6.5625 28.8742 6.5625ZM32.8117 11.1563C32.8117 11.6754 32.9656 12.1829 33.2541 12.6146C33.5425 13.0463 33.9525 13.3828 34.4321 13.5814C34.9118 13.7801 35.4396 13.8321 35.9488 13.7308C36.458 13.6295 36.9257 13.3795 37.2928 13.0124C37.6599 12.6453 37.9099 12.1776 38.0112 11.6684C38.1125 11.1592 38.0605 10.6314 37.8619 10.1517C37.6632 9.67205 37.3267 9.26208 36.895 8.97364C36.4634 8.68521 35.9558 8.53125 35.4367 8.53125C34.7405 8.53125 34.0728 8.80781 33.5805 9.3001C33.0882 9.79238 32.8117 10.4601 32.8117 11.1563ZM35.4367 9.84375C35.6963 9.84375 35.95 9.92073 36.1659 10.0649C36.3817 10.2092 36.5499 10.4142 36.6493 10.654C36.7486 10.8938 36.7746 11.1577 36.724 11.4123C36.6733 11.6669 36.5483 11.9008 36.3647 12.0843C36.1812 12.2679 35.9473 12.3929 35.6927 12.4435C35.4381 12.4942 35.1742 12.4682 34.9344 12.3688C34.6946 12.2695 34.4896 12.1013 34.3454 11.8854C34.2011 11.6696 34.1242 11.4158 34.1242 11.1563C34.1242 10.8082 34.2625 10.4743 34.5086 10.2282C34.7547 9.98203 35.0886 9.84375 35.4367 9.84375ZM35.4367 19.6875C35.4367 20.2067 35.5906 20.7142 35.8791 21.1459C36.1675 21.5776 36.5775 21.914 37.0571 22.1127C37.5368 22.3114 38.0646 22.3633 38.5738 22.2621C39.083 22.1608 39.5507 21.9108 39.9178 21.5437C40.2849 21.1765 40.5349 20.7088 40.6362 20.1996C40.7375 19.6904 40.6855 19.1626 40.4869 18.683C40.2882 18.2033 39.9517 17.7933 39.52 17.5049C39.0884 17.2165 38.5808 17.0625 38.0617 17.0625C37.3655 17.0625 36.6978 17.3391 36.2055 17.8313C35.7132 18.3236 35.4367 18.9913 35.4367 19.6875ZM39.3742 19.6875C39.3742 19.9471 39.2972 20.2008 39.153 20.4167C39.0088 20.6325 38.8038 20.8008 38.5639 20.9001C38.3241 20.9994 38.0602 21.0254 37.8056 20.9748C37.551 20.9241 37.3172 20.7991 37.1336 20.6156C36.95 20.432 36.825 20.1982 36.7744 19.9436C36.7237 19.689 36.7497 19.4251 36.8491 19.1852C36.9484 18.9454 37.1166 18.7404 37.3325 18.5962C37.5483 18.452 37.8021 18.375 38.0617 18.375C38.4098 18.375 38.7436 18.5133 38.9897 18.7594C39.2359 19.0056 39.3742 19.3394 39.3742 19.6875ZM13.1242 2.625C12.605 2.625 12.0975 2.77895 11.6658 3.06739C11.2341 3.35583 10.8977 3.7658 10.699 4.24546C10.5003 4.72511 10.4483 5.25291 10.5496 5.76211C10.6509 6.27131 10.9009 6.73904 11.268 7.10616C11.6351 7.47327 12.1029 7.72328 12.6121 7.82456C13.1213 7.92585 13.6491 7.87387 14.1287 7.67519C14.6084 7.47651 15.0183 7.14005 15.3068 6.70837C15.5952 6.27669 15.7492 5.76918 15.7492 5.25C15.7492 4.55381 15.4726 3.88613 14.9803 3.39385C14.488 2.90156 13.8204 2.625 13.1242 2.625ZM13.1242 6.5625C12.8646 6.5625 12.6108 6.48552 12.395 6.3413C12.1791 6.19709 12.0109 5.9921 11.9116 5.75227C11.8122 5.51244 11.7862 5.24855 11.8369 4.99395C11.8875 4.73935 12.0125 4.50548 12.1961 4.32192C12.3796 4.13837 12.6135 4.01336 12.8681 3.96272C13.1227 3.91208 13.3866 3.93807 13.6264 4.03741C13.8663 4.13675 14.0713 4.30498 14.2155 4.52082C14.3597 4.73665 14.4367 4.99041 14.4367 5.25C14.4367 5.5981 14.2984 5.93194 14.0522 6.17808C13.8061 6.42422 13.4723 6.5625 13.1242 6.5625ZM6.56167 8.53125C6.04249 8.53125 5.53498 8.68521 5.1033 8.97364C4.67162 9.26208 4.33517 9.67205 4.13649 10.1517C3.93781 10.6314 3.88582 11.1592 3.98711 11.6684C4.0884 12.1776 4.3384 12.6453 4.70551 13.0124C5.07263 13.3795 5.54036 13.6295 6.04956 13.7308C6.55876 13.8321 7.08656 13.7801 7.56621 13.5814C8.04587 13.3828 8.45584 13.0463 8.74428 12.6146C9.03272 12.1829 9.18667 11.6754 9.18667 11.1563C9.18667 10.4601 8.91011 9.79238 8.41783 9.3001C7.92554 8.80781 7.25786 8.53125 6.56167 8.53125ZM6.56167 12.4688C6.30208 12.4688 6.04832 12.3918 5.83248 12.2476C5.61664 12.1033 5.44842 11.8984 5.34908 11.6585C5.24974 11.4187 5.22375 11.1548 5.27439 10.9002C5.32503 10.6456 5.45004 10.4117 5.63359 10.2282C5.81715 10.0446 6.05101 9.91961 6.30561 9.86897C6.56021 9.81833 6.82411 9.84432 7.06394 9.94366C7.30377 10.043 7.50875 10.2112 7.65297 10.4271C7.79719 10.6429 7.87417 10.8967 7.87417 11.1563C7.87417 11.5043 7.73589 11.8382 7.48975 12.0843C7.24361 12.3305 6.90977 12.4688 6.56167 12.4688ZM6.56167 19.6875C6.56167 19.1683 6.40772 18.6608 6.11928 18.2291C5.83084 17.7974 5.42087 17.461 4.94121 17.2623C4.46156 17.0636 3.93376 17.0117 3.42456 17.1129C2.91536 17.2142 2.44763 17.4642 2.08051 17.8313C1.7134 18.1985 1.4634 18.6662 1.36211 19.1754C1.26082 19.6846 1.31281 20.2124 1.51149 20.692C1.71017 21.1717 2.04662 21.5817 2.4783 21.8701C2.90998 22.1585 3.41749 22.3125 3.93667 22.3125C4.63286 22.3125 5.30054 22.0359 5.79283 21.5437C6.28511 21.0514 6.56167 20.3837 6.56167 19.6875ZM2.62417 19.6875C2.62417 19.4279 2.70115 19.1742 2.84537 18.9583C2.98959 18.7425 3.19457 18.5742 3.4344 18.4749C3.67423 18.3756 3.93813 18.3496 4.19273 18.4002C4.44733 18.4509 4.68119 18.5759 4.86475 18.7594C5.0483 18.943 5.17331 19.1768 5.22395 19.4314C5.27459 19.686 5.2486 19.9499 5.14926 20.1898C5.04992 20.4296 4.8817 20.6346 4.66586 20.7788C4.45002 20.923 4.19626 21 3.93667 21C3.58857 21 3.25473 20.8617 3.00859 20.6156C2.76245 20.3694 2.62417 20.0356 2.62417 19.6875ZM20.3429 6.5625H21.6554V7.875H20.3429V6.5625ZM20.3429 9.1875H21.6554V10.5H20.3429V9.1875ZM25.5929 8.53125H26.9054V9.84375H25.5929V8.53125ZM30.8429 13.7813H32.1554V15.0938H30.8429V13.7813Z" fill="white"/>
</svg>
