<svg width="40" height="41" viewBox="0 0 40 41" fill="none" xmlns="http://www.w3.org/2000/svg">
<path d="M22.9688 34.7812H21.6562V28.35C21.6562 28.176 21.5871 28.009 21.464 27.886C21.341 27.7629 21.174 27.6938 21 27.6938C20.826 27.6938 20.659 27.7629 20.536 27.886C20.4129 28.009 20.3438 28.176 20.3438 28.35V34.7812H3.28125V21.6562H8.74125C8.9153 21.6562 9.08222 21.5871 9.20529 21.464C9.32836 21.341 9.3975 21.174 9.3975 21C9.3975 20.826 9.32836 20.659 9.20529 20.536C9.08222 20.4129 8.9153 20.3438 8.74125 20.3438H2.625C2.45095 20.3438 2.28403 20.4129 2.16096 20.536C2.03789 20.659 1.96875 20.826 1.96875 21V34.7812H0.65625C0.482202 34.7812 0.315282 34.8504 0.192211 34.9735C0.0691404 35.0965 0 35.2635 0 35.4375V36.75C0 37.6202 0.345702 38.4548 0.961056 39.0702C1.57641 39.6855 2.41101 40.0312 3.28125 40.0312H20.3438C21.214 40.0312 22.0486 39.6855 22.6639 39.0702C23.2793 38.4548 23.625 37.6202 23.625 36.75V35.4375C23.625 35.2635 23.5559 35.0965 23.4328 34.9735C23.3097 34.8504 23.1428 34.7812 22.9688 34.7812ZM22.3125 36.75C22.3125 37.2721 22.1051 37.7729 21.7359 38.1421C21.3667 38.5113 20.8659 38.7188 20.3438 38.7188H19.0312V38.0625C19.0312 37.8885 18.9621 37.7215 18.839 37.5985C18.716 37.4754 18.549 37.4062 18.375 37.4062C18.201 37.4062 18.034 37.4754 17.911 37.5985C17.7879 37.7215 17.7188 37.8885 17.7188 38.0625V38.7188H5.90625V38.0625C5.90625 37.8885 5.83711 37.7215 5.71404 37.5985C5.59097 37.4754 5.42405 37.4062 5.25 37.4062C5.07595 37.4062 4.90903 37.4754 4.78596 37.5985C4.66289 37.7215 4.59375 37.8885 4.59375 38.0625V38.7188H3.28125C2.7591 38.7188 2.25835 38.5113 1.88913 38.1421C1.51992 37.7729 1.3125 37.2721 1.3125 36.75V36.0938H22.3125V36.75ZM34.125 4.59375H35.4375C35.6115 4.59375 35.7785 4.52461 35.9015 4.40154C36.0246 4.27847 36.0938 4.11155 36.0938 3.9375C36.0938 3.76345 36.0246 3.59653 35.9015 3.47346C35.7785 3.35039 35.6115 3.28125 35.4375 3.28125H34.125C33.6029 3.28125 33.1021 3.48867 32.7329 3.85788C32.3637 4.2271 32.1562 4.72786 32.1562 5.25V5.90625H31.5C31.326 5.90625 31.159 5.97539 31.036 6.09846C30.9129 6.22153 30.8438 6.38845 30.8438 6.5625C30.8438 6.73655 30.9129 6.90347 31.036 7.02654C31.159 7.14961 31.326 7.21875 31.5 7.21875H32.1562V9.1875C32.1562 9.36155 32.2254 9.52847 32.3485 9.65154C32.4715 9.77461 32.6385 9.84375 32.8125 9.84375C32.9865 9.84375 33.1535 9.77461 33.2765 9.65154C33.3996 9.52847 33.4688 9.36155 33.4688 9.1875V7.21875H34.125C34.299 7.21875 34.466 7.14961 34.589 7.02654C34.7121 6.90347 34.7812 6.73655 34.7812 6.5625C34.7812 6.38845 34.7121 6.22153 34.589 6.09846C34.466 5.97539 34.299 5.90625 34.125 5.90625H33.4688V5.25C33.4688 5.07595 33.5379 4.90903 33.661 4.78596C33.784 4.66289 33.951 4.59375 34.125 4.59375Z" fill="white"/>
<path d="M37.4062 0.65625H29.5312C29.0091 0.65625 28.5083 0.863671 28.1391 1.23288C27.7699 1.6021 27.5625 2.10286 27.5625 2.625V3.9375C27.5625 4.11155 27.6316 4.27847 27.7547 4.40154C27.8778 4.52461 28.0447 4.59375 28.2188 4.59375C28.3928 4.59375 28.5597 4.52461 28.6828 4.40154C28.8059 4.27847 28.875 4.11155 28.875 3.9375V2.625C28.875 2.45095 28.9441 2.28403 29.0672 2.16096C29.1903 2.03789 29.3572 1.96875 29.5312 1.96875H37.4062C37.5803 1.96875 37.7472 2.03789 37.8703 2.16096C37.9934 2.28403 38.0625 2.45095 38.0625 2.625V10.5C38.0625 10.674 37.9934 10.841 37.8703 10.964C37.7472 11.0871 37.5803 11.1562 37.4062 11.1562H29.5312C29.3572 11.1562 29.1903 11.0871 29.0672 10.964C28.9441 10.841 28.875 10.674 28.875 10.5V6.5625C28.875 6.38845 28.8059 6.22153 28.6828 6.09846C28.5597 5.97539 28.3928 5.90625 28.2188 5.90625C28.0447 5.90625 27.8778 5.97539 27.7547 6.09846C27.6316 6.22153 27.5625 6.38845 27.5625 6.5625V10.5C27.5625 11.0221 27.7699 11.5229 28.1391 11.8921C28.5083 12.2613 29.0091 12.4688 29.5312 12.4688H37.4062C37.9284 12.4688 38.4292 12.2613 38.7984 11.8921C39.1676 11.5229 39.375 11.0221 39.375 10.5V2.625C39.375 2.10286 39.1676 1.6021 38.7984 1.23288C38.4292 0.863671 37.9284 0.65625 37.4062 0.65625ZM30.8438 26.9062C30.8438 27.4254 30.9977 27.9329 31.2861 28.3646C31.5746 28.7963 31.9845 29.1328 32.4642 29.3314C32.9439 29.5301 33.4717 29.5821 33.9809 29.4808C34.4901 29.3795 34.9578 29.1295 35.3249 28.7624C35.692 28.3953 35.942 27.9276 36.0433 27.4184C36.1446 26.9092 36.0926 26.3814 35.8939 25.9017C35.6953 25.422 35.3588 25.0121 34.9271 24.7236C34.4954 24.4352 33.9879 24.2812 33.4688 24.2812C32.7726 24.2812 32.1049 24.5578 31.6126 25.0501C31.1203 25.5424 30.8438 26.2101 30.8438 26.9062ZM34.7812 26.9062C34.7812 27.1658 34.7043 27.4196 34.5601 27.6354C34.4158 27.8513 34.2108 28.0195 33.971 28.1188C33.7312 28.2182 33.4673 28.2442 33.2127 28.1935C32.9581 28.1429 32.7242 28.0179 32.5407 27.8343C32.3571 27.6508 32.2321 27.4169 32.1815 27.1623C32.1308 26.9077 32.1568 26.6438 32.2562 26.404C32.3555 26.1642 32.5237 25.9592 32.7396 25.8149C32.9554 25.6707 33.2092 25.5938 33.4688 25.5938C33.8168 25.5938 34.1507 25.732 34.3968 25.9782C34.643 26.2243 34.7812 26.5582 34.7812 26.9062Z" fill="white"/>
<path d="M37.4063 21H29.5313C29.0091 21 28.5083 21.2074 28.1391 21.5766C27.7699 21.9458 27.5625 22.4466 27.5625 22.9687V30.8437C27.5625 31.3659 27.7699 31.8666 28.1391 32.2358C28.5083 32.605 29.0091 32.8125 29.5313 32.8125H37.4063C37.9284 32.8125 38.4292 32.605 38.7984 32.2358C39.1676 31.8666 39.375 31.3659 39.375 30.8437V29.5312C39.375 29.3572 39.3059 29.1902 39.1828 29.0672C39.0597 28.9441 38.8928 28.875 38.7188 28.875C38.5447 28.875 38.3778 28.9441 38.2547 29.0672C38.1316 29.1902 38.0625 29.3572 38.0625 29.5312V30.8437C38.0625 31.0178 37.9934 31.1847 37.8703 31.3078C37.7472 31.4308 37.5803 31.5 37.4063 31.5H29.5313C29.3572 31.5 29.1903 31.4308 29.0672 31.3078C28.9441 31.1847 28.875 31.0178 28.875 30.8437V22.9687C28.875 22.7947 28.9441 22.6277 29.0672 22.5047C29.1903 22.3816 29.3572 22.3125 29.5313 22.3125H37.4063C37.5803 22.3125 37.7472 22.3816 37.8703 22.5047C37.9934 22.6277 38.0625 22.7947 38.0625 22.9687V26.9062C38.0625 27.0803 38.1316 27.2472 38.2547 27.3703C38.3778 27.4933 38.5447 27.5625 38.7188 27.5625C38.8928 27.5625 39.0597 27.4933 39.1828 27.3703C39.3059 27.2472 39.375 27.0803 39.375 26.9062V22.9687C39.375 22.4466 39.1676 21.9458 38.7984 21.5766C38.4292 21.2074 37.9284 21 37.4063 21ZM14.7459 8.43278C14.8504 8.49751 14.9709 8.53161 15.0938 8.53122C15.1965 8.5306 15.2976 8.50588 15.3891 8.45903L19.3266 6.49028C19.4341 6.43521 19.5243 6.35154 19.5873 6.24849C19.6503 6.14544 19.6836 6.027 19.6836 5.90622C19.6836 5.78544 19.6503 5.667 19.5873 5.56395C19.5243 5.46089 19.4341 5.37723 19.3266 5.32215L15.3891 3.3534C15.2892 3.30306 15.1781 3.2791 15.0663 3.28378C14.9545 3.28846 14.8458 3.32164 14.7505 3.38016C14.6551 3.43867 14.5763 3.52059 14.5215 3.61814C14.4668 3.71568 14.4378 3.8256 14.4375 3.93747V7.87497C14.4373 7.98649 14.4655 8.09624 14.5194 8.19384C14.5734 8.29144 14.6514 8.37367 14.7459 8.43278ZM15.75 5.00059L17.5613 5.90622L15.75 6.81184V5.00059Z" fill="white"/>
<path d="M16.4062 11.8125C17.5744 11.8125 18.7163 11.4661 19.6876 10.8171C20.6589 10.1681 21.4159 9.2457 21.8629 8.16648C22.3099 7.08725 22.4269 5.8997 22.199 4.754C21.9711 3.6083 21.4086 2.55591 20.5826 1.7299C19.7566 0.903899 18.7042 0.341384 17.5585 0.11349C16.4128 -0.114404 15.2253 0.00255906 14.146 0.449589C13.0668 0.896619 12.1444 1.65364 11.4954 2.62492C10.8464 3.59619 10.5 4.73811 10.5 5.90625C10.5 7.47269 11.1223 8.97497 12.2299 10.0826C13.3375 11.1902 14.8398 11.8125 16.4062 11.8125ZM16.4062 1.3125C17.3148 1.3125 18.203 1.58192 18.9584 2.08669C19.7138 2.59146 20.3026 3.3089 20.6503 4.1483C20.998 4.9877 21.089 5.91135 20.9117 6.80245C20.7345 7.69355 20.297 8.51208 19.6545 9.15452C19.0121 9.79697 18.1935 10.2345 17.3024 10.4117C16.4113 10.589 15.4877 10.498 14.6483 10.1503C13.8089 9.80263 13.0915 9.21384 12.5867 8.4584C12.0819 7.70296 11.8125 6.81481 11.8125 5.90625C11.8125 4.68791 12.2965 3.51948 13.158 2.65798C14.0195 1.79649 15.1879 1.3125 16.4062 1.3125ZM22.9688 14.4375C23.0706 14.4375 23.1711 14.4138 23.2622 14.3682C23.3534 14.3227 23.4326 14.2565 23.4937 14.175L25.4625 11.55C25.5669 11.4108 25.6118 11.2357 25.5872 11.0634C25.5625 10.8911 25.4705 10.7357 25.3312 10.6313C25.192 10.5268 25.017 10.482 24.8447 10.5066C24.6724 10.5312 24.5169 10.6233 24.4125 10.7625L22.4438 13.3875C22.3393 13.5267 22.2945 13.7018 22.3191 13.8741C22.3437 14.0464 22.4358 14.2018 22.575 14.3063C22.6886 14.3914 22.8268 14.4375 22.9688 14.4375ZM24.4125 16.8C24.4736 16.8815 24.5529 16.9477 24.644 16.9932C24.7351 17.0388 24.8356 17.0625 24.9375 17.0625C25.0795 17.0625 25.2177 17.0164 25.3312 16.9313L27.9562 14.9625C28.0955 14.8581 28.1875 14.7026 28.2122 14.5303C28.2368 14.358 28.1919 14.183 28.0875 14.0438C27.9831 13.9045 27.8276 13.8125 27.6553 13.7878C27.483 13.7632 27.308 13.8081 27.1688 13.9125L24.5438 15.8813C24.4045 15.9857 24.3125 16.1411 24.2878 16.3134C24.2632 16.4857 24.3081 16.6608 24.4125 16.8ZM30.8438 18.2438C30.8282 18.1567 30.7951 18.0738 30.7467 17.9999C30.6982 17.9259 30.6354 17.8626 30.5618 17.8135C30.4883 17.7645 30.4056 17.7308 30.3187 17.7145C30.2318 17.6983 30.1426 17.6997 30.0562 17.7188L26.775 18.375C26.6888 18.3836 26.6052 18.4091 26.5289 18.4501C26.4525 18.491 26.385 18.5466 26.3302 18.6136C26.2194 18.749 26.167 18.9228 26.1844 19.0969C26.2018 19.2709 26.2876 19.4309 26.423 19.5417C26.5584 19.6525 26.7322 19.7049 26.9062 19.6875H27.0375L30.3188 19.0313C30.4058 19.0157 30.4887 18.9826 30.5626 18.9342C30.6366 18.8857 30.7 18.8229 30.749 18.7493C30.798 18.6758 30.8317 18.5931 30.848 18.5062C30.8642 18.4193 30.8628 18.3301 30.8438 18.2438ZM0.65625 18.375H8.53125C8.7053 18.375 8.87222 18.3059 8.99529 18.1828C9.11836 18.0597 9.1875 17.8928 9.1875 17.7188V7.21875C9.1875 7.0447 9.11836 6.87778 8.99529 6.75471C8.87222 6.63164 8.7053 6.5625 8.53125 6.5625H0.65625C0.482202 6.5625 0.315282 6.63164 0.192211 6.75471C0.0691404 6.87778 0 7.0447 0 7.21875V17.7188C0 17.8928 0.0691404 18.0597 0.192211 18.1828C0.315282 18.3059 0.482202 18.375 0.65625 18.375ZM1.3125 7.875H7.875V17.0625H1.3125V7.875Z" fill="white"/>
<path d="M5.90625 9.1875H4.59375C4.4197 9.1875 4.25278 9.25664 4.12971 9.37971C4.00664 9.50278 3.9375 9.6697 3.9375 9.84375C3.9375 10.0178 4.00664 10.1847 4.12971 10.3078C4.25278 10.4309 4.4197 10.5 4.59375 10.5H5.90625C6.0803 10.5 6.24722 10.4309 6.37029 10.3078C6.49336 10.1847 6.5625 10.0178 6.5625 9.84375C6.5625 9.6697 6.49336 9.50278 6.37029 9.37971C6.24722 9.25664 6.0803 9.1875 5.90625 9.1875ZM5.90625 11.8125H3.28125C3.1072 11.8125 2.94028 11.8816 2.81721 12.0047C2.69414 12.1278 2.625 12.2947 2.625 12.4688C2.625 12.6428 2.69414 12.8097 2.81721 12.9328C2.94028 13.0559 3.1072 13.125 3.28125 13.125H5.90625C6.0803 13.125 6.24722 13.0559 6.37029 12.9328C6.49336 12.8097 6.5625 12.6428 6.5625 12.4688C6.5625 12.2947 6.49336 12.1278 6.37029 12.0047C6.24722 11.8816 6.0803 11.8125 5.90625 11.8125ZM5.90625 14.4375H3.28125C3.1072 14.4375 2.94028 14.5066 2.81721 14.6297C2.69414 14.7528 2.625 14.9197 2.625 15.0938C2.625 15.2678 2.69414 15.4347 2.81721 15.5578C2.94028 15.6809 3.1072 15.75 3.28125 15.75H5.90625C6.0803 15.75 6.24722 15.6809 6.37029 15.5578C6.49336 15.4347 6.5625 15.2678 6.5625 15.0938C6.5625 14.9197 6.49336 14.7528 6.37029 14.6297C6.24722 14.5066 6.0803 14.4375 5.90625 14.4375ZM22.3912 18.1781C22.3482 18.1031 22.2907 18.0374 22.2222 17.9846C22.1537 17.9318 22.0755 17.8931 21.992 17.8705C21.9085 17.848 21.8214 17.8421 21.7357 17.8532C21.6499 17.8643 21.5672 17.8922 21.4922 17.9353C21.4172 17.9784 21.3515 18.0358 21.2987 18.1043C21.2459 18.1728 21.2071 18.2511 21.1846 18.3346C21.162 18.418 21.1561 18.5051 21.1673 18.5909C21.1784 18.6767 21.2063 18.7594 21.2494 18.8344L24.1434 23.8416L13.6434 27.7791H13.545L11.8388 28.7634L10.7034 29.4197C10.554 29.5061 10.3889 29.5622 10.2178 29.5847C10.0466 29.6072 9.87267 29.5957 9.70594 29.5509C9.37099 29.4605 9.08549 29.241 8.91187 28.9406L7.59937 26.67C7.44496 26.3729 7.40992 26.0281 7.50142 25.706C7.59291 25.3839 7.80403 25.109 8.09156 24.9375L10.3622 23.625L12.0028 26.4666C12.0606 26.5667 12.1439 26.6498 12.2441 26.7074C12.3444 26.765 12.4581 26.7951 12.5737 26.7947C12.6892 26.7951 12.8027 26.7652 12.9028 26.7077C13.0029 26.6503 13.0861 26.5675 13.144 26.4677C13.2019 26.3679 13.2325 26.2545 13.2326 26.1391C13.2327 26.0237 13.2024 25.9103 13.1447 25.8103L11.4516 22.8834L19.6875 16.0913L19.9566 16.5572C19.9997 16.6322 20.0571 16.6979 20.1256 16.7507C20.1941 16.8035 20.2723 16.8422 20.3558 16.8648C20.4393 16.8873 20.5264 16.8932 20.6122 16.8821C20.6979 16.871 20.7806 16.8431 20.8556 16.8C20.9306 16.7569 20.9964 16.6995 21.0491 16.631C21.1019 16.5625 21.1407 16.4842 21.1632 16.4008C21.1858 16.3173 21.1917 16.2302 21.1805 16.1444C21.1694 16.0586 21.1415 15.9759 21.0984 15.9009L20.4422 14.7656C20.3941 14.6834 20.3287 14.6126 20.2505 14.5582C20.1723 14.5038 20.0832 14.4671 19.9894 14.4506C19.8951 14.4328 19.798 14.436 19.705 14.4598C19.612 14.4836 19.5254 14.5275 19.4513 14.5884L10.2637 22.1616L7.46812 23.7759C6.96643 24.0682 6.57577 24.5185 6.35728 25.0564C6.13879 25.5943 6.1048 26.1895 6.26062 26.7487L5.60437 27.1228C5.26625 27.317 4.99339 27.6072 4.8204 27.9566C4.64741 28.3061 4.58208 28.699 4.63269 29.0856C4.6833 29.4722 4.84758 29.8351 5.10469 30.1283C5.36179 30.4214 5.70016 30.6316 6.07688 30.7322C6.24388 30.7764 6.41598 30.7985 6.58875 30.7978C6.93398 30.7964 7.27302 30.706 7.57312 30.5353L8.22937 30.1612C8.54462 30.4869 8.94108 30.7225 9.37781 30.8438C9.60207 30.9065 9.83402 30.9374 10.0669 30.9356C10.5282 30.9367 10.9813 30.8143 11.3794 30.5812L11.9503 30.2531L13.2628 32.5303C13.5237 32.9813 13.9526 33.3105 14.4557 33.4458C14.9588 33.5811 15.495 33.5115 15.9469 33.2522C16.171 33.123 16.3676 32.9509 16.5252 32.7458C16.6828 32.5406 16.7985 32.3064 16.8655 32.0565C16.9325 31.8066 16.9497 31.546 16.9159 31.2894C16.8822 31.0329 16.7982 30.7856 16.6687 30.5616L15.4744 28.4813L25.3181 24.7866C25.4074 24.753 25.4883 24.7004 25.5552 24.6324C25.622 24.5644 25.6733 24.4826 25.7053 24.3928C25.7373 24.3041 25.7497 24.2095 25.7418 24.1155C25.7338 24.0215 25.7057 23.9303 25.6594 23.8481L22.3912 18.1781ZM6.89062 29.3934C6.81589 29.4366 6.73337 29.4647 6.64779 29.4759C6.5622 29.4872 6.47524 29.4815 6.39187 29.4591C6.22374 29.4154 6.07979 29.3068 5.99156 29.1572C5.94836 29.0825 5.92032 28.9999 5.90906 28.9144C5.8978 28.8288 5.90354 28.7418 5.92594 28.6584C5.94834 28.5746 5.98714 28.4961 6.04008 28.4274C6.09302 28.3587 6.15906 28.3012 6.23438 28.2581L6.80531 27.93L7.46156 29.0653L6.89062 29.3934ZM15.5269 31.2309C15.5701 31.3057 15.5981 31.3882 15.6094 31.4738C15.6206 31.5594 15.6149 31.6463 15.5925 31.7297C15.5457 31.8965 15.4348 32.038 15.2841 32.1234C15.1342 32.2095 14.9564 32.233 14.7892 32.1888C14.6221 32.1446 14.4792 32.0362 14.3916 31.8872L13.0791 29.61L14.1684 28.9866H14.2209L15.5269 31.2309Z" fill="white"/>
</svg>
