<svg width="42" height="42" viewBox="0 0 42 42" fill="none" xmlns="http://www.w3.org/2000/svg">
<path d="M29.6774 38.6129C29.6774 39.7332 28.7654 40.6452 27.6452 40.6452H26.9677V39.9677C26.9677 38.8475 26.0558 37.9355 24.9355 37.9355H14.0968C12.9765 37.9355 12.0645 38.8475 12.0645 39.9677V40.6452H11.3871C10.2668 40.6452 9.35484 39.7332 9.35484 38.6129V3.3871C9.35484 2.54862 9.86553 1.82785 10.592 1.51759L14.2953 5.22087C14.358 5.28392 14.4327 5.33391 14.5149 5.36798C14.5971 5.40204 14.6852 5.4195 14.7742 5.41935H24.2581C24.4383 5.41935 24.6103 5.34823 24.737 5.22087L28.4404 1.51759C29.1667 1.82785 29.6774 2.54862 29.6774 3.3871V11.5161H31.0323V3.3871C31.0323 1.51954 29.5127 0 27.6452 0H11.3871C9.51954 0 8 1.51954 8 3.3871V38.6129C8 40.4805 9.51954 42 11.3871 42H27.6452C29.5127 42 31.0323 40.4805 31.0323 38.6129V29.129H29.6774V38.6129ZM23.9775 4.06452H15.0547L12.3451 1.35484H26.6873L23.9775 4.06452ZM13.4194 39.9677C13.4194 39.594 13.723 39.2903 14.0968 39.2903H24.9355C25.3092 39.2903 25.6129 39.594 25.6129 39.9677V40.6452H13.4194V39.9677Z" fill="white"/>
<path d="M33.0645 13.5484C30.1874 13.5484 27.4824 12.4281 25.4482 10.3935L24.737 9.68233C24.6741 9.61935 24.5995 9.56938 24.5173 9.53529C24.4351 9.50119 24.347 9.48364 24.258 9.48364C24.1691 9.48364 24.081 9.50119 23.9988 9.53529C23.9166 9.56938 23.8419 9.61935 23.7791 9.68233L23.0679 10.3935C21.0337 12.4281 18.3287 13.5484 15.4516 13.5484C15.3626 13.5483 15.2745 13.5657 15.1922 13.5997C15.11 13.6337 15.0353 13.6836 14.9723 13.7465C14.9094 13.8095 14.8595 13.8842 14.8255 13.9664C14.7915 14.0487 14.7741 14.1368 14.7742 14.2258V15.0306C14.7742 21.9599 18.1755 28.4516 23.8728 32.3954C23.9884 32.4755 24.1231 32.5161 24.258 32.5161C24.393 32.5161 24.5277 32.4755 24.6433 32.3954C30.3407 28.4516 33.7419 21.9599 33.7419 15.0306V14.2258C33.7419 13.851 33.4393 13.5484 33.0645 13.5484ZM32.3871 15.0306C32.3871 21.3568 29.3569 27.2946 24.258 31.0075C19.1592 27.2946 16.129 21.3568 16.129 15.0306V14.8843C19.1129 14.7209 21.896 13.4812 24.0259 11.3507L24.258 11.1191L24.4902 11.3514C26.6207 13.4819 29.4032 14.7216 32.3871 14.885V15.0306Z" fill="white"/>
<path d="M21.5484 16.9355V18.2903H20.871C20.782 18.2902 20.6939 18.3077 20.6117 18.3417C20.5294 18.3757 20.4547 18.4256 20.3918 18.4885C20.3288 18.5514 20.2789 18.6262 20.2449 18.7084C20.2109 18.7906 20.1935 18.8788 20.1936 18.9678V24.3871C20.1936 24.7619 20.4962 25.0645 20.871 25.0645H27.6452C28.02 25.0645 28.3226 24.7619 28.3226 24.3871V18.9678C28.3226 18.593 28.02 18.2903 27.6452 18.2903H26.9678V16.9355C26.9678 15.4411 25.7525 14.2258 24.2581 14.2258C22.7637 14.2258 21.5484 15.4411 21.5484 16.9355ZM26.9678 23.7097H21.5484V19.6452H26.9678V23.7097ZM25.613 16.9355V18.2903H22.9033V16.9355C22.9033 16.1883 23.5109 15.5807 24.2581 15.5807C25.0053 15.5807 25.613 16.1883 25.613 16.9355Z" fill="white"/>
<path d="M23.5807 21H24.9355V22.3548H23.5807V21Z" fill="white"/>
</svg>
