<svg width="42" height="42" viewBox="0 0 42 42" fill="none" xmlns="http://www.w3.org/2000/svg">
<path fill-rule="evenodd" clip-rule="evenodd" d="M34.8741 14.1801C34.874 14.3208 34.818 14.4557 34.7185 14.5552C34.619 14.6547 34.484 14.7105 34.3433 14.7105H28.2783C28.2086 14.7105 28.1396 14.6968 28.0752 14.6702C28.0108 14.6436 27.9523 14.6045 27.903 14.5553C27.8537 14.506 27.8146 14.4475 27.788 14.3832C27.7613 14.3188 27.7475 14.2498 27.7475 14.1801C27.7474 14.1104 27.7611 14.0413 27.7878 13.9769C27.8144 13.9124 27.8535 13.8539 27.9028 13.8046C27.9521 13.7553 28.0107 13.7162 28.0751 13.6895C28.1395 13.6629 28.2086 13.6492 28.2783 13.6492H34.3433C34.413 13.6492 34.482 13.6629 34.5465 13.6896C34.6109 13.7163 34.6694 13.7554 34.7187 13.8047C34.768 13.854 34.8071 13.9125 34.8337 13.9769C34.8604 14.0414 34.8741 14.1104 34.8741 14.1801ZM32.5692 16.438C32.8944 16.7603 32.6879 17.3633 32.1949 17.3633H28.2783C27.9858 17.3633 27.7479 17.1272 27.7475 16.8343C27.7472 16.6936 27.8027 16.5586 27.9018 16.4589C28.0009 16.3591 28.1355 16.3027 28.2761 16.3021L32.195 16.2838C32.2644 16.2836 32.3333 16.2972 32.3975 16.3236C32.4617 16.3501 32.52 16.389 32.5692 16.438ZM36.137 18.094C36.3231 16.3893 36.3217 14.6474 36.1343 12.9168C36.0637 12.2603 35.5538 11.7612 34.896 11.704C32.5276 11.4973 30.1204 11.4987 27.7403 11.7076C27.0927 11.7639 26.5847 12.2545 26.5056 12.8998C26.3436 14.2134 26.3046 15.5393 26.3888 16.8602C26.3951 16.9545 26.3759 17.0487 26.3334 17.1331L25.2266 19.3328L26.168 18.7586C26.2742 18.6941 26.3996 18.6688 26.5225 18.687C26.6455 18.7052 26.7581 18.7658 26.8411 18.8583C27.0696 19.1141 27.3888 19.2729 27.7395 19.3037C30.1083 19.5157 32.5174 19.5161 34.901 19.3055C35.5574 19.2474 36.0664 18.7492 36.137 18.094ZM30.4625 23.8732C30.4625 26.8896 29.1549 29.4954 26.7803 31.2083L26.0232 31.7548V26.5883C26.0232 24.5482 25.249 22.686 23.9785 21.2795C24.0556 21.271 24.1298 21.2457 24.1959 21.2053L26.3805 19.873C26.7419 20.1494 27.1788 20.3193 27.6448 20.3614C28.582 20.4445 29.5218 20.4958 30.4626 20.5153V23.8732H30.4625ZM24.9614 32.5203V26.5882C24.9614 23.0226 22.2299 20.0831 18.7498 19.7509L20.7398 29.4968C20.7551 29.5718 20.7539 29.6492 20.7365 29.7238C20.719 29.7984 20.6857 29.8683 20.6388 29.9288L18.5119 32.6634C18.2998 32.9366 17.8871 32.9369 17.6742 32.6634L15.5478 29.9288C15.5006 29.8684 15.4671 29.7985 15.4496 29.7239C15.4322 29.6493 15.4312 29.5718 15.4467 29.4968L17.4364 19.7509C13.9562 20.0831 11.2243 23.0226 11.2243 26.5882V32.5203L17.5603 37.092C17.7277 37.2133 17.9062 37.3185 18.0933 37.4065C18.2803 37.3186 18.4587 37.2133 18.626 37.092L24.9614 32.5203ZM19.6509 29.47L18.0933 31.4729L16.5357 29.4704L18.0933 21.8416L19.6509 29.47ZM18.0933 18.658C16.0537 18.658 14.3958 16.9994 14.3958 14.9605C14.3958 12.9217 16.0545 11.263 18.0933 11.263C20.1317 11.263 21.7907 12.9216 21.7907 14.9605C21.7907 16.9993 20.1318 18.658 18.0933 18.658ZM10.1626 31.7548V26.5883C10.1626 23.067 12.4698 20.0752 15.6512 19.0435C14.2644 18.2109 13.3342 16.6926 13.3342 14.9606C13.3342 12.3364 15.4696 10.2019 18.0933 10.2019C20.7171 10.2019 22.852 12.3364 22.852 14.9606C22.852 16.6926 21.9214 18.2109 20.535 19.0435C21.6043 19.3901 22.5751 19.9585 23.3926 20.6947C23.3989 20.6317 23.4166 20.5705 23.445 20.514L25.321 16.7843C25.2441 15.445 25.288 14.1016 25.4521 12.7702C25.5933 11.6227 26.4963 10.7506 27.6478 10.6495C28.5841 10.5677 29.5228 10.517 30.4625 10.4975V8.82764C26.0124 8.72213 21.7545 7.29237 18.0933 4.67316C14.4321 7.29245 10.1742 8.72213 5.72373 8.82764V23.8733C5.72373 26.8897 7.03178 29.4955 9.40646 31.2083L10.1626 31.7548ZM37.1893 12.8023C37.0636 11.6352 36.1576 10.7488 34.9886 10.6468C33.8364 10.5466 32.6806 10.4942 31.5241 10.4898V8.30297C31.524 8.16222 31.468 8.02726 31.3685 7.92774C31.269 7.82822 31.134 7.77226 30.9933 7.77218C26.4515 7.77218 22.0998 6.32595 18.409 3.5904C18.3175 3.52265 18.2067 3.48608 18.0928 3.48608C17.979 3.48608 17.8681 3.52265 17.7766 3.5904C14.0859 6.32595 9.73465 7.77218 5.19285 7.77218C5.05214 7.77226 4.91723 7.82823 4.81777 7.92777C4.71831 8.0273 4.66245 8.16226 4.66248 8.30297V23.8732C4.66248 27.2402 6.1266 30.1506 8.78478 32.0695L16.9391 37.9529C17.1725 38.1212 17.8065 38.5137 18.0933 38.5137C18.3796 38.5137 19.0139 38.1213 19.2476 37.9529L27.4009 32.0695C30.06 30.1505 31.5242 27.2402 31.5242 23.8732V20.5232C32.6826 20.5175 33.8404 20.464 34.9945 20.3627C36.1621 20.2589 37.0655 19.3739 37.1929 18.2085C37.3869 16.4282 37.3856 14.6085 37.1893 12.8023Z" fill="white"/>
</svg>
