<svg width="40" height="40" viewBox="0 0 40 40" fill="none" xmlns="http://www.w3.org/2000/svg">
<path d="M19.4289 31.2138C18.6489 31.3713 17.8576 31.4671 17.0625 31.5006V24.3146C17.6858 24.3427 18.3069 24.4085 18.9223 24.5115C19.0079 24.5273 19.0958 24.5259 19.1809 24.5074C19.2659 24.4889 19.3465 24.4537 19.4178 24.4038C19.4891 24.3539 19.5498 24.2903 19.5962 24.2167C19.6427 24.1431 19.6741 24.061 19.6886 23.9751C19.703 23.8893 19.7003 23.8014 19.6804 23.7167C19.6606 23.6319 19.6241 23.5519 19.5731 23.4814C19.522 23.4109 19.4575 23.3512 19.3832 23.3059C19.3088 23.2606 19.2262 23.2305 19.1402 23.2174C18.4527 23.1028 17.7588 23.0311 17.0625 23.0028V17.0795H24.2681C24.257 17.5664 24.2373 18.0573 24.1999 18.5541C24.1907 18.7255 24.249 18.8937 24.3624 19.0226C24.4757 19.1515 24.6351 19.2309 24.8063 19.2437C24.9775 19.2564 25.1468 19.2017 25.2781 19.091C25.4094 18.9804 25.492 18.8227 25.5084 18.6519C25.5478 18.1229 25.5695 17.5986 25.5806 17.0795H32.1562C32.3303 17.0795 32.4972 17.0103 32.6203 16.8873C32.7434 16.7642 32.8125 16.5973 32.8125 16.4232C32.8153 13.7046 32.1425 11.028 30.8546 8.63381C29.5667 6.23966 27.704 4.20308 25.434 2.70715C23.164 1.21122 20.5578 0.302824 17.8497 0.06363C15.1417 -0.175563 12.4167 0.261939 9.91958 1.33681C7.42251 2.41168 5.23167 4.09023 3.54402 6.22155C1.85637 8.35288 0.724806 10.8702 0.251045 13.5472C-0.222717 16.2242 -0.0238233 18.9769 0.829846 21.558C1.68352 24.1391 3.1652 26.4676 5.14171 28.3342C5.14827 28.3407 5.14959 28.3499 5.15549 28.3565C5.16599 28.3676 5.17977 28.3709 5.19093 28.3814C8.22518 31.2403 12.2373 32.8316 16.4062 32.8295C17.5093 32.8295 18.6097 32.7191 19.6908 32.5C19.8613 32.4653 20.0111 32.3643 20.1072 32.2191C20.2032 32.0739 20.2377 31.8966 20.203 31.726C20.1683 31.5554 20.0672 31.4056 19.922 31.3096C19.7769 31.2135 19.5995 31.1791 19.4289 31.2138ZM11.9641 30.8483C10.0026 30.2411 8.18571 29.2398 6.62484 27.9056C7.36118 27.2763 8.15601 26.7188 8.99849 26.2407C9.6638 27.9621 10.6729 29.5298 11.9641 30.8483ZM10.1771 25.6409C11.9313 24.8422 13.824 24.392 15.75 24.3153V31.4605C13.4859 31.1003 11.4922 28.8999 10.1771 25.6409ZM15.75 23.0028C13.6707 23.0787 11.6256 23.5544 9.72627 24.4039C8.97826 22.0327 8.57859 19.5655 8.53977 17.0795H15.75V23.0028ZM17.0625 1.38592C19.3226 1.74555 21.3137 3.93939 22.6288 7.1898C20.8757 7.98523 18.9859 8.43595 17.0625 8.51739V1.38592ZM20.8491 1.9982C22.8061 2.60392 24.6192 3.60203 26.1778 4.93164C25.443 5.55892 24.6497 6.11425 23.8087 6.58998C23.1437 4.87458 22.1367 3.31233 20.8491 1.9982ZM15.75 1.38592V8.51739C13.8266 8.43595 11.9368 7.98523 10.1837 7.1898C11.4988 3.93939 13.4899 1.74555 15.75 1.38592ZM9.00374 6.58998C8.16287 6.11444 7.36954 5.55934 6.63468 4.9323C8.1932 3.60247 10.0063 2.60413 11.9634 1.9982C10.6758 3.31232 9.66881 4.87457 9.00374 6.58998ZM15.75 9.82989V15.767H8.53977C8.57859 13.2747 8.98028 10.8013 9.73218 8.42486C11.6304 9.27202 13.6729 9.74934 15.75 9.82989ZM17.0625 9.82989C19.1396 9.74914 21.1822 9.27224 23.0803 8.42486C23.8322 10.8013 24.2339 13.2747 24.2727 15.767H17.0625V9.82989ZM31.4862 15.767H25.5846C25.5505 13.0716 25.1088 10.3969 24.2747 7.83358C25.2994 7.27001 26.2611 6.59858 27.1431 5.8307C29.7761 8.48755 31.324 12.03 31.4862 15.767ZM5.66934 5.8307C6.55142 6.5986 7.51303 7.27004 8.53781 7.83358C7.70364 10.3969 7.26202 13.0716 7.22793 15.767H1.32562C1.48762 12.0301 3.036 8.48765 5.66868 5.8307H5.66934ZM1.32562 17.0795H7.22727C7.26154 19.7705 7.70182 22.4409 8.53321 25.0004C7.50697 25.5654 6.54385 26.2382 5.66015 27.0072C3.03253 24.3511 1.48741 20.8122 1.32562 17.0795ZM38.7187 21.017C35.8217 20.97 32.9972 20.1031 30.5727 18.5167C30.4606 18.4357 30.3258 18.3922 30.1875 18.3922C30.0492 18.3922 29.9144 18.4357 29.8023 18.5167C27.3777 20.1031 24.5533 20.97 21.6562 21.017C21.4822 21.017 21.3153 21.0861 21.1922 21.2092C21.0691 21.3323 21 21.4992 21 21.6732V28.2357C21 36.3535 29.8955 39.331 29.9847 39.3598C30.1165 39.4027 30.2585 39.4027 30.3903 39.3598C30.4795 39.331 39.375 36.3535 39.375 28.2357V21.6732C39.375 21.4992 39.3059 21.3323 39.1828 21.2092C39.0597 21.0861 38.8928 21.017 38.7187 21.017ZM38.0625 28.2357C38.0625 34.747 31.4409 37.5637 30.1875 38.0381C28.9341 37.5637 22.3125 34.747 22.3125 28.2357V22.315C25.104 22.1637 27.8124 21.3115 30.1875 19.837C32.5626 21.3115 35.271 22.1637 38.0625 22.315V28.2357ZM28.875 31.2453L34.3173 25.803C34.441 25.6835 34.6068 25.6173 34.7789 25.6188C34.9509 25.6203 35.1155 25.6893 35.2372 25.811C35.3589 25.9327 35.4279 26.0973 35.4294 26.2693C35.4309 26.4414 35.3648 26.6072 35.2452 26.731L29.339 32.6372C29.2159 32.7602 29.049 32.8293 28.875 32.8293C28.701 32.8293 28.5341 32.7602 28.411 32.6372L25.1298 29.356C25.0102 29.2322 24.9441 29.0664 24.9456 28.8943C24.9471 28.7223 25.0161 28.5577 25.1378 28.436C25.2594 28.3143 25.424 28.2453 25.5961 28.2438C25.7682 28.2423 25.9339 28.3085 26.0577 28.428L28.875 31.2453Z" fill="white"/>
</svg>
