<svg width="37" height="35" viewBox="0 0 37 35" fill="none" xmlns="http://www.w3.org/2000/svg">
<path d="M4.29912 32.3635H9.66952C10.1079 32.3645 10.5421 32.2786 10.947 32.1108C11.352 31.9429 11.7196 31.6965 12.0288 31.3858L13.9569 29.4577C15.6959 30.5418 17.7489 31.0097 19.7859 30.786C19.842 30.7816 19.8967 30.7659 19.9466 30.7399C19.9966 30.714 20.0408 30.6782 20.0767 30.6348C20.1125 30.5914 20.1393 30.5413 20.1554 30.4873C20.1715 30.4334 20.1766 30.3767 20.1703 30.3208C20.1641 30.2648 20.1467 30.2107 20.1191 30.1616C20.0915 30.1126 20.0544 30.0695 20.0099 30.0351C19.9653 30.0006 19.9143 29.9755 19.8599 29.9611C19.8054 29.9468 19.7487 29.9436 19.693 29.9516C16.8392 30.2691 13.9653 29.0769 12.1559 26.7114L11.6575 26.0338C11.5894 25.9503 11.4917 25.8961 11.3847 25.8824C11.2777 25.8688 11.1696 25.8968 11.0826 25.9607C10.9957 26.0245 10.9366 26.1193 10.9176 26.2255C10.8986 26.3317 10.9211 26.4411 10.9805 26.5311L11.4839 27.2154C11.9921 27.8784 12.5873 28.4699 13.2535 28.9738L11.4352 30.7922C11.2038 31.0246 10.9286 31.2089 10.6255 31.3344C10.3225 31.46 9.99754 31.5242 9.66952 31.5235H4.29912C4.18773 31.5235 4.0809 31.5678 4.00214 31.6465C3.92337 31.7253 3.87912 31.8321 3.87912 31.9435C3.87912 32.0549 3.92337 32.1617 4.00214 32.2405C4.0809 32.3193 4.18773 32.3635 4.29912 32.3635ZM1.59488 33.4561C1.99571 33.4555 2.37994 33.296 2.66337 33.0126C2.9468 32.7291 3.10629 32.3449 3.10688 31.9441C3.10688 31.1097 2.42872 30.431 1.59488 30.431C0.76104 30.431 0.08176 31.1097 0.08176 31.9435C0.0822049 32.3446 0.241783 32.7292 0.525468 33.0128C0.809153 33.2963 1.19376 33.4558 1.59488 33.4561ZM1.59488 31.271C1.9656 31.271 2.26688 31.5734 2.26688 31.9435C2.26688 32.3142 1.9656 32.6161 1.59488 32.6161C1.22416 32.6161 0.92176 32.3142 0.92176 31.9441C0.92176 31.5728 1.22416 31.271 1.59488 31.271ZM1.51256 3.0716C2.34696 3.0716 3.02512 2.39288 3.02512 1.55848C3.02512 0.72408 2.3464 0.0464798 1.51312 0.0464798C0.67984 0.0464798 0 0.72464 0 1.55848C0 2.39232 0.67872 3.0716 1.51256 3.0716ZM1.51256 0.88592C1.88328 0.88592 2.18512 1.18832 2.18512 1.55848C2.18512 1.92864 1.88328 2.2316 1.51312 2.2316C1.14296 2.2316 0.84 1.9292 0.84 1.55848C0.84 1.18776 1.1424 0.88648 1.51256 0.88648V0.88592ZM1.81832 8.32832C1.81832 9.16272 2.49704 9.84144 3.33088 9.84144C4.16472 9.84144 4.84344 9.16272 4.84344 8.32832C4.84344 7.49392 4.16528 6.81632 3.33144 6.81632C2.4976 6.81632 1.81832 7.49448 1.81832 8.32832ZM4.00344 8.32832C4.00344 8.69904 3.7016 9.00144 3.33144 9.00144C2.96128 9.00144 2.65832 8.69904 2.65832 8.32832C2.65832 7.9576 2.96072 7.65632 3.33088 7.65632C3.70104 7.65632 4.00344 7.9576 4.00344 8.32832ZM6.06144 25.2683C5.95005 25.2683 5.84322 25.3126 5.76445 25.3913C5.68569 25.4701 5.64144 25.5769 5.64144 25.6883C5.64144 25.7997 5.68569 25.9065 5.76445 25.9853C5.84322 26.0641 5.95005 26.1083 6.06144 26.1083H8.32944C9.10784 26.1083 9.83864 25.8059 10.3891 25.2554C10.4304 25.217 10.4635 25.1706 10.4864 25.1191C10.5094 25.0676 10.5217 25.012 10.5227 24.9556C10.5237 24.8992 10.5134 24.8432 10.4922 24.7909C10.4711 24.7386 10.4397 24.6911 10.3998 24.6512C10.3599 24.6113 10.3124 24.5799 10.2601 24.5587C10.2078 24.5376 10.1518 24.5272 10.0954 24.5282C10.039 24.5292 9.98338 24.5416 9.93186 24.5645C9.88034 24.5875 9.83397 24.6206 9.79552 24.6618C9.40352 25.0533 8.88272 25.2683 8.32944 25.2683H6.06144ZM4.844 25.6883C4.844 24.8545 4.16472 24.1763 3.33088 24.1763C2.49704 24.1763 1.81888 24.8545 1.81888 25.6883C1.81888 26.5222 2.49704 27.2014 3.33088 27.2014C4.16472 27.2014 4.844 26.5227 4.844 25.6883ZM2.65832 25.6883C2.65832 25.3176 2.96072 25.0163 3.33088 25.0163C3.70104 25.0163 4.00344 25.3176 4.00344 25.6883C4.00344 26.059 3.7016 26.3614 3.33144 26.3614C2.96128 26.3614 2.65832 26.059 2.65832 25.6883ZM23.7524 2.24224L21.789 4.2056C19.578 3.42747 17.1515 3.53585 15.0186 4.508L12.6941 2.184C12.3637 1.8516 11.9706 1.58804 11.5377 1.40857C11.1048 1.22911 10.6405 1.1373 10.1718 1.13848H4.29912C4.18773 1.13848 4.0809 1.18273 4.00214 1.26149C3.92337 1.34026 3.87912 1.44709 3.87912 1.55848C3.87912 1.66987 3.92337 1.7767 4.00214 1.85546C4.0809 1.93423 4.18773 1.97848 4.29912 1.97848H10.1718C10.8998 1.97848 11.5847 2.2624 12.0999 2.7776L14.504 5.18112C14.593 5.27016 14.9772 5.45104 15.1917 5.34576C18.6094 3.70552 22.7013 4.58808 25.163 7.51968C25.1981 7.56313 25.2415 7.59915 25.2907 7.62562C25.3399 7.6521 25.3939 7.6685 25.4494 7.67386C25.505 7.67923 25.5611 7.67345 25.6145 7.65687C25.6678 7.64029 25.7173 7.61325 25.76 7.57731C25.8028 7.54137 25.838 7.49727 25.8635 7.44758C25.889 7.39789 25.9043 7.34361 25.9086 7.28793C25.9128 7.23224 25.906 7.17626 25.8883 7.12326C25.8707 7.07027 25.8427 7.02132 25.8059 6.97928C24.9391 5.94641 23.8554 5.11718 22.6318 4.55056L24.3466 2.8364C24.6092 2.57219 24.9216 2.3627 25.2657 2.22005C25.6098 2.07741 25.9788 2.00443 26.3514 2.00536H32.4201C32.5315 2.00536 32.6383 1.96111 32.7171 1.88234C32.7958 1.80358 32.8401 1.69675 32.8401 1.58536C32.8401 1.47397 32.7958 1.36714 32.7171 1.28838C32.6383 1.20961 32.5315 1.16536 32.4201 1.16536H26.3514C25.3697 1.16536 24.4474 1.54784 23.7524 2.24224ZM35.1674 0C34.7664 0.000444373 34.3818 0.159928 34.0982 0.443475C33.8145 0.727023 33.6549 1.11149 33.6543 1.51256C33.6546 1.91383 33.8141 2.29858 34.0978 2.58237C34.3815 2.86616 34.7662 3.02579 35.1674 3.02624C35.5687 3.02565 35.9533 2.86587 36.2369 2.58197C36.5205 2.29808 36.6799 1.91326 36.68 1.512C36.6794 1.11108 36.5198 0.726754 36.2363 0.443311C35.9527 0.159869 35.5684 0.000444372 35.1674 0ZM35.1674 2.18624C34.9948 2.17761 34.8321 2.10296 34.713 1.97772C34.5938 1.85248 34.5274 1.68625 34.5274 1.5134C34.5274 1.34055 34.5938 1.17431 34.713 1.04908C34.8321 0.923843 34.9948 0.849189 35.1674 0.84056C35.3401 0.849189 35.5028 0.923843 35.6219 1.04908C35.7411 1.17431 35.8075 1.34055 35.8075 1.5134C35.8075 1.68625 35.7411 1.85248 35.6219 1.97772C35.5028 2.10296 35.3401 2.17761 35.1674 2.18624ZM30.7832 8.62848C30.8946 8.62848 31.0014 8.58423 31.0802 8.50546C31.159 8.4267 31.2032 8.31987 31.2032 8.20848C31.2032 8.09709 31.159 7.99026 31.0802 7.9115C31.0014 7.83273 30.8946 7.78848 30.7832 7.78848H28.518C27.7407 7.78848 27.0105 8.09088 26.4611 8.64024C26.2819 8.81832 26.166 9.00368 26.278 9.23104C28.2268 13.1774 26.0932 14.8859 27.0088 20.1197C27.1454 20.9373 27.1342 22.4185 26.913 23.4819C26.9 23.5366 26.898 23.5933 26.9073 23.6487C26.9166 23.7042 26.9369 23.7572 26.967 23.8046C26.9971 23.852 27.0365 23.8929 27.0827 23.9249C27.1289 23.9569 27.1811 23.9792 27.2361 23.9906C27.2911 24.0021 27.3479 24.0024 27.403 23.9915C27.4582 23.9806 27.5105 23.9587 27.5571 23.9272C27.6036 23.8957 27.6433 23.8551 27.6739 23.808C27.7045 23.7609 27.7253 23.7081 27.7351 23.6527C27.9854 22.4454 27.9832 20.8516 27.8359 19.9696C27.5477 18.3163 27.5306 16.627 27.7855 14.9682C27.9966 13.5895 27.9647 12.9466 27.9866 12.6246C27.9385 11.4237 27.6568 10.2436 27.1572 9.1504C27.5315 8.81558 28.0158 8.62985 28.518 8.62848H30.7832ZM33.5126 6.6136C32.6782 6.6136 32.0001 7.29232 32.0001 8.12616C32.0001 8.96 32.6782 9.63872 33.5121 9.63872C34.3459 9.63872 35.0252 8.96 35.0252 8.12616C35.0252 7.29232 34.3465 6.6136 33.5126 6.6136ZM33.5126 8.79872C33.1419 8.79872 32.8401 8.49688 32.8401 8.12616C32.8401 7.75544 33.1419 7.4536 33.5121 7.4536C33.8822 7.4536 34.1852 7.75544 34.1852 8.12616C34.1852 8.49688 33.8828 8.79872 33.5126 8.79872ZM21.6978 30.3587C22.2477 30.1722 22.7814 29.9331 23.2842 29.6475C23.3776 29.5908 23.4452 29.5 23.4727 29.3942C23.5002 29.2885 23.4854 29.1763 23.4315 29.0813C23.3776 28.9863 23.2888 28.916 23.1839 28.8854C23.0791 28.8548 22.9664 28.8662 22.8698 28.9173C22.4123 29.1766 21.9274 29.3933 21.4278 29.5635C21.3756 29.5812 21.3274 29.6091 21.286 29.6454C21.2445 29.6818 21.2106 29.726 21.1862 29.7754C21.1618 29.8249 21.1474 29.8786 21.1438 29.9337C21.1402 29.9887 21.1475 30.0439 21.1652 30.0961C21.1829 30.1483 21.2108 30.1965 21.2471 30.238C21.2835 30.2794 21.3276 30.3133 21.3771 30.3377C21.4265 30.3621 21.4803 30.3765 21.5353 30.3801C21.5904 30.3837 21.6455 30.3764 21.6978 30.3587ZM11.5662 24.4395C11.842 24.1411 12.0681 23.8004 12.236 23.4304C12.7938 24.8623 13.739 26.1318 15.0976 27.281C15.1833 27.3476 15.2915 27.3786 15.3995 27.3673C15.5074 27.3561 15.6069 27.3035 15.677 27.2206C15.7471 27.1377 15.7824 27.0309 15.7756 26.9225C15.7687 26.8141 15.7202 26.7126 15.6402 26.6392C13.9574 25.2168 12.9679 23.6018 12.6162 21.7028C12.5975 21.5996 12.5406 21.5073 12.4568 21.4442C12.3731 21.3811 12.2687 21.3519 12.1643 21.3623C12.0598 21.3721 11.9627 21.4206 11.8922 21.4983C11.8216 21.5761 11.7826 21.6773 11.783 21.7823C11.783 21.7941 11.7762 22.979 10.9508 23.8672C10.8783 23.9494 10.8407 24.0568 10.8462 24.1663C10.8516 24.2758 10.8996 24.3788 10.98 24.4535C11.0603 24.5281 11.1666 24.5684 11.2762 24.5658C11.3858 24.5632 11.4901 24.5179 11.5668 24.4395H11.5662ZM16.5508 28.0073C18.7533 28.7879 21.1294 28.3556 22.918 26.95C22.9618 26.9161 22.9986 26.8739 23.026 26.8257C23.0535 26.7776 23.0711 26.7245 23.078 26.6695C23.0848 26.6145 23.0807 26.5587 23.0659 26.5053C23.051 26.4519 23.0258 26.402 22.9916 26.3584C22.9574 26.3148 22.9149 26.2784 22.8665 26.2513C22.8182 26.2242 22.765 26.2069 22.7099 26.2005C22.6549 26.1941 22.5991 26.1986 22.5458 26.2138C22.4925 26.229 22.4428 26.2547 22.3994 26.2892C20.8723 27.4893 18.8042 27.9143 16.8308 27.2154C16.7786 27.196 16.723 27.1872 16.6673 27.1894C16.6116 27.1917 16.5569 27.205 16.5064 27.2286C16.4559 27.2522 16.4107 27.2856 16.3732 27.3269C16.3358 27.3682 16.3069 27.4165 16.2883 27.469C16.2698 27.5216 16.2618 27.5773 16.265 27.633C16.2682 27.6886 16.2824 27.7431 16.3068 27.7932C16.3312 27.8432 16.3654 27.888 16.4073 27.9247C16.4492 27.9615 16.498 27.9896 16.5508 28.0073Z" fill="white"/>
<path d="M19.7159 6.20469C16.3111 5.71805 13.0654 7.91997 12.1979 11.355C12.176 11.4611 12.1959 11.5716 12.2535 11.6634C12.3111 11.7552 12.4019 11.8213 12.507 11.8478C12.612 11.8743 12.7233 11.8592 12.8175 11.8057C12.9117 11.7522 12.9817 11.6643 13.0127 11.5605C13.7766 8.53093 16.6247 6.61461 19.5966 7.03573C19.8268 7.07381 20.039 6.90973 20.0721 6.68013C20.1051 6.45053 19.9455 6.23773 19.7159 6.20469ZM9.90249 12.867C9.792 12.8537 9.68076 12.8848 9.5932 12.9535C9.50563 13.0222 9.44889 13.1228 9.43545 13.2333C9.33129 14.0923 9.13529 18.2576 9.67681 21.8421C9.68427 21.8973 9.70265 21.9505 9.73086 21.9985C9.75906 22.0465 9.79654 22.0885 9.84111 22.1219C9.88569 22.1553 9.93645 22.1795 9.99047 22.1931C10.0445 22.2067 10.1007 22.2094 10.1557 22.2011C10.2108 22.1928 10.2637 22.1736 10.3113 22.1446C10.3589 22.1157 10.4002 22.0776 10.4329 22.0325C10.4656 21.9874 10.4891 21.9363 10.5018 21.8821C10.5146 21.8278 10.5165 21.7716 10.5073 21.7167C9.97921 18.2178 10.1685 14.1679 10.2687 13.3335C10.282 13.2231 10.2509 13.1119 10.1822 13.0244C10.1135 12.9369 10.0129 12.8803 9.90249 12.867ZM13.7049 6.26293C13.7486 6.22925 13.7852 6.18729 13.8127 6.13946C13.8401 6.09163 13.8579 6.03885 13.865 5.98415C13.872 5.92944 13.8683 5.87388 13.8539 5.82063C13.8395 5.76738 13.8147 5.71749 13.781 5.67381C13.7474 5.63013 13.7054 5.59351 13.6576 5.56604C13.6097 5.53857 13.557 5.52079 13.5023 5.51372C13.4476 5.50665 13.392 5.51042 13.3387 5.52482C13.2855 5.53922 13.2356 5.56397 13.1919 5.59765C12.1519 6.40352 11.2938 7.41987 10.6736 8.58021C10.1185 8.15158 9.43737 7.91812 8.73601 7.91605H6.18801C6.07661 7.91605 5.96979 7.9603 5.89102 8.03907C5.81225 8.11783 5.76801 8.22466 5.76801 8.33605C5.76801 8.44744 5.81225 8.55427 5.89102 8.63304C5.96979 8.7118 6.07661 8.75605 6.18801 8.75605H8.73601C9.32009 8.75605 9.86609 8.97333 10.3001 9.35525C10.0507 9.93583 9.86013 10.5399 9.73113 11.1585C9.71883 11.2129 9.71752 11.2693 9.72727 11.3243C9.73702 11.3792 9.75763 11.4317 9.7879 11.4786C9.81817 11.5256 9.8575 11.566 9.90357 11.5975C9.94965 11.6291 10.0015 11.6511 10.0562 11.6623C10.1109 11.6736 10.1673 11.6738 10.2221 11.663C10.2769 11.6522 10.329 11.6306 10.3753 11.5994C10.4216 11.5682 10.4613 11.5281 10.4919 11.4815C10.5225 11.4348 10.5436 11.3825 10.5538 11.3276C10.9636 9.31642 12.0818 7.51922 13.7049 6.26293ZM12.0848 12.6324C12.0301 12.6246 11.9744 12.6278 11.921 12.6418C11.8676 12.6559 11.8175 12.6804 11.7737 12.7141C11.7299 12.7477 11.6932 12.7898 11.6658 12.8378C11.6385 12.8858 11.621 12.9387 11.6144 12.9936C11.2988 15.3763 11.2618 17.7877 11.5041 20.1789C11.5178 20.2876 11.5734 20.3867 11.6591 20.4549C11.7448 20.5232 11.8538 20.5552 11.9628 20.5443C12.0718 20.5333 12.1722 20.4802 12.2426 20.3962C12.313 20.3123 12.3478 20.2042 12.3396 20.0949C12.1037 17.7682 12.1394 15.4218 12.446 13.1033C12.4532 13.0487 12.4496 12.9932 12.4354 12.9399C12.4212 12.8866 12.3966 12.8367 12.363 12.793C12.3295 12.7492 12.2876 12.7125 12.2399 12.685C12.1922 12.6574 12.1395 12.6395 12.0848 12.6324ZM24.5969 14.1007C24.2642 16.0165 24.2308 17.9723 24.4978 19.8984C24.5178 20.0045 24.5779 20.0988 24.6656 20.1619C24.7532 20.2249 24.8618 20.2518 24.9688 20.2369C25.0757 20.2221 25.1729 20.1667 25.2401 20.0822C25.3074 19.9977 25.3395 19.8906 25.3299 19.783C25.0751 17.9434 25.1059 16.0837 25.4251 14.2441C26.0047 10.9014 24.1808 7.84997 21.359 6.66109C21.3081 6.63969 21.2535 6.62852 21.1984 6.62821C21.1432 6.6279 21.0885 6.63846 21.0374 6.65928C20.9863 6.68011 20.9398 6.71079 20.9006 6.74959C20.8614 6.78838 20.8302 6.83452 20.8088 6.88537C20.7655 6.98807 20.7649 7.10374 20.807 7.20692C20.849 7.3101 20.9303 7.39235 21.033 7.43557C23.4713 8.46261 25.1177 11.1047 24.5969 14.1007ZM24.3992 24.5413C24.5012 24.5861 24.6168 24.5887 24.7206 24.5483C24.8244 24.508 24.908 24.4282 24.953 24.3263C25.6474 22.7499 25.5147 21.5039 25.5209 21.4479C25.5147 21.2166 25.3389 21.0464 25.0897 21.0391C25.0345 21.0405 24.9802 21.0528 24.9298 21.0753C24.8794 21.0978 24.8339 21.1299 24.7959 21.17C24.758 21.21 24.7283 21.2572 24.7085 21.3087C24.6888 21.3602 24.6794 21.4151 24.6809 21.4703C24.6753 21.5263 24.7996 22.5931 24.1842 23.9869C24.1618 24.0374 24.1496 24.0918 24.1483 24.147C24.147 24.2022 24.1565 24.2571 24.1765 24.3086C24.1964 24.3601 24.2263 24.4072 24.2644 24.4471C24.3025 24.487 24.3487 24.519 24.3992 24.5413ZM16.245 25.0957C16.3344 25.1623 16.4465 25.1906 16.5567 25.1745C16.6669 25.1583 16.7662 25.0991 16.8328 25.0098C16.8993 24.9204 16.9276 24.8083 16.9115 24.6981C16.8954 24.5879 16.8361 24.4886 16.7468 24.4221C16.0076 23.871 15.4924 23.0237 15.3328 22.102C15.3054 21.8881 14.9946 20.2814 14.9285 18.1349C14.9269 18.0798 14.9144 18.0255 14.8918 17.9751C14.8691 17.9248 14.8368 17.8795 14.7965 17.8417C14.7563 17.8039 14.709 17.7744 14.6574 17.755C14.6057 17.7356 14.5508 17.7265 14.4956 17.7284C14.3842 17.7319 14.2788 17.7794 14.2025 17.8606C14.1262 17.9418 14.0852 18.0499 14.0885 18.1613C14.1585 20.3755 14.4805 22.0521 14.504 22.2403C14.7011 23.3771 15.3356 24.417 16.245 25.0957ZM15.3093 10.3868C14.6894 11.4256 14.3858 13.1392 14.3718 13.2249C14.225 14.2485 14.1325 15.2792 14.0946 16.3127C14.0925 16.3679 14.1013 16.4229 14.1205 16.4747C14.1397 16.5264 14.1689 16.5739 14.2065 16.6144C14.244 16.6548 14.2892 16.6875 14.3394 16.7105C14.3896 16.7335 14.4438 16.7464 14.499 16.7484H14.5141C14.6229 16.7484 14.7274 16.7063 14.8056 16.6307C14.8839 16.5552 14.9298 16.4522 14.9335 16.3435C14.9688 15.3579 15.0601 14.3477 15.2018 13.3559C15.204 13.3391 15.4907 11.7213 16.03 10.818C16.0595 10.7706 16.0793 10.7179 16.0882 10.6628C16.0971 10.6077 16.0949 10.5514 16.0818 10.4972C16.0687 10.4429 16.0449 10.3919 16.0118 10.3469C15.9787 10.302 15.937 10.2641 15.8892 10.2355C15.8413 10.2068 15.7882 10.188 15.733 10.1801C15.6777 10.1722 15.6215 10.1754 15.5675 10.1895C15.5135 10.2036 15.4629 10.2283 15.4185 10.2621C15.3742 10.296 15.3371 10.3384 15.3093 10.3868Z" fill="white"/>
<path d="M16.4763 9.27357C16.43 9.30358 16.3901 9.34241 16.3588 9.38784C16.3275 9.43328 16.3055 9.48443 16.294 9.53838C16.2824 9.59233 16.2817 9.64803 16.2917 9.70228C16.3017 9.75653 16.3223 9.80828 16.3523 9.85457C16.3823 9.90087 16.4211 9.9408 16.4665 9.97208C16.512 10.0034 16.5631 10.0254 16.6171 10.0369C16.671 10.0484 16.7267 10.0492 16.781 10.0392C16.8352 10.0292 16.887 10.0086 16.9333 9.97861C18.3221 9.07813 20.0894 9.31557 21.2229 10.4703C21.2613 10.5106 21.3073 10.5429 21.3583 10.5652C21.4093 10.5875 21.4643 10.5995 21.52 10.6004C21.5756 10.6013 21.6309 10.5912 21.6826 10.5705C21.7344 10.5499 21.7814 10.5191 21.8212 10.4801C21.8609 10.4411 21.8925 10.3946 21.914 10.3432C21.9356 10.2919 21.9468 10.2368 21.9468 10.1811C21.9469 10.1254 21.9359 10.0703 21.9145 10.0189C21.8931 9.96749 21.8617 9.92087 21.8221 9.88173C20.3913 8.42405 18.1765 8.16981 16.4763 9.27357ZM21.8736 17.3185C21.8736 18.5651 21.9789 19.7881 22.1872 20.9529C22.2292 21.1887 22.2387 21.691 22.2404 21.8299C22.1127 23.357 21.0437 24.6327 19.5804 25.0029C18.9998 25.1484 18.3905 25.1339 17.8175 24.9609C17.7107 24.9291 17.5957 24.941 17.4977 24.994C17.3997 25.0471 17.3268 25.1369 17.295 25.2437C17.2632 25.3504 17.2752 25.4655 17.3282 25.5635C17.3813 25.6614 17.471 25.7343 17.5778 25.7661C18.2961 25.9816 19.0592 25.999 19.7865 25.8165C22.0057 25.2554 23.4153 23.0406 23.0143 20.8057C22.7343 19.2388 22.6436 17.5313 22.7679 15.8284C22.772 15.7734 22.7651 15.7181 22.7478 15.6657C22.7305 15.6134 22.703 15.5649 22.667 15.5232C22.631 15.4814 22.5871 15.4471 22.5378 15.4224C22.4885 15.3976 22.4348 15.3827 22.3798 15.3787C22.1569 15.3697 21.9475 15.5355 21.9301 15.7673C21.8925 16.2835 21.8736 16.801 21.8736 17.3185ZM22.097 14.2341C22.086 14.3432 22.1181 14.4523 22.1864 14.538C22.2548 14.6238 22.354 14.6794 22.4628 14.693C22.5716 14.7066 22.6815 14.6771 22.7688 14.6108C22.8562 14.5445 22.9141 14.4467 22.9303 14.3382C22.9622 14.0857 22.9852 13.8314 22.9941 13.5766C22.9902 13.3011 23.0994 12.5849 22.8379 11.6536C22.8232 11.6004 22.7982 11.5506 22.7642 11.5071C22.7302 11.4636 22.6879 11.4273 22.6398 11.4003C22.5917 11.3732 22.5387 11.3559 22.4839 11.3494C22.4291 11.3429 22.3736 11.3473 22.3205 11.3624C22.2673 11.3771 22.2176 11.4022 22.1741 11.4362C22.1307 11.4702 22.0944 11.5125 22.0674 11.5606C22.0403 11.6087 22.023 11.6616 22.0165 11.7164C22.0099 11.7712 22.0143 11.8267 22.0293 11.8798C22.1429 12.2847 22.19 12.712 22.1693 13.1499C22.153 13.4669 22.1614 13.7183 22.097 14.2341Z" fill="white"/>
<path d="M16.6757 14.5028C16.4558 16.5477 16.4745 18.6111 16.7317 20.6516C16.8151 21.3029 17.066 22.3148 17.0918 22.3708C17.4082 23.054 18.069 23.4953 18.7751 23.4953C19.5714 23.4953 20.3711 22.904 20.5918 21.9867C20.616 21.8789 20.597 21.7659 20.5386 21.6721C20.4803 21.5783 20.3874 21.5112 20.2801 21.4854C20.1727 21.4595 20.0594 21.4769 19.9648 21.5338C19.8701 21.5907 19.8016 21.6826 19.7742 21.7896C19.6476 22.3171 19.1856 22.6553 18.7751 22.6553C18.4072 22.6553 18.0561 22.4207 17.8713 22.0539C17.7537 21.509 17.6327 21.0812 17.5655 20.5464C17.3165 18.5705 17.2985 16.5724 17.5118 14.5924C17.5236 14.4816 17.491 14.3705 17.421 14.2837C17.351 14.1969 17.2494 14.1415 17.1385 14.1296C17.0276 14.1177 16.9166 14.1504 16.8298 14.2204C16.743 14.2904 16.6876 14.392 16.6757 14.5028Z" fill="white"/>
<path d="M20.5912 12.5429C20.3 11.3333 18.97 10.6406 17.8763 11.2879C17.0464 11.7779 16.9473 12.6348 16.9226 12.6908C16.8986 12.7995 16.9189 12.9134 16.9788 13.0073C17.0388 13.1012 17.1336 13.1674 17.2424 13.1914C17.3512 13.2154 17.465 13.1952 17.5589 13.1352C17.6528 13.0752 17.719 12.9804 17.743 12.8716L17.7694 12.7451C17.9172 12.1655 18.4559 11.7684 18.9762 11.9062C19.357 12.0042 19.6554 12.306 19.7641 12.6991L19.7484 13.4327C19.3833 15.6279 19.334 17.9962 19.6017 20.188C19.6152 20.2985 19.672 20.3991 19.7597 20.4677C19.8474 20.5363 19.9588 20.5672 20.0693 20.5537C20.1798 20.5402 20.2804 20.4833 20.349 20.3956C20.4175 20.308 20.4485 20.1966 20.435 20.0861C20.1721 17.9185 20.22 15.7245 20.5772 13.5705C20.6007 13.4003 20.6282 12.6997 20.5912 12.5429ZM27.893 34.5363C27.9276 34.5836 27.9717 34.6231 28.0224 34.6523C28.0732 34.6815 28.1294 34.6997 28.1877 34.7059C28.2459 34.7121 28.3047 34.706 28.3605 34.6881C28.4162 34.6702 28.4676 34.6408 28.5113 34.6019L30.4786 32.8485C31.7649 31.5627 32.3904 30.0043 32.3904 28.0863V25.9493C32.3903 25.8889 32.3773 25.8292 32.352 25.7743C32.3268 25.7194 32.29 25.6705 32.2442 25.6311C32.1984 25.5918 32.1446 25.5627 32.0865 25.546C32.0284 25.5293 31.9674 25.5253 31.9077 25.5343C29.9925 25.8255 28.9374 24.7537 28.607 24.3382C28.5748 24.2745 28.5269 24.2201 28.4678 24.18C28.4088 24.14 28.3405 24.1156 28.2694 24.1092C28.1983 24.1028 28.1268 24.1146 28.0615 24.1435C27.9963 24.1724 27.9395 24.2174 27.8964 24.2743C27.6175 24.6439 26.5552 25.8272 24.5582 25.5153C24.4983 25.5059 24.4371 25.5096 24.3787 25.5262C24.3204 25.5427 24.2663 25.5717 24.2202 25.6111C24.1741 25.6506 24.1371 25.6995 24.1118 25.7546C24.0864 25.8097 24.0733 25.8696 24.0733 25.9303V28.0728C24.0733 29.9908 24.6982 31.5488 26.003 32.8519L27.893 34.5363ZM24.9138 26.3979C26.5871 26.5048 27.6735 25.7231 28.2257 25.1709C28.7734 25.7236 29.8648 26.5071 31.5504 26.4158V28.0863C31.5504 29.7943 31.0212 31.1187 29.9018 32.2381L28.2386 33.7199L26.5793 32.2415C25.4425 31.1047 24.9133 29.7803 24.9133 28.0728V26.3984L24.9138 26.3979Z" fill="white"/>
<path d="M27.8824 30.6891L30.2736 28.2979C30.3137 28.2591 30.3457 28.2128 30.3677 28.1615C30.3896 28.1103 30.4012 28.0551 30.4017 27.9994C30.4021 27.9436 30.3915 27.8883 30.3703 27.8367C30.3492 27.7851 30.318 27.7382 30.2785 27.6988C30.2391 27.6594 30.1922 27.6282 30.1405 27.6071C30.0889 27.586 30.0336 27.5754 29.9778 27.5759C29.9221 27.5765 29.867 27.5881 29.8157 27.6101C29.7645 27.6321 29.7182 27.6642 29.6794 27.7043L27.585 29.7987L26.7848 28.9979C26.746 28.9578 26.6997 28.9258 26.6484 28.9038C26.5972 28.8818 26.5421 28.8703 26.4863 28.8698C26.4305 28.8694 26.3752 28.88 26.3236 28.9012C26.272 28.9223 26.2251 28.9535 26.1857 28.993C26.1463 29.0324 26.1151 29.0793 26.094 29.131C26.0729 29.1826 26.0623 29.2379 26.0629 29.2937C26.0634 29.3494 26.075 29.4045 26.097 29.4558C26.119 29.507 26.1511 29.5533 26.1912 29.592L27.2882 30.6891C27.367 30.7677 27.4737 30.8119 27.585 30.8119C27.6963 30.8119 27.8036 30.7677 27.8824 30.6891Z" fill="white"/>
</svg>
