<svg width="42" height="42" viewBox="0 0 42 42" fill="none" xmlns="http://www.w3.org/2000/svg">
<g clip-path="url(#clip0_236_758)">
<path d="M34.7358 26.8296C34.735 26.1058 34.4471 25.412 33.9354 24.9003C33.4237 24.3885 32.7298 24.1007 32.0061 24.0999H23.7456C24.8864 21.335 24.8905 18.2318 23.7571 15.4639C23.7472 15.4396 23.7359 15.4159 23.7231 15.393C23.4901 14.9738 23.1448 14.628 22.726 14.3944C22.3071 14.1608 21.8314 14.0487 21.3524 14.0707C20.8733 14.0927 20.4099 14.248 20.0143 14.519C19.6186 14.79 19.3065 15.1661 19.1129 15.6049C19.0824 15.6742 19.0641 15.7482 19.0587 15.8237L18.8637 18.5921C18.5718 20.183 17.7134 21.6143 16.4473 22.6209C15.9402 22.7989 15.0118 23.4286 12.5897 25.7333V25.6645C12.5894 25.3016 12.445 24.9537 12.1885 24.6971C11.9319 24.4406 11.584 24.2963 11.2211 24.2959H4.33172C3.96887 24.2963 3.621 24.4406 3.36443 24.6972C3.10786 24.9537 2.96356 25.3016 2.96319 25.6645V39.4129C2.96345 39.7758 3.1077 40.1238 3.36428 40.3805C3.62086 40.6371 3.9688 40.7815 4.33172 40.7818H11.2207C11.5836 40.7815 11.9315 40.6372 12.188 40.3806C12.4446 40.1241 12.5889 39.7762 12.5893 39.4133V39.353C14.4837 39.7709 15.4725 40.2675 16.6257 41.3388C17.0792 41.7702 17.6831 42.0074 18.3089 42H28.9873C29.5055 42.0002 30.013 41.8528 30.4505 41.5751C30.8879 41.2974 31.2373 40.9009 31.4577 40.4319C31.678 39.9629 31.7603 39.4408 31.6948 38.9268C31.6293 38.4128 31.4188 37.9281 31.0879 37.5293C31.9401 37.0167 32.5464 36.0989 32.5464 35.1238C32.547 34.5172 32.3445 33.9278 31.9712 33.4496C32.8393 32.9355 33.4621 31.9864 33.4621 30.9769C33.4628 30.4078 33.2845 29.8528 32.9526 29.3905C33.4755 29.1965 33.9267 28.8471 34.2454 28.3894C34.5641 27.9316 34.7353 27.3873 34.7358 26.8296ZM11.2768 39.4131C11.2763 39.4278 11.2702 39.4418 11.2598 39.4522C11.2494 39.4626 11.2354 39.4686 11.2207 39.4692H4.33172C4.31703 39.4686 4.30308 39.4626 4.29269 39.4522C4.28229 39.4418 4.27622 39.4278 4.27569 39.4131V25.6647C4.27624 25.65 4.28232 25.6361 4.29271 25.6257C4.3031 25.6153 4.31703 25.6092 4.33172 25.6087H11.2207C11.2354 25.6092 11.2493 25.6153 11.2597 25.6257C11.2701 25.6361 11.2762 25.65 11.2768 25.6647V39.4131ZM32.0061 28.2466H29.7252C29.5512 28.2466 29.3843 28.3158 29.2612 28.4389C29.1381 28.5619 29.069 28.7288 29.069 28.9029C29.069 29.0769 29.1381 29.2439 29.2612 29.3669C29.3843 29.49 29.5512 29.5591 29.7252 29.5591H30.7324C31.1081 29.5597 31.4683 29.7091 31.7339 29.9748C31.9996 30.2405 32.1491 30.6006 32.1496 30.9763C32.1496 31.7146 31.42 32.4657 30.6712 32.5305C30.3955 32.4395 30.107 32.3933 29.8167 32.3936C29.6426 32.3936 29.4757 32.4627 29.3527 32.5858C29.2296 32.7089 29.1604 32.8758 29.1604 33.0498C29.1604 33.2239 29.2296 33.3908 29.3527 33.5139C29.4757 33.6369 29.6426 33.7061 29.8167 33.7061C29.9826 33.7059 30.1473 33.735 30.3031 33.792C30.3204 33.7997 30.338 33.8066 30.356 33.8126C30.6156 33.9198 30.8375 34.1015 30.9937 34.3348C31.1499 34.5681 31.2335 34.8425 31.2338 35.1232C31.2338 35.8468 30.4752 36.5834 29.7028 36.6356C29.4695 36.5722 29.2289 36.5402 28.9872 36.5404C28.8131 36.5404 28.6462 36.6096 28.5232 36.7326C28.4001 36.8557 28.3309 37.0226 28.3309 37.1967C28.3309 37.3707 28.4001 37.5376 28.5232 37.6607C28.6462 37.7838 28.8131 37.8529 28.9872 37.8529C29.1246 37.8528 29.2613 37.8728 29.393 37.9121C29.4085 37.9177 29.4243 37.9228 29.4404 37.9272C29.759 38.0346 30.029 38.2517 30.2022 38.5398C30.3755 38.8278 30.4407 39.1681 30.3863 39.4998C30.3318 39.8316 30.1612 40.1331 29.905 40.3507C29.6487 40.5682 29.3234 40.6876 28.9873 40.6875H18.3089C18.1632 40.6908 18.0184 40.665 17.8827 40.6118C17.7471 40.5585 17.6235 40.4788 17.519 40.3773C16.1253 39.0824 14.907 38.4929 12.5893 38.0107V27.5555L12.7057 27.4422C15.9268 24.3141 16.7158 23.908 16.8833 23.8587C16.9806 23.8387 17.0721 23.7969 17.1509 23.7365C18.7371 22.5215 19.8112 20.757 20.1619 18.79C20.166 18.767 20.1689 18.7438 20.1706 18.7204L20.3593 16.0425C20.4659 15.8461 20.6226 15.6815 20.8135 15.5654C21.0045 15.4493 21.2227 15.3858 21.4461 15.3815C21.6695 15.3772 21.8901 15.4321 22.0853 15.5407C22.2806 15.6494 22.4436 15.8078 22.5577 15.9999C23.1058 17.3547 23.3517 18.8128 23.2785 20.2724C23.2053 21.732 22.8146 23.1581 22.1337 24.4513C22.0812 24.5513 22.0554 24.6632 22.0588 24.7761C22.0621 24.8891 22.0946 24.9992 22.1531 25.0959C22.2115 25.1926 22.2939 25.2726 22.3923 25.3281C22.4907 25.3836 22.6018 25.4127 22.7148 25.4127H32.0061C32.3801 25.4156 32.7378 25.5661 33.0013 25.8316C33.2647 26.0971 33.4126 26.4559 33.4126 26.8299C33.4126 27.2039 33.2647 27.5628 33.0013 27.8283C32.7378 28.0937 32.3801 28.2443 32.0061 28.2471V28.2466ZM9.0522 27.7643V27.8435C9.0522 28.0175 8.98306 28.1844 8.85999 28.3075C8.73692 28.4306 8.57 28.4997 8.39595 28.4997C8.22191 28.4997 8.05499 28.4306 7.93192 28.3075C7.80885 28.1844 7.7397 28.0175 7.7397 27.8435V27.7643C7.7397 27.5903 7.80885 27.4233 7.93192 27.3003C8.05499 27.1772 8.22191 27.108 8.39595 27.108C8.57 27.108 8.73692 27.1772 8.85999 27.3003C8.98306 27.4233 9.0522 27.5903 9.0522 27.7643ZM28.7438 5.62587C28.7042 5.50406 28.6299 5.39649 28.5299 5.31642C28.43 5.23636 28.3087 5.18729 28.1812 5.17527L23.4776 4.7323L21.6024 0.395804C21.5516 0.27825 21.4675 0.178137 21.3604 0.107806C21.2534 0.0374751 21.1281 0 21.0001 0C20.872 0 20.7467 0.0374751 20.6397 0.107806C20.5326 0.178137 20.4485 0.27825 20.3977 0.395804L18.5227 4.73222L13.8192 5.17519C13.6917 5.18721 13.5705 5.23628 13.4705 5.31634C13.3706 5.3964 13.2962 5.50396 13.2567 5.62576C13.2171 5.74756 13.214 5.87828 13.2478 6.0018C13.2816 6.12532 13.3509 6.23626 13.4469 6.32092L16.9918 9.44402L15.9596 14.0542C15.9317 14.1791 15.9409 14.3096 15.9861 14.4294C16.0314 14.5492 16.1107 14.6531 16.2143 14.7284C16.3179 14.8037 16.4413 14.847 16.5692 14.853C16.6972 14.859 16.824 14.8275 16.9343 14.7623L21.0001 12.3562L25.0657 14.7624C25.1759 14.8276 25.3028 14.8592 25.4307 14.8532C25.5586 14.8472 25.682 14.8038 25.7856 14.7286C25.8892 14.6533 25.9686 14.5494 26.0138 14.4295C26.0591 14.3097 26.0683 14.1793 26.0403 14.0543L25.0083 9.44418L28.5531 6.32109C28.6493 6.23647 28.7186 6.12555 28.7525 6.00201C28.7863 5.87848 28.7833 5.74772 28.7438 5.62587ZM23.8496 8.71607C23.7613 8.79381 23.6956 8.89383 23.6593 9.00567C23.623 9.11751 23.6173 9.23706 23.643 9.35181L24.4284 12.8599L21.3347 11.0289C21.2335 10.969 21.1181 10.9373 21.0005 10.9373C20.8829 10.9373 20.7674 10.969 20.6662 11.0289L17.5725 12.8599L18.3575 9.35157C18.3832 9.23681 18.3776 9.11726 18.3412 9.00542C18.3049 8.89359 18.2392 8.79356 18.1509 8.71582L15.4537 6.33938L19.0327 6.00223C19.1498 5.99119 19.2617 5.9489 19.3569 5.87977C19.452 5.81065 19.5268 5.71724 19.5735 5.6093L21.0001 2.30992L22.4267 5.60955C22.4733 5.71748 22.5481 5.8109 22.6433 5.88002C22.7384 5.94914 22.8503 5.99144 22.9674 6.00248L26.5465 6.33962L23.8496 8.71607ZM40.2973 9.47133C40.2578 9.34952 40.1834 9.24195 40.0834 9.16188C39.9835 9.08182 39.8623 9.03275 39.7348 9.02073L36.4201 8.70852L35.0985 5.65261C35.0477 5.53506 34.9636 5.43495 34.8565 5.36461C34.7495 5.29428 34.6242 5.25681 34.4962 5.25681C34.3681 5.25681 34.2428 5.29428 34.1358 5.36461C34.0288 5.43495 33.9446 5.53506 33.8938 5.65261L32.5726 8.70852L29.2579 9.02073C29.1304 9.03274 29.0092 9.0818 28.9092 9.16187C28.8092 9.24193 28.7348 9.34951 28.6953 9.47132C28.6557 9.59314 28.6526 9.72387 28.6865 9.84741C28.7203 9.97095 28.7895 10.0819 28.8856 10.1665L31.3837 12.3674L30.6564 15.6163C30.6285 15.7413 30.6377 15.8717 30.683 15.9916C30.7283 16.1114 30.8076 16.2153 30.9113 16.2906C31.0149 16.3659 31.1383 16.4092 31.2663 16.4151C31.3942 16.4211 31.5211 16.3895 31.6313 16.3242L34.4964 14.6286L37.3613 16.3242C37.4715 16.3895 37.5984 16.421 37.7263 16.415C37.8543 16.409 37.9777 16.3657 38.0813 16.2904C38.1849 16.2152 38.2642 16.1112 38.3095 15.9914C38.3547 15.8716 38.3639 15.7411 38.336 15.6161L37.6086 12.3672L40.1066 10.1664C40.2027 10.0817 40.2719 9.97082 40.3057 9.84732C40.3395 9.72381 40.3365 9.59312 40.2969 9.47133H40.2973ZM36.4501 11.6393C36.3618 11.7171 36.2961 11.8171 36.2598 11.9289C36.2234 12.0408 36.2178 12.1603 36.2435 12.2751L36.7241 14.4218L34.8305 13.3014C34.7293 13.2415 34.6139 13.2099 34.4962 13.2099C34.3786 13.2099 34.2632 13.2415 34.162 13.3014L32.2689 14.4218L32.7495 12.2751C32.7752 12.1603 32.7695 12.0408 32.7332 11.9289C32.6969 11.8171 32.6312 11.7171 32.5429 11.6393L30.8922 10.1852L33.0824 9.97878C33.1995 9.96775 33.3115 9.92546 33.4066 9.85634C33.5018 9.78721 33.5766 9.69379 33.6233 9.58585L34.4962 7.56665L35.3692 9.58585C35.4159 9.69379 35.4907 9.78721 35.5859 9.85634C35.681 9.92546 35.793 9.96775 35.9101 9.97878L38.1003 10.1852L36.4501 11.6393ZM12.743 9.02073L9.4284 8.70852L8.1063 5.65261C8.05547 5.53506 7.97136 5.43495 7.86433 5.36461C7.75729 5.29428 7.63202 5.25681 7.50395 5.25681C7.37587 5.25681 7.2506 5.29428 7.14357 5.36461C7.03653 5.43495 6.95242 5.53506 6.90159 5.65261L5.5804 8.70852L2.26576 9.02073C2.13824 9.03274 2.01702 9.0818 1.91704 9.16187C1.81707 9.24193 1.74271 9.34951 1.70313 9.47132C1.66356 9.59314 1.66049 9.72387 1.69432 9.84741C1.72815 9.97095 1.79739 10.0819 1.8935 10.1665L4.39152 12.3674L3.66415 15.6163C3.63621 15.7413 3.64544 15.8717 3.69071 15.9915C3.73599 16.1113 3.81532 16.2152 3.91893 16.2905C4.02255 16.3657 4.14592 16.409 4.27384 16.415C4.40176 16.421 4.52864 16.3895 4.63884 16.3242L7.50395 14.6286L10.3688 16.3242C10.479 16.3894 10.6059 16.421 10.7338 16.415C10.8618 16.409 10.9851 16.3656 11.0887 16.2904C11.1924 16.2151 11.2717 16.1111 11.3169 15.9913C11.3622 15.8715 11.3714 15.7411 11.3434 15.6161L10.616 12.3672L13.1141 10.1664C13.2103 10.0817 13.2795 9.97078 13.3133 9.84725C13.3472 9.72371 13.3441 9.59297 13.3045 9.47116C13.2649 9.34934 13.1906 9.24177 13.0906 9.1617C12.9906 9.08164 12.8694 9.03258 12.7419 9.02057L12.743 9.02073ZM9.45818 11.6393C9.36995 11.7171 9.30423 11.8171 9.26789 11.9289C9.23155 12.0408 9.22593 12.1603 9.25162 12.2751L9.73216 14.4218L7.83822 13.3014C7.73701 13.2415 7.62156 13.2099 7.50395 13.2099C7.38633 13.2099 7.27088 13.2415 7.16967 13.3014L5.27655 14.4218L5.75717 12.2751C5.78286 12.1603 5.77724 12.0408 5.74091 11.9289C5.70457 11.8171 5.63885 11.7171 5.55062 11.6393L3.89999 10.1852L6.09022 9.97878C6.2073 9.96775 6.31928 9.92546 6.41442 9.85634C6.50956 9.78721 6.58438 9.69379 6.63105 9.58585L7.50395 7.56673L8.37692 9.58585C8.42359 9.69378 8.49839 9.7872 8.59352 9.85632C8.68865 9.92544 8.8006 9.96774 8.91767 9.97878L11.1079 10.1852L9.45818 11.6393Z" fill="white"/>
</g>
<defs>
<clipPath id="clip0_236_758">
<rect width="42" height="42" fill="white"/>
</clipPath>
</defs>
</svg>
