<svg width="42" height="42" viewBox="0 0 42 42" fill="none" xmlns="http://www.w3.org/2000/svg">
<g clip-path="url(#clip0_236_740)">
<path d="M40.622 7.77261L35.307 5.49476C35.2036 5.45044 35.0905 5.43346 34.9786 5.44545C34.8667 5.45745 34.7598 5.49802 34.6681 5.56326L30.7754 8.33222C30.6504 8.42113 30.5605 8.55103 30.5213 8.69936C30.4821 8.84768 30.4961 9.00504 30.561 9.14409L31.3391 10.8139L31.0477 12.2804C31.0186 12.4265 31.0402 12.5781 31.1087 12.7103L31.9067 14.25L29.4967 13.0917L29.925 10.9306C29.9451 10.8287 29.9409 10.7236 29.9125 10.6237C29.8841 10.5238 29.8325 10.4321 29.7618 10.3561L28.5245 9.02563L29.4828 6.80349L31.6523 4.96041C31.7374 4.88803 31.8027 4.79513 31.8419 4.69049C31.881 4.58585 31.8928 4.47294 31.8762 4.36245C31.8595 4.25196 31.8149 4.14756 31.7467 4.05912C31.6784 3.97069 31.5886 3.90115 31.4859 3.85709L24.1406 0.709223C24.0589 0.674271 23.971 0.65625 23.8821 0.65625C23.7932 0.65625 23.7053 0.674271 23.6236 0.709223L16.8087 3.62986C15.1371 1.85192 12.7652 0.739656 10.1381 0.739656C5.08837 0.739656 0.980164 4.84795 0.980164 9.89771C0.980164 13.749 3.37006 17.0524 6.7445 18.4035V21.7026C6.7445 28.21 9.96849 34.3166 15.3686 38.0378C15.4409 38.0876 15.5225 38.1224 15.6085 38.1401C15.6944 38.1578 15.7831 38.1581 15.8692 38.1409C15.9553 38.1238 16.0371 38.0895 16.1097 38.0402C16.1823 37.9909 16.2443 37.9275 16.292 37.8538L18.0843 35.0824L20.0542 35.3759C20.1728 35.3935 20.294 35.3784 20.4047 35.3319C20.5153 35.2855 20.6111 35.2097 20.6816 35.1126L21.1964 34.4045L20.8607 36.1861L18.9449 35.9174C18.8175 35.8994 18.6877 35.9193 18.5715 35.9746C18.4554 36.0299 18.3581 36.1181 18.2917 36.2283L17.0459 38.2945C16.9999 38.3708 16.9699 38.4557 16.9577 38.544C16.9456 38.6323 16.9515 38.7221 16.9753 38.808C16.999 38.894 17.0399 38.9741 17.0957 39.0437C17.1514 39.1133 17.2207 39.1707 17.2994 39.2126C19.2698 40.262 21.1444 40.8766 23.7693 41.334C23.8439 41.347 23.9201 41.347 23.9947 41.334C28.7855 40.4993 33.1088 38.1357 36.1682 34.6788C39.3421 31.0924 41.0197 26.6054 41.0197 21.7027V8.37586C41.0197 8.24742 40.9821 8.12179 40.9114 8.01455C40.8407 7.90731 40.7401 7.82318 40.622 7.77261ZM23.8821 2.02648L29.9952 4.64631L28.5162 5.9027C28.4547 5.95517 28.4036 6.01856 28.3652 6.08965L24.1406 4.27906C24.0589 4.24411 23.971 4.22609 23.8821 4.22609C23.7932 4.22609 23.7053 4.24411 23.6236 4.27906L18.6123 6.4268C18.3608 5.81546 18.0439 5.23316 17.667 4.69012L23.8821 2.02648ZM2.29266 9.89771C2.29266 5.57171 5.81213 2.05216 10.1381 2.05216C14.4641 2.05216 17.9836 5.57162 17.9836 9.89771C17.9836 14.2238 14.4641 17.7433 10.1381 17.7433C5.81213 17.7433 2.29266 14.2237 2.29266 9.89771ZM15.5635 36.5634C10.8505 33.0596 8.057 27.5543 8.057 21.7026V18.817C8.70271 18.9672 9.36284 19.0467 10.0258 19.0543V21.7026C10.0258 26.8817 12.4858 31.77 16.6357 34.9055L15.5635 36.5634ZM19.854 34.0191L17.8596 33.722C17.6954 33.698 17.5282 33.7371 17.3917 33.8315C13.5905 30.9423 11.3382 26.455 11.3382 21.7027V18.9771C15.8229 18.3874 19.2962 14.5408 19.2962 9.89771C19.2962 9.1326 19.2014 8.3894 19.0237 7.67852L23.8821 5.59623L27.8424 7.29346L27.1499 8.89906C27.0995 9.01601 27.0842 9.1451 27.1059 9.2706C27.1276 9.3961 27.1853 9.51258 27.272 9.60584L28.5725 11.0044L28.1106 13.3353C28.0823 13.478 28.1023 13.6261 28.1674 13.7563C28.2324 13.8864 28.3389 13.9913 28.4701 14.0543L33.1096 16.2842C33.2337 16.3438 33.3734 16.3629 33.5089 16.3388C33.6445 16.3146 33.769 16.2485 33.8649 16.1497C33.9607 16.0509 34.0231 15.9244 34.0431 15.7882C34.0632 15.652 34.0399 15.5129 33.9765 15.3907L32.38 12.3106L32.6684 10.8593C32.6956 10.7225 32.6785 10.5806 32.6196 10.4542L31.9816 9.08502L31.997 9.07403L36.4262 10.9722V21.7026C36.4262 29.0831 31.1578 35.368 23.8823 36.6902C23.307 36.5866 22.7381 36.45 22.1785 36.2812L23.0266 31.7799C23.0542 31.6334 23.0312 31.4819 22.9612 31.3503C22.8913 31.2187 22.7786 31.1148 22.6418 31.0558C22.5049 30.9967 22.352 30.986 22.2083 31.0254C22.0646 31.0648 21.9385 31.1519 21.8509 31.2725L19.854 34.0191ZM39.7073 21.7026C39.7073 30.8285 33.2061 38.3458 23.8818 40.0211C21.7385 39.6404 20.1318 39.1472 18.5338 38.3688L19.192 37.2772L21.2986 37.5728C21.434 37.5921 21.5721 37.5682 21.6931 37.5044C22.3657 37.7129 23.0493 37.8775 23.7693 38.0033C23.8439 38.0162 23.9202 38.0162 23.9948 38.0033C27.8191 37.3371 31.3115 35.329 33.8283 32.349C36.3498 29.3634 37.7385 25.5825 37.7385 21.7026V10.5394C37.7385 10.2769 37.5821 10.0396 37.3408 9.93618L33.2497 8.18293L35.1288 6.84631L39.7073 8.80858V21.7026ZM10.138 12.3433H10.1382C10.5318 12.3446 10.9104 12.1925 11.1937 11.9192C11.477 11.646 11.6427 11.2731 11.6555 10.8797L11.8735 4.84434C11.8888 4.42261 11.7419 4.0392 11.4489 3.73519C11.156 3.43159 10.7781 3.27106 10.356 3.27106H9.92009C9.49804 3.27106 9.12012 3.43159 8.82719 3.73527C8.53426 4.03904 8.38742 4.42245 8.4026 4.84434L8.62055 10.8796C8.6334 11.273 8.79906 11.646 9.08237 11.9193C9.36568 12.1925 9.74434 12.3446 10.138 12.3433ZM9.77203 4.64648C9.81682 4.60005 9.85562 4.58356 9.92018 4.58356H10.3561C10.4208 4.58356 10.4595 4.60005 10.5043 4.64639C10.5492 4.69291 10.5643 4.73236 10.562 4.79692L10.344 10.8323C10.3423 10.8856 10.3198 10.9362 10.2814 10.9733C10.243 11.0104 10.1916 11.031 10.1382 11.0308C10.0848 11.031 10.0334 11.0104 9.99497 10.9733C9.95655 10.9362 9.93411 10.8856 9.9324 10.8323L9.71444 4.79709C9.71206 4.73245 9.72716 4.69307 9.77203 4.64648ZM11.8989 14.7634C11.8989 13.7925 11.1091 13.0026 10.1381 13.0026C9.16721 13.0026 8.37733 13.7925 8.37733 14.7634C8.37733 15.7343 9.16721 16.5242 10.1381 16.5242C11.1091 16.5242 11.8989 15.7343 11.8989 14.7634ZM9.68983 14.7634C9.68983 14.5161 9.89097 14.3151 10.1381 14.3151C10.3853 14.3151 10.5864 14.5161 10.5864 14.7634C10.5864 15.0106 10.3853 15.2117 10.1381 15.2117C9.89097 15.2117 9.68983 15.0106 9.68983 14.7634ZM30.5788 28.7791V20.4244C30.5788 19.6301 29.9324 18.9838 29.138 18.9838H22.2107V16.9686C22.2107 16.047 22.9604 15.2972 23.8821 15.2972C24.8037 15.2972 25.5535 16.047 25.5535 16.9686V18.1311C25.5535 18.3051 25.6227 18.4721 25.7457 18.5951C25.8688 18.7182 26.0357 18.7873 26.2098 18.7873H28.1751C28.3491 18.7873 28.516 18.7182 28.6391 18.5951C28.7622 18.4721 28.8313 18.3051 28.8313 18.1311V16.9686C28.8313 14.2395 26.6111 12.0193 23.8821 12.0193C21.153 12.0193 18.9328 14.2395 18.9328 16.9686V18.9837H18.6262C17.8318 18.9837 17.1854 19.6301 17.1854 20.4244V28.779C17.1854 29.5735 17.8318 30.2197 18.6262 30.2197H29.138C29.9324 30.2198 30.5788 29.5735 30.5788 28.7791ZM20.2453 16.9686C20.2453 14.9632 21.8768 13.3317 23.8821 13.3317C25.8875 13.3317 27.5189 14.9632 27.5189 16.9686V17.4748H26.8661V16.9686C26.8661 15.3232 25.5275 13.9846 23.8821 13.9846C22.2368 13.9846 20.8983 15.3232 20.8983 16.9686V18.9837H20.2453V16.9686ZM18.4979 28.7791V20.4244C18.4979 20.355 18.5567 20.2963 18.6262 20.2963H29.138C29.2075 20.2963 29.2663 20.355 29.2663 20.4244V28.7791C29.2663 28.8486 29.2075 28.9073 29.138 28.9073H18.6262C18.5923 28.9069 18.5599 28.8932 18.536 28.8693C18.512 28.8453 18.4984 28.813 18.4979 28.7791ZM23.8821 20.9499C22.5186 20.9499 21.4094 22.0592 21.4094 23.4227C21.4094 24.1565 21.7264 24.8349 22.2729 25.301V26.6444C22.2729 27.5317 22.9948 28.2536 23.8821 28.2536C24.7694 28.2536 25.4913 27.5317 25.4913 26.6444V25.301C26.0378 24.8349 26.3548 24.1565 26.3548 23.4227C26.3549 22.0592 25.2456 20.9499 23.8821 20.9499ZM24.4902 24.411C24.395 24.4698 24.3164 24.552 24.2619 24.6497C24.2074 24.7474 24.1788 24.8575 24.1788 24.9694V26.6445C24.1788 26.8053 24.0429 26.9412 23.8821 26.9412C23.7214 26.9412 23.5854 26.8053 23.5854 26.6445V24.9694C23.5854 24.8575 23.5568 24.7474 23.5023 24.6497C23.4478 24.552 23.3692 24.4698 23.274 24.411C22.9283 24.1975 22.7219 23.8281 22.7219 23.4227C22.7219 22.7829 23.2424 22.2624 23.8821 22.2624C24.5219 22.2624 25.0424 22.7829 25.0424 23.4227C25.0424 23.828 24.836 24.1975 24.4902 24.411Z" fill="white"/>
</g>
<defs>
<clipPath id="clip0_236_740">
<rect width="42" height="42" fill="white"/>
</clipPath>
</defs>
</svg>
