<svg width="36" height="38" viewBox="0 0 36 38" fill="none" xmlns="http://www.w3.org/2000/svg">
<path fill-rule="evenodd" clip-rule="evenodd" d="M33.1381 18.354C32.9665 18.3829 32.8134 18.4788 32.7125 18.6206C32.6115 18.7623 32.5711 18.9384 32.5999 19.11C32.7417 19.95 32.8139 20.7966 32.8139 21.6261C32.8139 26.2513 30.7533 30.4264 27.43 33.2062C27.153 31.3865 26.3671 29.6821 25.1629 28.2899C23.9588 26.8976 22.3855 25.8742 20.6247 25.3378C21.3454 24.8595 21.9368 24.2105 22.346 23.4484C22.7552 22.6863 22.9696 21.8348 22.9701 20.9698C22.9701 18.0744 20.6155 15.7198 17.7201 15.7198C14.8247 15.7198 12.4701 18.0744 12.4701 20.9698C12.4701 22.7916 13.4033 24.3954 14.8156 25.3378C13.0547 25.8742 11.4815 26.8976 10.2773 28.2899C9.07318 29.6821 8.28726 31.3865 8.01025 33.2062C6.3187 31.7888 4.95958 30.0167 4.02918 28.0155C3.09878 26.0143 2.61986 23.833 2.62637 21.6261C2.62637 20.7966 2.69856 19.9513 2.84031 19.11C2.85611 19.0244 2.85473 18.9365 2.83623 18.8514C2.81774 18.7664 2.7825 18.6858 2.73258 18.6145C2.68266 18.5432 2.61905 18.4826 2.54546 18.4361C2.47187 18.3896 2.38976 18.3582 2.30392 18.3437C2.21807 18.3293 2.13021 18.332 2.04545 18.3519C1.96069 18.3717 1.88073 18.4082 1.81021 18.4592C1.73969 18.5103 1.68003 18.5748 1.6347 18.6492C1.58937 18.7235 1.55928 18.8061 1.54619 18.8921C1.3929 19.7954 1.3152 20.7099 1.31387 21.6261C1.31387 29.6848 7.0705 36.4875 15.0006 37.8C15.1693 37.8218 15.3398 37.7773 15.4763 37.6759C15.6128 37.5744 15.7046 37.424 15.7323 37.2562C15.76 37.0884 15.7216 36.9164 15.625 36.7765C15.5284 36.6365 15.3813 36.5395 15.2146 36.5059C13.0703 36.1517 11.0284 35.3367 9.22956 34.1171C9.54325 29.6638 13.2051 26.2198 17.7201 26.2198C22.2351 26.2198 25.8957 29.6638 26.212 34.1171C24.4128 35.3369 22.3704 36.1519 20.2257 36.5059C20.1383 36.5172 20.0541 36.546 19.978 36.5905C19.902 36.6351 19.8358 36.6945 19.7832 36.7652C19.7306 36.836 19.6928 36.9166 19.6721 37.0022C19.6514 37.0878 19.6481 37.1768 19.6624 37.2637C19.6768 37.3507 19.7085 37.4338 19.7558 37.5082C19.803 37.5827 19.8647 37.6468 19.9372 37.6968C20.0097 37.7469 20.0916 37.7818 20.1779 37.7995C20.2642 37.8173 20.3532 37.8174 20.4396 37.8C28.3697 36.4875 34.1264 29.6861 34.1264 21.6261C34.1264 20.7231 34.0476 19.803 33.8941 18.8921C33.8801 18.807 33.8494 18.7255 33.8037 18.6523C33.7581 18.5791 33.6984 18.5156 33.6281 18.4656C33.5578 18.4156 33.4784 18.38 33.3942 18.3608C33.3101 18.3417 33.2231 18.3393 33.1381 18.354ZM13.7826 20.9698C13.7826 18.7989 15.5492 17.0323 17.7201 17.0323C19.891 17.0323 21.6576 18.7989 21.6576 20.9698C21.6576 23.1407 19.891 24.9073 17.7201 24.9073C15.5492 24.9073 13.7826 23.1407 13.7826 20.9698ZM24.9074 5.19225C24.8696 5.07555 24.8 4.97176 24.7062 4.89266C24.6125 4.81355 24.4985 4.76229 24.3771 4.74469L20.1837 4.13569L18.3081 0.334688C18.0876 -0.111563 17.3526 -0.111563 17.1321 0.334688L15.2566 4.13569L11.0631 4.74469C10.9419 4.76229 10.828 4.81346 10.7344 4.89241C10.6408 4.97136 10.5711 5.07494 10.5333 5.19144C10.4954 5.30793 10.491 5.43268 10.5204 5.55159C10.5497 5.67049 10.6118 5.77879 10.6996 5.86425L13.7341 8.82131L13.0174 12.9977C12.9967 13.1185 13.0101 13.2426 13.0563 13.3562C13.1025 13.4697 13.1795 13.568 13.2787 13.64C13.3779 13.712 13.4952 13.7547 13.6174 13.7635C13.7397 13.7722 13.8619 13.7465 13.9703 13.6894L17.7201 11.7167L21.4699 13.6894C21.5781 13.7474 21.7006 13.7735 21.823 13.7647C21.9455 13.7559 22.0629 13.7124 22.1616 13.6395C22.2609 13.5674 22.338 13.469 22.3842 13.3553C22.4304 13.2416 22.4438 13.1173 22.4228 12.9964L21.7062 8.82263L24.742 5.86294C24.8297 5.7776 24.8917 5.66945 24.9212 5.55071C24.9506 5.43197 24.9463 5.30735 24.9087 5.19094L24.9074 5.19225ZM20.542 8.12044C20.4658 8.1948 20.4087 8.28657 20.3758 8.38785C20.3429 8.48914 20.3351 8.5969 20.353 8.70187L20.9042 11.9083L18.0246 10.3937C17.9302 10.3445 17.8253 10.3188 17.7188 10.3188C17.6123 10.3188 17.5074 10.3445 17.413 10.3937L14.5347 11.9083L15.0846 8.70187C15.1026 8.5969 15.0947 8.48914 15.0618 8.38785C15.0289 8.28657 14.9719 8.1948 14.8956 8.12044L12.5672 5.85113L15.7855 5.38388C15.8906 5.36844 15.9904 5.32779 16.0763 5.26539C16.1622 5.20299 16.2318 5.1207 16.279 5.02556L17.7201 2.10919L19.1599 5.02688C19.2071 5.12201 19.2767 5.2043 19.3626 5.2667C19.4486 5.3291 19.5484 5.36976 19.6534 5.38519L22.8717 5.85244L20.5433 8.12175L20.542 8.12044Z" fill="white"/>
<path fill-rule="evenodd" clip-rule="evenodd" d="M2.01605 15.75C1.99499 15.8709 2.00824 15.9952 2.05429 16.109C2.10034 16.2227 2.17735 16.3212 2.27658 16.3934C2.3758 16.4656 2.49327 16.5085 2.61566 16.5172C2.73804 16.526 2.86043 16.5003 2.96893 16.443L5.90762 14.8969L8.84762 16.443C8.95565 16.5008 9.07783 16.5267 9.20002 16.5179C9.3222 16.5091 9.43938 16.4658 9.53799 16.3931C9.63729 16.3211 9.71441 16.2226 9.76058 16.1089C9.80674 15.9952 9.82012 15.8709 9.79918 15.75L9.23743 12.4779L11.6157 10.1614C11.7038 10.076 11.7662 9.96757 11.7958 9.84847C11.8255 9.72938 11.8211 9.60437 11.7832 9.48763C11.7454 9.3709 11.6755 9.26712 11.5816 9.18808C11.4878 9.10905 11.3736 9.05792 11.2521 9.0405L7.96562 8.56406L6.49562 5.58469C6.27512 5.13844 5.54012 5.13844 5.31962 5.58469L3.84962 8.56406L0.563116 9.0405C0.441638 9.05792 0.327476 9.10905 0.233596 9.18808C0.139716 9.26712 0.0698792 9.3709 0.0320159 9.48763C-0.00584747 9.60437 -0.0102199 9.72938 0.019395 9.84847C0.0490099 9.96757 0.111425 10.076 0.199554 10.1614L2.5778 12.4779L2.01605 15.75ZM2.06855 10.1496L4.37855 9.81356C4.48387 9.79833 4.58391 9.75777 4.6701 9.69536C4.75628 9.63295 4.82604 9.55055 4.87337 9.45525L5.90762 7.35919L6.94187 9.45525C6.98907 9.55039 7.05862 9.63268 7.14457 9.69508C7.23051 9.75748 7.33029 9.79813 7.43537 9.81356L9.74668 10.1496L8.07455 11.7784C7.99832 11.8527 7.94129 11.9445 7.90837 12.0458C7.87545 12.1471 7.86762 12.2548 7.88555 12.3598L8.28062 14.6619L6.21343 13.5752C6.11901 13.526 6.0141 13.5003 5.90762 13.5003C5.80113 13.5003 5.69622 13.526 5.6018 13.5752L3.53462 14.6619L3.92837 12.3598C3.94647 12.2549 3.93884 12.1472 3.90615 12.046C3.87346 11.9447 3.81668 11.8529 3.74068 11.7784L2.06855 10.1496ZM34.8771 9.0405L31.5906 8.56406L30.1206 5.58469C29.9001 5.13844 29.1651 5.13844 28.9446 5.58469L27.4746 8.56406L24.1881 9.0405C24.0666 9.05792 23.9525 9.10905 23.8586 9.18808C23.7647 9.26712 23.6949 9.3709 23.657 9.48763C23.6192 9.60437 23.6148 9.72938 23.6444 9.84847C23.674 9.96757 23.7364 10.076 23.8246 10.1614L26.2028 12.4779L25.6411 15.75C25.62 15.8709 25.6332 15.9952 25.6793 16.109C25.7253 16.2227 25.8023 16.3212 25.9016 16.3934C26.0008 16.4656 26.1183 16.5085 26.2407 16.5172C26.363 16.526 26.4854 16.5003 26.5939 16.443L29.5326 14.8969L32.4726 16.443C32.5807 16.5008 32.7028 16.5267 32.825 16.5179C32.9472 16.5091 33.0644 16.4658 33.163 16.3931C33.2623 16.3211 33.3394 16.2226 33.3856 16.1089C33.4317 15.9952 33.4451 15.8709 33.4242 15.75L32.8624 12.4779L35.2407 10.1614C35.3288 10.076 35.3912 9.96757 35.4208 9.84847C35.4505 9.72938 35.4461 9.60437 35.4082 9.48763C35.3704 9.3709 35.3005 9.26712 35.2066 9.18808C35.1128 9.10905 34.9986 9.05792 34.8771 9.0405ZM31.6996 11.7784C31.6233 11.8527 31.5663 11.9445 31.5334 12.0458C31.5004 12.1471 31.4926 12.2548 31.5106 12.3598L31.9056 14.6619L29.8384 13.5752C29.744 13.526 29.6391 13.5003 29.5326 13.5003C29.4261 13.5003 29.3212 13.526 29.2268 13.5752L27.1596 14.6619L27.5534 12.3598C27.5715 12.2549 27.5638 12.1472 27.5312 12.046C27.4985 11.9447 27.4417 11.8529 27.3657 11.7784L25.6936 10.1496L28.0036 9.81356C28.1089 9.79833 28.2089 9.75777 28.2951 9.69536C28.3813 9.63295 28.451 9.55055 28.4984 9.45525L29.5326 7.35919L30.5669 9.45525C30.6141 9.55039 30.6836 9.63268 30.7696 9.69508C30.8555 9.75748 30.9553 9.79813 31.0604 9.81356L33.3717 10.1496L31.6996 11.7784Z" fill="white"/>
</svg>
