<svg width="42" height="42" viewBox="0 0 42 42" fill="none" xmlns="http://www.w3.org/2000/svg">
<g clip-path="url(#clip0_236_748)">
<path d="M39.0508 18.3114C38.9013 13.7462 37.0151 9.41021 33.7772 6.18847C30.3627 2.77334 25.8248 0.893188 21 0.893188C11.2554 0.893188 3.29309 8.64941 2.94987 18.3114C2.19849 18.6442 1.55976 19.1878 1.11109 19.8763C0.662413 20.5648 0.423048 21.3687 0.421997 22.1905V26.9562C0.423213 28.0815 0.870804 29.1605 1.66656 29.9562C2.46232 30.752 3.54125 31.1996 4.66662 31.2008C5.39475 31.1999 6.0928 30.9103 6.60767 30.3954C7.12253 29.8806 7.41216 29.1825 7.41303 28.4544V20.6916C7.41303 19.2695 6.32234 18.1099 4.93568 17.9721C5.44756 9.55438 12.455 2.86194 21 2.86194C25.2998 2.86194 29.3429 4.538 32.386 7.58103C35.1803 10.3753 36.8157 14.0175 37.0617 17.9727C35.6764 18.1119 34.5877 19.2708 34.5877 20.6916V28.4537C34.5877 29.8876 35.6954 31.0544 37.0985 31.1758V33.1374C37.0973 34.1995 36.6748 35.2178 35.9237 35.9688C35.1726 36.7197 34.1542 37.1421 33.0921 37.1431H30.1252C29.9252 36.56 29.5475 36.0541 29.0453 35.6965C28.5431 35.3389 27.9415 35.1476 27.325 35.1494H24.2668C23.8278 35.1494 23.4065 35.2426 23.0206 35.4224C22.5039 35.6611 22.0663 36.0427 21.7593 36.5219C21.4523 37.0012 21.2888 37.5583 21.2881 38.1275C21.2881 38.9242 21.5985 39.6723 22.1609 40.2321C22.4366 40.51 22.7647 40.7303 23.1262 40.8804C23.4877 41.0305 23.8754 41.1072 24.2668 41.1062H27.325C28.5928 41.1062 29.7104 40.2866 30.1272 39.1119H33.0921C36.3871 39.1119 39.0672 36.4318 39.0672 33.1374V30.8254C39.8142 30.4907 40.4485 29.9474 40.8939 29.2607C41.3393 28.574 41.5769 27.7733 41.5781 26.9548V22.1892C41.5781 20.4606 40.5372 18.9722 39.0508 18.3114ZM5.44362 20.6916V28.4537C5.44362 28.8823 5.09515 29.2314 4.66597 29.2314C4.06258 29.2307 3.48411 28.9907 3.05745 28.564C2.63079 28.1374 2.39079 27.5589 2.39009 26.9555V22.1898C2.39079 21.5864 2.63079 21.008 3.05745 20.5813C3.48411 20.1546 4.06258 19.9146 4.66597 19.9139C5.09515 19.9139 5.44362 20.2631 5.44362 20.6916ZM28.3126 38.3388C28.2637 38.5648 28.1391 38.7673 27.9593 38.9128C27.7796 39.0583 27.5555 39.138 27.3243 39.1388H24.2662C23.9971 39.1388 23.7445 39.0338 23.5515 38.8408C23.4576 38.7476 23.3832 38.6367 23.3325 38.5144C23.2818 38.3922 23.2559 38.2611 23.2562 38.1288C23.2569 37.8612 23.3636 37.6048 23.5528 37.4157C23.7421 37.2265 23.9986 37.12 24.2662 37.1195H27.3243C27.5934 37.1195 27.846 37.2238 28.0383 37.4168C28.2286 37.6064 28.3336 37.8598 28.3336 38.1288C28.3343 38.201 28.3264 38.2732 28.3126 38.3388ZM39.6093 26.9555C39.6086 27.5589 39.3686 28.1374 38.942 28.564C38.5153 28.9907 37.9368 29.2307 37.3334 29.2314C37.1272 29.2312 36.9295 29.1492 36.7837 29.0034C36.6379 28.8576 36.556 28.6599 36.5558 28.4537V20.6916C36.5558 20.2631 36.9042 19.9139 37.3334 19.9139C37.9368 19.9146 38.5153 20.1546 38.942 20.5813C39.3686 21.008 39.6086 21.5864 39.6093 22.1898V26.9555Z" fill="white"/>
<path d="M27.3742 27.2948C28.48 27.2936 29.5403 26.8538 30.3222 26.0718C31.1042 25.2898 31.5441 24.2296 31.5453 23.1237V14.6246C31.5453 13.5129 31.1108 12.4656 30.322 11.6767C29.5332 10.8879 28.4865 10.4535 27.3742 10.4535H14.6258C13.52 10.4547 12.4597 10.8946 11.6777 11.6765C10.8958 12.4585 10.4559 13.5187 10.4547 14.6246V23.1237C10.4559 24.2296 10.8958 25.2898 11.6777 26.0718C12.4597 26.8538 13.52 27.2936 14.6258 27.2948H14.7039V29.4972C14.7026 29.7661 14.7545 30.0327 14.8566 30.2815C14.9587 30.5303 15.1089 30.7564 15.2987 30.947C15.4885 31.1375 15.7141 31.2886 15.9625 31.3917C16.2109 31.4947 16.4773 31.5476 16.7462 31.5473C17.0149 31.5479 17.281 31.4943 17.5286 31.3898C17.7762 31.2853 18.0002 31.1319 18.1873 30.939L21.8512 27.2948H27.3742ZM20.7519 25.6122L16.7869 29.5556C16.7691 29.574 16.756 29.5878 16.7186 29.5714C16.6733 29.553 16.6733 29.5235 16.6733 29.4972V26.3105C16.6733 26.0494 16.5696 25.799 16.385 25.6144C16.2004 25.4298 15.95 25.3261 15.689 25.3261H14.6265C14.0426 25.3254 13.4828 25.0931 13.0699 24.6803C12.6571 24.2674 12.4248 23.7076 12.4241 23.1237V14.6246C12.4248 14.0407 12.6571 13.4809 13.0699 13.0681C13.4828 12.6552 14.0426 12.4229 14.6265 12.4222H27.3748C27.9615 12.4222 28.5134 12.6519 28.9308 13.0686C29.3481 13.486 29.5772 14.0386 29.5772 14.6246V23.1237C29.5765 23.7076 29.3442 24.2674 28.9314 24.6803C28.5185 25.0931 27.9587 25.3254 27.3748 25.3261H21.4462C21.1857 25.3261 20.9363 25.4291 20.7519 25.6122Z" fill="white"/>
<path d="M16.2179 17.579C15.4173 17.579 14.7656 18.2313 14.7656 19.0313C14.7656 19.8312 15.4179 20.4835 16.2179 20.4835C17.0192 20.4835 17.6715 19.8312 17.6715 19.0313C17.6715 18.2313 17.0198 17.579 16.2179 17.579ZM20.9993 17.579C20.1987 17.579 19.5471 18.2313 19.5471 19.0313C19.5471 19.8312 20.1994 20.4835 20.9993 20.4835C21.8013 20.4835 22.4529 19.8312 22.4529 19.0313C22.4529 18.2313 21.8013 17.579 20.9993 17.579ZM25.7808 17.579C24.9802 17.579 24.3285 18.2313 24.3285 19.0313C24.3285 19.8312 24.9808 20.4835 25.7808 20.4835C26.5821 20.4835 27.2344 19.8312 27.2344 19.0313C27.2344 18.2313 26.5821 17.579 25.7808 17.579Z" fill="white"/>
</g>
<defs>
<clipPath id="clip0_236_748">
<rect width="42" height="42" fill="white"/>
</clipPath>
</defs>
</svg>
