<svg width="60" height="60" viewBox="0 0 60 60" fill="none" xmlns="http://www.w3.org/2000/svg">
<g clip-path="url(#clip0_236_783)">
<path d="M59.1211 53.5545H57.832V50.9178C57.832 50.6847 57.7394 50.4611 57.5746 50.2963C57.4098 50.1315 57.1862 50.0389 56.9531 50.0389H54.3164V41.5428C54.3164 41.3097 54.2238 41.0861 54.059 40.9213C53.8942 40.7565 53.6706 40.6639 53.4375 40.6639H51.9727V20.5076H53.4375C53.6706 20.5076 53.8942 20.415 54.059 20.2502C54.2238 20.0854 54.3164 19.8618 54.3164 19.6287V15.8201H56.9531C57.1862 15.8201 57.4098 15.7275 57.5746 15.5627C57.7394 15.3979 57.832 15.1743 57.832 14.9412V11.4256C57.832 11.1925 57.7394 10.9689 57.5746 10.8041C57.4098 10.6393 57.1862 10.5467 56.9531 10.5467H55.4883V7.90996C55.4882 7.71899 55.426 7.53323 55.311 7.38078C55.196 7.22833 55.0344 7.11749 54.8508 7.06504L30.2414 0.0337903C30.0837 -0.0119145 29.9163 -0.0119145 29.7586 0.0337903L5.14922 7.06504C4.96559 7.11749 4.80404 7.22833 4.68902 7.38078C4.574 7.53323 4.51176 7.71899 4.51172 7.90996V10.5467H3.04688C2.81377 10.5467 2.59022 10.6393 2.42539 10.8041C2.26057 10.9689 2.16797 11.1925 2.16797 11.4256V14.9412C2.16797 15.1743 2.26057 15.3979 2.42539 15.5627C2.59022 15.7275 2.81377 15.8201 3.04688 15.8201H5.68359V19.6287C5.68359 19.8618 5.77619 20.0854 5.94102 20.2502C6.10585 20.415 6.3294 20.5076 6.5625 20.5076H8.02734V40.6639H6.5625C6.3294 40.6639 6.10585 40.7565 5.94102 40.9213C5.77619 41.0861 5.68359 41.3097 5.68359 41.5428V50.0389H3.04688C2.81377 50.0389 2.59022 50.1315 2.42539 50.2963C2.26057 50.4611 2.16797 50.6847 2.16797 50.9178V53.5545H0.878906C0.645806 53.5545 0.422253 53.6471 0.257426 53.8119C0.0925988 53.9767 0 54.2003 0 54.4334L0 59.1209C0 59.354 0.0925988 59.5775 0.257426 59.7424C0.422253 59.9072 0.645806 59.9998 0.878906 59.9998H59.1211C59.3542 59.9998 59.5777 59.9072 59.7426 59.7424C59.9074 59.5775 60 59.354 60 59.1209V54.4334C60 54.2003 59.9074 53.9767 59.7426 53.8119C59.5777 53.6471 59.3542 53.5545 59.1211 53.5545ZM52.5586 50.0389H44.9414V42.4217H52.5586V50.0389ZM15.9375 40.6639H14.4727V20.5076H15.9375C16.1706 20.5076 16.3942 20.415 16.559 20.2502C16.7238 20.0854 16.8164 19.8618 16.8164 19.6287V15.8201H43.1836V19.6287C43.1836 19.8618 43.2762 20.0854 43.441 20.2502C43.6058 20.415 43.8294 20.5076 44.0625 20.5076H45.5273V40.6639H44.0625C43.8294 40.6639 43.6058 40.7565 43.441 40.9213C43.2762 41.0861 43.1836 41.3097 43.1836 41.5428V50.0389H16.8164V41.5428C16.8164 41.3097 16.7238 41.0861 16.559 40.9213C16.3942 40.7565 16.1706 40.6639 15.9375 40.6639ZM50.2148 40.6639H47.2852V20.5076H50.2148V40.6639ZM52.5586 18.7498H44.9414V15.8201H52.5586V18.7498ZM6.26953 8.57324L30 1.79277L53.7305 8.57324V10.5467H6.26953V8.57324ZM3.92578 12.3045H56.0742V14.0623H3.92578V12.3045ZM7.44141 15.8201H15.0586V18.7498H7.44141V15.8201ZM9.78516 20.5076H12.7148V40.6639H9.78516V20.5076ZM7.44141 42.4217H15.0586V50.0389H7.44141V42.4217ZM3.92578 51.7967H56.0742V53.5545H3.92578V51.7967ZM58.2422 58.242H1.75781V55.3123H58.2422V58.242Z" fill="white"/>
<path d="M29.6789 46.0543C29.8853 46.1356 30.1147 46.1356 30.3211 46.0543C33.4708 44.8184 36.175 42.6621 38.0812 39.8667C39.9874 37.0713 41.0071 33.7663 41.0074 30.3828V23.4266C41.0077 23.2496 40.9546 23.0767 40.8551 22.9303C40.7556 22.784 40.6143 22.6711 40.4496 22.6063L30.3211 18.6324C30.1147 18.5516 29.8853 18.5516 29.6789 18.6324L19.5504 22.6051C19.3857 22.6699 19.2444 22.7828 19.1449 22.9292C19.0454 23.0755 18.9923 23.2484 18.9926 23.4254V30.3793C18.9922 33.7634 20.0115 37.0691 21.9178 39.8652C23.824 42.6614 26.5287 44.8182 29.6789 46.0543ZM20.7504 24.0231L30 20.3903L39.2496 24.0231V30.3781C39.2621 33.3526 38.3893 36.2635 36.7421 38.7402C35.0949 41.2169 32.7479 43.1474 30 44.286C27.2524 43.1476 24.9057 41.2174 23.2586 38.7411C21.6114 36.2649 20.7383 33.3545 20.7504 30.3805V24.0231Z" fill="white"/>
<path d="M28.8598 37.3242C29.1709 37.3251 29.4791 37.2642 29.7666 37.1451C30.054 37.0261 30.315 36.8511 30.5344 36.6305L36.1969 30.968C36.2786 30.8863 36.3433 30.7894 36.3876 30.6828C36.4318 30.5761 36.4545 30.4618 36.4545 30.3463C36.4545 30.2308 36.4318 30.1165 36.3876 30.0098C36.3433 29.9031 36.2786 29.8062 36.1969 29.7246L34.0875 27.6152C34.006 27.5336 33.9092 27.4688 33.8026 27.4246C33.696 27.3805 33.5818 27.3577 33.4664 27.3577C33.351 27.3577 33.2368 27.3805 33.1302 27.4246C33.0237 27.4688 32.9268 27.5336 32.8453 27.6152L28.8609 31.5996L27.1512 29.8898C27.0697 29.8082 26.9728 29.7434 26.8663 29.6993C26.7597 29.6551 26.6455 29.6323 26.5301 29.6323C26.4147 29.6323 26.3005 29.6551 26.1939 29.6993C26.0873 29.7434 25.9905 29.8082 25.909 29.8898L23.7996 31.9992C23.7179 32.0808 23.6532 32.1778 23.6089 32.2844C23.5647 32.3911 23.542 32.5054 23.542 32.6209C23.542 32.7364 23.5647 32.8507 23.6089 32.9574C23.6532 33.064 23.7179 33.161 23.7996 33.2426L27.1875 36.6305C27.4066 36.8509 27.6671 37.0257 27.9542 37.1448C28.2412 37.2639 28.549 37.3249 28.8598 37.3242ZM26.5289 31.7648L28.2422 33.4746C28.3238 33.5563 28.4207 33.6211 28.5274 33.6653C28.6341 33.7095 28.7484 33.7322 28.8639 33.7322C28.9793 33.7322 29.0937 33.7095 29.2003 33.6653C29.307 33.6211 29.4039 33.5563 29.4856 33.4746L33.4699 29.4902L34.3359 30.3516L29.2969 35.3906C29.1826 35.5048 29.0277 35.5689 28.8662 35.5689C28.7047 35.5689 28.5498 35.5048 28.4356 35.3906L25.6641 32.6262L26.5289 31.7648ZM33.5156 7.03125H26.4844C26.2513 7.03125 26.0277 7.12385 25.8629 7.28868C25.6981 7.4535 25.6055 7.67706 25.6055 7.91016C25.6055 8.14326 25.6981 8.36681 25.8629 8.53164C26.0277 8.69646 26.2513 8.78906 26.4844 8.78906H33.5156C33.7487 8.78906 33.9723 8.69646 34.1371 8.53164C34.3019 8.36681 34.3945 8.14326 34.3945 7.91016C34.3945 7.67706 34.3019 7.4535 34.1371 7.28868C33.9723 7.12385 33.7487 7.03125 33.5156 7.03125ZM29.4141 5.85938H30.5859C30.819 5.85938 31.0426 5.76678 31.2074 5.60195C31.3723 5.43712 31.4649 5.21357 31.4649 4.98047C31.4649 4.74737 31.3723 4.52381 31.2074 4.35899C31.0426 4.19416 30.819 4.10156 30.5859 4.10156H29.4141C29.181 4.10156 28.9574 4.19416 28.7926 4.35899C28.6278 4.52381 28.5352 4.74737 28.5352 4.98047C28.5352 5.21357 28.6278 5.43712 28.7926 5.60195C28.9574 5.76678 29.181 5.85938 29.4141 5.85938Z" fill="white"/>
</g>
<defs>
<clipPath id="clip0_236_783">
<rect width="60" height="60" fill="white"/>
</clipPath>
</defs>
</svg>
