<svg width="60" height="60" viewBox="0 0 60 60" fill="none" xmlns="http://www.w3.org/2000/svg">
<path d="M11.6625 24.5627C11.55 24.0565 11.8875 23.5502 12.375 23.4377C12.8812 23.344 13.3875 23.6627 13.5 24.169C13.5246 24.2896 13.5253 24.4139 13.5019 24.5348C13.4785 24.6557 13.4315 24.7708 13.3636 24.8736C13.2956 24.9763 13.2082 25.0647 13.1061 25.1336C13.004 25.2025 12.8894 25.2506 12.7687 25.2752C12.7125 25.294 12.6563 25.294 12.5813 25.294C12.15 25.294 11.7562 24.994 11.6625 24.5627ZM47.2313 25.2377C47.1108 25.2138 46.9964 25.1659 46.8949 25.0968C46.7934 25.0277 46.7068 24.9389 46.6404 24.8357C46.5739 24.7325 46.5288 24.6169 46.5079 24.496C46.4871 24.375 46.4907 24.251 46.5187 24.1315C46.6125 23.6252 47.1187 23.3065 47.625 23.4002C48.1312 23.5127 48.45 24.019 48.3375 24.5252C48.2438 24.9565 47.8688 25.2565 47.4188 25.2565C47.3625 25.2565 47.3063 25.2565 47.2313 25.2377ZM11.25 20.6627C11.25 20.1377 11.6625 19.7252 12.1875 19.7252C12.7125 19.7252 13.125 20.1377 13.125 20.6627C13.125 21.169 12.7125 21.6002 12.1875 21.6002C11.6812 21.6002 11.25 21.1877 11.25 20.6627ZM46.875 20.6252V20.5502C46.875 20.044 47.2875 19.6127 47.8125 19.6127C48.3187 19.6127 48.75 20.0252 48.75 20.5502V20.6252C48.75 21.1502 48.3375 21.5627 47.8125 21.5627C47.2875 21.5627 46.875 21.1502 46.875 20.6252ZM12.375 17.869C12.1318 17.8184 11.9185 17.6737 11.7815 17.4665C11.6445 17.2593 11.595 17.0063 11.6438 16.7627C11.7563 16.2565 12.2438 15.9377 12.75 16.0502C13.2563 16.144 13.5938 16.6502 13.4813 17.1565C13.3875 17.5877 12.9937 17.8877 12.5625 17.8877C12.5062 17.8877 12.4312 17.8877 12.375 17.869ZM46.5 17.044C46.3875 16.5377 46.7062 16.0502 47.2125 15.9377C47.7188 15.8252 48.225 16.144 48.3375 16.6502C48.4313 17.1565 48.1125 17.6627 47.6062 17.7752C47.55 17.7752 47.475 17.794 47.4188 17.794C46.9688 17.794 46.5938 17.494 46.5 17.044ZM13.3313 14.269C13.1043 14.1674 12.9262 13.981 12.835 13.7497C12.7439 13.5183 12.747 13.2605 12.8437 13.0315C12.9457 12.8027 13.1343 12.6238 13.3682 12.5342C13.602 12.4445 13.8619 12.4514 14.0906 12.5533C14.3194 12.6553 14.4983 12.8439 14.5879 13.0778C14.6776 13.3116 14.6707 13.5715 14.5687 13.8002C14.4 14.1377 14.0625 14.3627 13.7062 14.3627C13.575 14.3627 13.4438 14.3252 13.3313 14.269ZM45.3937 13.7065C45.1875 13.2377 45.3937 12.6752 45.8625 12.469C46.3312 12.244 46.8938 12.4502 47.1 12.9377C47.325 13.4065 47.1 13.9502 46.6313 14.1752C46.4045 14.2732 46.1485 14.279 45.9175 14.1915C45.6866 14.104 45.4987 13.9301 45.3937 13.7065ZM15.0188 10.9502C14.9167 10.8794 14.8301 10.7887 14.7642 10.6834C14.6982 10.5782 14.6543 10.4607 14.635 10.3381C14.6157 10.2154 14.6215 10.0901 14.652 9.96971C14.6825 9.84933 14.7371 9.73639 14.8125 9.63771C15.1125 9.22521 15.6938 9.13146 16.1063 9.43146C16.5375 9.73146 16.6312 10.3127 16.3125 10.744C16.1437 10.9877 15.8438 11.119 15.5625 11.119C15.375 11.119 15.1875 11.0627 15.0188 10.9502ZM43.6125 10.6502C43.4696 10.4475 43.4112 10.1972 43.4497 9.95218C43.4882 9.70719 43.6206 9.48681 43.8188 9.33771C44.2313 9.03771 44.8312 9.13146 45.1312 9.54396C45.2308 9.68445 45.2904 9.84935 45.3035 10.021C45.3167 10.1927 45.283 10.3648 45.206 10.5188C45.1289 10.6728 45.0115 10.803 44.8663 10.8955C44.721 10.988 44.5534 11.0393 44.3812 11.044C44.0812 11.044 43.8 10.9127 43.6125 10.6502ZM17.3438 8.04396C17.0062 7.66896 17.025 7.06896 17.4187 6.73146C17.7937 6.37521 18.3938 6.41271 18.75 6.78771C19.0875 7.16271 19.0687 7.76271 18.675 8.11896C18.4875 8.26896 18.2625 8.36271 18.0375 8.36271C17.7937 8.36271 17.5312 8.25021 17.3438 8.04396ZM41.25 8.04396C41.1559 7.96259 41.0792 7.86314 41.0243 7.75153C40.9694 7.63991 40.9375 7.5184 40.9305 7.39422C40.9235 7.27004 40.9416 7.14572 40.9836 7.02865C41.0256 6.91157 41.0907 6.80413 41.175 6.71271C41.5125 6.33771 42.1125 6.30021 42.5063 6.65646C42.8813 6.99396 42.9188 7.57521 42.5625 7.96896C42.4773 8.06969 42.371 8.15046 42.2511 8.20555C42.1312 8.26063 42.0007 8.28868 41.8687 8.28771C41.7546 8.29005 41.6412 8.26971 41.5349 8.22787C41.4287 8.18603 41.3319 8.12352 41.25 8.04396ZM20.2312 5.70021C20.1123 5.48025 20.0829 5.22283 20.1493 4.98173C20.2157 4.74064 20.3727 4.53452 20.5875 4.40646C21.0187 4.14396 21.6 4.29396 21.8625 4.74396C22.125 5.19396 21.975 5.77521 21.525 6.03771C21.375 6.11271 21.2062 6.15021 21.0562 6.15021C20.7187 6.15021 20.4187 6.00021 20.2312 5.70021ZM38.3812 5.98146C38.2746 5.9207 38.181 5.83929 38.1061 5.74199C38.0313 5.64469 37.9765 5.53344 37.9451 5.41475C37.9137 5.29605 37.9062 5.17229 37.9232 5.05068C37.9401 4.92907 37.9811 4.81205 38.0438 4.70646C38.3063 4.25646 38.8687 4.08771 39.3187 4.35021C39.7687 4.61271 39.9187 5.17521 39.675 5.62521C39.4875 5.94396 39.1687 6.09396 38.85 6.09396C38.7 6.09396 38.5312 6.05646 38.3812 5.98146ZM23.55 3.99396C23.4731 3.75775 23.4931 3.50068 23.6056 3.2792C23.7181 3.05772 23.9139 2.88994 24.15 2.81271C24.6375 2.64396 25.1813 2.90646 25.3313 3.39396C25.3722 3.51207 25.3891 3.63718 25.381 3.76192C25.3729 3.88667 25.3399 4.00853 25.284 4.12034C25.2281 4.23215 25.1504 4.33165 25.0555 4.41299C24.9605 4.49433 24.8503 4.55586 24.7312 4.59396C24.6375 4.61271 24.5437 4.63146 24.45 4.63146C24.0562 4.63146 23.6813 4.38771 23.55 3.99396ZM35.1562 4.55646C34.9231 4.47515 34.7304 4.30677 34.6185 4.08658C34.5067 3.8664 34.4844 3.61148 34.5563 3.37521C34.7063 2.88771 35.25 2.60646 35.7375 2.77521C36.225 2.92521 36.5062 3.45021 36.3375 3.95646C36.2062 4.35021 35.85 4.59396 35.4562 4.59396C35.3625 4.59396 35.25 4.57521 35.1562 4.55646ZM27.15 3.01896C27.0937 2.49396 27.4688 2.04396 27.975 1.98771C28.5 1.93146 28.9688 2.30646 29.0063 2.81271C29.0813 3.33771 28.7062 3.78771 28.1812 3.84396H28.0875C27.6 3.84396 27.2062 3.48771 27.15 3.01896ZM31.7062 3.82521C31.5851 3.81425 31.4673 3.77918 31.3599 3.72206C31.2524 3.66494 31.1575 3.58692 31.0807 3.4926C31.0038 3.39827 30.9466 3.28954 30.9123 3.17278C30.8781 3.05603 30.8675 2.93361 30.8812 2.81271C30.9187 2.28771 31.3875 1.91271 31.8938 1.96896C32.4188 2.02521 32.7937 2.47521 32.7375 3.00021C32.7 3.48771 32.2875 3.84396 31.8 3.84396C31.7812 3.84396 31.7437 3.84396 31.7062 3.82521ZM27.1875 45.0002C26.9389 45.0002 26.7004 44.9014 26.5246 44.7256C26.3488 44.5498 26.25 44.3114 26.25 44.0627V43.1946C26.25 39.244 23.5219 35.7996 19.6144 34.8171C19.495 34.787 19.3826 34.7338 19.2838 34.6603C19.1849 34.5869 19.1016 34.4947 19.0384 34.389C18.9751 34.2833 18.9334 34.1662 18.9154 34.0444C18.8975 33.9226 18.9037 33.7984 18.9337 33.679C18.9638 33.5595 19.0171 33.4472 19.0905 33.3484C19.164 33.2495 19.2562 33.1661 19.3619 33.1029C19.4675 33.0397 19.5846 32.998 19.7065 32.98C19.8283 32.9621 19.9525 32.9683 20.0719 32.9983C24.8138 34.1908 28.125 38.3833 28.125 43.1946V44.0627C28.125 44.3114 28.0262 44.5498 27.8504 44.7256C27.6746 44.9014 27.4361 45.0002 27.1875 45.0002Z" fill="white"/>
<path d="M16.4287 38.282C16.18 38.2821 15.9414 38.1837 15.765 38.0083L7.53934 29.7958C7.45204 29.7087 7.38277 29.6053 7.33551 29.4914C7.28824 29.3775 7.26392 29.2554 7.26392 29.132C7.26392 29.0087 7.28824 28.8866 7.33551 28.7727C7.38277 28.6588 7.45204 28.5554 7.53934 28.4683C10.1193 25.8883 13.2975 26.1077 16.2562 29.0683L20.4825 33.287C20.5721 33.3734 20.6437 33.4767 20.693 33.5911C20.7423 33.7054 20.7683 33.8283 20.7695 33.9528C20.7708 34.0773 20.7472 34.2008 20.7003 34.316C20.6533 34.4313 20.5838 34.5361 20.4959 34.6242C20.408 34.7124 20.3035 34.7821 20.1883 34.8294C20.0732 34.8767 19.9498 34.9006 19.8253 34.8997C19.7008 34.8988 19.5778 34.8731 19.4633 34.8242C19.3489 34.7752 19.2453 34.704 19.1587 34.6145L14.9306 30.3958C13.0068 28.4702 11.2106 28.0652 9.58309 29.1883L17.0868 36.6808C17.2162 36.8123 17.304 36.9788 17.3395 37.1598C17.375 37.3407 17.3565 37.5281 17.2864 37.6987C17.2163 37.8693 17.0977 38.0155 16.9452 38.1192C16.7927 38.2229 16.6131 38.2795 16.4287 38.282ZM11.25 47.9683V52.5002H13.125V48.7502H26.25V52.5002H28.125V47.9683C28.125 47.4508 27.6656 46.8752 27.1481 46.8752H12.1481C11.6268 46.8752 11.25 47.4527 11.25 47.9683Z" fill="white"/>
<path d="M9.375 57.1879C9.375 57.4366 9.47377 57.675 9.64959 57.8508C9.8254 58.0266 10.0639 58.1254 10.3125 58.1254C10.5611 58.1254 10.7996 58.0266 10.9754 57.8508C11.1512 57.675 11.25 57.4366 11.25 57.1879V52.5004H26.25V57.186C26.25 57.4347 26.3488 57.6731 26.5246 57.849C26.7004 58.0248 26.9389 58.1235 27.1875 58.1235C27.4361 58.1235 27.6746 58.0248 27.8504 57.849C28.0262 57.6731 28.125 57.4347 28.125 57.186V51.7185C28.125 51.201 27.6656 50.6254 27.1481 50.6254H10.2731C9.75375 50.6254 9.375 51.201 9.375 51.7185V57.1879ZM32.8125 45.0004C32.5639 45.0004 32.3254 44.9016 32.1496 44.7258C31.9738 44.55 31.875 44.3116 31.875 44.0629V43.1948C31.875 38.3835 35.1863 34.191 39.9281 32.9985C40.0475 32.9685 40.1717 32.9623 40.2935 32.9802C40.4154 32.9982 40.5325 33.0399 40.6381 33.1031C40.7438 33.1663 40.836 33.2497 40.9095 33.3486C40.9829 33.4474 41.0362 33.5597 41.0662 33.6792C41.0963 33.7986 41.1025 33.9228 41.0846 34.0446C41.0666 34.1664 41.0249 34.2835 40.9617 34.3892C40.8985 34.4949 40.8151 34.5871 40.7162 34.6605C40.6174 34.734 40.505 34.7873 40.3856 34.8173C36.4781 35.7998 33.75 39.2442 33.75 43.1948V44.0629C33.75 44.3116 33.6512 44.55 33.4754 44.7258C33.2996 44.9016 33.0611 45.0004 32.8125 45.0004Z" fill="white"/>
<path d="M43.5712 38.282C43.3864 38.2806 43.206 38.2248 43.0527 38.1215C42.8994 38.0182 42.7798 37.872 42.709 37.7012C42.6383 37.5305 42.6193 37.3426 42.6546 37.1611C42.6899 36.9797 42.7779 36.8126 42.9075 36.6808L50.4112 29.1883C48.7819 28.0652 46.9894 28.4702 45.0656 30.3958L40.8375 34.6145C40.6604 34.7851 40.4235 34.8792 40.1777 34.8768C39.9319 34.8743 39.6968 34.7754 39.5233 34.6013C39.3497 34.4272 39.2514 34.1919 39.2496 33.9461C39.2479 33.7003 39.3427 33.4636 39.5137 33.287L43.7419 29.0683C46.7044 26.1077 49.8806 25.8902 52.4587 28.4683C52.5461 28.5554 52.6153 28.6588 52.6626 28.7727C52.7098 28.8866 52.7342 29.0087 52.7342 29.132C52.7342 29.2553 52.7098 29.3775 52.6626 29.4914C52.6153 29.6052 52.5461 29.7087 52.4587 29.7958L44.2331 38.0083C44.1462 38.0952 44.0431 38.1642 43.9295 38.2111C43.8159 38.2581 43.6942 38.2822 43.5712 38.282ZM16.875 45.8664C16.8748 45.7242 16.8426 45.584 16.7805 45.456C16.7185 45.3281 16.6284 45.2158 16.5169 45.1277L9.84187 39.8964C9.2625 39.4352 8.41312 38.4395 8.13937 37.7852L3.75 27.5814L3.72375 18.8795C3.82312 18.7033 4.44375 18.3152 5.15062 18.4183C6.23062 18.5627 6.73875 19.7195 6.975 20.6608C7.32187 22.052 7.4025 23.2783 7.47937 24.437C7.48752 24.5579 7.52 24.6759 7.57485 24.784C7.62971 24.892 7.70582 24.9879 7.79862 25.0658C7.89142 25.1437 7.99899 25.2021 8.11489 25.2374C8.2308 25.2727 8.35264 25.2843 8.47312 25.2714C8.99062 25.2377 9.37875 24.752 9.345 24.2364C9.26813 23.0758 9.18187 21.7633 8.79562 20.2089C8.04562 17.2164 6.07875 16.3558 4.47375 16.5564C3.19687 16.7139 1.875 17.5727 1.875 18.7389V27.7745C1.875 27.902 1.90125 28.0277 1.95188 28.1458L6.41437 38.5202C6.82687 39.5027 7.88812 40.7383 8.67937 41.3683L15 46.322V48.7502H16.875V45.8664Z" fill="white"/>
<path d="M43.125 45.8665C43.125 45.5777 43.2581 45.3058 43.4831 45.1277L50.1581 39.8965C50.7375 39.4352 51.5869 38.4396 51.8606 37.7852L56.25 27.5815L56.2762 18.8796C56.1769 18.7033 55.5544 18.3152 54.8475 18.4183C53.7675 18.5627 53.2594 19.7177 53.0231 20.6608C52.6762 22.0521 52.5956 23.2783 52.5188 24.4371C52.5106 24.558 52.4781 24.676 52.4233 24.784C52.3684 24.8921 52.2923 24.9879 52.1995 25.0658C52.1067 25.1438 51.9991 25.2021 51.8832 25.2375C51.7673 25.2728 51.6455 25.2844 51.525 25.2715C51.0075 25.2377 50.6194 24.7521 50.6531 24.2365C50.73 23.0758 50.8163 21.7633 51.2025 20.209C51.9506 17.2165 53.9175 16.3558 55.5225 16.5583C56.8031 16.714 58.125 17.5727 58.125 18.739V27.7746C58.1248 27.9023 58.0987 28.0286 58.0481 28.1458L53.5856 38.5202C53.1731 39.5027 52.1119 40.7383 51.3206 41.3683L45 46.3221V48.7502H43.125V45.8665Z" fill="white"/>
<path d="M48.75 47.9681V52.5H46.875V48.75H33.75V52.5H31.875V47.9681C31.875 47.4506 32.3344 46.875 32.8519 46.875H47.8519C48.3731 46.875 48.75 47.4525 48.75 47.9681Z" fill="white"/>
<path d="M50.625 57.1878C50.625 57.4364 50.5262 57.6749 50.3504 57.8507C50.1746 58.0265 49.9361 58.1253 49.6875 58.1253C49.4389 58.1253 49.2004 58.0265 49.0246 57.8507C48.8488 57.6749 48.75 57.4364 48.75 57.1878V52.5003H33.75V57.1859C33.75 57.4346 33.6512 57.673 33.4754 57.8488C33.2996 58.0246 33.0611 58.1234 32.8125 58.1234C32.5639 58.1234 32.3254 58.0246 32.1496 57.8488C31.9738 57.673 31.875 57.4346 31.875 57.1859V51.7184C31.875 51.2009 32.3344 50.6253 32.8519 50.6253H49.7269C50.2463 50.6253 50.625 51.2009 50.625 51.7184V57.1878ZM27.1875 33.7503C27.0489 33.7504 26.912 33.7198 26.7866 33.6607C26.6612 33.6016 26.5505 33.5154 26.4625 33.4083C26.3744 33.3012 26.3112 33.176 26.2774 33.0416C26.2436 32.9071 26.24 32.7669 26.2669 32.6309L27.9188 24.3753H23.4375C23.2702 24.3753 23.1059 24.3305 22.9617 24.2456C22.8175 24.1606 22.6986 24.0386 22.6175 23.8923C22.5364 23.7459 22.4959 23.5805 22.5003 23.4132C22.5047 23.2459 22.5538 23.0828 22.6425 22.9409L32.0175 7.94091C32.1352 7.75717 32.3133 7.62014 32.521 7.55336C32.7288 7.48659 32.9533 7.49422 33.156 7.57496C33.3588 7.6557 33.5271 7.80451 33.632 7.99583C33.737 8.18715 33.7721 8.40904 33.7313 8.62341L31.8563 17.9984C31.8075 18.2423 31.6639 18.4569 31.457 18.5949C31.25 18.7329 30.9967 18.7831 30.7528 18.7344C30.5089 18.6856 30.2943 18.542 30.1563 18.335C30.0183 18.1281 29.9681 17.8748 30.0169 17.6309L30.885 13.2903L25.1288 22.5003H29.0625C29.2015 22.5 29.3388 22.5307 29.4645 22.5901C29.5902 22.6494 29.7011 22.736 29.7892 22.8435C29.8774 22.951 29.9405 23.0767 29.974 23.2116C30.0075 23.3465 30.0107 23.4872 29.9831 23.6234L29.115 27.9622L35.7694 17.3159C35.8346 17.2116 35.9198 17.1212 36.02 17.0499C36.1202 16.9785 36.2334 16.9276 36.3533 16.9C36.4732 16.8724 36.5973 16.8686 36.7186 16.889C36.8399 16.9094 36.956 16.9535 37.0603 17.0187C37.1646 17.084 37.255 17.1691 37.3264 17.2693C37.3977 17.3695 37.4487 17.4828 37.4763 17.6026C37.5039 17.7225 37.5076 17.8467 37.4872 17.968C37.4668 18.0893 37.4228 18.2054 37.3575 18.3097L27.9825 33.3097C27.8986 33.4449 27.7815 33.5563 27.6424 33.6335C27.5032 33.7106 27.3466 33.7508 27.1875 33.7503Z" fill="white"/>
</svg>
