<svg width="57" height="59" viewBox="0 0 57 59" fill="none" xmlns="http://www.w3.org/2000/svg">
<path d="M28.3099 25.3457C30.4898 25.3457 32.2632 23.5721 32.2632 21.3922C32.2632 19.2123 30.4898 17.4389 28.3099 17.4389C26.13 17.4389 24.3566 19.2124 24.3566 21.3923C24.3566 23.5723 26.13 25.3457 28.3099 25.3457ZM28.3099 19.3139C29.4559 19.3139 30.3882 20.2463 30.3882 21.3923C30.3882 22.5384 29.4559 23.4708 28.3099 23.4708C27.1639 23.4708 26.2316 22.5384 26.2316 21.3923C26.2316 20.2463 27.1639 19.3139 28.3099 19.3139ZM56.6143 57.0878C56.1378 52.6351 53.1304 49.033 49.1083 47.6375C50.5974 46.5098 51.5616 44.7236 51.5616 42.7158C51.5616 40.5353 50.424 38.6167 48.712 37.5186V30.6607H51.1415C52.2293 30.6607 53.1143 29.7757 53.1143 28.688V26.9453C53.1143 26.7812 53.0712 26.62 52.9894 26.4778C52.9076 26.3356 52.7899 26.2174 52.6481 26.1349L29.2474 12.5221V9.6443H37.5332C37.7039 9.64429 37.8714 9.59768 38.0175 9.50949C38.1637 9.4213 38.283 9.29488 38.3626 9.14387C38.4422 8.99286 38.479 8.82299 38.4691 8.65258C38.4593 8.48217 38.4031 8.31769 38.3066 8.17687L36.4861 5.52L38.3066 2.86312C38.4031 2.72231 38.4593 2.55783 38.4691 2.38742C38.479 2.21701 38.4422 2.04714 38.3626 1.89613C38.283 1.74512 38.1637 1.6187 38.0175 1.53051C37.8714 1.44232 37.7039 1.39571 37.5332 1.3957H29.2474V0.9375C29.2474 0.688859 29.1486 0.450403 28.9728 0.274587C28.797 0.098772 28.5585 0 28.3099 0C28.0612 0 27.8228 0.098772 27.647 0.274587C27.4712 0.450403 27.3724 0.688859 27.3724 0.9375V12.5221L3.97157 26.1349C3.82976 26.2174 3.71207 26.3356 3.63027 26.4778C3.54846 26.62 3.50541 26.7812 3.5054 26.9453V28.688C3.5054 29.7758 4.3904 30.6607 5.47813 30.6607H7.90766V37.5187C6.19579 38.6168 5.05813 40.5353 5.05813 42.7158C5.05813 44.7234 6.02223 46.5097 7.51133 47.6374C3.48923 49.0329 0.481843 52.6351 0.0053591 57.0877C-0.00868781 57.2184 0.00495465 57.3507 0.0453992 57.4759C0.0858438 57.601 0.152185 57.7163 0.240106 57.8141C0.328027 57.912 0.43556 57.9902 0.555708 58.0437C0.675857 58.0973 0.805931 58.1249 0.937468 58.1249H55.6821C55.9481 58.1249 56.2016 58.0119 56.3793 57.814C56.4673 57.7162 56.5337 57.601 56.5742 57.4759C56.6147 57.3508 56.6284 57.2185 56.6143 57.0878ZM36.8568 50.9133C35.5628 49.4164 33.8974 48.2866 32.0281 47.6375C33.5172 46.5098 34.4813 44.7236 34.4813 42.7159C34.4813 40.5354 33.3437 38.6168 31.6317 37.5187V30.6608H42.0685V37.519C40.3568 38.617 39.2191 40.5355 39.2191 42.7159C39.2191 44.7255 40.1851 46.5134 41.6766 47.6409C39.8116 48.2916 38.1498 49.4199 36.8568 50.9133ZM28.31 47.0121H28.3088C25.9404 47.0115 24.0137 45.0845 24.0137 42.7158C24.0137 40.3467 25.9409 38.4193 28.31 38.4193C30.6791 38.4193 32.6063 40.3467 32.6063 42.7158C32.6063 45.0844 30.6797 47.0114 28.3112 47.0121H28.31ZM19.7631 50.9133C18.4702 49.42 16.8084 48.2916 14.9435 47.6408C16.435 46.5132 17.401 44.7254 17.401 42.7158C17.401 40.5354 16.2634 38.6168 14.5515 37.5187V30.6607H24.9883V37.5189C23.2766 38.6169 22.1389 40.5354 22.1389 42.7158C22.1389 44.7234 23.103 46.5097 24.5921 47.6374C22.7227 48.2864 21.0572 49.4163 19.7631 50.9133ZM28.31 36.5445C27.8117 36.5445 27.3275 36.6054 26.8631 36.7174V30.6608H29.7566V36.7174C29.2829 36.6027 28.7973 36.5447 28.31 36.5445ZM45.3903 47.0122C43.0213 47.0122 41.094 45.085 41.094 42.7159C41.094 40.3468 43.0213 38.4195 45.3903 38.4195C47.7594 38.4195 49.6866 40.3468 49.6866 42.7159C49.6866 45.085 47.7594 47.0122 45.3903 47.0122ZM46.837 36.7174C46.3727 36.6054 45.8886 36.5445 45.3903 36.5445C44.892 36.5445 44.4078 36.6054 43.9434 36.7174V30.6608H46.8369V36.7174H46.837ZM28.3099 14.1459L48.7006 26.0078H7.91915L28.3099 14.1459ZM35.7543 3.2707L34.5761 4.99008C34.4692 5.14613 34.412 5.33085 34.412 5.52C34.412 5.70915 34.4692 5.89387 34.5761 6.04992L35.7543 7.7693H29.2474V3.2707H35.7543ZM5.38052 28.688V27.8828H51.2393V28.688C51.2393 28.74 51.1936 28.7857 51.1415 28.7857H5.47825C5.45253 28.7851 5.42803 28.7746 5.40983 28.7564C5.39164 28.7382 5.38114 28.7137 5.38052 28.688ZM9.78278 30.6608H12.6763V36.7174C12.2118 36.6054 11.7277 36.5445 11.2295 36.5445C10.7312 36.5445 10.2471 36.6054 9.78266 36.7174L9.78278 30.6608ZM6.93325 42.7159C6.93325 40.3468 8.86051 38.4195 11.2296 38.4195C13.5986 38.4195 15.5259 40.3468 15.5259 42.7159C15.5259 45.0845 13.5993 47.0114 11.231 47.0122H11.2284C8.85993 47.0115 6.93325 45.0845 6.93325 42.7159ZM11.2284 48.8872H11.231C14.1268 48.8877 16.8478 50.2208 18.6283 52.482C17.9324 53.6423 17.4519 54.9188 17.21 56.25H2.03891C2.97876 51.9868 6.7604 48.8878 11.2284 48.8872ZM19.1192 56.25C20.0591 51.9868 23.8407 48.8878 28.3087 48.8872H28.3111C32.7789 48.8878 36.5606 51.9868 37.5006 56.25H19.1192ZM39.4099 56.25C39.1679 54.9188 38.6874 53.6423 37.9915 52.482C39.7722 50.2205 42.4937 48.8873 45.3901 48.8873C49.8586 48.8873 53.6408 51.9866 54.5809 56.2501L39.4099 56.25Z" fill="white"/>
</svg>
