<svg width="60" height="44" viewBox="0 0 60 44" fill="none" xmlns="http://www.w3.org/2000/svg">
<path d="M58.9734 21.0456H53.8973C56.0076 16.2548 55.7795 12.3764 54.981 9.75285C53.6122 5.07605 48.9924 0 42.1483 0C40.3232 0 38.4981 0.342205 36.616 1.02662C33.365 2.22433 31.1977 3.53612 30.2281 4.22053C29.2586 3.53612 27.1483 2.22433 23.8403 1.02662C21.9582 0.342205 20.076 0 18.308 0C11.4639 0 6.84411 5.07605 5.47528 9.75285C4.67681 12.5475 4.39163 16.7681 7.07224 22.0722H0.912547C0.39924 22.0722 0 22.4715 0 22.9848C0 23.4981 0.39924 23.8973 0.912547 23.8973H8.15589C8.44106 24.4106 8.78327 24.924 9.18251 25.4373C15.1141 33.9924 28.0038 43.289 30.3422 43.8593V43.9163C30.3422 43.9163 30.3992 43.9163 30.4563 43.8593H30.6274V43.8023C32.6236 42.8327 45 34.8479 51.5019 25.3802C52.1293 24.5247 52.6426 23.6692 53.0989 22.8137H59.0874C59.6007 22.8137 60 22.4144 60 21.9011C60 21.3878 59.4867 21.0456 58.9734 21.0456ZM49.8479 24.4106C43.8023 33.2509 32.6806 40.3802 30.2852 41.9202C27.8327 40.3802 16.7681 33.1939 10.6654 24.4106L10.3232 23.8973H18.7072C19.0494 23.8973 19.3916 23.7262 19.5627 23.384L23.384 15.8555L29.3726 31.1977C29.4867 31.5399 29.8859 31.7681 30.2281 31.7681H30.2852C30.6844 31.7681 31.0266 31.4829 31.1407 31.0836L36.3878 13.1179L39.1825 22.1863C39.2966 22.5285 39.5817 22.7567 39.924 22.8137C40.2662 22.8707 40.6084 22.6996 40.8365 22.4144L43.0608 19.1635L44.943 22.3574C45.1141 22.6426 45.3992 22.8137 45.7414 22.8137H50.8745C50.5323 23.384 50.1901 23.8973 49.8479 24.4106ZM51.9011 21.0456H46.3118L43.9734 17.0532C43.8023 16.7681 43.5171 16.597 43.1749 16.597C42.8327 16.597 42.5475 16.711 42.3764 16.9962L40.4373 19.8479L37.3004 9.63878C37.1863 9.23954 36.7871 9.01141 36.3878 8.95437C35.9886 8.95437 35.5893 9.23954 35.4753 9.63878L30.1711 27.9468L24.4106 13.2319C24.2966 12.8897 23.9544 12.6616 23.6122 12.6616C23.2129 12.6616 22.9278 12.8327 22.7567 13.1749L18.2509 22.0152H9.18251C6.90114 17.8517 6.27376 13.8593 7.30038 10.2662C8.4981 6.21673 12.4335 1.88213 18.365 1.88213C19.962 1.88213 21.616 2.22433 23.27 2.79468C27.4335 4.3346 29.6578 6.10266 29.7148 6.10266C30.057 6.38783 30.5133 6.38783 30.8555 6.10266C30.8555 6.10266 33.0798 4.3346 37.3004 2.79468C38.9544 2.1673 40.6084 1.88213 42.2053 1.88213C48.0798 1.88213 52.0722 6.21673 53.27 10.2662C54.2395 13.5741 53.7262 17.2243 51.9011 21.0456Z" fill="white"/>
</svg>
