<svg width="58" height="58" viewBox="0 0 58 58" fill="none" xmlns="http://www.w3.org/2000/svg">
<path d="M56.4844 52.8698H55.9741V28.4691C55.9741 27.6369 55.1994 27.0778 54.4759 27.0778H53.6304V1.40625C53.6304 0.63082 53.0592 0 52.3573 0H47.9796C47.2777 0 46.7065 0.63082 46.7065 1.40625V27.0778H43.6461V6.09375C43.6461 5.31844 43.075 4.6875 42.3729 4.6875H37.9953C37.2933 4.6875 36.7221 5.31832 36.7221 6.09375V27.0778H31.9338V16.8676L34.2054 16.4687C34.5314 16.4119 34.8269 16.2418 35.0397 15.9884C35.2525 15.735 35.3689 15.4146 35.3685 15.0837V12.9444C35.3689 12.739 35.3242 12.5361 35.2376 12.3498C35.1511 12.1636 35.0247 11.9986 34.8674 11.8665C34.7101 11.7344 34.5257 11.6385 34.3273 11.5854C34.1289 11.5323 33.9213 11.5235 33.7191 11.5594L3.77227 16.8186C3.4463 16.8754 3.15086 17.0455 2.93808 17.2989C2.72531 17.5523 2.60886 17.8727 2.6093 18.2036V20.3428C2.60891 20.5274 2.64494 20.7102 2.71531 20.8809C2.78568 21.0515 2.88901 21.2066 3.01939 21.3372C3.14978 21.4679 3.30465 21.5715 3.47514 21.6422C3.64563 21.7129 3.82839 21.7493 4.01297 21.7493C4.09453 21.7493 4.17668 21.7421 4.25871 21.7279L6.04383 21.4144V38.3013H2.88832C2.67076 38.3013 2.46211 38.3878 2.30827 38.5416C2.15443 38.6954 2.06801 38.9041 2.06801 39.1216V52.8698H1.40625C0.63082 52.8698 0 53.5007 0 54.2761V56.4844C0 57.2598 0.63082 57.8906 1.40625 57.8906H56.4844C57.2598 57.8906 57.8906 57.2598 57.8906 56.4844V54.2761C57.8906 53.5008 57.2598 52.8698 56.4844 52.8698ZM54.3335 52.8698H23.6651L23.6652 28.7184H54.3334V52.8698H54.3335ZM51.9898 1.64062V3.17695H48.347V1.64062H51.9898ZM48.347 4.81758H51.9898V27.0778H48.347V4.81758ZM42.0053 6.32812V7.86445H38.3624V6.32812H42.0053ZM38.3624 9.5052H42.0053V27.0778H38.3624V9.5052ZM4.25004 20.0637V18.4004L33.7275 13.2236V14.8868L4.25004 20.0637ZM7.68457 21.1263L30.2929 17.1559V27.0779H23.3387C22.5772 27.0779 22.0245 27.663 22.0245 28.4692V38.3014H7.68457V21.1263ZM3.70875 39.942H22.0245V52.87H19.6894V44.0148C19.6894 43.2394 19.0586 42.6086 18.2831 42.6086H7.45008C6.67477 42.6086 6.04395 43.2394 6.04395 44.0148V52.87H3.70875V39.942ZM7.68457 52.8698V44.2492H12.0464V52.8698H7.68457ZM13.687 44.2492H18.0489V52.8698H13.687V44.2492ZM56.25 56.25H1.64062V54.5105H56.25V56.25ZM46.6973 49.0038H50.2801C51.0555 49.0038 51.6864 48.373 51.6864 47.5976V44.0148C51.6864 43.2395 51.0555 42.6086 50.2801 42.6086H46.6973C45.922 42.6086 45.2912 43.2394 45.2912 44.0148V47.5976C45.2912 48.3729 45.922 49.0038 46.6973 49.0038ZM46.9318 44.2492H50.0457V47.3632H46.9318V44.2492ZM27.7185 49.0038H31.3013C32.0766 49.0038 32.7074 48.373 32.7074 47.5976V44.0148C32.7074 43.2395 32.0766 42.6086 31.3013 42.6086H27.7185C26.943 42.6086 26.3122 43.2394 26.3122 44.0148V47.5976C26.3122 48.3729 26.943 49.0038 27.7185 49.0038ZM27.9529 44.2492H31.0668V47.3632H27.9529V44.2492ZM37.208 49.0038H40.7907C41.5662 49.0038 42.197 48.373 42.197 47.5976V44.0148C42.197 43.2395 41.5662 42.6086 40.7907 42.6086H37.208C36.4325 42.6086 35.8017 43.2394 35.8017 44.0148V47.5976C35.8017 48.3729 36.4325 49.0038 37.208 49.0038ZM37.4423 44.2492H40.5564V47.3632H37.4423V44.2492ZM27.7185 38.7424H31.3013C32.0766 38.7424 32.7074 38.1116 32.7074 37.3362V33.7534C32.7074 32.978 32.0766 32.3471 31.3013 32.3471H27.7185C26.943 32.3471 26.3122 32.978 26.3122 33.7534V37.3362C26.3122 38.1115 26.943 38.7424 27.7185 38.7424ZM27.9529 33.9878H31.0668V37.1018H27.9529V33.9878ZM46.6973 38.7424H50.2801C51.0555 38.7424 51.6864 38.1116 51.6864 37.3362V33.7534C51.6864 32.9781 51.0555 32.3471 50.2801 32.3471H46.6973C45.922 32.3471 45.2912 32.978 45.2912 33.7534V37.3362C45.2912 38.1115 45.922 38.7424 46.6973 38.7424ZM46.9318 33.9878H50.0457V37.1018H46.9318V33.9878ZM37.208 38.7424H40.7907C41.5662 38.7424 42.197 38.1116 42.197 37.3362V33.7534C42.197 32.9781 41.5662 32.3471 40.7907 32.3471H37.208C36.4325 32.3471 35.8017 32.978 35.8017 33.7534V37.3362C35.8017 38.1115 36.4325 38.7424 37.208 38.7424ZM37.4423 33.9878H40.5564V37.1018H37.4423V33.9878ZM14.658 21.9005H11.0753C10.3 21.9005 9.66914 22.5313 9.66914 23.3067V26.8895C9.66914 27.6649 10.3 28.2957 11.0753 28.2957H14.658C15.4335 28.2957 16.0643 27.6649 16.0643 26.8895V23.3067C16.0643 22.5314 15.4335 21.9005 14.658 21.9005ZM14.4237 26.6552H11.3098V23.5412H14.4237V26.6552ZM14.658 30.0394H11.0753C10.3 30.0394 9.66914 30.6702 9.66914 31.4456V35.0285C9.66914 35.8039 10.3 36.4348 11.0753 36.4348H14.658C15.4335 36.4348 16.0643 35.8039 16.0643 35.0285V31.4456C16.0643 30.6702 15.4335 30.0394 14.658 30.0394ZM14.4237 34.794H11.3098V31.68H14.4237V34.794Z" fill="white"/>
</svg>
