<svg width="60" height="60" viewBox="0 0 60 60" fill="none" xmlns="http://www.w3.org/2000/svg">
<g clip-path="url(#clip0_236_807)">
<path d="M55.8623 60H4.13769C1.85615 60 0 58.1439 0 55.8623V48.3005C0 47.4509 0.688846 46.7621 1.53846 46.7621H20.8805C21.1873 46.7621 21.4871 46.8538 21.7413 47.0254C21.9956 47.1971 22.1928 47.4408 22.3074 47.7254L23.4776 50.6288H36.4949L37.665 47.7255C37.7797 47.4409 37.9768 47.1972 38.2311 47.0255C38.4853 46.8538 38.7851 46.7621 39.0919 46.7621H58.4615C59.3112 46.7621 60 47.4509 60 48.3005V55.8623C60 58.1439 58.1439 60 55.8623 60ZM3.07692 49.839V55.8623C3.07692 56.4472 3.55269 56.9231 4.13769 56.9231H55.8623C56.4473 56.9231 56.9231 56.4472 56.9231 55.8623V49.839H40.1305L38.9604 52.7423C38.8457 53.0269 38.6486 53.2707 38.3943 53.4423C38.1401 53.614 37.8403 53.7058 37.5335 53.7058H22.4388C22.1321 53.7058 21.8323 53.6141 21.578 53.4424C21.3237 53.2707 21.1266 53.027 21.0119 52.7424L19.8418 49.839H3.07692ZM51.7876 18.0385H47.3985V14.6322C47.3985 14.2868 47.2822 13.9514 47.0685 13.6801C46.8547 13.4087 46.5558 13.2172 46.22 13.1364L43.3931 12.4559C43.2351 12.0186 43.0552 11.5896 42.8541 11.1704L44.3601 8.72782C44.543 8.43134 44.6198 8.08159 44.578 7.73578C44.5362 7.38998 44.3782 7.0686 44.13 6.82423L40.4821 3.23205C40.2393 2.99307 39.9241 2.84139 39.5859 2.80079C39.2477 2.76019 38.9056 2.83296 38.6132 3.00769L36.1172 4.5C35.6812 4.29457 35.2351 4.11139 34.7805 3.95115L34.0895 1.16782C34.0068 0.834389 33.8148 0.538246 33.5442 0.326595C33.2736 0.114945 32.94 -2.90477e-05 32.5964 5.50482e-09H27.4373C27.0938 -1.3756e-05 26.7602 0.11495 26.4896 0.326572C26.219 0.538194 26.027 0.834296 25.9442 1.16769L25.2564 3.93795C24.8014 4.09702 24.3547 4.27905 23.9181 4.48333L21.4106 2.98423C21.1183 2.80941 20.7761 2.73659 20.4379 2.77719C20.0997 2.8178 19.7845 2.96953 19.5418 3.20859L15.8937 6.80077C15.6455 7.04516 15.4876 7.36653 15.4458 7.71233C15.404 8.05812 15.4808 8.40787 15.6636 8.70436L17.1626 11.1355C16.9604 11.5542 16.7793 11.9827 16.6201 12.4195L13.7799 13.1032C13.4441 13.1841 13.1452 13.3756 12.9315 13.6469C12.7177 13.9182 12.6015 14.2536 12.6015 14.599V18.0385H8.21244C5.95026 18.0385 4.10987 19.8788 4.10987 22.141V37.9094C4.10987 38.759 4.79872 39.4478 5.64833 39.4478C6.49795 39.4478 7.1868 38.759 7.1868 37.9094V22.141C7.1868 21.5755 7.64692 21.1154 8.21244 21.1154H51.7877C52.3532 21.1154 52.8133 21.5755 52.8133 22.141V37.9094C52.8133 38.759 53.5022 39.4478 54.3518 39.4478C55.2014 39.4478 55.8903 38.759 55.8903 37.9094V22.141C55.8901 19.8788 54.0497 18.0385 51.7876 18.0385ZM26.0958 17.1555C26.0958 14.9985 27.8472 13.2437 30 13.2437C32.1528 13.2437 33.9042 14.9986 33.9042 17.1555C33.9042 17.4565 33.8706 17.7515 33.8044 18.0385H26.1955C26.1289 17.7489 26.0955 17.4527 26.0958 17.1555ZM44.3215 18.0385H36.9246C36.9612 17.7477 36.9812 17.4535 36.9812 17.1555C36.9812 13.3019 33.8494 10.1668 30 10.1668C26.1506 10.1668 23.0188 13.3019 23.0188 17.1555C23.0188 17.4535 23.039 17.7477 23.0754 18.0385H15.6785V15.811L18.1745 15.2101C18.4382 15.1467 18.6803 15.0146 18.8765 14.8274C19.0727 14.6401 19.2159 14.4044 19.2917 14.144C19.5265 13.3383 19.8546 12.5628 20.2694 11.8332C20.4055 11.5934 20.4748 11.3215 20.4698 11.0458C20.4648 10.7701 20.3859 10.5007 20.2412 10.266L18.9262 8.13308L20.8529 6.23577L23.0667 7.55923C23.2967 7.69674 23.5587 7.77179 23.8266 7.77694C24.0946 7.78208 24.3592 7.71716 24.5944 7.58859C25.342 7.17961 26.1339 6.85743 26.9547 6.62833C27.217 6.55524 27.4552 6.41386 27.645 6.21863C27.8347 6.02339 27.9693 5.78129 28.0349 5.51705L28.6405 3.07692H31.3931L32.0014 5.52731C32.0668 5.79078 32.2008 6.03225 32.3897 6.2272C32.5786 6.42215 32.8158 6.56364 33.0771 6.63731C33.8972 6.86887 34.6881 7.19332 35.4346 7.60436C35.67 7.73398 35.9353 7.79968 36.204 7.79491C36.4727 7.79014 36.7355 7.71507 36.9662 7.57718L39.1709 6.25923L41.0977 8.15641L39.7772 10.2983C39.6329 10.5324 39.5539 10.8008 39.5485 11.0758C39.5432 11.3507 39.6116 11.622 39.7467 11.8615C40.1593 12.5924 40.4851 13.3689 40.7176 14.1753C40.7927 14.4367 40.9358 14.6735 41.1323 14.8616C41.3288 15.0497 41.5717 15.1824 41.8362 15.246L44.3215 15.8442V18.0385Z" fill="white"/>
<path d="M15.2321 35.8885L24.5836 40.7051V37.7546L18.9913 34.9514L24.5836 32.1482V29.1977L15.2321 34.0144V35.8885ZM26.2162 40.8649H29.0412L34.3388 27.1479H31.4953L26.2162 40.8649ZM35.4164 29.2003V32.1499L41.048 34.9514L35.4164 37.7529V40.7026L44.768 35.9063V33.9965L35.4164 29.2003Z" fill="white"/>
<path d="M54.371 44.5794C55.2915 44.5794 56.0377 43.8332 56.0377 42.9128C56.0377 41.9923 55.2915 41.2461 54.371 41.2461C53.4505 41.2461 52.7043 41.9923 52.7043 42.9128C52.7043 43.8332 53.4505 44.5794 54.371 44.5794Z" fill="white"/>
<path d="M5.65312 44.5794C6.57359 44.5794 7.31978 43.8332 7.31978 42.9128C7.31978 41.9923 6.57359 41.2461 5.65312 41.2461C4.73264 41.2461 3.98645 41.9923 3.98645 42.9128C3.98645 43.8332 4.73264 44.5794 5.65312 44.5794Z" fill="white"/>
</g>
<defs>
<clipPath id="clip0_236_807">
<rect width="60" height="60" fill="white"/>
</clipPath>
</defs>
</svg>
