<svg width="47" height="58" viewBox="0 0 47 58" fill="none" xmlns="http://www.w3.org/2000/svg">
<path fill-rule="evenodd" clip-rule="evenodd" d="M11.8694 29.1666L20.5022 22.4447C20.623 22.3506 20.765 22.2875 20.9158 22.261C21.0666 22.2345 21.2216 22.2453 21.3672 22.2926L29.4512 24.9125L35.8754 18.4335L35.6151 18.4563C35.0975 18.5007 34.6445 18.12 34.5992 17.6043C34.554 17.0885 34.9354 16.6337 35.4513 16.5884L38.2613 16.3419C38.3996 16.3298 38.5389 16.3485 38.6691 16.3968C38.7992 16.445 38.9171 16.5216 39.014 16.6209C39.111 16.7202 39.1848 16.8399 39.2299 16.9712C39.275 17.1024 39.2904 17.2421 39.275 17.3801L38.9615 20.1836C38.9491 20.3069 38.9123 20.4265 38.8533 20.5355C38.7943 20.6445 38.7142 20.7407 38.6178 20.8186C38.5214 20.8965 38.4104 20.9545 38.2915 20.9892C38.1725 21.0239 38.0478 21.0347 37.9246 21.0209C37.8014 21.0072 37.6822 20.9691 37.5738 20.9089C37.4654 20.8488 37.3701 20.7677 37.2932 20.6705C37.2164 20.5732 37.1596 20.4617 37.1261 20.3424C37.0926 20.223 37.0832 20.0982 37.0982 19.9752L37.1124 19.8489L30.3766 26.6421C30.2545 26.7653 30.1006 26.8522 29.932 26.8931C29.7635 26.934 29.5869 26.9274 29.4219 26.8739L21.262 24.2293L13.0215 30.6459C12.8572 30.7743 12.6547 30.8439 12.4462 30.8438C12.2508 30.8439 12.0603 30.783 11.9012 30.6696C11.7421 30.5562 11.6224 30.3959 11.5589 30.2111C11.4953 30.0264 11.4911 29.8264 11.5468 29.6391C11.6025 29.4518 11.7153 29.2866 11.8694 29.1666ZM17.7995 16.0211C18.0481 16.0211 18.2866 15.9223 18.4624 15.7465C18.6382 15.5707 18.737 15.3322 18.737 15.0836C18.737 14.8349 18.6382 14.5965 18.4624 14.4206C18.2866 14.2448 18.0481 14.1461 17.7995 14.1461H16.4491C16.2005 14.1461 15.962 14.2448 15.7862 14.4206C15.6104 14.5965 15.5116 14.8349 15.5116 15.0836C15.5116 15.3322 15.6104 15.5707 15.7862 15.7465C15.962 15.9223 16.2005 16.0211 16.4491 16.0211H17.7995ZM21.448 16.0211H34.0791C34.3278 16.0211 34.5662 15.9223 34.7421 15.7465C34.9179 15.5707 35.0166 15.3322 35.0166 15.0836C35.0166 14.8349 34.9179 14.5965 34.7421 14.4206C34.5662 14.2448 34.3278 14.1461 34.0791 14.1461H21.448C21.1993 14.1461 20.9609 14.2448 20.7851 14.4206C20.6092 14.5965 20.5105 14.8349 20.5105 15.0836C20.5105 15.3322 20.6092 15.5707 20.7851 15.7465C20.9609 15.9223 21.1993 16.0211 21.448 16.0211ZM16.449 11.7949H17.7993C18.048 11.7949 18.2864 11.6962 18.4623 11.5203C18.6381 11.3445 18.7368 11.1061 18.7368 10.8574C18.7368 10.6088 18.6381 10.3703 18.4623 10.1945C18.2864 10.0187 18.048 9.91992 17.7993 9.91992H16.449C16.2004 9.91992 15.9619 10.0187 15.7861 10.1945C15.6103 10.3703 15.5115 10.6088 15.5115 10.8574C15.5115 11.1061 15.6103 11.3445 15.7861 11.5203C15.9619 11.6962 16.2004 11.7949 16.449 11.7949ZM21.448 11.7949H34.0791C34.3278 11.7949 34.5662 11.6962 34.7421 11.5203C34.9179 11.3445 35.0166 11.1061 35.0166 10.8574C35.0166 10.6088 34.9179 10.3703 34.7421 10.1945C34.5662 10.0187 34.3278 9.91992 34.0791 9.91992H21.448C21.1993 9.91992 20.9609 10.0187 20.7851 10.1945C20.6092 10.3703 20.5105 10.6088 20.5105 10.8574C20.5105 11.1061 20.6092 11.3445 20.7851 11.5203C20.9609 11.6962 21.1993 11.7949 21.448 11.7949ZM16.449 7.56902H17.7993C18.048 7.56902 18.2864 7.47025 18.4623 7.29444C18.6381 7.11862 18.7368 6.88016 18.7368 6.63152C18.7368 6.38288 18.6381 6.14443 18.4623 5.96861C18.2864 5.7928 18.048 5.69402 17.7993 5.69402H16.449C16.2004 5.69402 15.9619 5.7928 15.7861 5.96861C15.6103 6.14443 15.5115 6.38288 15.5115 6.63152C15.5115 6.88016 15.6103 7.11862 15.7861 7.29444C15.9619 7.47025 16.2004 7.56902 16.449 7.56902ZM21.448 7.56902H34.0791C34.3278 7.56902 34.5662 7.47025 34.7421 7.29444C34.9179 7.11862 35.0166 6.88016 35.0166 6.63152C35.0166 6.38288 34.9179 6.14443 34.7421 5.96861C34.5662 5.7928 34.3278 5.69402 34.0791 5.69402H21.448C21.1993 5.69402 20.9609 5.7928 20.7851 5.96861C20.6092 6.14443 20.5105 6.38288 20.5105 6.63152C20.5105 6.88016 20.6092 7.11862 20.7851 7.29444C20.9609 7.47025 21.1993 7.56902 21.448 7.56902ZM45.4162 43.3691V49.4102C45.4162 50.4771 44.5482 51.3451 43.4813 51.3451H32.4683L30.0165 52.8548C28.9438 53.5153 27.77 53.8497 26.5555 53.8498C25.9551 53.8498 25.3449 53.7681 24.7316 53.6037L16.3026 51.3451H12.9179L12.7877 51.4202L13.414 52.527C14.0062 53.5737 13.6366 54.9069 12.5902 55.4991L10.2207 56.84C9.89517 57.0253 9.52709 57.1227 9.15255 57.1228C8.95638 57.1228 8.75903 57.0961 8.56438 57.0422C8.00212 56.8863 7.53489 56.522 7.2486 56.0162L0.282507 43.7077C-0.309875 42.6612 0.059851 41.3278 1.10634 40.7355L3.47575 39.3947C3.98141 39.1084 4.56981 39.0365 5.13208 39.1923C5.21469 39.2152 5.2945 39.2439 5.37266 39.2755V7.53469C5.37266 7.01051 5.5686 6.53754 5.93915 6.16676L11.5392 0.566719C11.91 0.196055 12.3831 0 12.9074 0H43.4813C44.5482 0 45.4162 0.867891 45.4162 1.93488V37.6328C45.8987 37.9713 46.1881 38.3684 46.3346 38.6129C47.2787 40.1891 46.8369 42.4277 45.4162 43.3691ZM43.4813 1.875H13.4316V6.62297C13.4316 7.41492 12.7875 8.0591 11.9955 8.0591H7.24755V40.9254L9.18337 39.8046V34.723C9.18337 34.4744 9.28214 34.2359 9.45795 34.0601C9.63377 33.8843 9.87223 33.7855 10.1209 33.7855H14.77C15.0187 33.7855 15.2571 33.8843 15.433 34.0601C15.6088 34.2359 15.7075 34.4744 15.7075 34.723V36.3867C16.3784 36.2063 17.0825 36.1216 17.816 36.1932V28.9669C17.816 28.7182 17.9148 28.4798 18.0906 28.304C18.2664 28.1282 18.5048 28.0294 18.7535 28.0294H23.4027C23.6513 28.0294 23.8898 28.1282 24.0656 28.304C24.2414 28.4798 24.3402 28.7182 24.3402 28.9669V38.2829C25.0271 38.4914 25.7339 38.6849 26.4487 38.8488V30.9047C26.4487 30.6561 26.5475 30.4176 26.7233 30.2418C26.8991 30.066 27.1376 29.9672 27.3862 29.9672H32.0354C32.284 29.9672 32.5225 30.066 32.6983 30.2418C32.8741 30.4176 32.9729 30.6561 32.9729 30.9047V41.9368L35.0813 40.7087V22.8683C35.0813 22.6197 35.1801 22.3812 35.3559 22.2054C35.5317 22.0296 35.7702 21.9308 36.0188 21.9308H40.668C40.9167 21.9308 41.1551 22.0296 41.3309 22.2054C41.5067 22.3812 41.6055 22.6197 41.6055 22.8683V37.2612C42.3513 37.0461 42.9927 36.979 43.5412 37.01V1.93488C43.5408 1.91913 43.5344 1.90414 43.5232 1.893C43.5121 1.88186 43.4971 1.87541 43.4813 1.875ZM39.7305 23.8058H36.9563V39.6164L39.0327 38.407C39.2619 38.2734 39.4946 38.1457 39.7305 38.0243V23.8058ZM29.9475 43.1583C29.8972 43.3471 29.8323 43.5316 29.7532 43.7102C30.037 43.6133 30.314 43.4854 30.5879 43.326L31.098 43.0289V31.8422H28.3238V39.4029C29.6441 40.1597 30.3419 41.6862 29.9475 43.1583ZM22.4652 29.9044H19.691V36.6803C20.0425 36.8034 20.4163 36.9384 20.8032 37.0784C21.3252 37.267 21.8827 37.4684 22.4652 37.6702V29.9044ZM13.8325 35.6605H11.0584V38.7191L13.065 37.5573C13.3173 37.4106 13.5732 37.2702 13.8325 37.1363V35.6605ZM8.57352 6.1841H11.5566V3.20109L8.57352 6.1841ZM11.7821 53.4503L4.81626 41.142C4.79632 41.1072 4.76972 41.0767 4.738 41.0522C4.70627 41.0277 4.67002 41.0097 4.63134 40.9992C4.60371 40.9916 4.57517 40.9876 4.54649 40.9876C4.50313 40.9876 4.45169 40.9966 4.3993 41.0263L2.02989 42.3673C1.88563 42.449 1.83255 42.6399 1.91423 42.7842L8.88032 55.0927C8.90026 55.1274 8.92686 55.1579 8.95859 55.1824C8.99032 55.2068 9.02656 55.2248 9.06524 55.2353C9.1113 55.2482 9.2027 55.2616 9.29716 55.2083L11.6667 53.8674C11.8109 53.7856 11.8638 53.5947 11.7821 53.4503ZM44.359 41.8212C44.9667 41.4471 45.1554 40.2932 44.7261 39.5763C44.0919 38.5174 42.2718 38.6903 39.9764 40.0274L31.5315 44.9462C30.1964 45.7235 28.7619 45.9758 27.1469 45.7175L26.0963 45.5467C26.0839 45.5445 26.0715 45.5422 26.0591 45.5398C24.7409 45.2702 23.5201 44.9216 22.2275 44.5525C21.641 44.3849 21.0344 44.2117 20.4175 44.0465C20.2986 44.0146 20.1871 43.9596 20.0895 43.8847C19.9918 43.8097 19.9098 43.7163 19.8483 43.6096C19.7867 43.503 19.7468 43.3853 19.7307 43.2633C19.7146 43.1412 19.7228 43.0172 19.7546 42.8982C19.7865 42.7793 19.8415 42.6678 19.9164 42.5702C19.9913 42.4725 20.0848 42.3905 20.1914 42.329C20.4068 42.2047 20.6626 42.171 20.9028 42.2353C21.5347 42.4045 22.1488 42.58 22.7424 42.7497C23.9854 43.1046 25.1605 43.4398 26.3931 43.694C27.339 43.8014 27.926 43.459 28.1365 42.6731C28.3345 41.9337 27.8987 41.182 27.1188 40.9029C24.5761 40.4364 22.1326 39.5528 20.1659 38.8418C19.4826 38.5949 18.8926 38.3814 18.3824 38.2159C16.855 37.7208 15.3756 38.3864 14.0047 39.1801L7.8704 42.7317L11.8641 49.7885L13.3897 48.9077C13.605 48.7834 13.8609 48.7498 14.101 48.8141L25.217 51.7927C26.5803 52.1581 27.8642 51.9782 29.0335 51.2582L44.359 41.8212ZM43.5412 49.4101V44.5268L35.5134 49.47H43.4813C43.4971 49.4696 43.5121 49.4632 43.5233 49.452C43.5344 49.4409 43.5408 49.4259 43.5412 49.4101ZM4.03473 42.5251C3.92453 42.5409 3.81852 42.5782 3.72278 42.635C3.62704 42.6918 3.54346 42.767 3.47682 42.8562C3.41018 42.9453 3.36179 43.0468 3.33443 43.1547C3.30707 43.2626 3.30128 43.3748 3.31739 43.485C3.33349 43.5951 3.37118 43.701 3.42829 43.7966C3.4854 43.8921 3.56081 43.9755 3.6502 44.0418C3.73958 44.1082 3.84118 44.1563 3.94918 44.1833C4.05717 44.2103 4.16944 44.2157 4.27954 44.1993C4.38974 44.1835 4.49575 44.1462 4.59149 44.0894C4.68723 44.0325 4.77081 43.9574 4.83746 43.8682C4.9041 43.7791 4.95248 43.6776 4.97984 43.5697C5.0072 43.4618 5.01299 43.3496 4.99688 43.2394C4.98078 43.1292 4.94309 43.0234 4.88598 42.9278C4.82887 42.8322 4.75346 42.7489 4.66407 42.6825C4.57469 42.6162 4.47309 42.5681 4.36509 42.5411C4.2571 42.5141 4.14483 42.5087 4.03473 42.5251Z" fill="white"/>
</svg>
