<svg width="60" height="60" viewBox="0 0 60 60" fill="none" xmlns="http://www.w3.org/2000/svg">
<path d="M48.9819 30.5931L50.1361 27.3165C50.2249 27.3237 50.3142 27.3282 50.4043 27.3282C51.0464 27.3281 51.674 27.1376 52.2078 26.7809C52.7416 26.4242 53.1576 25.9172 53.4034 25.324C53.6491 24.7309 53.7135 24.0782 53.5883 23.4484C53.4632 22.8187 53.1541 22.2402 52.7003 21.7861C52.2463 21.332 51.6678 21.0227 51.038 20.8974C50.4082 20.7721 49.7554 20.8364 49.1622 21.0821C48.5689 21.3279 48.0619 21.7441 47.7053 22.278C47.3486 22.812 47.1583 23.4398 47.1585 24.0819C47.1585 24.1725 47.1629 24.2623 47.1702 24.3514L43.8953 25.5059C41.8905 23.7437 39.9033 22.2675 38.1186 21.2276C35.1779 19.5137 33.1509 19.181 32.0941 20.2379C26.1021 26.2334 25.9908 35.9152 31.7585 42.0452L27.2428 58.3593H25.4932L22.7862 45.1957C22.7818 45.1666 22.7758 45.1378 22.7684 45.1093L22.0693 41.7109C22.0664 41.6953 22.0635 41.6796 22.0597 41.664L18.3713 23.7296C18.3668 23.6995 18.3607 23.6697 18.3529 23.6402L16.0325 12.3589C16.9398 11.9908 17.6916 11.32 18.1603 10.4603C18.6289 9.60064 18.7854 8.60523 18.6032 7.64323C18.421 6.68124 17.9113 5.812 17.1608 5.18324C16.4103 4.55449 15.4652 4.205 14.4861 4.19417C13.5071 4.18333 12.5545 4.51183 11.7903 5.12383C11.026 5.73583 10.4972 6.59357 10.2938 7.5513C10.0903 8.50903 10.2248 9.50766 10.6743 10.3775C11.1238 11.2473 11.8606 11.9347 12.7595 12.3227L10.4541 23.64C10.4463 23.6694 10.4403 23.6993 10.4359 23.7294L9.30692 29.2711C9.29722 29.3065 9.2899 29.3426 9.285 29.379L8.63895 32.5528C8.63037 32.5848 8.6238 32.6172 8.61926 32.65L6.78738 41.6414V41.6434L3.38238 58.3593H0.820312C0.602752 58.3593 0.394102 58.4457 0.240264 58.5995C0.0864255 58.7534 0 58.962 0 59.1796C0 59.3971 0.0864255 59.6058 0.240264 59.7596C0.394102 59.9135 0.602752 59.9999 0.820312 59.9999H46.566C46.7835 59.9999 46.9922 59.9135 47.146 59.7596C47.2999 59.6058 47.3863 59.3971 47.3863 59.1796C47.3863 58.962 47.2999 58.7534 47.146 58.5995C46.9922 58.4457 46.7835 58.3593 46.566 58.3593H41.4866L38.1071 46.147C40.8801 47.0883 43.861 47.2356 46.7132 46.5722C49.5655 45.9087 52.1754 44.4611 54.2483 42.3927C55.3055 41.3355 54.9724 39.3086 53.2588 36.368C52.2191 34.5838 50.7435 32.5972 48.9819 30.5931ZM49.2689 22.9464C49.5703 22.6456 49.9786 22.4767 50.4044 22.4767C50.8302 22.4767 51.2385 22.6456 51.5399 22.9464C51.7103 23.1167 51.8403 23.3232 51.92 23.5506C51.9998 23.7781 52.0273 24.0205 52.0006 24.26C51.9739 24.4995 51.8936 24.7299 51.7657 24.9341C51.6378 25.1384 51.4655 25.3112 51.2617 25.4398C51.0579 25.5684 50.8277 25.6494 50.5883 25.6769C50.3489 25.7045 50.1064 25.6777 49.8787 25.5987C49.6511 25.5197 49.4441 25.3905 49.2732 25.2206C49.1023 25.0507 48.9718 24.8445 48.8914 24.6173L48.8906 24.6145L48.8893 24.6114C48.7891 24.3263 48.7715 24.0187 48.8386 23.7241C48.9057 23.4295 49.0547 23.1598 49.2684 22.9462L49.2689 22.9464ZM47.7135 25.8995C47.9469 26.2437 48.2437 26.5403 48.5882 26.7735L47.728 29.2153C47.3351 28.798 46.9321 28.3823 46.519 27.968C46.1059 27.5537 45.6905 27.1511 45.273 26.7603L47.7135 25.8995ZM37.2921 22.6451C38.7831 23.5139 40.4296 24.7098 42.1118 26.1341L39.0049 27.2292C38.9033 27.265 38.8097 27.3205 38.7295 27.3925C38.6494 27.4645 38.5842 27.5516 38.5376 27.6488C38.4911 27.746 38.4642 27.8514 38.4584 27.959C38.4526 28.0666 38.4681 28.1743 38.5039 28.2759C38.5397 28.3775 38.5952 28.4711 38.6672 28.5512C38.7392 28.6314 38.8263 28.6966 38.9234 28.7432C39.0206 28.7897 39.126 28.8166 39.2336 28.8224C39.3412 28.8282 39.4489 28.8127 39.5505 28.7769L43.5232 27.3764C44.1362 27.9358 44.7476 28.5196 45.3574 29.128C45.9673 29.7364 46.552 30.3486 47.1116 30.9646L45.7124 34.9359C45.6766 35.0376 45.6611 35.1452 45.667 35.2528C45.6728 35.3604 45.6997 35.4658 45.7463 35.563C45.7928 35.6602 45.858 35.7472 45.9382 35.8192C46.0184 35.8911 46.112 35.9466 46.2136 35.9824C46.3152 36.0182 46.4229 36.0337 46.5305 36.0278C46.6381 36.022 46.7435 35.9951 46.8406 35.9485C46.9378 35.902 47.0249 35.8368 47.0968 35.7566C47.1688 35.6764 47.2243 35.5828 47.2601 35.4812L48.3538 32.3766C49.7771 34.0581 50.9726 35.7039 51.8411 37.1941C53.4361 39.9313 53.2825 41.0361 53.0885 41.2318L53.0873 41.233C52.8904 41.4266 51.7852 41.5782 49.0518 39.9851C46.6068 38.5598 43.7416 36.2575 40.9845 33.5018C39.2705 31.8019 37.6838 29.9783 36.2372 28.0458C36.2185 28.0168 36.1979 27.989 36.1757 27.9626C35.5738 27.1502 35.0149 26.3068 34.5013 25.436C32.9618 22.7944 33.0512 21.6735 33.2339 21.4226L33.2544 21.4012C33.2593 21.3964 33.2634 21.3911 33.2681 21.3861C33.4944 21.1984 34.6089 21.0819 37.2921 22.6454V22.6451ZM33.2541 41.2322C32.0464 40.0252 31.8981 37.8907 32.673 35.3862C34.3655 37.9363 36.5512 40.1218 39.1015 41.814C38.1843 42.1133 37.2276 42.2744 36.263 42.2921C35.0116 42.292 33.9698 41.9481 33.2541 41.2322ZM36.7254 37.7609C35.4379 36.4818 34.3254 35.0379 33.4168 33.4669C34.0114 32.1982 34.7262 30.9896 35.5516 29.8575C36.8764 31.5446 38.3031 33.1491 39.8236 34.6622C41.3377 36.183 42.9432 37.61 44.6311 38.9352C43.4988 39.7606 42.29 40.4754 41.0211 41.0698C39.4494 40.1613 38.0049 39.0487 36.7254 37.7609ZM31.8346 23.6398C32.1646 24.5525 32.5827 25.4309 33.0831 26.2625C33.4976 26.9736 33.9833 27.7178 34.5267 28.4816C33.7731 29.4793 33.0963 30.5328 32.5021 31.6329C32.0963 30.6906 31.7891 29.7088 31.5857 28.7032C31.2093 26.8041 31.3014 25.0771 31.8346 23.6398ZM46.0076 39.9608C46.7708 40.5037 47.5144 40.9893 48.2248 41.4033C49.0568 41.904 49.9358 42.3222 50.8492 42.652C49.4115 43.1852 47.6843 43.2772 45.7849 42.9008C44.7781 42.6971 43.7951 42.3897 42.8516 41.9834C43.9528 41.3893 45.0078 40.7132 46.0076 39.9608ZM29.7432 27.2802C29.7834 27.8652 29.8611 28.447 29.9759 29.0221C30.3005 30.6022 30.8465 32.1286 31.5977 33.5561C31.0307 34.9586 30.6945 36.3042 30.6016 37.5371C29.0335 34.3484 28.7269 30.6852 29.7432 27.2802ZM11.7929 25.288L13.042 26.2322L11.3385 27.5197L11.7929 25.288ZM20.0142 39.8643L15.7486 36.5868L18.8497 34.203L20.0142 39.8643ZM17.4771 27.5276L15.7639 26.2329L17.0164 25.2866L17.4771 27.5276ZM17.978 29.9633L18.4819 32.4159L14.4019 35.5521L10.3382 32.4298L10.8431 29.9504L14.4025 27.2612L17.978 29.9633ZM9.97383 34.2186L13.0559 36.5869L8.82984 39.8357L9.97383 34.2186ZM7.46801 46.5214L12.4788 48.8841L6.40324 51.7492L7.46801 46.5214ZM7.80527 44.8662L8.33004 42.2895L14.4025 37.6219L20.5196 42.3224L21.039 44.8475L14.4028 47.9764L7.80527 44.8662ZM21.3791 46.5015L22.4643 51.7779L16.3264 48.8841L21.3791 46.5015ZM11.8424 8.43421C11.8413 7.89562 12.0075 7.36998 12.3181 6.92993C12.6286 6.48989 13.0682 6.15717 13.576 5.97775C14.0839 5.79833 14.6349 5.78107 15.153 5.92835C15.6711 6.07564 16.1306 6.3802 16.4681 6.79995C16.8056 7.21969 17.0044 7.7339 17.037 8.27151C17.0696 8.80912 16.9344 9.34359 16.6502 9.80106C16.3659 10.2585 15.9465 10.6164 15.4501 10.8253C14.9536 11.0341 14.4046 11.0836 13.8788 10.9669C13.8769 10.9669 13.875 10.9658 13.873 10.9655H13.871C13.296 10.8361 12.782 10.5151 12.4133 10.0552C12.0447 9.59522 11.8434 9.02364 11.8424 8.43421ZM14.4212 12.6693L16.65 23.5065L14.403 25.2043L12.1561 23.5058L14.3637 12.6678C14.3829 12.6678 14.4019 12.6691 14.4212 12.6693ZM5.99438 53.7562L14.4028 49.7912L22.8776 53.7873L23.8178 58.3593H5.05699L5.99438 53.7562ZM39.7839 58.3593H28.9455L33.1077 43.3214C34.0492 44.1144 35.0813 44.7933 36.1823 45.3438L39.7839 58.3593ZM37.271 44.0456C37.2375 44.0272 37.2027 44.0111 37.167 43.9976C37.0966 43.9643 37.0273 43.9298 36.9575 43.8954C37.4818 43.8547 38.0024 43.7764 38.5154 43.661C39.3418 43.4721 40.1509 43.2144 40.9343 42.8905C42.3612 43.6409 43.8867 44.1862 45.4659 44.5105C46.0499 44.6271 46.6408 44.7054 47.2349 44.7449C43.9392 45.7326 40.3965 45.4841 37.271 44.046V44.0456ZM56.7997 30.4767C56.6459 30.6307 56.4372 30.7172 56.2195 30.7173C56.0019 30.7174 55.7931 30.631 55.6392 30.4771C55.4852 30.3233 55.3987 30.1146 55.3986 29.8969C55.3985 29.6793 55.4849 29.4705 55.6387 29.3166C56.3291 28.6301 56.8772 27.8141 57.2516 26.9154C57.6261 26.0167 57.8195 25.053 57.8209 24.0794C57.8223 23.1059 57.6316 22.1416 57.2597 21.2419C56.8878 20.3421 56.342 19.5246 55.6536 18.8361C54.9652 18.1477 54.1478 17.6018 53.2481 17.2298C52.3484 16.8578 51.3842 16.6669 50.4106 16.6682C49.437 16.6695 48.4733 16.8628 47.5745 17.2372C46.6758 17.6115 45.8598 18.1595 45.1732 18.8497C45.0194 19.0037 44.8107 19.0902 44.593 19.0902C44.3754 19.0903 44.1666 19.0039 44.0127 18.8501C43.8588 18.6962 43.7722 18.4875 43.7722 18.2699C43.7721 18.0523 43.8585 17.8435 44.0123 17.6896C45.708 15.9939 48.0079 15.0412 50.4059 15.0412C52.804 15.0412 55.1039 15.9938 56.7996 17.6895C58.4953 19.3851 59.448 21.685 59.448 24.0831C59.448 26.4811 58.4954 28.781 56.7997 30.4767ZM46.0625 20.9006C45.9863 20.8245 45.9258 20.7341 45.8845 20.6346C45.8432 20.5351 45.8219 20.4285 45.8218 20.3207C45.8217 20.213 45.8428 20.1063 45.884 20.0067C45.9251 19.9072 45.9855 19.8167 46.0616 19.7405C46.632 19.17 47.3092 18.7174 48.0546 18.4087C48.7999 18.0999 49.5987 17.941 50.4055 17.9409C51.2122 17.9409 52.011 18.0998 52.7564 18.4085C53.5017 18.7172 54.179 19.1696 54.7495 19.7401C55.32 20.3105 55.7725 20.9877 56.0813 21.733C56.39 22.4783 56.549 23.2772 56.549 24.0839C56.549 24.8906 56.3902 25.6895 56.0815 26.4348C55.7728 27.1802 55.3203 27.8574 54.7499 28.4279C54.6737 28.5041 54.5833 28.5645 54.4837 28.6058C54.3842 28.647 54.2775 28.6682 54.1698 28.6682C54.0621 28.6682 53.9554 28.647 53.8559 28.6058C53.7563 28.5645 53.6659 28.5041 53.5897 28.4279C53.5135 28.3517 53.4531 28.2613 53.4119 28.1618C53.3707 28.0623 53.3494 27.9556 53.3494 27.8478C53.3494 27.7401 53.3707 27.6334 53.4119 27.5339C53.4531 27.4344 53.5135 27.3439 53.5897 27.2678C54.4341 26.4235 54.9085 25.2784 54.9086 24.0844C54.9086 22.8903 54.4344 21.7452 53.5901 20.9008C52.7459 20.0564 51.6008 19.582 50.4067 19.5819C49.2127 19.5819 48.0675 20.0561 47.2232 20.9004C47.147 20.9767 47.0565 21.0372 46.957 21.0785C46.8574 21.1197 46.7507 21.141 46.6429 21.141C46.5351 21.1411 46.4284 21.1198 46.3288 21.0786C46.2292 21.0373 46.1387 20.9769 46.0625 20.9006ZM22.2913 1.3698C22.2192 1.28978 22.1635 1.19633 22.1275 1.09479C22.0914 0.99325 22.0758 0.885611 22.0813 0.778016C22.0869 0.670422 22.1136 0.564979 22.16 0.467709C22.2063 0.370439 22.2713 0.283246 22.3513 0.211109C22.4314 0.138972 22.5248 0.0833029 22.6264 0.0472807C22.7279 0.0112585 22.8355 -0.00441145 22.9431 0.00116551C23.0507 0.00674247 23.1562 0.0334571 23.2534 0.0797842C23.3507 0.126111 23.4379 0.191143 23.51 0.271168C25.5256 2.51228 26.6407 5.41985 26.6407 8.43398C26.6407 11.4481 25.5256 14.3557 23.51 16.5968C23.3645 16.7586 23.1607 16.8559 22.9434 16.8674C22.7261 16.8789 22.5131 16.8036 22.3513 16.658C22.1896 16.5125 22.0922 16.3087 22.0808 16.0914C22.0693 15.8741 22.1446 15.6611 22.2901 15.4993C24.0342 13.5595 24.9992 11.0432 24.9992 8.43457C24.9992 5.82598 24.0342 3.30959 22.2901 1.3698H22.2913ZM5.36531 16.5962C3.35022 14.3552 2.23536 11.4479 2.23536 8.4341C2.23536 5.42031 3.35022 2.51304 5.36531 0.271988C5.43736 0.191848 5.52448 0.126684 5.62171 0.0802146C5.71894 0.0337456 5.82437 0.00688228 5.93198 0.00115842C6.03959 -0.00456545 6.14727 0.0109623 6.24889 0.046855C6.35049 0.0827477 6.44404 0.138302 6.52418 0.210347C6.60432 0.282392 6.66948 0.369516 6.71595 0.466745C6.76242 0.563974 6.78929 0.669404 6.79501 0.777015C6.80073 0.884626 6.78521 0.99231 6.74931 1.09392C6.71342 1.19553 6.65787 1.28908 6.58582 1.36921C4.84147 3.30913 3.87645 5.82578 3.87656 8.43462C3.87667 11.0435 4.8419 13.56 6.58641 15.4998C6.7318 15.6617 6.80691 15.8748 6.79522 16.0921C6.78353 16.3094 6.68599 16.5132 6.52406 16.6586C6.36214 16.8039 6.14908 16.8791 5.93178 16.8674C5.71447 16.8557 5.5107 16.7581 5.36531 16.5962ZM5.54402 8.43421C5.54271 6.23664 6.35638 4.11665 7.82766 2.48425C7.97325 2.32253 8.17713 2.22526 8.39443 2.21386C8.61174 2.20245 8.82468 2.27784 8.98641 2.42343C9.14813 2.56903 9.2454 2.7729 9.2568 2.99021C9.26821 3.20752 9.19282 3.42046 9.04723 3.58218C7.8486 4.91334 7.18526 6.64115 7.18513 8.43244C7.185 10.2237 7.84809 11.9516 9.04652 13.283C9.11871 13.363 9.17442 13.4564 9.21049 13.558C9.24655 13.6596 9.26226 13.7672 9.25672 13.8749C9.25117 13.9825 9.22448 14.088 9.17817 14.1853C9.13186 14.2826 9.06684 14.3698 8.98682 14.442C8.90679 14.5142 8.81333 14.5699 8.71178 14.606C8.61022 14.642 8.50256 14.6577 8.39493 14.6522C8.2873 14.6467 8.18182 14.62 8.08451 14.5737C7.9872 14.5273 7.89996 14.4623 7.82777 14.3823C6.35547 12.7513 5.54157 10.6315 5.54402 8.43421ZM19.8292 3.58183C19.7571 3.50173 19.7015 3.40822 19.6656 3.30664C19.6297 3.20505 19.6141 3.09739 19.6198 2.98979C19.6255 2.88219 19.6523 2.77676 19.6987 2.67952C19.7451 2.58229 19.8103 2.49515 19.8904 2.42308C20.0521 2.27753 20.2651 2.20221 20.4824 2.21368C20.59 2.21936 20.6954 2.24618 20.7927 2.29261C20.8899 2.33903 20.977 2.40415 21.0491 2.48425C22.5194 4.11689 23.333 6.23616 23.333 8.43328C23.333 10.6304 22.5194 12.7497 21.0491 14.3823C20.9033 14.5439 20.6993 14.641 20.4819 14.6522C20.2646 14.6634 20.0517 14.5878 19.8901 14.442C19.7284 14.2962 19.6314 14.0922 19.6202 13.8749C19.609 13.6575 19.6846 13.4446 19.8304 13.283C21.0289 11.9517 21.692 10.2238 21.6919 8.43246C21.6918 6.64116 21.0284 4.91334 19.8298 3.58218L19.8292 3.58183Z" fill="white"/>
</svg>
