<svg width="57" height="59" viewBox="0 0 57 59" fill="none" xmlns="http://www.w3.org/2000/svg">
<path d="M14.0625 30.9375C13.5654 30.938 13.0887 31.1357 12.7372 31.4872C12.3857 31.8387 12.188 32.3154 12.1875 32.8125V52.5C12.188 52.9971 12.3857 53.4738 12.7372 53.8253C13.0887 54.1768 13.5654 54.3745 14.0625 54.375H17.9072C18.1233 55.4336 18.6984 56.3851 19.5353 57.0685C20.3722 57.7518 21.4195 58.1251 22.5 58.1251C23.5805 58.1251 24.6278 57.7518 25.4647 57.0685C26.3016 56.3851 26.8767 55.4336 27.0928 54.375H41.3438C41.5598 55.4336 42.135 56.3851 42.9719 57.0685C43.8088 57.7518 44.8561 58.1251 45.9366 58.1251C47.017 58.1251 48.0643 57.7518 48.9012 57.0685C49.7382 56.3851 50.3133 55.4336 50.5294 54.375H53.4375C54.1832 54.3743 54.8981 54.0777 55.4254 53.5504C55.9527 53.0231 56.2493 52.3082 56.25 51.5625V44.6531C56.2477 44.076 56.0712 43.513 55.7437 43.0378L50.0747 34.9378C49.8129 34.5718 49.4678 34.2733 49.068 34.0668C48.6682 33.8602 48.225 33.7517 47.775 33.75H39.375V32.8125C39.3745 32.3154 39.1768 31.8387 38.8253 31.4872C38.4738 31.1357 37.9971 30.938 37.5 30.9375H14.0625ZM22.5 56.25C21.9437 56.25 21.4 56.0851 20.9375 55.776C20.4749 55.467 20.1145 55.0277 19.9016 54.5138C19.6887 53.9999 19.633 53.4344 19.7415 52.8888C19.8501 52.3432 20.1179 51.8421 20.5113 51.4488C20.9046 51.0554 21.4057 50.7876 21.9513 50.679C22.4969 50.5705 23.0624 50.6262 23.5763 50.8391C24.0902 51.052 24.5295 51.4124 24.8385 51.875C25.1476 52.3375 25.3125 52.8812 25.3125 53.4375C25.3118 54.1832 25.0152 54.8981 24.4879 55.4254C23.9606 55.9527 23.2457 56.2493 22.5 56.25ZM37.5 52.5H27.0928C26.8767 51.4414 26.3016 50.4899 25.4647 49.8065C24.6278 49.1232 23.5805 48.7499 22.5 48.7499C21.4195 48.7499 20.3722 49.1232 19.5353 49.8065C18.6984 50.4899 18.1233 51.4414 17.9072 52.5H14.0625V32.8125H37.5V52.5ZM45.9375 56.25C45.3812 56.25 44.8375 56.0851 44.375 55.776C43.9124 55.467 43.552 55.0277 43.3391 54.5138C43.1262 53.9999 43.0705 53.4344 43.179 52.8888C43.2876 52.3432 43.5554 51.8421 43.9488 51.4488C44.3421 51.0554 44.8432 50.7876 45.3888 50.679C45.9344 50.5705 46.4999 50.6262 47.0138 50.8391C47.5277 51.052 47.967 51.4124 48.276 51.875C48.585 52.3375 48.75 52.8812 48.75 53.4375C48.7493 54.1832 48.4527 54.8981 47.9254 55.4254C47.3981 55.9527 46.6832 56.2493 45.9375 56.25ZM50.235 38.4375L52.86 42.1875H44.0625V38.4375H50.235ZM39.375 35.625H47.775C47.9253 35.6259 48.0733 35.6623 48.2069 35.7312C48.3405 35.8001 48.4559 35.8996 48.5437 36.0216L48.9225 36.5625H43.125C42.8764 36.5625 42.6379 36.6613 42.4621 36.8371C42.2863 37.0129 42.1875 37.2514 42.1875 37.5V43.125C42.1875 43.3736 42.2863 43.6121 42.4621 43.7879C42.6379 43.9637 42.8764 44.0625 43.125 44.0625H54.1725L54.1987 44.1C54.3117 44.2625 54.3731 44.4552 54.375 44.6531V51.5625C54.3748 51.8111 54.2759 52.0494 54.1001 52.2251C53.9244 52.4009 53.6861 52.4998 53.4375 52.5H50.5303C50.3142 51.4414 49.7391 50.4899 48.9022 49.8065C48.0653 49.1232 47.018 48.7499 45.9375 48.7499C44.857 48.7499 43.8097 49.1232 42.9728 49.8065C42.1359 50.4899 41.5608 51.4414 41.3447 52.5H39.375V35.625ZM0 36.5625H10.3125V38.4375H0V36.5625ZM1.875 42.1875H10.3125V44.0625H1.875V42.1875ZM3.75 47.8125H10.3125V49.6875H3.75V47.8125ZM9.375 20.625C9.51894 20.6249 9.66092 20.5917 9.78999 20.5279C9.91905 20.4642 10.0317 20.3717 10.1194 20.2575C10.8103 19.3556 16.875 11.3325 16.875 7.5C16.875 5.51088 16.0848 3.60322 14.6783 2.1967C13.2718 0.790176 11.3641 0 9.375 0C7.38588 0 5.47822 0.790176 4.0717 2.1967C2.66518 3.60322 1.875 5.51088 1.875 7.5C1.875 11.3316 7.93969 19.3556 8.63063 20.2575C8.71825 20.3717 8.83095 20.4642 8.96001 20.5279C9.08908 20.5917 9.23106 20.6249 9.375 20.625ZM9.375 1.875C10.8663 1.87674 12.296 2.46993 13.3506 3.52444C14.4051 4.57896 14.9983 6.00869 15 7.5C15 9.88594 11.4366 15.2831 9.375 18.1181C7.31344 15.2831 3.75 9.88688 3.75 7.5C3.75174 6.00869 4.34493 4.57896 5.39944 3.52444C6.45396 2.46993 7.88369 1.87674 9.375 1.875Z" fill="white"/>
<path d="M13.5938 7.5C13.5938 6.66561 13.3463 5.84996 12.8828 5.15619C12.4192 4.46242 11.7603 3.92169 10.9894 3.60238C10.2186 3.28308 9.37032 3.19953 8.55196 3.36231C7.73361 3.52509 6.9819 3.92689 6.3919 4.51689C5.80189 5.1069 5.4001 5.85861 5.23731 6.67696C5.07453 7.49532 5.15808 8.34357 5.47739 9.11445C5.79669 9.88532 6.33742 10.5442 7.03119 11.0078C7.72496 11.4713 8.54061 11.7188 9.375 11.7188C10.4935 11.7175 11.5658 11.2726 12.3567 10.4817C13.1476 9.69084 13.5925 8.6185 13.5938 7.5ZM7.03125 7.5C7.03125 7.03645 7.16871 6.58331 7.42624 6.19788C7.68378 5.81245 8.04982 5.51205 8.47809 5.33466C8.90635 5.15726 9.3776 5.11085 9.83224 5.20128C10.2869 5.29172 10.7045 5.51494 11.0323 5.84272C11.3601 6.1705 11.5833 6.58811 11.6737 7.04276C11.7642 7.4974 11.7177 7.96865 11.5403 8.39691C11.363 8.82518 11.0625 9.19122 10.6771 9.44876C10.2917 9.70629 9.83855 9.84375 9.375 9.84375C8.75363 9.84301 8.15792 9.59584 7.71854 9.15646C7.27916 8.71708 7.032 8.12137 7.03125 7.5ZM46.875 22.5C47.0189 22.4999 47.1609 22.4667 47.29 22.4029C47.4191 22.3392 47.5317 22.2467 47.6194 22.1325C48.3103 21.2306 54.375 13.2075 54.375 9.375C54.375 7.38588 53.5848 5.47822 52.1783 4.0717C50.7718 2.66518 48.8641 1.875 46.875 1.875C44.8859 1.875 42.9782 2.66518 41.5717 4.0717C40.1652 5.47822 39.375 7.38588 39.375 9.375C39.375 13.2066 45.4397 21.2306 46.1306 22.1325C46.2183 22.2467 46.331 22.3392 46.46 22.4029C46.5891 22.4667 46.7311 22.4999 46.875 22.5ZM46.875 3.75C48.3663 3.75174 49.796 4.34493 50.8506 5.39944C51.9051 6.45396 52.4983 7.88369 52.5 9.375C52.5 11.7609 48.9366 17.1581 46.875 19.9931C44.8134 17.1581 41.25 11.7619 41.25 9.375C41.2517 7.88369 41.8449 6.45396 42.8994 5.39944C43.954 4.34493 45.3837 3.75174 46.875 3.75Z" fill="white"/>
<path d="M51.0938 9.375C51.0938 8.54061 50.8463 7.72496 50.3828 7.03119C49.9192 6.33742 49.2603 5.79669 48.4894 5.47739C47.7186 5.15808 46.8703 5.07453 46.052 5.23731C45.2336 5.4001 44.4819 5.80189 43.8919 6.39189C43.3019 6.9819 42.9001 7.73361 42.7373 8.55196C42.5745 9.37032 42.6581 10.2186 42.9774 10.9894C43.2967 11.7603 43.8374 12.4192 44.5312 12.8828C45.225 13.3463 46.0406 13.5938 46.875 13.5938C47.9935 13.5925 49.0658 13.1476 49.8567 12.3567C50.6476 11.5658 51.0925 10.4935 51.0938 9.375ZM44.5312 9.375C44.5312 8.91145 44.6687 8.45831 44.9262 8.07288C45.1838 7.68746 45.5498 7.38705 45.9781 7.20966C46.4064 7.03227 46.8776 6.98585 47.3322 7.07629C47.7869 7.16672 48.2045 7.38994 48.5323 7.71772C48.8601 8.0455 49.0833 8.46312 49.1737 8.91776C49.2641 9.3724 49.2177 9.84365 49.0403 10.2719C48.8629 10.7002 48.5625 11.0662 48.1771 11.3238C47.7917 11.5813 47.3386 11.7188 46.875 11.7188C46.2536 11.718 45.6579 11.4708 45.2185 11.0315C44.7792 10.5921 44.532 9.99637 44.5312 9.375ZM42.8241 25.3125C43.4835 25.3103 44.1423 25.2718 44.7975 25.1972L44.5875 23.3344C44.0008 23.4008 43.4108 23.4353 42.8203 23.4375L42.8241 25.3125ZM41.0737 23.3306C40.4994 23.257 39.9313 23.141 39.3741 22.9838L38.8603 24.7866C39.5064 24.9691 40.1651 25.1038 40.8309 25.1897L41.0737 23.3306ZM37.7606 22.3809C37.2396 22.136 36.7393 21.8495 36.2644 21.5241L35.2134 23.0766C35.7694 23.4569 36.3551 23.7921 36.9647 24.0788L37.7606 22.3809ZM15.8916 19.4222C15.2984 19.5947 14.6887 19.7878 14.0625 20.0016L14.6719 21.7753C15.2681 21.5709 15.8494 21.3866 16.4156 21.2222L15.8916 19.4222ZM34.7812 20.4413C34.2486 20.0405 33.6891 19.6765 33.1069 19.3519L32.2087 20.9981C32.7177 21.2818 33.2063 21.6004 33.6712 21.9516L34.7812 20.4413ZM19.9725 20.3766L19.6303 18.5334C19.0303 18.6447 18.4034 18.7775 17.7497 18.9319L18.1838 20.7563C18.8044 20.6081 19.4025 20.4834 19.9725 20.3766ZM23.5922 19.8966L23.4422 18.0272C22.8609 18.0741 22.2206 18.1397 21.5297 18.2316L21.7763 20.0897C22.4325 20.0025 23.04 19.9416 23.5922 19.8966ZM30.6422 20.3194L31.2403 18.5428C31.0559 18.4803 30.8638 18.4206 30.6637 18.3638C30.2105 18.2327 29.7505 18.1266 29.2856 18.0459L28.9669 19.8928C29.3653 19.9621 29.7596 20.0532 30.1481 20.1656C30.32 20.2144 30.4847 20.2656 30.6422 20.3194ZM27.24 19.7316L27.2841 17.8575C26.7197 17.8444 26.1187 17.8575 25.3369 17.8997L25.4381 19.7719C26.1694 19.7316 26.7262 19.7203 27.24 19.7316Z" fill="white"/>
</svg>
