<svg width="30" height="30" viewBox="0 0 30 30" fill="none" xmlns="http://www.w3.org/2000/svg">
<mask id="mask0_236_1206" style="mask-type:luminance" maskUnits="userSpaceOnUse" x="0" y="0" width="30" height="30">
<path d="M29.5 29.5V0.5H0.5V29.5H29.5Z" fill="white" stroke="white"/>
</mask>
<g mask="url(#mask0_236_1206)">
<path d="M24.1405 28.1836C24.1405 25.2709 26.5013 22.9102 29.414 22.9102C26.5013 22.9102 24.1405 20.5494 24.1405 17.6368C24.1405 20.5494 21.7798 22.9102 18.8671 22.9102C21.7798 22.9102 24.1405 25.2709 24.1405 28.1836Z" stroke="white" stroke-miterlimit="10" stroke-linecap="round" stroke-linejoin="round"/>
<path d="M0.585938 5.33204C2.52773 5.33204 4.10155 3.75822 4.10155 1.81643C4.10155 3.75822 5.67538 5.33204 7.61717 5.33204C5.67538 5.33204 4.10155 6.90587 4.10155 8.84766C4.10155 6.90587 2.52773 5.33204 0.585938 5.33204Z" stroke="white" stroke-miterlimit="10" stroke-linecap="round" stroke-linejoin="round"/>
<path d="M16.3476 17.3125C16.3948 17.3125 16.4335 17.2737 16.4335 17.2266C16.4335 17.1794 16.3948 17.1406 16.3476 17.1406C16.3004 17.1406 16.2617 17.1794 16.2617 17.2266C16.2617 17.2737 16.3004 17.3125 16.3476 17.3125Z" fill="white" stroke="white"/>
<path d="M14.7123 19.2936C13.7783 20.8675 13.2421 22.7051 13.2421 24.668C13.2421 18.8432 8.52004 14.1211 2.69525 14.1211C8.52004 14.1211 13.2421 9.39907 13.2421 3.57428C13.2421 9.39907 17.9642 14.1211 23.7889 14.1211C21.8261 14.1211 19.9885 14.6573 18.4146 15.5912" stroke="white" stroke-miterlimit="10" stroke-linecap="round" stroke-linejoin="round"/>
</g>
</svg>
