<svg width="24" height="24" viewBox="0 0 24 24" fill="none" xmlns="http://www.w3.org/2000/svg">
<path d="M23.1998 11.6C23.1998 18.2528 17.6038 23.5948 10.8606 23.1772C5.08297 22.8192 0.380568 18.1168 0.0229677 12.3392C-0.395032 5.59602 4.94697 1.6999e-05 11.5998 1.6999e-05C13.3661 -0.00301448 15.1095 0.399454 16.6958 1.17642C17.1082 1.37882 17.2594 1.89242 17.0318 2.29162L17.0302 2.29442C16.9288 2.47157 16.7636 2.60325 16.5683 2.66245C16.373 2.72165 16.1624 2.7039 15.9798 2.61282C14.4526 1.86082 12.7066 1.49482 10.8638 1.62642C6.02377 1.97162 2.07097 5.85362 1.64017 10.6868C1.10417 16.7024 5.92497 21.7516 11.8654 21.5964C16.9526 21.4636 21.199 17.4292 21.5714 12.354C21.6684 11.0803 21.5192 9.79972 21.1318 8.58242C21.0746 8.40165 21.0839 8.20638 21.1582 8.03192C21.2324 7.85745 21.3666 7.71532 21.5366 7.63122C21.9742 7.41242 22.5106 7.63122 22.659 8.09722C23.0184 9.23002 23.2011 10.4116 23.1998 11.6Z" fill="white"/>
<path d="M5.76375 8.58879L12.0893 17.1476C12.1983 17.2964 12.3428 17.4156 12.5096 17.4943C12.6765 17.573 12.8603 17.6087 13.0445 17.5981C13.2286 17.5875 13.4072 17.531 13.5639 17.4338C13.7207 17.3365 13.8505 17.2015 13.9417 17.0412L23.0825 1.21799C23.5585 0.393993 22.4725 -0.434407 21.8249 0.259193L12.3017 10.46L6.77615 7.40159C6.02935 6.98839 5.25335 7.89799 5.76375 8.58879Z" fill="white"/>
</svg>
