<svg width="1161" height="699" viewBox="0 0 1161 699" fill="none" xmlns="http://www.w3.org/2000/svg">
<path opacity="0.8" d="M1128.81 1.03909C1126.41 -0.346364 1122.52 -0.346364 1120.12 1.03909C1118.32 2.08012 1117.87 3.60684 1118.78 4.88974L984.25 82.5625L984.248 180.607L951.475 199.529L951.471 306.175L839.204 370.991L821.71 360.89L908.282 310.909L908.284 252.449L907.939 252.25L809.51 195.423V175.597L865.174 143.459C867.575 144.463 870.942 144.351 873.105 143.103C875.505 141.717 875.505 139.471 873.105 138.085C870.706 136.7 866.815 136.7 864.415 138.085C862.252 139.335 862.059 141.278 863.796 142.665L808.132 174.804V196.216L808.477 196.416L906.906 253.243L906.904 310.116L841.493 347.881L841.495 323.526L871.482 306.213C873.883 307.217 877.25 307.105 879.414 305.855C881.813 304.47 881.813 302.223 879.414 300.84C877.014 299.454 873.123 299.454 870.723 300.84C868.56 302.088 868.367 304.033 870.104 305.42L840.118 322.732L840.116 348.677L820.33 360.099L796.936 346.593L796.938 304.176L841.064 278.698L841.066 249.377L840.721 249.177L747.83 195.547C749.569 194.16 749.376 192.217 747.211 190.969C744.811 189.583 740.92 189.583 738.521 190.969C736.121 192.354 736.121 194.601 738.521 195.986C740.684 197.234 744.051 197.346 746.452 196.344L839.688 250.172V277.906L796.938 302.587V273.351L796.594 273.152L739.761 240.34C741.5 238.953 741.307 237.01 739.142 235.76C736.742 234.375 732.851 234.375 730.452 235.76C728.052 237.145 728.052 239.392 730.452 240.777C732.615 242.027 735.982 242.138 738.383 241.135L795.56 274.145L795.559 345.797L779.127 336.31L752.052 351.941L727.53 337.783V303.38L727.185 303.181L662.359 265.754V233.324C663.694 233.237 664.993 232.914 666.016 232.323C668.416 230.938 668.416 228.691 666.016 227.306C663.617 225.921 659.726 225.921 657.326 227.306C654.927 228.691 654.927 230.938 657.326 232.323C658.35 232.916 659.648 233.239 660.983 233.324L660.981 266.548L661.326 266.747L726.152 304.174V336.987L620.648 276.074L620.65 211.503L677.87 178.467L730.38 178.465L730.539 178.374L820.642 126.353C823.043 127.358 826.41 127.245 828.573 125.995C830.973 124.61 830.973 122.363 828.573 120.978C826.174 119.592 822.283 119.592 819.883 120.978C817.72 122.228 817.527 124.171 819.264 125.558L730.009 177.089L680.25 177.091L845.779 81.5234C848.181 82.5276 851.548 82.4154 853.711 81.1654C856.11 79.7799 856.11 77.5334 853.711 76.1479C851.312 74.7625 847.42 74.7625 845.021 76.1479C842.858 77.3979 842.664 79.3407 844.402 80.7281L619.271 210.708L619.269 276.865L619.613 277.064L750.672 352.731L724.293 367.961L500.533 238.773L500.535 161.686L500.191 161.487L424.113 117.559C425.85 116.171 425.659 114.229 423.493 112.979C421.094 111.593 417.203 111.593 414.803 112.979C412.404 114.364 412.404 116.611 414.803 117.996C416.967 119.246 420.334 119.356 422.735 118.354L499.173 162.486L499.171 239.572L499.516 239.771L722.93 368.76L697.818 383.259L476.538 255.501H344.575L262.097 207.883L262.099 134.705C262.968 134.536 263.792 134.266 264.485 133.865C266.884 132.48 266.884 130.233 264.485 128.848C262.086 127.462 258.194 127.462 255.795 128.848C253.396 130.233 253.396 132.48 255.795 133.865C257.144 134.645 258.963 134.968 260.723 134.871L260.721 208.676L261.066 208.875L344.205 256.877L476.168 256.875L662.967 364.724L625.395 364.726L561.643 327.918H512.532L512.374 328.011L444.266 367.332C441.864 366.328 438.497 366.44 436.334 367.69C433.935 369.076 433.935 371.322 436.334 372.707C438.733 374.093 442.625 374.093 445.024 372.707C447.187 371.457 447.381 369.515 445.641 368.127L512.902 329.296H561.271L625.025 366.103L665.349 366.101L696.444 384.054L629.414 422.754L610.354 411.75V382.866L561.935 354.911C563.674 353.524 563.481 351.581 561.318 350.331C558.918 348.946 555.027 348.946 552.627 350.331C550.228 351.717 550.228 353.963 552.627 355.349C554.791 356.599 558.158 356.709 560.561 355.707L608.98 383.661V410.957L557.345 381.144H532.89L532.732 381.237L503.581 398.068C501.18 397.063 497.813 397.176 495.648 398.424C493.248 399.809 493.248 402.056 495.648 403.441C498.047 404.826 501.938 404.826 504.338 403.441C506.501 402.191 506.694 400.248 504.955 398.861L533.26 382.52H556.973L628.04 423.549L615.128 431.003L656.33 454.79L637.04 465.926H607.862L586.985 453.875C588.649 452.491 588.425 450.581 586.291 449.349C583.891 447.963 580 447.963 577.6 449.349C575.201 450.734 575.201 452.981 577.6 454.366C579.795 455.632 583.22 455.727 585.627 454.678L607.492 467.302H634.656L585.457 495.708L469.701 428.875L386.407 428.877L386.249 428.969L339.352 456.044C336.951 455.04 333.582 455.152 331.419 456.4C329.019 457.785 329.019 460.032 331.419 461.417C333.818 462.803 337.709 462.803 340.109 461.417C342.272 460.167 342.465 458.225 340.728 456.837L386.779 430.25L469.332 430.248L558.612 481.795H520.398L483.043 460.229C484.783 458.842 484.589 456.899 482.426 455.649C480.026 454.264 476.135 454.264 473.736 455.649C471.336 457.035 471.336 459.281 473.736 460.667C475.899 461.917 479.266 462.027 481.667 461.025L520.027 483.171H560.994L584.083 496.501L525.313 530.431L337.492 530.433L191.576 446.189C193.316 444.802 193.122 442.859 190.959 441.609C188.56 440.223 184.668 440.223 182.269 441.609C179.87 442.994 179.87 445.241 182.269 446.626C184.432 447.876 187.799 447.987 190.202 446.982L337.123 531.809L522.931 531.807L499.618 545.267L360.587 545.269L360.428 545.361L291.863 584.948C289.462 583.943 286.095 584.056 283.93 585.304C281.53 586.689 281.53 588.936 283.93 590.321C286.329 591.707 290.221 591.707 292.62 590.321C294.783 589.071 294.977 587.128 293.239 585.741L360.958 546.644L499.992 546.642L500.15 546.55L657.709 455.583L675.204 465.684L509.552 561.323H388.408L388.249 561.416L241.919 645.9L39.1953 645.902L0 623.274V624.863L38.818 647.274L242.281 647.272L242.44 647.179L334.269 594.162L334.267 625.542L273.738 660.49C271.337 659.486 267.97 659.598 265.805 660.846C263.405 662.231 263.405 664.478 265.805 665.863C268.204 667.249 272.095 667.249 274.495 665.863C276.658 664.613 276.852 662.671 275.114 661.283L335.643 626.335L335.645 593.551H335.329L388.77 562.697H509.914L510.073 562.604L676.572 466.477L696.44 477.948L373.375 664.468L373.373 698.17H374.749V665.262L697.816 478.741L722.367 492.917L555.718 589.133V606.333L526.172 623.392V662.953L468.873 696.032C466.472 695.03 463.105 695.14 460.941 696.39C460.065 696.897 459.515 697.518 459.279 698.17H471.261C471.085 697.696 470.762 697.235 470.247 696.825L527.546 663.747V624.186L555.716 607.922L555.714 671.276L572.341 680.875L542.384 698.17H545.133L573.719 681.667L602.305 698.17H605.054L557.091 670.478L557.093 589.924L723.741 493.709L746.09 506.613L628.156 574.702C625.755 573.698 622.388 573.81 620.223 575.058C617.823 576.443 617.823 578.69 620.223 580.075C622.622 581.461 626.513 581.461 628.913 580.075C631.076 578.825 631.27 576.883 629.532 575.495L747.466 507.406L769.041 519.864L627.97 601.31H589.63C589.404 600.642 588.843 600.006 587.949 599.491C585.549 598.106 581.658 598.106 579.259 599.491C576.859 600.877 576.859 603.123 579.259 604.507C581.658 605.892 585.549 605.892 587.949 604.507C588.845 603.99 589.404 603.353 589.63 602.686H628.338L628.499 602.593L770.417 520.657L779.128 525.686L785.831 521.816L819.632 541.331V568.489L791.706 584.611V584.537H747.886L747.727 584.63L699.645 612.392C697.243 611.387 693.876 611.5 691.713 612.75C689.314 614.135 689.314 616.382 691.713 617.765C694.112 619.151 698.004 619.151 700.403 617.765C702.566 616.515 702.76 614.572 701.02 613.185L748.256 585.913H789.452L707.357 633.309C704.946 632.224 701.471 632.305 699.254 633.586C696.854 634.971 696.854 637.218 699.254 638.603C701.653 639.989 705.544 639.989 707.944 638.603C710.055 637.384 710.305 635.499 708.7 634.122L811.097 575.004V588.071L750.175 623.245V648.079L700.575 676.715C698.174 675.711 694.807 675.823 692.642 677.071C690.242 678.456 690.242 680.703 692.642 682.088C695.041 683.474 698.933 683.474 701.332 682.088C703.495 680.838 703.689 678.896 701.951 677.508L751.553 648.87V624.036L812.474 588.862V574.206L821.008 569.28V540.536L787.207 521.021L809.419 508.196L878.97 548.351L878.968 594.001L831.743 621.268C829.332 620.182 825.857 620.265 823.639 621.544C821.24 622.93 821.24 625.176 823.639 626.562C826.039 627.947 829.93 627.947 832.329 626.562C834.44 625.343 834.69 623.46 833.088 622.08L878.97 595.59L878.968 632.465L842.72 653.392L842.718 698.17H844.094L844.096 654.19L878.968 634.056L878.967 698.17H880.342L880.346 547.56L810.795 507.405L835.737 493.004L926.639 545.487L926.635 670.48L970.331 695.709V698.17H971.707V694.913L928.011 669.685L928.015 544.692L837.113 492.209L855.6 481.536L978.28 552.364L978.278 659.01L1046.1 698.17H1048.85L979.652 658.218L979.654 551.573L856.973 480.744L886.935 463.447L1091.05 581.29L1091.05 634.358L1161 674.743V673.154L1092.42 633.562L1092.42 580.495L977.615 514.21H1068.41L1161 567.666V566.078L1068.78 512.834H975.229L888.307 462.65L923.127 442.545L997.845 485.684L1117.81 485.682L1161 510.617V509.028L1151.53 503.564H1161V502.188H1149.15L1118.18 484.31L998.215 484.312L977.307 472.242H1028.31L1028.47 472.149L1054.05 457.377L1160.64 457.375L1161 457.578V455.999L1056.44 456.001L1085.24 439.372C1087.64 440.376 1091.01 440.264 1093.17 439.014C1095.57 437.629 1095.57 435.382 1093.17 433.998C1090.77 432.613 1086.88 432.613 1084.48 433.998C1082.32 435.248 1082.13 437.191 1083.87 438.579L1027.94 470.864H974.927L924.507 441.754L943.139 430.997L931.15 424.076H966.001L1011.56 450.376C1009.82 451.764 1010.01 453.706 1012.18 454.956C1014.58 456.342 1018.47 456.342 1020.87 454.956C1023.27 453.571 1023.27 451.324 1020.87 449.939C1018.7 448.689 1015.34 448.577 1012.93 449.581L966.37 422.698H928.768L903.27 407.977L918.949 398.925H946.763L971.216 384.807H989.465L1030.67 408.6C1028.82 409.991 1028.98 411.984 1031.18 413.257C1033.58 414.643 1037.47 414.643 1039.87 413.257C1042.27 411.872 1042.27 409.625 1039.87 408.24C1037.75 407.015 1034.47 406.878 1032.08 407.82L989.834 383.431H970.85L946.397 397.549H921.335L971.463 368.607H998.53L1054.95 401.181H1161V399.805L1055.31 399.807L998.894 367.233H971.09L970.929 367.326L901.892 407.185L883.777 396.727L961.788 351.686H1016.81L1062.2 377.893H1161V376.517L1062.57 376.519L1019.56 351.688L1161 351.686V350.31L961.423 350.312L961.264 350.405L882.405 395.933L861.824 384.05L970.61 321.244L1161 321.242V319.867L1022.26 319.868L1161 239.765V238.179L1019.51 319.868H971.608L1074.75 260.319V247.194L1124.1 218.701C1126.5 219.705 1129.87 219.593 1132.04 218.343C1134.43 216.958 1134.43 214.711 1132.04 213.326C1129.64 211.94 1125.74 211.94 1123.35 213.326C1121.18 214.576 1120.99 216.518 1122.73 217.906L1095.85 233.421V197.453L1161 159.844V158.256L1094.48 196.66V234.214L1073.38 246.399V259.524L969.391 319.561L969.735 320.159L860.449 383.255L840.58 371.783L952.849 306.966L952.851 200.321L1161 80.1495V78.5609L985.624 179.815L985.626 83.3577L1119.85 5.86304C1119.95 5.9269 1120.02 5.99656 1120.13 6.05654C1122.52 7.442 1126.42 7.442 1128.82 6.05654C1131.21 4.67109 1131.21 2.42455 1128.81 1.03909ZM940.385 430.997L779.128 524.1L617.877 431.001L779.134 337.899L940.385 430.997Z" fill="url(#paint0_radial_461_1068)"/>
<path opacity="0.1" d="M1161 167.871L1132.33 184.421L1132.33 237.745L877.693 384.759L858.343 373.588L989.695 297.75V284.191L1012.98 270.745V239.562L1058.14 213.488C1060.04 214.28 1062.69 214.191 1064.4 213.206C1066.29 212.114 1066.29 210.344 1064.4 209.251C1062.5 208.159 1059.44 208.159 1057.55 209.251C1055.84 210.236 1055.69 211.768 1057.06 212.861L1011.9 238.935V270.118L989.695 282.937V233.005L989.424 232.848L976.589 225.439L1053.59 180.982V130.988L1108.29 99.4066C1110.18 100.198 1112.84 100.111 1114.54 99.1241C1116.43 98.0328 1116.43 96.2623 1114.54 95.169C1112.65 94.0777 1109.58 94.0777 1107.69 95.169C1105.99 96.1539 1105.84 97.6845 1107.21 98.7778L1052.5 130.359V180.353L975.505 224.808L850.321 152.532L850.323 96.6067C851.375 96.539 852.397 96.2836 853.206 95.8172C855.096 94.7259 855.098 92.9554 853.206 91.864C851.315 90.7727 848.248 90.7727 846.358 91.864C844.467 92.9554 844.465 94.7259 846.358 95.8172C847.165 96.2836 848.188 96.539 849.239 96.6067V153.157L849.51 153.314L924.807 196.787H869.932L825.56 171.17C826.93 170.077 826.778 168.546 825.073 167.561C823.18 166.47 820.115 166.47 818.223 167.561C816.333 168.652 816.333 170.423 818.223 171.516C819.93 172.501 822.583 172.588 824.475 171.799L869.64 197.875H926.658V197.859L988.611 233.628V297.119L857.258 372.955L839.645 362.787L932.599 309.118C934.491 309.909 937.146 309.82 938.851 308.837C940.741 307.746 940.741 305.975 938.851 304.882C936.96 303.791 933.893 303.791 932.001 304.882C930.296 305.867 930.143 307.399 931.513 308.491L838.558 362.158L821.551 352.34L932.744 288.144H962.963C963.143 288.669 963.584 289.172 964.288 289.58C966.179 290.671 969.246 290.671 971.138 289.58C973.029 288.489 973.029 286.716 971.138 285.625C969.248 284.534 966.181 284.534 964.288 285.625C963.582 286.031 963.143 286.534 962.963 287.061H932.452L932.326 287.134L820.464 351.717L813.6 347.754L813.329 347.909L808.318 350.801L781.677 335.42V314.015L803.687 301.306V301.364H838.225L876.248 279.412C878.14 280.203 880.795 280.114 882.5 279.129C884.39 278.038 884.39 276.267 882.5 275.174C880.609 274.083 877.542 274.083 875.65 275.174C873.945 276.159 873.792 277.691 875.162 278.783L837.933 300.277L805.468 300.279L870.17 262.922C872.07 263.777 874.81 263.713 876.557 262.703C878.45 261.612 878.45 259.841 876.557 258.75C874.667 257.658 871.6 257.658 869.707 258.75C868.043 259.71 867.846 261.194 869.11 262.281L788.403 308.878V298.578L836.42 270.855V251.283L875.514 228.711C877.407 229.502 880.062 229.413 881.766 228.428C883.657 227.337 883.659 225.567 881.766 224.473C879.874 223.382 876.809 223.382 874.916 224.473C873.21 225.458 873.059 226.991 874.429 228.084L835.334 250.656V270.228L787.317 297.951V309.503L780.591 313.386L780.589 336.045L807.228 351.426L789.724 361.533L734.906 329.882L734.908 293.903L772.131 272.411C774.032 273.266 776.771 273.202 778.519 272.194C780.411 271.103 780.411 269.332 778.519 268.239C776.628 267.148 773.561 267.148 771.669 268.239C770.005 269.199 769.807 270.685 771.071 271.77L734.908 292.649V263.583L763.478 247.088V192.412C764.531 192.345 765.554 192.089 766.361 191.623C768.252 190.531 768.252 188.761 766.361 187.668C764.469 186.576 761.404 186.576 759.511 187.668C757.621 188.759 757.621 190.53 759.511 191.623C760.318 192.089 761.342 192.343 762.394 192.412V246.463L734.908 262.331L734.91 165.922H733.824L733.82 330.507L788.637 362.158L768.979 373.507L697.332 332.14L697.334 233.624L662.895 213.74L662.897 176.683L632.487 159.125C633.857 158.031 633.704 156.499 631.999 155.514C630.108 154.422 627.041 154.422 625.149 155.514C623.259 156.605 623.257 158.376 625.149 159.469C626.856 160.454 629.509 160.541 631.401 159.75L661.811 177.306V214.363L696.25 234.247L696.249 332.765L767.894 374.132L753.325 382.543L656.629 326.715L656.631 242.66L656.36 242.504L570.77 193.088C572.142 191.994 571.989 190.462 570.284 189.477C568.392 188.386 565.327 188.386 563.434 189.477C561.544 190.568 561.542 192.339 563.434 193.432C565.141 194.417 567.794 194.504 569.686 193.715L655.548 243.285L655.546 327.342L655.817 327.498L752.24 383.17L728.629 396.802L567.749 303.918V262.092L567.476 261.935L432.791 184.173C434.161 183.08 434.01 181.547 432.303 180.564C430.413 179.473 427.346 179.473 425.453 180.564C423.563 181.656 423.563 183.426 425.453 184.518C427.158 185.502 429.813 185.591 431.705 184.8L566.662 262.717V304.543L566.935 304.7L657.15 356.788L585.588 356.79L502.743 308.961C504.113 307.868 503.962 306.335 502.255 305.35C500.365 304.259 497.298 304.259 495.406 305.35C493.515 306.442 493.515 308.212 495.406 309.304C497.112 310.288 499.765 310.375 501.658 309.584L585.294 357.874L659.025 357.872L727.536 397.427L700.091 413.273L641.202 379.273H546.642L439.093 317.179L379.43 317.181L355.105 303.137C356.475 302.043 356.322 300.513 354.617 299.528C352.727 298.437 349.66 298.437 347.767 299.528C345.877 300.619 345.877 302.39 347.767 303.483C349.472 304.468 352.127 304.555 354.019 303.764L379.137 318.266L438.801 318.264L520.069 365.184H449.887L416.082 345.668C417.452 344.575 417.301 343.042 415.595 342.057C413.704 340.966 410.637 340.966 408.745 342.057C406.854 343.149 406.854 344.919 408.745 346.012C410.45 346.997 413.102 347.084 414.997 346.295L449.596 366.27H521.96L546.362 380.359H640.921L657.4 389.873H617.2L617.074 389.945L596.91 401.587L512.896 401.589L489.196 387.907H441.673C441.493 387.383 441.051 386.879 440.347 386.473C438.457 385.382 435.39 385.382 433.497 386.473C431.607 387.564 431.607 389.335 433.497 390.428C435.388 391.52 438.455 391.52 440.347 390.428C441.053 390.022 441.495 389.519 441.673 388.992H488.906L512.606 402.675L595.033 402.673L572.331 415.781C570.437 414.989 567.784 415.078 566.077 416.061C564.185 417.152 564.185 418.923 566.077 420.014C567.968 421.106 571.035 421.106 572.925 420.014C574.63 419.029 574.783 417.499 573.415 416.406L617.49 390.957H659.277L699.014 413.9L684.331 422.377L685.146 422.847L693.779 427.834L666.312 427.836L630.404 407.104C631.774 406.011 631.622 404.478 629.917 403.495C628.026 402.404 624.959 402.404 623.069 403.495C621.178 404.587 621.176 406.357 623.069 407.448C624.774 408.433 627.426 408.52 629.321 407.731L666.022 428.921L695.658 428.919L715.757 440.523L703.396 447.66H681.475L681.349 447.731L662.202 458.786H647.819L615.339 440.034C616.796 438.937 616.676 437.367 614.936 436.363C613.046 435.27 609.979 435.27 608.088 436.363C606.198 437.454 606.198 439.225 608.088 440.316C609.76 441.282 612.349 441.39 614.234 440.647L647.529 459.869H662.492L662.618 459.798L681.767 448.743H701.518L662.009 471.553H640.677L596.207 445.879H462.106L378.928 397.857C380.368 396.761 380.242 395.198 378.51 394.198C376.62 393.106 373.553 393.106 371.661 394.198C369.77 395.289 369.77 397.059 371.661 398.151C373.34 399.12 375.941 399.225 377.827 398.474L461.816 446.963H595.917L640.387 472.637H662.301L662.427 472.565L716.843 441.148L731.117 449.39L669.631 484.891H626.264L590.484 464.233L498.656 464.235C498.478 463.709 498.037 463.207 497.331 462.799C495.44 461.708 492.373 461.708 490.483 462.799C488.592 463.89 488.592 465.661 490.483 466.754C492.373 467.846 495.44 467.846 497.333 466.754C498.037 466.346 498.478 465.845 498.658 465.32L590.193 465.318L624.092 484.891H494.697L494.573 484.963L371.262 556.157C369.37 555.365 366.715 555.454 365.01 556.439C363.119 557.531 363.119 559.301 365.01 560.395C366.9 561.486 369.967 561.486 371.858 560.395C373.563 559.41 373.715 557.879 372.347 556.786L494.99 485.976H669.923L670.049 485.905L732.205 450.018L748.424 459.382L662.682 508.887H511.706L511.582 508.958L379.375 585.288L225.334 585.29L135.5 533.423C136.868 532.329 136.715 530.799 135.01 529.814C133.12 528.722 130.053 528.722 128.161 529.814C126.27 530.905 126.27 532.676 128.161 533.769C129.865 534.754 132.518 534.841 134.413 534.051L225.042 586.376L379.666 586.374L379.791 586.302L511.996 509.972H621.972L460.489 603.204L460.487 627.748L396.071 664.939C394.178 664.147 391.525 664.236 389.82 665.221C387.93 666.312 387.93 668.083 389.82 669.176C391.711 670.268 394.778 670.268 396.67 669.176C398.377 668.191 398.528 666.659 397.158 665.565L461.572 628.377L461.574 603.833L624.145 509.974H661.891L580.6 556.91V567.254L541.7 589.714C539.808 588.922 537.153 589.009 535.448 589.996C533.556 591.087 533.556 592.858 535.448 593.949C537.339 595.043 540.406 595.041 542.296 593.949C544.001 592.964 544.154 591.434 542.784 590.341L563.962 578.113V606.461L441.601 677.106C439.707 676.314 437.054 676.403 435.349 677.386C433.459 678.478 433.459 680.248 435.349 681.342C437.24 682.433 440.306 682.433 442.199 681.342C443.904 680.357 444.057 678.824 442.687 677.733L565.046 607.088V577.488L581.681 567.885V557.54L663.642 510.22L663.371 509.75L749.509 460.017L765.167 469.057L676.68 520.15L676.678 604.207L513.929 698.17H516.1L650.848 620.376L650.846 696.398L647.775 698.17H649.946L651.929 697.025L651.931 619.749L677.763 604.836L677.765 520.779L766.255 469.69L780.042 477.65L711.808 517.045V563.127L712.079 563.283L789.661 608.073V623.698L745.786 649.029C743.894 648.238 741.241 648.327 739.536 649.312C737.646 650.403 737.644 652.173 739.536 653.265C741.427 654.356 744.494 654.356 746.386 653.265C748.091 652.28 748.244 650.749 746.874 649.656L790.748 624.327V607.446L790.477 607.289L712.895 562.5V517.674L764.451 487.91L764.449 507.105L740.813 520.75C738.921 519.959 736.268 520.048 734.561 521.033C732.671 522.124 732.671 523.895 734.561 524.988C736.452 526.079 739.519 526.079 741.411 524.988C743.116 524.003 743.269 522.472 741.901 521.379L765.535 507.734V487.285L781.129 478.281L799.568 488.925L799.566 522.358L764.786 542.438V565.551L765.057 565.708L838.271 607.978C836.902 609.071 837.054 610.602 838.759 611.587C840.65 612.678 843.717 612.678 845.607 611.587C847.499 610.495 847.499 608.725 845.607 607.634C843.902 606.649 841.249 606.562 839.355 607.351L765.868 564.924V543.065L799.562 523.612V546.656L844.626 572.676C843.256 573.769 843.411 575.302 845.116 576.285C847.006 577.378 850.073 577.376 851.964 576.285C853.854 575.193 853.854 573.423 851.964 572.332C850.257 571.347 847.604 571.258 845.712 572.049L800.646 546.029L800.647 489.554L813.598 497.031L813.869 496.876L834.938 484.713L854.264 495.872V522.989L905.631 552.645V578.206C904.578 578.274 903.556 578.529 902.749 578.996C900.859 580.087 900.859 581.859 902.749 582.951C904.642 584.042 907.707 584.042 909.599 582.951C911.49 581.859 911.492 580.089 909.599 578.996C908.792 578.529 907.769 578.276 906.716 578.206V552.018L855.35 522.362L855.352 496.499L938.51 544.51L938.508 595.403L893.407 621.442H852.018L851.892 621.513L780.874 662.518C778.981 661.727 776.326 661.815 774.622 662.8C772.731 663.894 772.731 665.662 774.622 666.756C776.512 667.847 779.579 667.847 781.472 666.756C783.176 665.771 783.329 664.24 781.961 663.147L852.31 622.529H891.526L761.059 697.855C759.167 697.063 756.512 697.152 754.807 698.137C754.782 698.153 754.765 698.17 754.742 698.184H762.663L939.592 596.033L939.594 543.887L939.323 543.73L836.025 484.092L856.813 472.089L1033.18 573.914V634.671L1093.42 669.457C1092.05 670.55 1092.21 672.081 1093.91 673.066C1095.8 674.157 1098.87 674.157 1100.76 673.066C1102.65 671.974 1102.65 670.204 1100.76 669.11C1099.06 668.125 1096.4 668.038 1094.51 668.83L1034.26 634.044V573.287L1033.99 573.131L857.898 471.464L877.689 460.036L1052.1 560.733H1156.11L1161 563.55V562.299L1156.41 559.648H1052.39L905.164 474.643H934.776L985.026 503.655L1023.73 503.653L1023.86 503.581L1077.54 472.588C1079.43 473.38 1082.08 473.291 1083.79 472.306C1085.68 471.214 1085.68 469.444 1083.79 468.351C1081.9 467.259 1078.83 467.259 1076.94 468.351C1075.24 469.336 1075.08 470.866 1076.45 471.959L1023.44 502.567L985.314 502.569L935.064 473.558H903.284L878.775 459.407L931.606 428.904L946.629 437.576L946.627 460.344L984.791 482.377C983.421 483.471 983.574 485.001 985.281 485.986C987.173 487.079 990.238 487.079 992.131 485.986C994.021 484.895 994.021 483.124 992.131 482.033C990.426 481.048 987.771 480.961 985.879 481.75L947.715 459.717V438.203L988.414 461.7H1007.69L1007.81 461.628L1030.79 448.364C1032.68 449.153 1035.34 449.066 1037.04 448.081C1038.93 446.99 1038.93 445.22 1037.04 444.126C1035.15 443.035 1032.08 443.035 1030.19 444.126C1028.49 445.111 1028.33 446.644 1029.7 447.737L1007.39 460.616H988.704L932.692 428.277L942.866 422.402L942.053 421.932L910.393 403.654L925.598 394.875H948.591L965.045 404.376C963.735 405.467 963.911 406.971 965.592 407.942C967.483 409.033 970.55 409.033 972.442 407.942C974.333 406.851 974.333 405.08 972.442 403.989C970.714 402.99 968.015 402.917 966.117 403.741L948.882 393.789H927.475L966.25 371.403L1057.49 424.08H1123.14L1123.27 424.008L1160.23 402.667C1160.47 402.766 1160.74 402.808 1160.99 402.88V397.89C1160.5 398.023 1160.04 398.197 1159.63 398.431C1157.93 399.416 1157.77 400.947 1159.14 402.04L1122.85 422.996H1057.79L987.421 382.371L1017.54 382.369L1046.98 399.368C1045.61 400.461 1045.76 401.992 1047.47 402.977C1049.36 404.068 1052.42 404.068 1054.32 402.977C1056.21 401.885 1056.21 400.115 1054.32 399.023C1052.61 398.039 1049.96 397.95 1048.07 398.741L1017.83 381.285L985.546 381.287L967.345 370.78L1013.67 344.037L1161 344.017V342.932L1015.54 342.934L1033.92 332.326L1143.5 332.324L1143.63 332.253L1161 322.222V320.97L1143.21 331.241L1033.62 331.243L1033.5 331.314L909.311 403.013L895.524 395.055L1026.09 319.675L1121.57 319.673L1121.7 319.602L1161 296.91V295.656L1121.28 318.586L1025.8 318.588L1025.67 318.659L894.437 394.426L878.779 385.386L1133.41 238.37L1133.42 185.046L1161 169.123V167.871ZM940.701 422.391L813.598 495.773L686.502 422.392L813.602 349.012L940.701 422.391Z" fill="#A33F3F"/>
<defs>
<radialGradient id="paint0_radial_461_1068" cx="0" cy="0" r="1" gradientUnits="userSpaceOnUse" gradientTransform="translate(1186.15 105.275) rotate(180) scale(850.125 850.125)">
<stop stop-color="#FF2C30"/>
<stop offset="0.0301" stop-color="#F62F32"/>
<stop offset="0.2023" stop-color="#C63E40"/>
<stop offset="0.3737" stop-color="#BE4B4D"/>
<stop offset="0.5413" stop-color="#C95456"/>
<stop offset="0.7039" stop-color="#4D1E1F"/>
<stop offset="0.8594" stop-color="#3F1B1B"/>
<stop offset="1" stop-color="#552323"/>
</radialGradient>
</defs>
</svg>
