<svg width="572" height="615" viewBox="0 0 572 615" fill="none" xmlns="http://www.w3.org/2000/svg">
<g opacity="0.67">
<path d="M325.78 555.259L88.8281 418.455L325.774 281.654L562.726 418.459L325.78 555.259Z" fill="#0F054C"/>
</g>
<path d="M325.78 555.768C325.691 555.768 325.604 555.745 325.525 555.7L88.5728 418.896C88.416 418.803 88.3174 418.635 88.3174 418.455C88.3174 418.273 88.416 418.104 88.5728 418.012L325.517 281.211C325.676 281.12 325.869 281.12 326.028 281.211L562.98 418.015C563.137 418.108 563.235 418.277 563.235 418.457C563.235 418.638 563.137 418.807 562.98 418.898L326.036 555.698C325.956 555.745 325.869 555.768 325.78 555.768ZM89.8499 418.453L325.782 554.669L561.707 418.455L325.774 282.239L89.8499 418.453Z" fill="#A33F3F"/>
<g opacity="0.67">
<path d="M325.78 534.042L125.576 418.455L325.774 302.87L525.979 418.459L325.78 534.042Z" fill="#0F054C"/>
</g>
<g opacity="0.9">
<path d="M325.778 509.39L168.273 418.455L325.774 327.522L483.281 418.457L325.778 509.39Z" fill="#080344"/>
</g>
<path d="M418.062 446.832C416.669 446.832 415.368 446.524 414.401 445.967L265.731 360.132C264.57 359.461 263.932 358.478 263.932 357.365C263.932 356.113 264.773 354.908 266.238 354.062L278.924 346.738C281.378 345.324 284.996 345.196 287.159 346.444L435.831 432.279C436.99 432.952 437.627 433.931 437.627 435.046C437.627 436.298 436.785 437.503 435.322 438.349L422.636 445.675C421.342 446.422 419.716 446.832 418.062 446.832ZM283.504 346.591C282.095 346.591 280.617 346.941 279.435 347.623L266.749 354.947C265.605 355.604 264.951 356.487 264.951 357.365C264.951 358.099 265.408 358.768 266.24 359.248L414.91 445.083C416.7 446.116 420.057 445.982 422.125 444.79L434.811 437.465C435.953 436.807 436.607 435.924 436.607 435.046C436.607 434.312 436.152 433.643 435.322 433.161L286.65 347.329C285.795 346.833 284.675 346.591 283.504 346.591Z" fill="#A33F3F"/>
<path opacity="0.2" d="M318.51 321.382L455.237 400.322C457.294 401.51 458.96 400.248 458.96 397.508V86.5003C458.96 83.7584 457.294 80.5753 455.237 79.3872L318.51 0.447119C316.453 -0.740969 314.787 0.520646 314.787 3.2606V314.267C314.789 317.011 316.455 320.196 318.51 321.382Z" fill="url(#paint0_linear_461_1069)"/>
<path opacity="0.4" d="M310.125 326.543L446.852 405.483C448.909 406.669 450.575 405.409 450.575 402.669V91.6611C450.575 88.9192 448.909 85.7342 446.852 84.548L310.125 5.60792C308.068 4.42177 306.402 5.68145 306.402 8.4214V319.428C306.402 322.171 308.07 325.355 310.125 326.543Z" fill="url(#paint1_linear_461_1069)"/>
<path opacity="0.6" d="M301.742 331.703L438.468 410.643C440.525 411.83 442.191 410.57 442.191 407.83V96.8217C442.191 94.0799 440.525 90.8948 438.468 89.7087L301.742 10.7686C299.685 9.58241 298.019 10.8421 298.019 13.582V324.588C298.019 327.33 299.685 330.515 301.742 331.703Z" fill="url(#paint2_linear_461_1069)"/>
<path d="M273.711 25.697L289.588 16.556L289.59 16.5831C290.232 16.2484 291.045 16.2755 291.942 16.794L428.669 95.7342C430.726 96.9203 432.392 100.105 432.392 102.847V413.853C432.392 415.365 431.876 416.402 431.076 416.851L431.1 416.864L415.235 426.001L414.884 408.708L291.942 337.729C289.886 336.543 288.22 333.358 288.22 330.616V33.8607C287.9 34.8688 287.656 35.6041 287.622 35.6274C287.506 35.7067 273.711 25.697 273.711 25.697Z" fill="url(#paint3_linear_461_1069)"/>
<path d="M432.298 101.704L390.985 125.556L384.747 121.954L429.337 96.2103C430.806 97.412 431.971 99.585 432.298 101.704Z" fill="url(#paint4_linear_461_1069)"/>
<path d="M276.17 346.814L412.897 425.754C414.954 426.94 416.62 425.68 416.62 422.94V111.934C416.62 109.192 414.954 106.007 412.897 104.821L276.17 25.8807C274.113 24.6946 272.447 25.9543 272.447 28.6942V339.7C272.447 342.442 274.113 345.627 276.17 346.814Z" fill="url(#paint5_linear_461_1069)"/>
<path d="M272.447 322.678L416.62 405.916V128.956L272.447 45.7184V322.678Z" fill="#24126A"/>
<path d="M272.447 322.678L416.62 405.916V128.956L272.447 45.7184V322.678Z" fill="#24126A"/>
<g opacity="0.51">
<path d="M272.447 321.479L416.62 404.718V130.195L272.447 46.9568V321.479Z" fill="#453C9E"/>
</g>
<path d="M333.303 72.8742L359.383 87.9846C360.145 88.4238 360.792 88.5554 361.074 87.8394C361.169 87.5976 361.221 87.3034 361.221 86.9609C361.221 85.6045 360.397 84.0275 359.379 83.4392L333.022 68.2224C332.943 68.176 332.868 68.085 332.788 68.1063C331.958 68.3385 331.821 68.4991 331.821 69.7511L331.939 70.1033C331.935 71.4597 332.285 72.2879 333.303 72.8742Z" fill="#5761D7"/>
<path d="M332.782 68.1177C332.689 68.3577 332.637 68.6518 332.637 68.9924C332.637 70.3488 333.462 71.9258 334.479 72.514L360.836 87.7309C360.917 87.7773 360.997 87.8044 361.076 87.8373C360.795 88.5552 360.141 88.7971 359.379 88.3559L333.022 73.1391C332.004 72.5508 331.18 70.9757 331.18 69.6174C331.178 68.3693 331.879 67.754 332.782 68.1177Z" fill="#BCBEFF"/>
<path d="M425.032 137.747L425.33 137.574C425.813 137.296 426.251 137.28 426.597 137.462V137.447L427.715 138.091L427.168 138.135C427.27 138.397 427.327 138.714 427.327 139.084V157.093C427.327 158.563 426.433 160.272 425.33 160.908L425.032 161.081C424.892 161.162 424.757 161.22 424.625 161.259L424.912 161.864L423.72 161.181L423.741 161.179C423.313 160.937 423.035 160.382 423.035 159.571V141.562C423.035 140.092 423.929 138.383 425.032 137.747Z" fill="#E9E9FD"/>
<path d="M426.165 161.733L426.463 161.56C427.566 160.924 428.46 159.215 428.46 157.745V139.736C428.46 138.265 427.566 137.59 426.463 138.226L426.165 138.399C425.062 139.035 424.168 140.744 424.168 142.214V160.223C424.168 161.694 425.062 162.369 426.165 161.733Z" fill="#BCBEFF"/>
<path d="M425.032 165.233L425.33 165.061C425.813 164.782 426.251 164.767 426.597 164.949V164.933L427.715 165.578L427.168 165.622C427.27 165.883 427.327 166.203 427.327 166.57V184.579C427.327 186.05 426.433 187.759 425.33 188.395L425.032 188.567C424.892 188.649 424.757 188.707 424.625 188.746L424.912 189.351L423.72 188.668L423.741 188.666C423.313 188.424 423.035 187.869 423.035 187.058V169.049C423.035 167.579 423.929 165.87 425.032 165.233Z" fill="#E9E9FD"/>
<path d="M426.165 189.219L426.463 189.047C427.566 188.411 428.46 186.702 428.46 185.231V167.222C428.46 165.752 427.566 165.077 426.463 165.713L426.165 165.885C425.062 166.522 424.168 168.231 424.168 169.701V187.71C424.168 189.181 425.062 189.856 426.165 189.219Z" fill="#BCBEFF"/>
<path opacity="0.67" d="M185.701 342.297C213.176 342.297 235.448 329.438 235.448 313.576C235.448 297.714 213.176 284.855 185.701 284.855C158.227 284.855 135.955 297.714 135.955 313.576C135.955 329.438 158.227 342.297 185.701 342.297Z" fill="#0F054C"/>
<path d="M185.703 342.787C172.871 342.787 160.04 339.967 150.27 334.327C140.711 328.808 135.446 321.438 135.446 313.576C135.444 305.714 140.711 298.345 150.27 292.823C169.806 281.546 201.592 281.546 221.131 292.823C230.692 298.345 235.957 305.714 235.957 313.576C235.957 321.438 230.692 328.806 221.133 334.329C211.365 339.967 198.534 342.787 185.703 342.787ZM185.7 285.369C173.052 285.369 160.407 288.148 150.781 293.709C141.549 299.038 136.466 306.095 136.466 313.578C136.466 321.06 141.551 328.115 150.781 333.444C170.038 344.565 201.371 344.563 220.624 333.446C229.858 328.117 234.939 321.062 234.939 313.578C234.939 306.095 229.854 299.038 220.622 293.709C210.992 288.148 198.347 285.369 185.7 285.369Z" fill="#A33F3F"/>
<path d="M169.751 288.615C169.751 288.615 168.635 289.779 167.476 291.149C166.317 292.521 163.06 294.429 161.692 295.279C160.324 296.128 154.054 300.879 152.745 305.557C151.435 310.236 155.914 310.855 160.496 310.043C165.078 309.23 169.358 305.002 170.606 303.477C171.855 301.951 176.189 298.487 181.812 295.577C187.435 292.666 184.035 288.754 184.035 288.754L169.751 288.615Z" fill="#160A5B"/>
<path d="M211.499 302.512C211.499 302.512 212.426 304.615 212.689 307.322C212.952 310.027 213.331 315.894 213.471 317.61C213.61 319.327 213.666 323.526 210.647 327.547C207.627 331.568 206.067 333.154 202.054 331.573C198.041 329.992 198.132 323.255 198.842 319.789C199.552 316.324 200.212 308.57 200.138 307.757C200.065 306.945 200.369 306.424 200.369 306.424L211.499 302.512Z" fill="#160A5B"/>
<path d="M155.898 209.127C155.898 209.127 156.744 240.023 163.944 256.422C163.944 256.422 169.101 270.865 169.782 288.045C169.782 288.045 168.592 291.004 170.279 293.409C171.969 295.814 182.539 298.017 184.285 290.116C186.032 282.215 185.361 267.434 183.441 261.269C181.522 255.104 184.124 238.113 184.124 238.113C184.124 238.113 187.013 239.959 190.802 252.165C194.589 264.371 197.375 269.028 198.679 272.399C199.982 275.772 201.179 296.459 200.355 306.56C200.355 306.56 208.915 307.775 211.39 303.684C213.865 299.592 214.693 278.423 214.064 271.673C213.438 264.924 210.614 243.304 211.003 236.615C211.392 229.924 212.785 224.492 211.255 217.811C209.724 211.129 164.556 196.284 164.556 196.284L155.898 209.127Z" fill="#24126A"/>
<path d="M211.003 236.616C211.392 229.924 212.785 224.493 211.255 217.811C210.68 215.3 203.937 211.635 195.746 208.038C181.922 206.776 164.389 205.311 163.182 205.495C162.09 205.661 159.232 206.747 156.864 207.697L155.898 209.129C155.898 209.129 155.951 211.008 156.135 214.077C159.358 215.042 165.562 214.046 165.562 214.046C166.434 216.215 171.821 223.918 178.522 227.244C185.221 230.571 204.827 229.429 205.953 230.693C207.079 231.956 207.296 248.87 207.172 251.022C207.048 253.171 209.02 266.713 210.843 278.684C212.636 290.465 209.906 304.778 209.817 305.238C210.45 304.832 211.001 304.333 211.39 303.688C213.865 299.596 214.693 278.427 214.064 271.678C213.438 264.925 210.616 243.305 211.003 236.616Z" fill="#160A5B"/>
<path d="M171.019 108.075C171.019 108.075 160.998 110.361 157.627 111.152C157.068 111.284 156.617 111.676 156.406 112.21C155.433 114.674 152.993 122.331 154.831 133.507C157.091 147.244 156.375 156.491 156.375 156.491L151.739 180.615C151.739 180.615 145.911 203.591 146.414 204.22C146.917 204.848 159.833 214.676 163.867 213.293C167.904 211.909 166.578 209.624 166.578 209.624C166.578 209.624 169.848 226.275 184.322 226.116C198.796 225.955 210.621 226.002 213.076 220.15C215.534 214.299 212.405 189.705 209.852 179.968C207.3 170.231 201.234 150.819 201.234 150.819L222.432 127.356L204.315 113.519C204.315 113.519 199.986 105.477 198.208 104.453C196.429 103.431 195.501 104.296 195.501 104.296L171.019 108.075Z" fill="#453C9E"/>
<path d="M164.116 207.991C164.13 208.827 163.642 210.071 161.04 210.963C158.23 211.927 151.343 207.741 146.829 204.589C149.083 206.462 160.177 214.56 163.869 213.295C164.67 213.02 165.254 212.708 165.686 212.387C164.857 210.535 164.366 208.933 164.116 207.991Z" fill="#5761D7"/>
<path d="M212.97 218.202C210.377 224.376 197.898 224.328 182.625 224.496C178.739 224.539 175.622 223.43 173.13 221.758C175.773 224.278 179.397 226.172 184.322 226.118C198.796 225.959 210.62 226.004 213.076 220.154C213.883 218.233 214.084 214.287 213.904 209.516C213.941 213.391 213.674 216.526 212.97 218.202Z" fill="#5761D7"/>
<path d="M197.816 104.256C197.816 104.256 201.516 108.733 196.191 114.778C192.913 118.499 187.275 126.522 182.468 134.854C179.467 140.057 176.692 142.832 175.119 147.304C175.119 147.304 174.9 141.992 174.687 133.79C174.488 126.05 174.384 118.006 174.73 115.98C175.446 111.808 193.726 102.228 197.816 104.256Z" fill="#F0F6FF"/>
<path d="M183.974 117.725C183.974 117.725 182.077 118.904 181.423 118.807C180.769 118.71 178.67 116.669 178.67 116.669C178.67 116.669 173.416 116.574 172.841 114.324C172.269 112.073 171.889 109.804 171.359 108.635C170.827 107.466 168.561 101.851 168.544 99.5714C168.526 97.2939 168.612 93.2226 167.629 91.067C166.646 88.9115 165.318 67.3479 186.139 67.9574C206.961 68.565 200.493 90.1866 200.493 90.1866C200.493 90.1866 202.013 90.8348 201.092 93.6174C200.171 96.3999 199.966 96.6882 199.496 98.0698C199.026 99.4514 198.796 100.338 197.472 101.458L197.128 104.022C197.128 104.022 198.116 107.938 195.527 111.742C192.94 115.549 183.974 117.725 183.974 117.725Z" fill="#FCD1C5"/>
<path d="M157.054 111.402C157.054 111.402 154.834 111.733 147.63 129.854C143.611 139.966 137.406 150.438 136.092 157.954C134.776 165.469 135.51 173.504 136.996 174.069C138.426 174.612 164.31 184.299 172.41 187.356C172.857 187.525 173.345 187.244 173.428 186.774L175.661 174.274L159.598 168.068C159.598 168.068 156.539 164.33 153.664 162.927C153.664 162.927 156.884 156.992 156.678 155.373C156.473 153.753 156.965 136.99 155.082 130.167C153.201 123.345 157.054 111.402 157.054 111.402Z" fill="#281B77"/>
<path d="M166.46 159.295C166.46 159.295 164.248 157.809 163.7 157.596C163.153 157.385 160.196 156.373 159.631 156.121C159.213 155.934 157.489 156.079 156.626 156.164C156.313 156.195 156.04 156.377 155.891 156.653C155.208 157.921 153.304 161.611 153.517 163.02C153.517 163.02 158.865 166.398 159.461 167.905L160.314 168.089C160.314 168.089 163.898 160.403 166.46 159.295Z" fill="#FCD1C5"/>
<path d="M209.852 179.97C209.239 177.627 208.42 174.723 207.532 171.665L175.003 185.609C175.003 185.609 184.74 197.583 201.807 196.815C206.474 196.604 209.877 194.92 212.375 193.475C211.623 188.15 210.706 183.227 209.852 179.97Z" fill="#24126A"/>
<path d="M222.433 127.358C222.433 127.358 213.854 128.538 206.924 139.525C199.995 150.51 194.943 163.223 194.943 163.223L194.705 164.653C194.08 168.389 190.1 170.531 186.642 168.985C179.324 165.717 168.484 160.777 166.464 159.293C166.464 159.293 159.981 162.877 158.213 171.34C156.802 178.091 157.16 178.111 157.16 178.111C157.16 178.111 186.046 191.592 197.201 191.46C208.356 191.329 222.511 154.649 224.069 147.068C225.624 139.49 227.343 129.5 222.433 127.358Z" fill="#24126A"/>
<path d="M222.433 127.358C222.433 127.358 213.854 128.538 206.924 139.525C199.995 150.51 194.943 163.223 194.943 163.223L194.705 164.653C194.08 168.389 190.1 170.531 186.642 168.985C179.324 165.717 168.484 160.777 166.464 159.293C166.464 159.293 159.981 162.877 158.213 171.34C156.802 178.091 157.16 178.111 157.16 178.111C157.16 178.111 186.046 191.592 197.201 191.46C208.356 191.329 222.511 154.649 224.069 147.068C225.624 139.49 227.343 129.5 222.433 127.358Z" fill="#4846A5"/>
<path d="M190.787 170.694C190.787 170.694 194.43 174.101 196.017 172.236C197.604 170.371 197.135 170.164 197.135 170.164C197.135 170.164 200.413 170.135 200.812 168.08C201.21 166.025 202.826 167.112 202.919 164.823C203.012 162.534 200.266 163.004 200.266 163.004L190.787 170.694Z" fill="#453C9E"/>
<path d="M186.383 168.871C186.383 168.871 187.385 167.939 188.678 166.845C189.97 165.752 192.06 161.228 192.412 160.829C192.764 160.431 197.124 157.087 199.225 157.029C201.327 156.971 199.767 159.324 199.283 159.655C198.8 159.986 196.749 161.005 196.749 161.005C196.749 161.005 194.638 162.778 194.398 163.037C194.158 163.296 200.266 162.617 201.236 163.213C202.205 163.809 201.979 165.369 201.296 165.795C200.611 166.218 200.088 166.205 200.088 166.205C200.088 166.205 200.775 168.043 198.943 168.896C197.11 169.75 196.689 169.276 196.689 169.276C196.689 169.276 196.532 172.451 193.506 171.822L186.383 168.871Z" fill="#FCD1C5"/>
<path d="M167.16 80.0412C167.16 80.0412 164.442 88.6946 171.595 86.2313C178.749 83.7681 185.224 79.6504 187.468 81.2177C189.179 82.4116 189.099 86.0746 188.966 87.7541C188.919 88.3269 189.07 88.8939 189.395 89.3679L191.516 92.4504C191.756 92.7987 191.897 93.2031 191.926 93.6249L192.077 95.7689C192.116 96.3088 192.547 96.7364 193.087 96.7674L193.577 96.7964C194.123 96.8274 194.604 96.4462 194.699 95.9082L195.251 92.7581C195.251 92.7581 196.934 88.5204 200.494 90.1845C200.494 90.1845 202.875 86.986 202.083 80.1477C201.292 73.3094 198.229 66.1983 184.809 65.0605C171.39 63.9247 167.16 80.0412 167.16 80.0412Z" fill="#AA8383"/>
<path d="M187.668 125.343L185.661 123.786C185.661 123.786 183.804 125.33 183.08 126.965C182.356 128.602 183.082 133.803 183.082 133.803L182.47 134.856L181.718 133.48L181.081 127.331C181.081 127.331 181.764 122.785 181.832 122.669C181.898 122.553 185.704 123.074 185.704 123.074C185.704 123.074 187.021 124.076 187.668 125.343Z" fill="#C4CCD6"/>
<path d="M178.014 119.221C178.014 119.221 175.868 119.364 174.902 120.167C174.902 120.167 177.153 120.278 177.511 120.318C177.867 120.359 178.014 119.221 178.014 119.221Z" fill="#C4CCD6"/>
<path d="M182.1 119.705L185.702 123.07C185.702 123.07 182.54 124.525 181.657 127.35C181.657 127.35 177.739 128.081 177.383 126.663C177.025 125.245 177.393 121.669 176.924 120.084C176.458 118.499 182.1 119.705 182.1 119.705Z" fill="#24126A"/>
<path d="M177.526 126.582C177.526 126.582 176.857 129.529 176.125 130.746C175.394 131.963 174.645 133.325 174.645 133.325L174.734 150.603C174.734 150.603 181.089 137.505 182.468 134.852C182.468 134.852 182.257 128.542 181.657 127.35C181.058 126.158 177.526 126.582 177.526 126.582Z" fill="#24126A"/>
<path d="M194.591 101.051C190.417 113.097 178.672 116.671 178.672 116.671C178.672 116.671 180.771 118.71 181.425 118.809C182.079 118.908 183.976 117.727 183.976 117.727C183.976 117.727 192.942 115.55 195.53 111.744C198.117 107.938 197.13 104.022 197.13 104.022L197.474 101.458C195.611 102.069 194.591 101.051 194.591 101.051Z" fill="#E2B1A6"/>
<path d="M204.142 115.15C204.142 115.15 202.494 120.835 202.283 121.05C202.07 121.264 198.142 120.81 198.142 120.81L200.05 124.424C200.05 124.424 180.28 145.624 176.184 157.029C176.184 157.029 185.537 142.574 202.002 125.312L199.673 121.787L203.713 122.576L204.142 115.15Z" fill="#24126A"/>
<path d="M171.669 110.13L170.62 111.328L171.853 112.477L168.197 115.782C168.197 115.782 167.079 138.971 171.543 154.335C171.543 154.335 165.483 140.245 166.858 115.152L170.814 112.47L169.519 111.196L171.669 110.13Z" fill="#24126A"/>
<path d="M184.126 238.113C184.126 238.113 184.172 238.144 184.261 238.221L179.141 232.77C181.506 236.104 178.782 251.37 178.499 254.864C178.217 258.359 181.233 265.576 182.363 274.032C183.491 282.477 181.179 294.532 181.173 294.568C182.638 293.721 183.803 292.308 184.287 290.118C186.034 282.217 185.362 267.436 183.443 261.271C181.521 255.104 184.126 238.113 184.126 238.113Z" fill="#160A5B"/>
<path d="M197.199 191.464C208.354 191.332 222.509 154.653 224.067 147.071C224.326 145.808 224.589 144.473 224.827 143.122C224.786 143.232 221.897 151.152 219.109 158.172C216.301 165.243 201.394 186.673 193.776 188.068C186.905 189.328 162.193 177.791 157.408 175.514C156.974 178.089 157.16 178.114 157.16 178.114C157.16 178.114 186.044 191.596 197.199 191.464Z" fill="#5761D7"/>
<path d="M193.577 96.7964C194.123 96.8274 194.605 96.4462 194.699 95.9083L195.251 92.7581C195.251 92.7581 196.934 88.5205 200.495 90.1846C200.495 90.1846 202.739 87.1466 202.134 80.6837C198.177 86.6242 189.397 89.368 189.397 89.368L191.518 92.4504C191.758 92.7987 191.899 93.2032 191.928 93.625L192.079 95.769C192.118 96.3088 192.55 96.7365 193.089 96.7674L193.577 96.7964Z" fill="#936D6D"/>
<path d="M308.324 490.361C307.467 490.361 306.643 490.183 306.016 489.821L197.145 426.967C196.456 426.568 196.075 425.992 196.075 425.343C196.075 424.6 196.59 423.877 197.486 423.36L220.11 410.297C221.673 409.393 223.968 409.31 225.336 410.101L334.207 472.956C334.898 473.355 335.277 473.931 335.277 474.579C335.277 475.322 334.762 476.046 333.866 476.563L311.242 489.626C310.395 490.114 309.334 490.361 308.324 490.361ZM223.039 410.581C222.198 410.581 221.304 410.784 220.621 411.179L197.997 424.242C197.434 424.567 197.095 424.98 197.095 425.341C197.095 425.686 197.401 425.934 197.656 426.081L306.527 488.935C307.572 489.541 309.501 489.454 310.733 488.74L333.357 475.677C333.92 475.351 334.259 474.939 334.259 474.577C334.259 474.233 333.953 473.985 333.698 473.838L224.827 410.984C224.359 410.713 223.717 410.581 223.039 410.581Z" fill="#A33F3F"/>
<path d="M241.124 373.449C243.986 375.101 246.693 377.429 249.102 380.179C252.445 369.438 262.645 366.105 274.713 373.073C284.698 378.838 293.398 390.175 298.001 402.187C299.528 402.236 301.227 402.739 303.024 403.778C309.539 407.54 314.82 416.688 314.82 424.21C314.82 424.372 314.805 424.519 314.799 424.678C316.656 424.806 318.711 425.463 320.871 426.71C329.203 431.52 335.958 443.221 335.958 452.842C335.958 462.463 329.203 466.363 320.871 461.553L241.12 415.508C231.062 409.701 222.908 395.577 222.908 383.964C222.912 372.35 231.066 367.642 241.124 373.449Z" fill="url(#paint6_linear_461_1069)"/>
<path d="M241.124 373.449C242.784 374.407 244.388 375.597 245.915 376.959L254.833 371.806L254.831 371.808C259.731 368.364 266.822 368.513 274.715 373.07C284.7 378.834 293.4 390.171 298.003 402.184C299.53 402.232 301.229 402.735 303.026 403.774C309.541 407.536 314.822 416.684 314.822 424.206C314.822 424.368 314.807 424.515 314.801 424.674C316.658 424.802 318.713 425.46 320.873 426.706C329.205 431.516 335.96 443.217 335.96 452.838C335.96 457.606 334.298 460.965 331.61 462.557L331.618 462.561L331.548 462.602C331.544 462.604 331.538 462.608 331.535 462.61L309.69 475.29L304.919 452.339L241.12 415.504C231.062 409.697 222.908 395.574 222.908 383.96C222.912 372.35 231.066 367.642 241.124 373.449Z" fill="url(#paint7_radial_461_1069)"/>
<path d="M206.015 385.09L228.148 372.23V372.236C231.451 370.268 236.044 370.515 241.126 373.449C242.786 374.407 244.39 375.597 245.917 376.959L254.835 371.806L254.833 371.808C259.733 368.364 266.824 368.513 274.717 373.07C284.702 378.834 293.402 390.171 298.005 402.184C299.532 402.232 301.231 402.735 303.028 403.774C309.543 407.536 314.824 416.684 314.824 424.206C314.824 424.368 314.808 424.515 314.803 424.674C316.66 424.802 318.715 425.46 320.875 426.706C329.207 431.516 335.962 443.217 335.962 452.838C335.962 457.606 334.3 460.965 331.612 462.557L331.62 462.561L331.55 462.602C331.546 462.604 331.54 462.608 331.536 462.61L309.692 475.29L304.921 452.339L241.122 415.504C232.968 410.796 226.068 400.624 223.747 390.753L206.015 385.09Z" fill="url(#paint8_linear_461_1069)"/>
<path d="M219.21 386.17C222.072 387.822 224.779 390.15 227.188 392.9C230.531 382.158 240.731 378.826 252.799 385.794C262.784 391.559 271.484 402.896 276.087 414.908C277.614 414.957 279.313 415.46 281.112 416.499C287.627 420.26 292.908 429.407 292.908 436.93C292.908 437.093 292.892 437.24 292.887 437.399C294.744 437.526 296.797 438.184 298.959 439.432C307.291 444.243 314.046 455.944 314.046 465.565C314.046 475.185 307.291 479.086 298.959 474.276L219.21 428.227C209.152 422.42 200.998 408.296 200.998 396.683C200.998 385.069 209.152 380.361 219.21 386.17Z" fill="url(#paint9_linear_461_1069)"/>
<path d="M205.551 419.8C205.464 419.8 205.375 419.777 205.294 419.73L163.736 395.517C163.579 395.427 163.482 395.256 163.482 395.074C163.484 394.891 163.583 394.724 163.74 394.635L259.354 340.055C259.514 339.964 259.708 339.962 259.865 340.057L275.368 349.089C275.612 349.23 275.693 349.542 275.552 349.786C275.408 350.028 275.097 350.111 274.855 349.97L259.607 341.084L165.015 395.08L205.809 418.848C206.052 418.989 206.134 419.301 205.992 419.544C205.898 419.709 205.727 419.8 205.551 419.8Z" fill="#A33F3F"/>
<path d="M359.782 505.592C359.692 505.592 359.603 505.569 359.524 505.522L321.534 483.386C321.291 483.245 321.209 482.933 321.351 482.689C321.49 482.445 321.801 482.36 322.047 482.505L359.782 504.493L449.467 452.84L429.677 441.311C429.434 441.17 429.352 440.859 429.494 440.615C429.633 440.371 429.944 440.288 430.19 440.431L450.738 452.401C450.895 452.492 450.991 452.66 450.991 452.844C450.991 453.026 450.893 453.194 450.736 453.285L360.033 505.526C359.956 505.569 359.867 505.592 359.782 505.592Z" fill="#A33F3F"/>
<path d="M143.548 526.863C143.383 526.863 143.224 526.778 143.137 526.625C143.006 526.399 143.083 526.108 143.311 525.979L186.955 500.801L204.606 485.125L251.973 457.768C252.201 457.639 252.492 457.714 252.621 457.94C252.753 458.169 252.676 458.459 252.449 458.589L205.16 485.89L187.507 501.565L143.784 526.797C143.71 526.842 143.629 526.863 143.548 526.863Z" fill="#A33F3F"/>
<path d="M135.775 531.37C135.612 531.37 135.452 531.285 135.364 531.134C135.233 530.907 135.31 530.615 135.537 530.485L140.132 527.825C140.357 527.693 140.649 527.769 140.78 527.997C140.912 528.223 140.835 528.516 140.608 528.645L136.013 531.306C135.937 531.348 135.856 531.37 135.775 531.37Z" fill="#A33F3F"/>
<path d="M127.514 536.122C127.352 536.122 127.191 536.037 127.104 535.886C126.973 535.659 127.05 535.369 127.276 535.238L131.872 532.577C132.098 532.445 132.389 532.523 132.52 532.749C132.652 532.976 132.574 533.268 132.348 533.397L127.752 536.058C127.675 536.101 127.596 536.122 127.514 536.122Z" fill="#A33F3F"/>
<path opacity="0.5" d="M308.42 140.345L294.409 132.255V129.179L308.42 137.267V140.345Z" fill="#A33F3F"/>
<path opacity="0.5" d="M315.605 144.492L310.561 141.58V138.503L315.605 141.415V144.492Z" fill="#A33F3F"/>
<path opacity="0.5" d="M321.174 147.708L317.745 145.729V142.652L321.174 144.631V147.708Z" fill="#A33F3F"/>
<path opacity="0.5" d="M302.045 143.691L294.409 139.285V136.208L302.045 140.614V143.691Z" fill="#A33F3F"/>
<path opacity="0.5" d="M313.541 150.328L304.185 144.927V141.851L313.541 147.251V150.328Z" fill="#A33F3F"/>
<path opacity="0.5" d="M319.108 153.544L315.681 151.564V148.488L319.108 150.467V153.544Z" fill="#A33F3F"/>
<path opacity="0.5" d="M324.407 156.603L320.979 154.624V151.547L324.407 153.527V156.603Z" fill="#A33F3F"/>
<path d="M299.934 149.502L294.409 146.313V143.236L299.934 146.425V149.502Z" fill="#A33F3F"/>
<path d="M303.962 151.828L302.074 150.738V147.66L303.962 148.751V151.828Z" fill="#A33F3F"/>
<path opacity="0.5" d="M309.529 155.042L306.103 153.064V149.987L309.529 151.965V155.042Z" fill="#A33F3F"/>
<path opacity="0.5" d="M314.796 165.111L294.409 153.341V150.264L314.796 162.035V165.111Z" fill="#A33F3F"/>
<path opacity="0.5" d="M321.981 169.26L316.938 166.348V163.271L321.981 166.183V169.26Z" fill="#A33F3F"/>
<path opacity="0.5" d="M299.934 163.56L294.409 160.371V157.292L299.934 160.483V163.56Z" fill="#A33F3F"/>
<path opacity="0.5" d="M312.896 171.044L302.074 164.794V161.717L312.896 167.966V171.044Z" fill="#A33F3F"/>
<path opacity="0.5" d="M318.465 174.258L315.036 172.279V169.202L318.465 171.182V174.258Z" fill="#A33F3F"/>
<path opacity="0.5" d="M305.712 173.923L294.409 167.398V164.322L305.712 170.846V173.923Z" fill="#A33F3F"/>
<path d="M316.025 179.877L307.852 175.16V172.083L316.025 176.8V179.877Z" fill="#A33F3F"/>
<path opacity="0.5" d="M323.687 184.303L318.165 181.114V178.037L323.687 181.226V184.303Z" fill="#A33F3F"/>
<path opacity="0.5" d="M298.227 176.63L294.409 174.426V171.35L298.227 173.554V176.63Z" fill="#A33F3F"/>
<path opacity="0.5" d="M305.412 180.779L300.367 177.867V174.79L305.412 177.702V180.779Z" fill="#A33F3F"/>
<path opacity="0.5" d="M315.681 186.708L307.552 182.015V178.939L315.681 183.631V186.708Z" fill="#A33F3F"/>
<path opacity="0.5" d="M306.102 188.206L294.409 181.456V178.38L306.102 185.129V188.206Z" fill="#A33F3F"/>
<path opacity="0.5" d="M319.198 195.767L308.242 189.442V186.365L319.198 192.691V195.767Z" fill="#A33F3F"/>
<path d="M324.765 198.982L321.338 197.004V193.926L324.765 195.905V198.982Z" fill="#A33F3F"/>
<path opacity="0.5" d="M330.11 202.068L326.683 200.088V197.012L330.11 198.991V202.068Z" fill="#A33F3F"/>
<path opacity="0.5" d="M301.416 192.528L294.409 188.484V185.408L301.416 189.452V192.528Z" fill="#A33F3F"/>
<path d="M330.714 153.215L340.428 158.825V155.748L330.714 150.139V153.215Z" fill="#A33F3F"/>
<path opacity="0.5" d="M332.794 161.445L340.427 165.853V162.776L332.794 158.368V161.445Z" fill="#A33F3F"/>
<path opacity="0.5" d="M334.905 169.692L340.427 172.881V169.804L334.905 166.615V169.692Z" fill="#A33F3F"/>
<path opacity="0.5" d="M332.393 175.272L340.427 179.91V176.834L332.393 172.193V175.272Z" fill="#A33F3F"/>
<path opacity="0.5" d="M334.905 183.749L340.427 186.938V183.861L334.905 180.672V183.749Z" fill="#A33F3F"/>
<path opacity="0.5" d="M333.423 189.922L340.428 193.968V190.889L333.423 186.845V189.922Z" fill="#A33F3F"/>
<path opacity="0.5" d="M336.612 198.792L340.428 200.996V197.919L336.612 195.715V198.792Z" fill="#A33F3F"/>
<path opacity="0.5" d="M333.032 203.753L340.427 208.024V204.947L333.032 200.677V203.753Z" fill="#A33F3F"/>
<path opacity="0.5" d="M333.423 211.007L340.428 215.054V211.975L333.423 207.931V211.007Z" fill="#A33F3F"/>
<path opacity="0.5" d="M306.534 195.485L303.556 193.765V190.688L306.534 192.408V195.485Z" fill="#A33F3F"/>
<path opacity="0.5" d="M315.38 200.592L308.674 196.72V193.643L315.38 197.515V200.592Z" fill="#A33F3F"/>
<path opacity="0.5" d="M362.752 171.592L348.74 163.503V160.427L362.752 168.515V171.592Z" fill="#A33F3F"/>
<path opacity="0.5" d="M369.936 175.74L364.892 172.828V169.751L369.936 172.664V175.74Z" fill="#A33F3F"/>
<path d="M375.505 178.954L372.076 176.976V173.9L375.505 175.877V178.954Z" fill="#A33F3F"/>
<path opacity="0.5" d="M356.376 174.939L348.74 170.531V167.454L356.376 171.862V174.939Z" fill="#A33F3F"/>
<path opacity="0.5" d="M367.871 181.576L358.516 176.174V173.097L367.871 178.5V181.576Z" fill="#A33F3F"/>
<path d="M373.439 184.79L370.012 182.813V179.734L373.439 181.714V184.79Z" fill="#A33F3F"/>
<path opacity="0.5" d="M378.738 187.849L375.31 185.872V182.795L378.738 184.773V187.849Z" fill="#A33F3F"/>
<path opacity="0.5" d="M354.265 180.748L348.74 177.559V174.482L354.265 177.671V180.748Z" fill="#A33F3F"/>
<path opacity="0.5" d="M358.293 183.074L356.405 181.984V178.908L358.293 179.997V183.074Z" fill="#A33F3F"/>
<path opacity="0.5" d="M363.86 186.29L360.433 184.31V181.234L363.86 183.213V186.29Z" fill="#A33F3F"/>
<path opacity="0.5" d="M369.127 196.36L348.74 184.589V181.513L369.127 193.283V196.36Z" fill="#A33F3F"/>
<path opacity="0.5" d="M376.312 200.508L371.27 197.596V194.517L376.312 197.432V200.508Z" fill="#A33F3F"/>
<path opacity="0.5" d="M354.265 194.806L348.74 191.617V188.54L354.265 191.729V194.806Z" fill="#A33F3F"/>
<path opacity="0.5" d="M367.227 202.29L356.405 196.042V192.966L367.227 199.214V202.29Z" fill="#A33F3F"/>
<path opacity="0.5" d="M372.796 205.505L369.367 203.527V200.448L372.796 202.428V205.505Z" fill="#A33F3F"/>
<path d="M360.043 205.172L348.74 198.647V195.568L360.043 202.093V205.172Z" fill="#A33F3F"/>
<path opacity="0.5" d="M370.356 211.126L362.183 206.406V203.329L370.356 208.049V211.126Z" fill="#A33F3F"/>
<path opacity="0.5" d="M378.019 215.549L372.496 212.362V209.283L378.019 212.472V215.549Z" fill="#A33F3F"/>
<path opacity="0.5" d="M352.558 207.879L348.74 205.675V202.598L352.558 204.802V207.879Z" fill="#A33F3F"/>
<path opacity="0.5" d="M359.742 212.027L354.698 209.113V206.036L359.742 208.951V212.027Z" fill="#A33F3F"/>
<path d="M370.012 217.954L361.883 213.262V210.185L370.012 214.878V217.954Z" fill="#A33F3F"/>
<path opacity="0.5" d="M360.433 219.454L348.74 212.702V209.626L360.433 216.377V219.454Z" fill="#A33F3F"/>
<path opacity="0.5" d="M373.529 227.014L362.573 220.69V217.612L373.529 223.937V227.014Z" fill="#A33F3F"/>
<path opacity="0.5" d="M379.096 230.23L375.669 228.25V225.174L379.096 227.153V230.23Z" fill="#A33F3F"/>
<path opacity="0.5" d="M384.441 233.314L381.014 231.337V228.258L384.441 230.237V233.314Z" fill="#A33F3F"/>
<path opacity="0.5" d="M355.747 223.776L348.74 219.732V216.654L355.747 220.7V223.776Z" fill="#A33F3F"/>
<path d="M385.044 184.463L394.758 190.071V186.994L385.044 181.385V184.463Z" fill="#A33F3F"/>
<path opacity="0.5" d="M387.125 192.693L394.758 197.099V194.022L387.125 189.616V192.693Z" fill="#A33F3F"/>
<path opacity="0.5" d="M389.235 200.94L394.758 204.129V201.052L389.235 197.863V200.94Z" fill="#A33F3F"/>
<path opacity="0.5" d="M386.724 206.518L394.758 211.157V208.08L386.724 203.442V206.518Z" fill="#A33F3F"/>
<path opacity="0.5" d="M389.235 214.997L394.758 218.186V215.11L389.235 211.921V214.997Z" fill="#A33F3F"/>
<path opacity="0.5" d="M387.753 221.17L394.758 225.214V222.138L387.753 218.094V221.17Z" fill="#A33F3F"/>
<path opacity="0.5" d="M390.94 230.04L394.758 232.242V229.166L390.94 226.962V230.04Z" fill="#A33F3F"/>
<path opacity="0.5" d="M387.362 235.001L394.758 239.272V236.195L387.362 231.925V235.001Z" fill="#A33F3F"/>
<path opacity="0.5" d="M387.753 242.256L394.758 246.3V243.223L387.753 239.179V242.256Z" fill="#A33F3F"/>
<path d="M360.865 226.731L357.887 225.011V221.934L360.865 223.655V226.731Z" fill="#A33F3F"/>
<path opacity="0.5" d="M369.712 231.84L363.005 227.968V224.891L369.712 228.763V231.84Z" fill="#A33F3F"/>
<path opacity="0.5" d="M308.42 203.643L294.409 195.553V192.476L308.42 200.566V203.643Z" fill="#A33F3F"/>
<path opacity="0.5" d="M315.605 207.791L310.561 204.879V201.803L315.605 204.715V207.791Z" fill="#A33F3F"/>
<path opacity="0.5" d="M321.174 211.006L317.745 209.026V205.95L321.174 207.929V211.006Z" fill="#A33F3F"/>
<path opacity="0.5" d="M302.045 206.99L294.409 202.582V199.506L302.045 203.914V206.99Z" fill="#A33F3F"/>
<path opacity="0.5" d="M313.541 213.627L304.185 208.225V205.148L313.541 210.551V213.627Z" fill="#A33F3F"/>
<path opacity="0.5" d="M319.108 216.842L315.681 214.862V211.786L319.108 213.765V216.842Z" fill="#A33F3F"/>
<path opacity="0.5" d="M324.407 219.901L320.979 217.921V214.845L324.407 216.824V219.901Z" fill="#A33F3F"/>
<path opacity="0.5" d="M299.934 212.8L294.409 209.611V206.534L299.934 209.723V212.8Z" fill="#A33F3F"/>
<path opacity="0.5" d="M303.962 215.125L302.074 214.036V210.959L303.962 212.049V215.125Z" fill="#A33F3F"/>
<path opacity="0.5" d="M309.529 218.341L306.103 216.362V213.285L309.529 215.265V218.341Z" fill="#A33F3F"/>
<path opacity="0.5" d="M314.796 228.411L294.409 216.641V213.564L314.796 225.332V228.411Z" fill="#A33F3F"/>
<path opacity="0.5" d="M321.981 232.558L316.938 229.646V226.569L321.981 229.481V232.558Z" fill="#A33F3F"/>
<path opacity="0.5" d="M299.934 226.857L294.409 223.668V220.591L299.934 223.78V226.857Z" fill="#A33F3F"/>
<path opacity="0.5" d="M312.896 234.342L302.074 228.094V225.017L312.896 231.265V234.342Z" fill="#A33F3F"/>
<path opacity="0.5" d="M318.465 237.556L315.036 235.578V232.499L318.465 234.479V237.556Z" fill="#A33F3F"/>
<path opacity="0.5" d="M305.712 237.221L294.409 230.696V227.62L305.712 234.144V237.221Z" fill="#A33F3F"/>
<path opacity="0.5" d="M316.025 243.177L307.852 238.457V235.381L316.025 240.098V243.177Z" fill="#A33F3F"/>
<path opacity="0.5" d="M323.687 247.6L318.165 244.411V241.335L323.687 244.524V247.6Z" fill="#A33F3F"/>
<path opacity="0.5" d="M298.227 239.93L294.409 237.726V234.649L298.227 236.853V239.93Z" fill="#A33F3F"/>
<path opacity="0.5" d="M305.412 244.077L300.367 241.164V238.088L305.412 241V244.077Z" fill="#A33F3F"/>
<path opacity="0.5" d="M315.681 250.005L307.552 245.313V242.236L315.681 246.929V250.005Z" fill="#A33F3F"/>
<path opacity="0.5" d="M306.102 251.505L294.409 244.754V241.677L306.102 248.429V251.505Z" fill="#A33F3F"/>
<path opacity="0.5" d="M319.198 259.065L308.242 252.74V249.663L319.198 255.988V259.065Z" fill="#A33F3F"/>
<path opacity="0.5" d="M324.765 262.281L321.338 260.302V257.225L324.765 259.203V262.281Z" fill="#A33F3F"/>
<path opacity="0.5" d="M330.11 265.365L326.683 263.386V260.309L330.11 262.289V265.365Z" fill="#A33F3F"/>
<path opacity="0.5" d="M301.416 255.828L294.409 251.782V248.705L301.416 252.751V255.828Z" fill="#A33F3F"/>
<path opacity="0.5" d="M330.714 216.513L340.428 222.122V219.045L330.714 213.436V216.513Z" fill="#A33F3F"/>
<path opacity="0.5" d="M332.794 224.744L340.427 229.15V226.074L332.794 221.666V224.744Z" fill="#A33F3F"/>
<path opacity="0.5" d="M334.905 232.991L340.427 236.18V233.103L334.905 229.914V232.991Z" fill="#A33F3F"/>
<path opacity="0.5" d="M332.393 238.57L340.427 243.208V240.131L332.393 235.493V238.57Z" fill="#A33F3F"/>
<path opacity="0.5" d="M334.905 247.047L340.427 250.236V247.159L334.905 243.97V247.047Z" fill="#A33F3F"/>
<path opacity="0.5" d="M333.423 253.222L340.428 257.266V254.189L333.423 250.145V253.222Z" fill="#A33F3F"/>
<path opacity="0.5" d="M336.612 262.09L340.428 264.294V261.217L336.612 259.013V262.09Z" fill="#A33F3F"/>
<path opacity="0.5" d="M333.032 267.053L340.427 271.321V268.245L333.032 263.976V267.053Z" fill="#A33F3F"/>
<path opacity="0.5" d="M333.423 274.307L340.428 278.351V275.274L333.423 271.23V274.307Z" fill="#A33F3F"/>
<path opacity="0.5" d="M306.534 258.783L303.556 257.062V253.986L306.534 255.706V258.783Z" fill="#A33F3F"/>
<path opacity="0.5" d="M315.38 263.891L308.674 260.019V256.942L315.38 260.812V263.891Z" fill="#A33F3F"/>
<path opacity="0.5" d="M320.928 287.533L309.612 281V277.923L320.928 284.456V287.533Z" fill="#A33F3F"/>
<path opacity="0.5" d="M328.678 292.008L324.222 289.435V286.358L328.678 288.932V292.008Z" fill="#A33F3F"/>
<path opacity="0.5" d="M362.752 234.889L348.74 226.801V223.724L362.752 231.813V234.889Z" fill="#A33F3F"/>
<path opacity="0.5" d="M369.936 239.038L364.892 236.126V233.049L369.936 235.961V239.038Z" fill="#A33F3F"/>
<path opacity="0.5" d="M375.505 242.254L372.076 240.274V237.198L375.505 239.177V242.254Z" fill="#A33F3F"/>
<path opacity="0.5" d="M356.376 238.237L348.74 233.829V230.752L356.376 235.16V238.237Z" fill="#A33F3F"/>
<path opacity="0.5" d="M367.871 244.874L358.516 239.473V236.397L367.871 241.797V244.874Z" fill="#A33F3F"/>
<path opacity="0.5" d="M373.439 248.09L370.012 246.11V243.034L373.439 245.013V248.09Z" fill="#A33F3F"/>
<path opacity="0.5" d="M378.738 251.149L375.31 249.17V246.093L378.738 248.073V251.149Z" fill="#A33F3F"/>
<path opacity="0.5" d="M354.265 244.048L348.74 240.859V237.782L354.265 240.971V244.048Z" fill="#A33F3F"/>
<path opacity="0.5" d="M358.293 246.373L356.405 245.282V242.205L358.293 243.297V246.373Z" fill="#A33F3F"/>
<path opacity="0.5" d="M363.86 249.588L360.433 247.61V244.531L363.86 246.511V249.588Z" fill="#A33F3F"/>
<path opacity="0.5" d="M369.127 259.657L348.74 247.887V244.81L369.127 256.581V259.657Z" fill="#A33F3F"/>
<path opacity="0.5" d="M376.312 263.806L371.27 260.894V257.817L376.312 260.729V263.806Z" fill="#A33F3F"/>
<path opacity="0.5" d="M354.265 258.105L348.74 254.914V251.838L354.265 255.027V258.105Z" fill="#A33F3F"/>
<path opacity="0.5" d="M367.227 265.588L356.405 259.34V256.263L367.227 262.511V265.588Z" fill="#A33F3F"/>
<path opacity="0.5" d="M372.796 268.804L369.367 266.825V263.748L372.796 265.727V268.804Z" fill="#A33F3F"/>
<path opacity="0.5" d="M360.043 268.469L348.74 261.944V258.868L360.043 265.392V268.469Z" fill="#A33F3F"/>
<path opacity="0.5" d="M370.356 274.423L362.183 269.704V266.627L370.356 271.347V274.423Z" fill="#A33F3F"/>
<path opacity="0.5" d="M378.019 278.848L372.496 275.66V272.583L378.019 275.772V278.848Z" fill="#A33F3F"/>
<path opacity="0.5" d="M352.558 271.176L348.74 268.973V265.896L352.558 268.1V271.176Z" fill="#A33F3F"/>
<path opacity="0.5" d="M359.742 275.325L354.698 272.413V269.336L359.742 272.248V275.325Z" fill="#A33F3F"/>
<path opacity="0.5" d="M370.012 281.254L361.883 276.561V273.485L370.012 278.177V281.254Z" fill="#A33F3F"/>
<path opacity="0.5" d="M360.433 282.751L348.74 276.002V272.923L360.433 279.675V282.751Z" fill="#A33F3F"/>
<path opacity="0.5" d="M373.529 290.314L362.573 283.988V280.911L373.529 287.237V290.314Z" fill="#A33F3F"/>
<path opacity="0.5" d="M379.096 293.527L375.669 291.548V288.471L379.096 290.451V293.527Z" fill="#A33F3F"/>
<path opacity="0.5" d="M384.441 296.614L381.014 294.634V291.557L384.441 293.535V296.614Z" fill="#A33F3F"/>
<path opacity="0.5" d="M355.747 287.074L348.74 283.03V279.953L355.747 283.998V287.074Z" fill="#A33F3F"/>
<path opacity="0.5" d="M385.044 247.761L394.758 253.368V250.292L385.044 244.684V247.761Z" fill="#A33F3F"/>
<path opacity="0.5" d="M387.125 255.991L394.758 260.399V257.322L387.125 252.914V255.991Z" fill="#A33F3F"/>
<path opacity="0.5" d="M389.235 264.237L394.758 267.426V264.349L389.235 261.161V264.237Z" fill="#A33F3F"/>
<path opacity="0.5" d="M386.724 269.816L394.758 274.456V271.379L386.724 266.739V269.816Z" fill="#A33F3F"/>
<path opacity="0.5" d="M389.235 278.295L394.758 281.484V278.407L389.235 275.219V278.295Z" fill="#A33F3F"/>
<path opacity="0.5" d="M387.753 284.468L394.758 288.512V285.435L387.753 281.391V284.468Z" fill="#A33F3F"/>
<path opacity="0.5" d="M390.94 293.338L394.758 295.542V292.465L390.94 290.261V293.338Z" fill="#A33F3F"/>
<path opacity="0.5" d="M387.362 298.299L394.758 302.57V299.493L387.362 295.223V298.299Z" fill="#A33F3F"/>
<path opacity="0.5" d="M387.753 305.554L394.758 309.598V306.521L387.753 302.477V305.554Z" fill="#A33F3F"/>
<path opacity="0.5" d="M360.865 290.031L357.887 288.311V285.234L360.865 286.953V290.031Z" fill="#A33F3F"/>
<path opacity="0.5" d="M369.712 295.137L363.005 291.265V288.189L369.712 292.061V295.137Z" fill="#A33F3F"/>
<path opacity="0.5" d="M375.259 318.781L363.943 312.247V309.17L375.259 315.705V318.781Z" fill="#A33F3F"/>
<path opacity="0.5" d="M383.009 323.255L378.553 320.681V317.605L383.009 320.178V323.255Z" fill="#A33F3F"/>
<path opacity="0.5" d="M308.42 140.345L294.409 132.255V129.179L308.42 137.267V140.345Z" fill="#A33F3F"/>
<path opacity="0.5" d="M315.605 144.492L310.561 141.58V138.503L315.605 141.415V144.492Z" fill="#A33F3F"/>
<path opacity="0.5" d="M321.174 147.708L317.745 145.729V142.652L321.174 144.631V147.708Z" fill="#A33F3F"/>
<path opacity="0.5" d="M302.045 143.691L294.409 139.285V136.208L302.045 140.614V143.691Z" fill="#A33F3F"/>
<path opacity="0.5" d="M313.541 150.328L304.185 144.927V141.851L313.541 147.251V150.328Z" fill="#A33F3F"/>
<path opacity="0.5" d="M319.108 153.544L315.681 151.564V148.488L319.108 150.467V153.544Z" fill="#A33F3F"/>
<path opacity="0.5" d="M324.407 156.603L320.979 154.624V151.547L324.407 153.527V156.603Z" fill="#A33F3F"/>
<path d="M299.934 149.502L294.409 146.313V143.236L299.934 146.425V149.502Z" fill="#A33F3F"/>
<path d="M303.962 151.828L302.074 150.738V147.66L303.962 148.751V151.828Z" fill="#A33F3F"/>
<path opacity="0.5" d="M309.529 155.042L306.103 153.064V149.987L309.529 151.965V155.042Z" fill="#A33F3F"/>
<path opacity="0.5" d="M314.796 165.111L294.409 153.341V150.264L314.796 162.035V165.111Z" fill="#A33F3F"/>
<path opacity="0.5" d="M321.981 169.26L316.938 166.348V163.271L321.981 166.183V169.26Z" fill="#A33F3F"/>
<path opacity="0.5" d="M299.934 163.56L294.409 160.371V157.292L299.934 160.483V163.56Z" fill="#A33F3F"/>
<path opacity="0.5" d="M312.896 171.044L302.074 164.794V161.717L312.896 167.966V171.044Z" fill="#A33F3F"/>
<path opacity="0.5" d="M318.465 174.258L315.036 172.279V169.202L318.465 171.182V174.258Z" fill="#A33F3F"/>
<path opacity="0.5" d="M305.712 173.923L294.409 167.398V164.322L305.712 170.846V173.923Z" fill="#A33F3F"/>
<path d="M316.025 179.877L307.852 175.16V172.083L316.025 176.8V179.877Z" fill="#A33F3F"/>
<path opacity="0.5" d="M323.687 184.303L318.165 181.114V178.037L323.687 181.226V184.303Z" fill="#A33F3F"/>
<path opacity="0.5" d="M298.227 176.63L294.409 174.426V171.35L298.227 173.554V176.63Z" fill="#A33F3F"/>
<path opacity="0.5" d="M305.412 180.779L300.367 177.867V174.79L305.412 177.702V180.779Z" fill="#A33F3F"/>
<path opacity="0.5" d="M315.681 186.708L307.552 182.015V178.939L315.681 183.631V186.708Z" fill="#A33F3F"/>
<path opacity="0.5" d="M306.102 188.206L294.409 181.456V178.38L306.102 185.129V188.206Z" fill="#A33F3F"/>
<path opacity="0.5" d="M319.198 195.767L308.242 189.442V186.365L319.198 192.691V195.767Z" fill="#A33F3F"/>
<path d="M324.765 198.982L321.338 197.004V193.926L324.765 195.905V198.982Z" fill="#A33F3F"/>
<path opacity="0.5" d="M330.11 202.068L326.683 200.088V197.012L330.11 198.991V202.068Z" fill="#A33F3F"/>
<path opacity="0.5" d="M301.416 192.528L294.409 188.484V185.408L301.416 189.452V192.528Z" fill="#A33F3F"/>
<path d="M330.714 153.215L340.428 158.825V155.748L330.714 150.139V153.215Z" fill="#A33F3F"/>
<path opacity="0.5" d="M332.794 161.445L340.427 165.853V162.776L332.794 158.368V161.445Z" fill="#A33F3F"/>
<path opacity="0.5" d="M334.905 169.692L340.427 172.881V169.804L334.905 166.615V169.692Z" fill="#A33F3F"/>
<path opacity="0.5" d="M332.393 175.272L340.427 179.91V176.834L332.393 172.193V175.272Z" fill="#A33F3F"/>
<path opacity="0.5" d="M334.905 183.749L340.427 186.938V183.861L334.905 180.672V183.749Z" fill="#A33F3F"/>
<path opacity="0.5" d="M333.423 189.922L340.428 193.968V190.889L333.423 186.845V189.922Z" fill="#A33F3F"/>
<path opacity="0.5" d="M336.612 198.792L340.428 200.996V197.919L336.612 195.715V198.792Z" fill="#A33F3F"/>
<path opacity="0.5" d="M333.032 203.753L340.427 208.024V204.947L333.032 200.677V203.753Z" fill="#A33F3F"/>
<path opacity="0.5" d="M333.423 211.007L340.428 215.054V211.975L333.423 207.931V211.007Z" fill="#A33F3F"/>
<path opacity="0.5" d="M306.534 195.485L303.556 193.765V190.688L306.534 192.408V195.485Z" fill="#A33F3F"/>
<path opacity="0.5" d="M315.38 200.592L308.674 196.72V193.643L315.38 197.515V200.592Z" fill="#A33F3F"/>
<path opacity="0.5" d="M362.752 171.592L348.74 163.503V160.427L362.752 168.515V171.592Z" fill="#A33F3F"/>
<path opacity="0.5" d="M369.936 175.74L364.892 172.828V169.751L369.936 172.664V175.74Z" fill="#A33F3F"/>
<path d="M375.505 178.954L372.076 176.976V173.9L375.505 175.877V178.954Z" fill="#A33F3F"/>
<path opacity="0.5" d="M356.376 174.939L348.74 170.531V167.454L356.376 171.862V174.939Z" fill="#A33F3F"/>
<path opacity="0.5" d="M367.871 181.576L358.516 176.174V173.097L367.871 178.5V181.576Z" fill="#A33F3F"/>
<path d="M373.439 184.79L370.012 182.813V179.734L373.439 181.714V184.79Z" fill="#A33F3F"/>
<path opacity="0.5" d="M378.738 187.849L375.31 185.872V182.795L378.738 184.773V187.849Z" fill="#A33F3F"/>
<path opacity="0.5" d="M354.265 180.748L348.74 177.559V174.482L354.265 177.671V180.748Z" fill="#A33F3F"/>
<path opacity="0.5" d="M358.293 183.074L356.405 181.984V178.908L358.293 179.997V183.074Z" fill="#A33F3F"/>
<path opacity="0.5" d="M363.86 186.29L360.433 184.31V181.234L363.86 183.213V186.29Z" fill="#A33F3F"/>
<path opacity="0.5" d="M369.127 196.36L348.74 184.589V181.513L369.127 193.283V196.36Z" fill="#A33F3F"/>
<path opacity="0.5" d="M376.312 200.508L371.27 197.596V194.517L376.312 197.432V200.508Z" fill="#A33F3F"/>
<path opacity="0.5" d="M354.265 194.806L348.74 191.617V188.54L354.265 191.729V194.806Z" fill="#A33F3F"/>
<path opacity="0.5" d="M367.227 202.29L356.405 196.042V192.966L367.227 199.214V202.29Z" fill="#A33F3F"/>
<path opacity="0.5" d="M372.796 205.505L369.367 203.527V200.448L372.796 202.428V205.505Z" fill="#A33F3F"/>
<path d="M360.043 205.172L348.74 198.647V195.568L360.043 202.093V205.172Z" fill="#A33F3F"/>
<path opacity="0.5" d="M370.356 211.126L362.183 206.406V203.329L370.356 208.049V211.126Z" fill="#A33F3F"/>
<path opacity="0.5" d="M378.019 215.549L372.496 212.362V209.283L378.019 212.472V215.549Z" fill="#A33F3F"/>
<path opacity="0.5" d="M352.558 207.879L348.74 205.675V202.598L352.558 204.802V207.879Z" fill="#A33F3F"/>
<path opacity="0.5" d="M359.742 212.027L354.698 209.113V206.036L359.742 208.951V212.027Z" fill="#A33F3F"/>
<path d="M370.012 217.954L361.883 213.262V210.185L370.012 214.878V217.954Z" fill="#A33F3F"/>
<path opacity="0.5" d="M360.433 219.454L348.74 212.702V209.626L360.433 216.377V219.454Z" fill="#A33F3F"/>
<path opacity="0.5" d="M373.529 227.014L362.573 220.69V217.612L373.529 223.937V227.014Z" fill="#A33F3F"/>
<path opacity="0.5" d="M379.096 230.23L375.669 228.25V225.174L379.096 227.153V230.23Z" fill="#A33F3F"/>
<path opacity="0.5" d="M384.441 233.314L381.014 231.337V228.258L384.441 230.237V233.314Z" fill="#A33F3F"/>
<path opacity="0.5" d="M355.747 223.776L348.74 219.732V216.654L355.747 220.7V223.776Z" fill="#A33F3F"/>
<path d="M385.044 184.463L394.758 190.071V186.994L385.044 181.385V184.463Z" fill="#A33F3F"/>
<path opacity="0.5" d="M387.125 192.693L394.758 197.099V194.022L387.125 189.616V192.693Z" fill="#A33F3F"/>
<path opacity="0.5" d="M389.235 200.94L394.758 204.129V201.052L389.235 197.863V200.94Z" fill="#A33F3F"/>
<path opacity="0.5" d="M386.724 206.518L394.758 211.157V208.08L386.724 203.442V206.518Z" fill="#A33F3F"/>
<path opacity="0.5" d="M389.235 214.997L394.758 218.186V215.11L389.235 211.921V214.997Z" fill="#A33F3F"/>
<path opacity="0.5" d="M387.753 221.17L394.758 225.214V222.138L387.753 218.094V221.17Z" fill="#A33F3F"/>
<path opacity="0.5" d="M390.94 230.04L394.758 232.242V229.166L390.94 226.962V230.04Z" fill="#A33F3F"/>
<path opacity="0.5" d="M387.362 235.001L394.758 239.272V236.195L387.362 231.925V235.001Z" fill="#A33F3F"/>
<path opacity="0.5" d="M387.753 242.256L394.758 246.3V243.223L387.753 239.179V242.256Z" fill="#A33F3F"/>
<path d="M360.865 226.731L357.887 225.011V221.934L360.865 223.655V226.731Z" fill="#A33F3F"/>
<path opacity="0.5" d="M369.712 231.84L363.005 227.968V224.891L369.712 228.763V231.84Z" fill="#A33F3F"/>
<path opacity="0.5" d="M308.42 203.643L294.409 195.553V192.476L308.42 200.566V203.643Z" fill="#A33F3F"/>
<path opacity="0.5" d="M315.605 207.791L310.561 204.879V201.803L315.605 204.715V207.791Z" fill="#A33F3F"/>
<path opacity="0.5" d="M321.174 211.006L317.745 209.026V205.95L321.174 207.929V211.006Z" fill="#A33F3F"/>
<path opacity="0.5" d="M302.045 206.99L294.409 202.582V199.506L302.045 203.914V206.99Z" fill="#A33F3F"/>
<path opacity="0.5" d="M313.541 213.627L304.185 208.225V205.148L313.541 210.551V213.627Z" fill="#A33F3F"/>
<path opacity="0.5" d="M319.108 216.842L315.681 214.862V211.786L319.108 213.765V216.842Z" fill="#A33F3F"/>
<path opacity="0.5" d="M324.407 219.901L320.979 217.921V214.845L324.407 216.824V219.901Z" fill="#A33F3F"/>
<path opacity="0.5" d="M299.934 212.8L294.409 209.611V206.534L299.934 209.723V212.8Z" fill="#A33F3F"/>
<path opacity="0.5" d="M303.962 215.125L302.074 214.036V210.959L303.962 212.049V215.125Z" fill="#A33F3F"/>
<path opacity="0.5" d="M309.529 218.341L306.103 216.362V213.285L309.529 215.265V218.341Z" fill="#A33F3F"/>
<path opacity="0.5" d="M314.796 228.411L294.409 216.641V213.564L314.796 225.332V228.411Z" fill="#A33F3F"/>
<path opacity="0.5" d="M321.981 232.558L316.938 229.646V226.569L321.981 229.481V232.558Z" fill="#A33F3F"/>
<path opacity="0.5" d="M299.934 226.857L294.409 223.668V220.591L299.934 223.78V226.857Z" fill="#A33F3F"/>
<path opacity="0.5" d="M312.896 234.342L302.074 228.094V225.017L312.896 231.265V234.342Z" fill="#A33F3F"/>
<path opacity="0.5" d="M318.465 237.556L315.036 235.578V232.499L318.465 234.479V237.556Z" fill="#A33F3F"/>
<path opacity="0.5" d="M305.712 237.221L294.409 230.696V227.62L305.712 234.144V237.221Z" fill="#A33F3F"/>
<path opacity="0.5" d="M316.025 243.177L307.852 238.457V235.381L316.025 240.098V243.177Z" fill="#A33F3F"/>
<path opacity="0.5" d="M323.687 247.6L318.165 244.411V241.335L323.687 244.524V247.6Z" fill="#A33F3F"/>
<path opacity="0.5" d="M298.227 239.93L294.409 237.726V234.649L298.227 236.853V239.93Z" fill="#A33F3F"/>
<path opacity="0.5" d="M305.412 244.077L300.367 241.164V238.088L305.412 241V244.077Z" fill="#A33F3F"/>
<path opacity="0.5" d="M315.681 250.005L307.552 245.313V242.236L315.681 246.929V250.005Z" fill="#A33F3F"/>
<path opacity="0.5" d="M306.102 251.505L294.409 244.754V241.677L306.102 248.429V251.505Z" fill="#A33F3F"/>
<path opacity="0.5" d="M319.198 259.065L308.242 252.74V249.663L319.198 255.988V259.065Z" fill="#A33F3F"/>
<path opacity="0.5" d="M324.765 262.281L321.338 260.302V257.225L324.765 259.203V262.281Z" fill="#A33F3F"/>
<path opacity="0.5" d="M330.11 265.365L326.683 263.386V260.309L330.11 262.289V265.365Z" fill="#A33F3F"/>
<path opacity="0.5" d="M301.416 255.828L294.409 251.782V248.705L301.416 252.751V255.828Z" fill="#A33F3F"/>
<path opacity="0.5" d="M330.714 216.513L340.428 222.122V219.045L330.714 213.436V216.513Z" fill="#A33F3F"/>
<path opacity="0.5" d="M332.794 224.744L340.427 229.15V226.074L332.794 221.666V224.744Z" fill="#A33F3F"/>
<path opacity="0.5" d="M334.905 232.991L340.427 236.18V233.103L334.905 229.914V232.991Z" fill="#A33F3F"/>
<path opacity="0.5" d="M332.393 238.57L340.427 243.208V240.131L332.393 235.493V238.57Z" fill="#A33F3F"/>
<path opacity="0.5" d="M334.905 247.047L340.427 250.236V247.159L334.905 243.97V247.047Z" fill="#A33F3F"/>
<path opacity="0.5" d="M333.423 253.222L340.428 257.266V254.189L333.423 250.145V253.222Z" fill="#A33F3F"/>
<path opacity="0.5" d="M336.612 262.09L340.428 264.294V261.217L336.612 259.013V262.09Z" fill="#A33F3F"/>
<path opacity="0.5" d="M333.032 267.053L340.427 271.321V268.245L333.032 263.976V267.053Z" fill="#A33F3F"/>
<path opacity="0.5" d="M333.423 274.307L340.428 278.351V275.274L333.423 271.23V274.307Z" fill="#A33F3F"/>
<path opacity="0.5" d="M306.534 258.783L303.556 257.062V253.986L306.534 255.706V258.783Z" fill="#A33F3F"/>
<path opacity="0.5" d="M315.38 263.891L308.674 260.019V256.942L315.38 260.812V263.891Z" fill="#A33F3F"/>
<path opacity="0.5" d="M320.928 287.533L309.612 281V277.923L320.928 284.456V287.533Z" fill="#A33F3F"/>
<path opacity="0.5" d="M328.678 292.008L324.222 289.435V286.358L328.678 288.932V292.008Z" fill="#A33F3F"/>
<path opacity="0.5" d="M362.752 234.889L348.74 226.801V223.724L362.752 231.813V234.889Z" fill="#A33F3F"/>
<path opacity="0.5" d="M369.936 239.038L364.892 236.126V233.049L369.936 235.961V239.038Z" fill="#A33F3F"/>
<path opacity="0.5" d="M375.505 242.254L372.076 240.274V237.198L375.505 239.177V242.254Z" fill="#A33F3F"/>
<path opacity="0.5" d="M356.376 238.237L348.74 233.829V230.752L356.376 235.16V238.237Z" fill="#A33F3F"/>
<path opacity="0.5" d="M367.871 244.874L358.516 239.473V236.397L367.871 241.797V244.874Z" fill="#A33F3F"/>
<path opacity="0.5" d="M373.439 248.09L370.012 246.11V243.034L373.439 245.013V248.09Z" fill="#A33F3F"/>
<path opacity="0.5" d="M378.738 251.149L375.31 249.17V246.093L378.738 248.073V251.149Z" fill="#A33F3F"/>
<path opacity="0.5" d="M354.265 244.048L348.74 240.859V237.782L354.265 240.971V244.048Z" fill="#A33F3F"/>
<path opacity="0.5" d="M358.293 246.373L356.405 245.282V242.205L358.293 243.297V246.373Z" fill="#A33F3F"/>
<path opacity="0.5" d="M363.86 249.588L360.433 247.61V244.531L363.86 246.511V249.588Z" fill="#A33F3F"/>
<path opacity="0.5" d="M369.127 259.657L348.74 247.887V244.81L369.127 256.581V259.657Z" fill="#A33F3F"/>
<path opacity="0.5" d="M376.312 263.806L371.27 260.894V257.817L376.312 260.729V263.806Z" fill="#A33F3F"/>
<path opacity="0.5" d="M354.265 258.105L348.74 254.914V251.838L354.265 255.027V258.105Z" fill="#A33F3F"/>
<path opacity="0.5" d="M367.227 265.588L356.405 259.34V256.263L367.227 262.511V265.588Z" fill="#A33F3F"/>
<path opacity="0.5" d="M372.796 268.804L369.367 266.825V263.748L372.796 265.727V268.804Z" fill="#A33F3F"/>
<path opacity="0.5" d="M360.043 268.469L348.74 261.944V258.868L360.043 265.392V268.469Z" fill="#A33F3F"/>
<path opacity="0.5" d="M370.356 274.423L362.183 269.704V266.627L370.356 271.347V274.423Z" fill="#A33F3F"/>
<path opacity="0.5" d="M378.019 278.848L372.496 275.66V272.583L378.019 275.772V278.848Z" fill="#A33F3F"/>
<path opacity="0.5" d="M352.558 271.176L348.74 268.973V265.896L352.558 268.1V271.176Z" fill="#A33F3F"/>
<path opacity="0.5" d="M359.742 275.325L354.698 272.413V269.336L359.742 272.248V275.325Z" fill="#A33F3F"/>
<path opacity="0.5" d="M370.012 281.254L361.883 276.561V273.485L370.012 278.177V281.254Z" fill="#A33F3F"/>
<path opacity="0.5" d="M360.433 282.751L348.74 276.002V272.923L360.433 279.675V282.751Z" fill="#A33F3F"/>
<path opacity="0.5" d="M373.529 290.314L362.573 283.988V280.911L373.529 287.237V290.314Z" fill="#A33F3F"/>
<path opacity="0.5" d="M379.096 293.527L375.669 291.548V288.471L379.096 290.451V293.527Z" fill="#A33F3F"/>
<path opacity="0.5" d="M384.441 296.614L381.014 294.634V291.557L384.441 293.535V296.614Z" fill="#A33F3F"/>
<path opacity="0.5" d="M355.747 287.074L348.74 283.03V279.953L355.747 283.998V287.074Z" fill="#A33F3F"/>
<path opacity="0.5" d="M385.044 247.761L394.758 253.368V250.292L385.044 244.684V247.761Z" fill="#A33F3F"/>
<path opacity="0.5" d="M387.125 255.991L394.758 260.399V257.322L387.125 252.914V255.991Z" fill="#A33F3F"/>
<path opacity="0.5" d="M389.235 264.237L394.758 267.426V264.349L389.235 261.161V264.237Z" fill="#A33F3F"/>
<path opacity="0.5" d="M386.724 269.816L394.758 274.456V271.379L386.724 266.739V269.816Z" fill="#A33F3F"/>
<path opacity="0.5" d="M389.235 278.295L394.758 281.484V278.407L389.235 275.219V278.295Z" fill="#A33F3F"/>
<path opacity="0.5" d="M387.753 284.468L394.758 288.512V285.435L387.753 281.391V284.468Z" fill="#A33F3F"/>
<path opacity="0.5" d="M390.94 293.338L394.758 295.542V292.465L390.94 290.261V293.338Z" fill="#A33F3F"/>
<path opacity="0.5" d="M387.362 298.299L394.758 302.57V299.493L387.362 295.223V298.299Z" fill="#A33F3F"/>
<path opacity="0.5" d="M387.753 305.554L394.758 309.598V306.521L387.753 302.477V305.554Z" fill="#A33F3F"/>
<path opacity="0.5" d="M360.865 290.031L357.887 288.311V285.234L360.865 286.953V290.031Z" fill="#A33F3F"/>
<path opacity="0.5" d="M369.712 295.137L363.005 291.265V288.189L369.712 292.061V295.137Z" fill="#A33F3F"/>
<path opacity="0.5" d="M375.259 318.781L363.943 312.247V309.17L375.259 315.705V318.781Z" fill="#A33F3F"/>
<path opacity="0.5" d="M383.009 323.255L378.553 320.681V317.605L383.009 320.178V323.255Z" fill="#A33F3F"/>
<path d="M372.388 146.414L376.465 143.5C377.742 142.526 379.509 142.488 381.463 143.616L523.945 225.876C527.838 228.125 530.996 234.156 530.996 239.348V319.209C530.996 321.926 530.127 323.863 528.746 324.782L528.759 324.786L524.523 327.812L524.289 324.716C524.173 324.656 524.061 324.608 523.945 324.54L381.463 242.279C377.57 240.031 374.412 233.999 374.412 228.808V148.947C374.412 148.18 374.488 147.484 374.619 146.845L372.388 146.414Z" fill="url(#paint10_linear_461_1069)"/>
<path d="M530.626 236.157L493.018 257.869L483.546 252.401L526.257 227.742C528.314 229.884 529.934 233.001 530.626 236.157Z" fill="url(#paint11_linear_461_1069)"/>
<path d="M377.208 245.317L519.69 327.578C523.583 329.826 526.741 327.438 526.741 322.247V242.386C526.741 237.194 523.585 231.163 519.69 228.914L377.208 146.654C373.315 144.405 370.157 146.791 370.157 151.984V231.846C370.159 237.037 373.315 243.069 377.208 245.317Z" fill="url(#paint12_linear_461_1069)"/>
<path d="M390.393 195.031L506.677 262.103C507.575 262.622 508.339 262.901 508.865 262.092C508.947 261.966 508.904 261.782 508.904 261.61V243.972C508.904 242.602 508.07 241.01 507.043 240.418L389.853 172.759C389.762 172.706 389.675 172.614 389.583 172.629C388.704 172.772 388.669 173.583 388.669 174.831L388.387 191.751C388.389 193.121 389.366 194.438 390.393 195.031Z" fill="#5761D7"/>
<path d="M390.15 233.382L506.632 300.517C507.53 301.035 508.689 301.579 508.865 300.554C508.891 300.405 508.904 300.242 508.904 300.068V282.428C508.904 281.058 508.07 279.466 507.043 278.874L389.853 211.215C389.762 211.163 389.672 211.118 389.583 211.085C388.683 210.741 388.447 211.904 388.447 213.15L388.387 229.857C388.389 231.228 389.124 232.788 390.15 233.382Z" fill="#5761D7"/>
<path d="M389.583 172.639C389.558 172.786 389.544 172.946 389.544 173.119V190.758C389.544 192.128 390.378 193.72 391.406 194.313L508.595 261.972C508.688 262.026 508.779 262.059 508.868 262.094C508.693 263.123 507.945 263.539 507.045 263.02L389.856 195.361C388.828 194.767 387.996 193.177 387.996 191.807V174.167C387.996 172.919 388.685 172.298 389.583 172.639Z" fill="#A33F3F"/>
<path d="M389.583 211.095C389.558 211.242 389.544 211.403 389.544 211.575V229.212C389.544 230.582 390.378 232.175 391.406 232.767L508.595 300.426C508.688 300.48 508.779 300.513 508.868 300.548C508.693 301.577 507.945 301.993 507.045 301.475L389.856 233.816C388.828 233.222 387.996 231.631 387.996 230.261V212.624C387.996 211.378 388.685 210.754 389.583 211.095Z" fill="#A33F3F"/>
<path d="M475.407 235.816L473.976 238.529L471.251 235.106L473.322 232.972L470.222 229.814L471.236 227.198L474.032 230.631L473.654 226.536L477.081 228.516L476.721 232.167L479.521 231.999L480.558 235.768L477.501 235.37L479.552 239.915L476.872 240.201L475.407 235.816Z" fill="#A33F3F"/>
<path d="M461.938 228.04L460.506 230.751L457.782 227.328L459.852 225.193L456.752 222.036L457.766 219.419L460.562 222.852L460.185 218.758L463.612 220.737L463.252 224.389L466.052 224.22L467.089 227.99L464.032 227.591L466.083 232.136L463.403 232.423L461.938 228.04Z" fill="#A33F3F"/>
<path d="M448.469 220.263L447.037 222.974L444.312 219.551L446.383 217.417L443.283 214.259L444.297 211.643L447.093 215.075L446.715 210.981L450.142 212.96L449.782 216.612L452.582 216.443L453.619 220.213L450.562 219.814L452.613 224.359L449.933 224.646L448.469 220.263Z" fill="#A33F3F"/>
<path d="M434.999 212.486L433.567 215.199L430.843 211.776L432.913 209.642L429.813 206.484L430.827 203.868L433.624 207.3L433.246 203.206L436.673 205.185L436.313 208.837L439.113 208.668L440.15 212.438L437.093 212.039L439.144 216.585L436.464 216.871L434.999 212.486Z" fill="#A33F3F"/>
<path d="M421.53 204.709L420.098 207.422L417.373 203.999L419.444 201.865L416.344 198.707L417.358 196.091L420.154 199.524L419.776 195.429L423.203 197.409L422.843 201.06L425.643 200.892L426.681 204.661L423.623 204.262L425.674 208.808L422.994 209.094L421.53 204.709Z" fill="#A33F3F"/>
<path d="M475.407 274.272L473.976 276.985L471.251 273.562L473.322 271.428L470.222 268.27L471.236 265.654L474.032 269.087L473.654 264.992L477.081 266.972L476.721 270.623L479.521 270.455L480.558 274.224L477.501 273.825L479.552 278.371L476.872 278.657L475.407 274.272Z" fill="#A33F3F"/>
<path d="M461.938 266.496L460.506 269.209L457.782 265.786L459.852 263.652L456.752 260.494L457.766 257.877L460.562 261.31L460.185 257.216L463.612 259.195L463.252 262.847L466.052 262.678L467.089 266.448L464.032 266.049L466.083 270.594L463.403 270.881L461.938 266.496Z" fill="#A33F3F"/>
<path d="M448.469 258.721L447.037 261.432L444.312 258.009L446.383 255.875L443.283 252.717L444.297 250.101L447.093 253.533L446.715 249.439L450.142 251.418L449.782 255.07L452.582 254.901L453.619 258.671L450.562 258.272L452.613 262.817L449.933 263.104L448.469 258.721Z" fill="#A33F3F"/>
<path d="M434.999 250.944L433.567 253.655L430.843 250.232L432.913 248.098L429.813 244.94L430.827 242.324L433.624 245.756L433.246 241.662L436.673 243.641L436.313 247.293L439.113 247.124L440.15 250.894L437.093 250.495L439.144 255.041L436.464 255.327L434.999 250.944Z" fill="#A33F3F"/>
<path d="M421.53 243.167L420.098 245.88L417.373 242.457L419.444 240.323L416.344 237.165L417.358 234.549L420.154 237.982L419.776 233.887L423.203 235.867L422.843 239.518L425.643 239.35L426.681 243.119L423.623 242.72L425.674 247.266L422.994 247.552L421.53 243.167Z" fill="#A33F3F"/>
<g opacity="0.3">
<path d="M571.728 577.196V566.25L568.7 564.567C567.844 569.733 561.765 573.137 556.681 573.843L522.064 594.087L506.958 599.542L458.736 574.656L459.85 574.013C455.729 572.088 453.509 567.684 451.28 563.667L448.033 565.604L446.104 566.146V577.372C446.104 579.516 447.518 581.662 450.347 583.296L498.659 611.188C504.315 614.455 513.519 614.455 519.175 611.188L567.484 583.297C570.267 581.691 571.681 579.59 571.726 577.479C571.728 577.384 571.724 577.291 571.72 577.196H571.728Z" fill="url(#paint13_linear_461_1069)"/>
<path opacity="0.3" d="M556.683 573.843L522.066 594.087L508.918 598.835V613.636C512.633 613.636 516.348 612.82 519.177 611.187L567.486 583.296C570.269 581.689 571.684 579.588 571.728 577.477C571.73 577.382 571.726 577.289 571.722 577.194L571.728 577.196V566.25L568.961 564.712H568.671C567.728 569.795 561.718 573.143 556.683 573.843Z" fill="#0F054C"/>
<path d="M498.659 600.066L450.347 572.173C444.691 568.907 444.691 563.593 450.347 560.327L498.659 532.436C504.315 529.17 513.519 529.17 519.175 532.436L567.486 560.329C573.142 563.595 573.142 568.909 567.486 572.175L519.177 600.066C513.519 603.331 504.315 603.331 498.659 600.066Z" fill="url(#paint14_linear_461_1069)"/>
<g opacity="0.3">
<path d="M498.659 600.066L450.347 572.173C444.691 568.907 444.691 563.593 450.347 560.327L498.659 532.436C504.315 529.17 513.519 529.17 519.175 532.436L567.486 560.329C573.142 563.595 573.142 568.909 567.486 572.175L519.177 600.066C513.519 603.331 504.315 603.331 498.659 600.066Z" fill="#0F054C"/>
</g>
</g>
<path d="M508.918 581.645C505.619 581.645 502.323 580.919 499.812 579.47L451.499 551.577C448.991 550.13 447.609 548.175 447.609 546.076C447.609 543.976 448.991 542.022 451.499 540.573L499.81 512.682C504.827 509.785 512.999 509.781 518.022 512.682L566.333 540.575C568.841 542.022 570.222 543.976 570.222 546.076C570.222 548.175 568.841 550.13 566.333 551.579L518.022 579.47C515.512 580.919 512.213 581.645 508.918 581.645ZM508.916 511.343C505.77 511.343 502.627 512.035 500.234 513.415L451.922 541.306C449.688 542.597 448.457 544.292 448.457 546.076C448.457 547.86 449.688 549.553 451.922 550.844L500.235 578.737C505.027 581.506 512.813 581.504 517.6 578.737L565.911 550.846C568.146 549.555 569.377 547.86 569.377 546.076C569.377 544.292 568.146 542.599 565.911 541.308L517.6 513.415C515.205 512.035 512.06 511.343 508.916 511.343Z" fill="#A33F3F"/>
<path opacity="0.4" d="M571.728 535.371V518.827L568.7 517.144C567.844 522.31 561.765 525.714 556.681 526.42L522.064 546.664L506.958 552.119L458.736 527.233L459.85 526.59C455.729 524.665 453.509 520.261 451.28 516.244L448.033 518.181L446.104 518.723V535.546C446.104 537.69 447.518 539.835 450.347 541.469L498.659 569.362C504.315 572.628 513.519 572.628 519.175 569.362L567.486 541.471C570.269 539.865 571.681 537.763 571.728 535.652C571.73 535.557 571.726 535.464 571.722 535.37L571.728 535.371Z" fill="#A33F3F"/>
<path d="M571.728 520.666V509.719L568.7 508.036C567.844 513.202 561.765 516.606 556.681 517.314L522.064 537.558L506.958 543.013L458.736 518.127L459.85 517.484C455.729 515.559 453.509 511.155 451.28 507.138L448.033 509.075L446.104 509.617V520.842C446.104 522.986 447.518 525.132 450.347 526.765L498.659 554.658C504.315 557.924 513.519 557.924 519.175 554.658L567.486 526.767C570.269 525.161 571.681 523.059 571.728 520.948C571.73 520.853 571.726 520.76 571.722 520.666H571.728Z" fill="url(#paint15_linear_461_1069)"/>
<path opacity="0.3" d="M556.683 517.314L522.066 537.558L508.918 542.306V557.107C512.633 557.107 516.348 556.291 519.177 554.658L567.488 526.766C570.271 525.16 571.683 523.059 571.73 520.948C571.732 520.853 571.728 520.76 571.724 520.665L571.732 520.667V509.721L568.965 508.183H568.675C567.728 513.266 561.718 516.614 556.683 517.314Z" fill="#0F054C"/>
<path d="M498.659 543.535L450.347 515.642C444.691 512.376 444.691 507.062 450.347 503.796L498.659 475.905C504.315 472.639 513.519 472.639 519.175 475.905L567.486 503.798C573.142 507.064 573.142 512.378 567.486 515.644L519.177 543.535C513.519 546.802 504.315 546.802 498.659 543.535Z" fill="url(#paint16_linear_461_1069)"/>
<path d="M567.487 515.644L519.176 543.535C513.52 546.801 504.315 546.801 498.659 543.535L450.348 515.642C447.819 514.183 446.425 512.314 446.156 510.402C445.824 512.769 447.219 515.201 450.348 517.006L498.659 544.899C504.315 548.166 513.52 548.166 519.176 544.899L567.487 517.008C570.615 515.203 572.009 512.771 571.678 510.404C571.409 512.316 570.014 514.183 567.487 515.644Z" fill="#A33F3F"/>
<g opacity="0.3">
<path d="M125.624 577.678V566.732L122.596 565.048C121.74 570.215 115.661 573.618 110.577 574.325L75.9602 594.569L60.8537 600.023L12.6317 575.137L13.7462 574.495C9.62468 572.57 7.40524 568.166 5.17612 564.149L1.92921 566.086L0 566.627V577.852C0 579.996 1.4145 582.142 4.24346 583.775L52.5545 611.668C58.2105 614.935 67.4153 614.935 73.0713 611.668L121.38 583.777C124.163 582.171 125.577 580.07 125.622 577.959C125.624 577.864 125.62 577.771 125.616 577.676L125.624 577.678Z" fill="url(#paint17_linear_461_1069)"/>
<path opacity="0.3" d="M110.579 574.324L75.9623 594.568L62.814 599.317V614.118C66.5292 614.118 70.2444 613.301 73.0733 611.668L121.382 583.777C124.165 582.171 125.579 580.069 125.624 577.958C125.626 577.864 125.622 577.771 125.618 577.676L125.626 577.678V566.732L122.859 565.193H122.569C121.624 570.276 115.614 573.624 110.579 574.324Z" fill="#0F054C"/>
<path d="M52.5541 600.548L4.24297 572.655C-1.41302 569.389 -1.41302 564.075 4.24297 560.809L52.5521 532.918C58.2081 529.652 67.4129 529.652 73.0689 532.918L121.38 560.811C127.036 564.077 127.036 569.391 121.38 572.657L73.0708 600.548C67.4148 603.812 58.2101 603.812 52.5541 600.548Z" fill="url(#paint18_linear_461_1069)"/>
<g opacity="0.3">
<path d="M52.5541 600.548L4.24297 572.655C-1.41302 569.389 -1.41302 564.075 4.24297 560.809L52.5521 532.918C58.2081 529.652 67.4129 529.652 73.0689 532.918L121.38 560.811C127.036 564.077 127.036 569.391 121.38 572.657L73.0708 600.548C67.4148 603.812 58.2101 603.812 52.5541 600.548Z" fill="#0F054C"/>
</g>
</g>
<path d="M62.8138 582.127C59.5146 582.127 56.2193 581.401 53.7077 579.952L5.39665 552.059C2.88696 550.612 1.50537 548.657 1.50537 546.558C1.50537 544.458 2.88698 542.504 5.39473 541.055L53.7058 513.164C58.7232 510.267 66.8928 510.263 71.918 513.164L120.229 541.057C122.737 542.504 124.118 544.458 124.118 546.558C124.118 548.659 122.737 550.614 120.229 552.061L71.918 579.952C69.4083 581.401 66.1091 582.127 62.8138 582.127ZM62.8119 511.825C59.6675 511.825 56.5232 512.515 54.1296 513.897L5.81849 541.788C3.58357 543.079 2.35291 544.774 2.35291 546.558C2.35291 548.342 3.58551 550.035 5.82044 551.326L54.1315 579.219C58.9225 581.988 66.7089 581.986 71.4961 579.219L119.807 551.328C122.042 550.037 123.273 548.344 123.273 546.558C123.273 544.774 122.042 543.081 119.807 541.79L71.4961 513.897C69.1006 512.517 65.9563 511.825 62.8119 511.825Z" fill="#A33F3F"/>
<path opacity="0.4" d="M125.624 535.853V519.311L122.596 517.628C121.74 522.794 115.661 526.198 110.577 526.904L75.9602 547.148L60.8537 552.603L12.6317 527.717L13.7462 527.072C9.62468 525.147 7.40524 520.743 5.17612 516.726L1.92921 518.663L0 519.205V536.028C0 538.172 1.4145 540.317 4.24346 541.951L52.5545 569.844C58.2105 573.11 67.4153 573.11 73.0713 569.844L121.38 541.952C124.163 540.346 125.577 538.245 125.622 536.134C125.624 536.039 125.62 535.946 125.616 535.851L125.624 535.853Z" fill="#A33F3F"/>
<path d="M125.624 521.147V510.201L122.596 508.518C121.74 513.684 115.661 517.088 110.577 517.794L75.9602 538.038L60.8537 543.493L12.6317 518.607L13.7462 517.962C9.62468 516.037 7.40524 511.633 5.17612 507.616L1.92921 509.553L0 510.095V521.319C0 523.463 1.4145 525.609 4.24346 527.243L52.5545 555.136C58.2105 558.402 67.4153 558.402 73.0713 555.136L121.38 527.244C124.163 525.638 125.577 523.537 125.622 521.426C125.624 521.331 125.62 521.238 125.616 521.143L125.624 521.147Z" fill="url(#paint19_linear_461_1069)"/>
<path opacity="0.3" d="M110.579 517.796L75.9623 538.04L62.814 542.788V557.589C66.5292 557.589 70.2444 556.773 73.0733 555.139L121.382 527.248C124.165 525.642 125.579 523.541 125.624 521.43C125.626 521.335 125.622 521.242 125.618 521.147L125.626 521.149V510.203L122.859 508.665H122.569C121.624 513.748 115.614 517.095 110.579 517.796Z" fill="#0F054C"/>
<path d="M52.5541 544.017L4.24297 516.124C-1.41302 512.858 -1.41302 507.544 4.24297 504.278L52.5521 476.387C58.2081 473.121 67.4129 473.121 73.0689 476.387L121.38 504.28C127.036 507.546 127.036 512.86 121.38 516.126L73.0708 544.017C67.4148 547.283 58.2101 547.283 52.5541 544.017Z" fill="url(#paint20_linear_461_1069)"/>
<path d="M121.383 516.126L73.0735 544.017C67.4175 547.283 58.2127 547.283 52.5567 544.017L4.24566 516.124C1.71662 514.665 0.323418 512.796 0.054453 510.882C-0.276432 513.249 1.11677 515.681 4.24566 517.486L52.5567 545.379C58.2127 548.646 67.4175 548.646 73.0735 545.379L121.383 517.488C124.512 515.683 125.905 513.251 125.574 510.884C125.305 512.798 123.91 514.667 121.383 516.126Z" fill="#A33F3F"/>
<path d="M62.0514 539.512C59.2592 539.512 56.465 538.792 53.9747 537.356L10.6733 512.457C9.69423 511.892 9.10986 510.882 9.10986 509.754C9.10986 508.626 9.69422 507.616 10.6714 507.051L51.4205 483.871C57.0358 480.638 64.0154 480.646 69.6307 483.883L111.903 508.186C112.882 508.751 113.466 509.763 113.466 510.89C113.466 512.018 112.882 513.028 111.905 513.593L70.1203 537.356C67.6319 538.794 64.8416 539.512 62.0514 539.512ZM60.515 482.745C57.5931 482.745 54.6713 483.496 52.0668 484.997L11.3177 508.177C10.7507 508.504 10.4102 509.094 10.4102 509.752C10.4102 510.412 10.7507 511.002 11.3215 511.329L54.6229 536.228C59.2031 538.874 64.8939 538.874 69.474 536.228L111.258 512.465C111.825 512.138 112.166 511.548 112.166 510.89C112.166 510.23 111.825 509.642 111.254 509.313L68.9825 485.009H68.9806C66.3722 483.5 63.4426 482.745 60.515 482.745Z" fill="#A33F3F"/>
<g opacity="0.11">
<path d="M69.3054 460.135C63.872 456.998 57.1788 456.994 51.7415 460.125L10.9962 483.303C9.34761 484.255 9.34761 486.633 10.9962 487.583L54.2995 512.482C59.0944 515.251 65.0039 515.251 69.7989 512.482L111.579 488.721C113.228 487.769 113.228 485.39 111.579 484.44L69.3054 460.135Z" fill="url(#paint21_linear_461_1069)"/>
</g>
<g opacity="0.11">
<path d="M69.3054 442.5C63.872 439.363 57.1788 439.359 51.7415 442.49L10.9962 465.667C9.34761 466.619 9.34761 468.997 10.9962 469.949L54.2995 494.849C59.0944 497.618 65.0039 497.618 69.7989 494.849L111.579 471.087C113.228 470.135 113.228 467.757 111.579 466.807L69.3054 442.5Z" fill="url(#paint22_linear_461_1069)"/>
</g>
<g opacity="0.11">
<path d="M69.3054 424.866C63.872 421.729 57.1788 421.725 51.7415 424.856L10.9962 448.033C9.34761 448.985 9.34761 451.364 10.9962 452.314L54.2995 477.213C59.0944 479.982 65.0039 479.982 69.7989 477.213L111.579 453.451C113.228 452.499 113.228 450.121 111.579 449.169L69.3054 424.866Z" fill="url(#paint23_linear_461_1069)"/>
</g>
<g opacity="0.11">
<path d="M69.3054 407.232C63.872 404.095 57.1788 404.091 51.7415 407.222L10.9962 430.4C9.34761 431.352 9.34761 433.73 10.9962 434.682L54.2995 459.581C59.0944 462.35 65.0039 462.35 69.7989 459.581L111.579 435.82C113.228 434.868 113.228 432.49 111.579 431.539L69.3054 407.232Z" fill="url(#paint24_linear_461_1069)"/>
</g>
<path opacity="0.5" d="M111.579 431.537L69.3054 407.232C63.8719 404.095 57.1788 404.091 51.7415 407.222L10.9962 430.4C10.1719 430.876 9.75977 431.708 9.75977 432.54V485.441C9.75977 486.273 10.1719 487.105 10.9962 487.581L54.2995 512.48C59.0944 515.249 65.0039 515.249 69.7988 512.48L111.579 488.719C112.404 488.243 112.816 487.411 112.816 486.578V433.678C112.816 432.846 112.404 432.013 111.579 431.537Z" fill="url(#paint25_linear_461_1069)"/>
<g opacity="0.11">
<path d="M69.3054 407.232C63.872 404.095 57.1788 404.091 51.7415 407.222L10.9962 430.4C9.34761 431.352 9.34761 433.73 10.9962 434.682L54.2995 459.581C59.0944 462.35 65.0039 462.35 69.7989 459.581L111.579 435.82C113.228 434.868 113.228 432.49 111.579 431.539L69.3054 407.232Z" fill="url(#paint26_linear_461_1069)"/>
</g>
<path d="M111.58 433.383L69.7993 457.145C65.0044 459.914 59.0949 459.914 54.3 457.145L10.9967 432.246C10.5904 432.011 10.2866 431.688 10.0795 431.323C9.45065 432.439 9.75444 433.964 10.9967 434.682L54.3 459.581C59.0949 462.35 65.0044 462.35 69.7993 459.581L111.58 435.82C112.822 435.104 113.126 433.577 112.497 432.46C112.29 432.826 111.986 433.149 111.58 433.383Z" fill="url(#paint27_linear_461_1069)"/>
<path opacity="0.7" d="M61.2889 447.611L34.9072 432.381L61.2889 417.149L87.6688 432.381L61.2889 447.611Z" fill="#A33F3F"/>
<path d="M61.2888 449.038C61.043 449.038 60.7954 448.974 60.5748 448.846L34.193 433.616C33.7538 433.36 33.481 432.89 33.481 432.379C33.481 431.868 33.7538 431.398 34.193 431.143L60.5748 415.912C61.0179 415.659 61.5616 415.659 62.0028 415.912L88.3826 431.143C88.8238 431.398 89.0947 431.868 89.0947 432.379C89.0947 432.89 88.8219 433.36 88.3826 433.616L62.0028 448.846C61.7822 448.974 61.5345 449.038 61.2888 449.038ZM37.7612 432.381L61.2888 445.965L84.8145 432.381L61.2888 418.797L37.7612 432.381Z" fill="#DF4547"/>
<defs>
<linearGradient id="paint0_linear_461_1069" x1="458.961" y1="242.005" x2="314.788" y2="242.005" gradientUnits="userSpaceOnUse">
<stop stop-color="#E84245"/>
<stop offset="0.0185" stop-color="#DE4043"/>
<stop offset="0.1149" stop-color="#BC3739"/>
<stop offset="0.2166" stop-color="#A22E30"/>
<stop offset="0.3219" stop-color="#285E8C"/>
<stop offset="0.4319" stop-color="#22417A"/>
<stop offset="0.5479" stop-color="#1E2A6C"/>
<stop offset="0.6729" stop-color="#1A1A63"/>
<stop offset="0.813" stop-color="#19105D"/>
<stop offset="1" stop-color="#180D5B"/>
</linearGradient>
<linearGradient id="paint1_linear_461_1069" x1="450.576" y1="247.166" x2="306.403" y2="247.166" gradientUnits="userSpaceOnUse">
<stop stop-color="#E84245"/>
<stop offset="0.0185" stop-color="#DE4043"/>
<stop offset="0.1149" stop-color="#BC3739"/>
<stop offset="0.2166" stop-color="#A22E30"/>
<stop offset="0.3219" stop-color="#285E8C"/>
<stop offset="0.4319" stop-color="#22417A"/>
<stop offset="0.5479" stop-color="#1E2A6C"/>
<stop offset="0.6729" stop-color="#1A1A63"/>
<stop offset="0.813" stop-color="#19105D"/>
<stop offset="1" stop-color="#180D5B"/>
</linearGradient>
<linearGradient id="paint2_linear_461_1069" x1="442.191" y1="252.326" x2="298.019" y2="252.326" gradientUnits="userSpaceOnUse">
<stop stop-color="#E84245"/>
<stop offset="0.0185" stop-color="#DE4043"/>
<stop offset="0.1149" stop-color="#BC3739"/>
<stop offset="0.2166" stop-color="#A22E30"/>
<stop offset="0.3219" stop-color="#285E8C"/>
<stop offset="0.4319" stop-color="#22417A"/>
<stop offset="0.5479" stop-color="#1E2A6C"/>
<stop offset="0.6729" stop-color="#1A1A63"/>
<stop offset="0.813" stop-color="#19105D"/>
<stop offset="1" stop-color="#180D5B"/>
</linearGradient>
<linearGradient id="paint3_linear_461_1069" x1="353.053" y1="426.003" x2="353.053" y2="16.3646" gradientUnits="userSpaceOnUse">
<stop stop-color="#5761D7"/>
<stop offset="0.1779" stop-color="#5C66D9"/>
<stop offset="0.3876" stop-color="#6A73DF"/>
<stop offset="0.6134" stop-color="#8289E8"/>
<stop offset="0.849" stop-color="#A3A7F5"/>
<stop offset="1" stop-color="#BCBEFF"/>
</linearGradient>
<linearGradient id="paint4_linear_461_1069" x1="408.52" y1="125.556" x2="408.52" y2="96.2096" gradientUnits="userSpaceOnUse">
<stop stop-color="#C0BFF6"/>
<stop offset="0.2938" stop-color="#C5C4F7"/>
<stop offset="0.6399" stop-color="#D3D2F9"/>
<stop offset="1" stop-color="#E9E9FD"/>
</linearGradient>
<linearGradient id="paint5_linear_461_1069" x1="344.533" y1="386.285" x2="483.505" y2="145.587" gradientUnits="userSpaceOnUse">
<stop stop-color="#C0BFF6"/>
<stop offset="0.2938" stop-color="#C5C4F7"/>
<stop offset="0.6399" stop-color="#D3D2F9"/>
<stop offset="1" stop-color="#E9E9FD"/>
</linearGradient>
<linearGradient id="paint6_linear_461_1069" x1="335.964" y1="439.35" x2="222.912" y2="439.35" gradientUnits="userSpaceOnUse">
<stop stop-color="#5761D7"/>
<stop offset="0.1779" stop-color="#5C66D9"/>
<stop offset="0.3876" stop-color="#6A73DF"/>
<stop offset="0.6134" stop-color="#8289E8"/>
<stop offset="0.849" stop-color="#A3A7F5"/>
<stop offset="1" stop-color="#BCBEFF"/>
</linearGradient>
<radialGradient id="paint7_radial_461_1069" cx="0" cy="0" r="1" gradientUnits="userSpaceOnUse" gradientTransform="translate(309.394 405.416) rotate(180) scale(53.9278 53.9278)">
<stop stop-color="#2B237C"/>
<stop offset="1" stop-color="#180D5B"/>
</radialGradient>
<linearGradient id="paint8_linear_461_1069" x1="335.964" y1="422.355" x2="206.016" y2="422.355" gradientUnits="userSpaceOnUse">
<stop stop-color="#5761D7"/>
<stop offset="0.1779" stop-color="#5C66D9"/>
<stop offset="0.3876" stop-color="#6A73DF"/>
<stop offset="0.6134" stop-color="#8289E8"/>
<stop offset="0.849" stop-color="#A3A7F5"/>
<stop offset="1" stop-color="#BCBEFF"/>
</linearGradient>
<linearGradient id="paint9_linear_461_1069" x1="314.049" y1="452.07" x2="200.997" y2="452.07" gradientUnits="userSpaceOnUse">
<stop stop-color="#C0BFF6"/>
<stop offset="0.2938" stop-color="#C5C4F7"/>
<stop offset="0.6399" stop-color="#D3D2F9"/>
<stop offset="1" stop-color="#E9E9FD"/>
</linearGradient>
<linearGradient id="paint10_linear_461_1069" x1="511.919" y1="283.768" x2="370.753" y2="165.315" gradientUnits="userSpaceOnUse">
<stop stop-color="#5761D7"/>
<stop offset="0.1779" stop-color="#5C66D9"/>
<stop offset="0.3876" stop-color="#6A73DF"/>
<stop offset="0.6134" stop-color="#8289E8"/>
<stop offset="0.849" stop-color="#A3A7F5"/>
<stop offset="1" stop-color="#BCBEFF"/>
</linearGradient>
<linearGradient id="paint11_linear_461_1069" x1="514.772" y1="248.355" x2="499.353" y2="235.417" gradientUnits="userSpaceOnUse">
<stop stop-color="#C0BFF6"/>
<stop offset="0.2938" stop-color="#C5C4F7"/>
<stop offset="0.6399" stop-color="#D3D2F9"/>
<stop offset="1" stop-color="#E9E9FD"/>
</linearGradient>
<linearGradient id="paint12_linear_461_1069" x1="448.45" y1="286.449" x2="491.174" y2="212.452" gradientUnits="userSpaceOnUse">
<stop stop-color="#C0BFF6"/>
<stop offset="0.2938" stop-color="#C5C4F7"/>
<stop offset="0.6399" stop-color="#D3D2F9"/>
<stop offset="1" stop-color="#E9E9FD"/>
</linearGradient>
<linearGradient id="paint13_linear_461_1069" x1="458.602" y1="544.498" x2="558.273" y2="602.044" gradientUnits="userSpaceOnUse">
<stop stop-color="#BCBEFF"/>
<stop offset="0.2271" stop-color="#AAADF8"/>
<stop offset="0.6802" stop-color="#7C83E5"/>
<stop offset="1" stop-color="#5761D7"/>
</linearGradient>
<linearGradient id="paint14_linear_461_1069" x1="446.104" y1="566.25" x2="571.728" y2="566.25" gradientUnits="userSpaceOnUse">
<stop stop-color="#E9E9FD"/>
<stop offset="0.3601" stop-color="#D3D2F9"/>
<stop offset="0.7062" stop-color="#C5C4F7"/>
<stop offset="1" stop-color="#C0BFF6"/>
</linearGradient>
<linearGradient id="paint15_linear_461_1069" x1="458.602" y1="487.969" x2="558.273" y2="545.514" gradientUnits="userSpaceOnUse">
<stop stop-color="#BCBEFF"/>
<stop offset="0.2271" stop-color="#AAADF8"/>
<stop offset="0.6802" stop-color="#7C83E5"/>
<stop offset="1" stop-color="#5761D7"/>
</linearGradient>
<linearGradient id="paint16_linear_461_1069" x1="446.104" y1="509.721" x2="571.728" y2="509.721" gradientUnits="userSpaceOnUse">
<stop stop-color="#E9E9FD"/>
<stop offset="0.3601" stop-color="#D3D2F9"/>
<stop offset="0.7062" stop-color="#C5C4F7"/>
<stop offset="1" stop-color="#C0BFF6"/>
</linearGradient>
<linearGradient id="paint17_linear_461_1069" x1="12.4981" y1="544.98" x2="112.17" y2="602.526" gradientUnits="userSpaceOnUse">
<stop stop-color="#BCBEFF"/>
<stop offset="0.2271" stop-color="#AAADF8"/>
<stop offset="0.6802" stop-color="#7C83E5"/>
<stop offset="1" stop-color="#5761D7"/>
</linearGradient>
<linearGradient id="paint18_linear_461_1069" x1="0.000105814" y1="566.732" x2="125.623" y2="566.732" gradientUnits="userSpaceOnUse">
<stop stop-color="#E9E9FD"/>
<stop offset="0.3601" stop-color="#D3D2F9"/>
<stop offset="0.7062" stop-color="#C5C4F7"/>
<stop offset="1" stop-color="#C0BFF6"/>
</linearGradient>
<linearGradient id="paint19_linear_461_1069" x1="12.4983" y1="488.451" x2="112.17" y2="545.996" gradientUnits="userSpaceOnUse">
<stop stop-color="#BCBEFF"/>
<stop offset="0.2271" stop-color="#AAADF8"/>
<stop offset="0.6802" stop-color="#7C83E5"/>
<stop offset="1" stop-color="#5761D7"/>
</linearGradient>
<linearGradient id="paint20_linear_461_1069" x1="0.000105814" y1="510.202" x2="125.623" y2="510.202" gradientUnits="userSpaceOnUse">
<stop stop-color="#E9E9FD"/>
<stop offset="0.3601" stop-color="#D3D2F9"/>
<stop offset="0.7062" stop-color="#C5C4F7"/>
<stop offset="1" stop-color="#C0BFF6"/>
</linearGradient>
<linearGradient id="paint21_linear_461_1069" x1="9.76112" y1="486.169" x2="112.815" y2="486.169" gradientUnits="userSpaceOnUse">
<stop stop-color="#D75759"/>
<stop offset="0.0726" stop-color="#D85456"/>
<stop offset="0.2791" stop-color="#DB4E50"/>
<stop offset="0.4801" stop-color="#DD494B"/>
<stop offset="0.6715" stop-color="#DF4548"/>
<stop offset="0.8493" stop-color="#E34346"/>
<stop offset="1" stop-color="#E84245"/>
</linearGradient>
<linearGradient id="paint22_linear_461_1069" x1="9.76112" y1="468.535" x2="112.815" y2="468.535" gradientUnits="userSpaceOnUse">
<stop stop-color="#D75759"/>
<stop offset="0.0726" stop-color="#D85456"/>
<stop offset="0.2791" stop-color="#DB4E50"/>
<stop offset="0.4801" stop-color="#DD494B"/>
<stop offset="0.6715" stop-color="#DF4548"/>
<stop offset="0.8493" stop-color="#E34346"/>
<stop offset="1" stop-color="#E84245"/>
</linearGradient>
<linearGradient id="paint23_linear_461_1069" x1="9.76112" y1="450.902" x2="112.815" y2="450.902" gradientUnits="userSpaceOnUse">
<stop stop-color="#D75759"/>
<stop offset="0.0726" stop-color="#D85456"/>
<stop offset="0.2791" stop-color="#DB4E50"/>
<stop offset="0.4801" stop-color="#DD494B"/>
<stop offset="0.6715" stop-color="#DF4548"/>
<stop offset="0.8493" stop-color="#E34346"/>
<stop offset="1" stop-color="#E84245"/>
</linearGradient>
<linearGradient id="paint24_linear_461_1069" x1="9.76112" y1="433.267" x2="112.815" y2="433.267" gradientUnits="userSpaceOnUse">
<stop stop-color="#D75759"/>
<stop offset="0.0726" stop-color="#D85456"/>
<stop offset="0.2791" stop-color="#DB4E50"/>
<stop offset="0.4801" stop-color="#DD494B"/>
<stop offset="0.6715" stop-color="#DF4548"/>
<stop offset="0.8493" stop-color="#E34346"/>
<stop offset="1" stop-color="#E84245"/>
</linearGradient>
<linearGradient id="paint25_linear_461_1069" x1="9.76112" y1="459.718" x2="112.815" y2="459.718" gradientUnits="userSpaceOnUse">
<stop stop-color="#D75759"/>
<stop offset="0.0726" stop-color="#D85456"/>
<stop offset="0.2791" stop-color="#DB4E50"/>
<stop offset="0.4801" stop-color="#DD494B"/>
<stop offset="0.6715" stop-color="#DF4548"/>
<stop offset="0.8493" stop-color="#E34346"/>
<stop offset="1" stop-color="#E84245"/>
</linearGradient>
<linearGradient id="paint26_linear_461_1069" x1="9.76112" y1="433.267" x2="112.815" y2="433.267" gradientUnits="userSpaceOnUse">
<stop stop-color="#D75759"/>
<stop offset="0.0726" stop-color="#D85456"/>
<stop offset="0.2791" stop-color="#DB4E50"/>
<stop offset="0.4801" stop-color="#DD494B"/>
<stop offset="0.6715" stop-color="#DF4548"/>
<stop offset="0.8493" stop-color="#E34346"/>
<stop offset="1" stop-color="#E84245"/>
</linearGradient>
<linearGradient id="paint27_linear_461_1069" x1="9.76296" y1="446.49" x2="112.814" y2="446.49" gradientUnits="userSpaceOnUse">
<stop stop-color="#D75759"/>
<stop offset="0.0726" stop-color="#D85456"/>
<stop offset="0.2791" stop-color="#DB4E50"/>
<stop offset="0.4801" stop-color="#DD494B"/>
<stop offset="0.6715" stop-color="#DF4548"/>
<stop offset="0.8493" stop-color="#E34346"/>
<stop offset="1" stop-color="#E84245"/>
</linearGradient>
</defs>
</svg>
