<svg width="17" height="17" viewBox="0 0 17 17" fill="none" xmlns="http://www.w3.org/2000/svg">
<path d="M8.11564 5.68093C6.77055 5.68093 5.68093 6.77094 5.68093 8.11562C5.68093 9.46062 6.77096 10.5503 8.11564 10.5503C9.46061 10.5503 10.5503 9.4603 10.5503 8.11562C10.5503 6.77062 9.46031 5.68093 8.11564 5.68093ZM8.11564 4.05781C10.3559 4.05781 12.1734 5.87335 12.1734 8.11562C12.1734 10.3559 10.3579 12.1734 8.11564 12.1734C5.87533 12.1734 4.05781 10.3579 4.05781 8.11562C4.05781 5.87533 5.87336 4.05781 8.11564 4.05781ZM13.3908 3.85423C13.3908 4.4143 12.9357 4.8687 12.3763 4.8687C11.8163 4.8687 11.3619 4.4136 11.3619 3.85423C11.3619 3.29486 11.8169 2.84047 12.3763 2.84047C12.9349 2.83976 13.3908 3.29486 13.3908 3.85423ZM8.11564 1.62312C6.10743 1.62312 5.78011 1.62844 4.84607 1.67003C4.20971 1.69991 3.78314 1.78549 3.38679 1.93937C3.03458 2.07597 2.7805 2.23908 2.50979 2.5098C2.23804 2.78155 2.07521 3.03494 1.93916 3.38732C1.78493 3.78457 1.69937 4.21047 1.67003 4.84596C1.62803 5.74196 1.62312 6.0551 1.62312 8.11562C1.62312 10.1238 1.62844 10.4511 1.67002 11.3851C1.69991 12.0212 1.78562 12.4484 1.93911 12.8438C2.07607 13.1965 2.23952 13.4512 2.50893 13.7206C2.78175 13.993 3.0359 14.1564 3.38494 14.2911C3.78611 14.4462 4.21241 14.5319 4.84595 14.5612C5.74196 14.6032 6.05511 14.6081 8.11564 14.6081C10.1238 14.6081 10.4511 14.6028 11.3851 14.5612C12.0198 14.5314 12.4473 14.4455 12.8438 14.2921C13.1955 14.1555 13.451 13.9915 13.7206 13.7223C13.9934 13.449 14.1565 13.1955 14.2914 12.8456C14.4461 12.446 14.5319 12.0191 14.5612 11.3853C14.6032 10.4893 14.6081 10.1761 14.6081 8.11562C14.6081 6.10743 14.6028 5.78011 14.5612 4.84614C14.5313 4.21124 14.4454 3.78309 14.2919 3.38679C14.1556 3.03555 13.9919 2.7807 13.7214 2.5098C13.4492 2.2376 13.1965 2.07511 12.8439 1.93916C12.4469 1.78506 12.0204 1.69938 11.3852 1.67004C10.4893 1.62803 10.1761 1.62312 8.11564 1.62312ZM8.11564 0C10.3203 0 10.5956 0.00811557 11.4613 0.0486937C12.3249 0.0885982 12.914 0.225209 13.4314 0.42607C13.9663 0.632345 14.4181 0.910978 14.8691 1.36207C15.3195 1.81317 15.5982 2.26629 15.8052 2.79989C16.0053 3.31659 16.142 3.90632 16.1826 4.76996C16.2211 5.63562 16.2312 5.91087 16.2312 8.11562C16.2312 10.3204 16.2231 10.5956 16.1826 11.4613C16.1426 12.3249 16.0053 12.914 15.8052 13.4313C15.5989 13.9663 15.3195 14.418 14.8691 14.8692C14.4181 15.3196 13.9642 15.5982 13.4314 15.8052C12.914 16.0054 12.3249 16.142 11.4613 16.1825C10.5956 16.2211 10.3203 16.2312 8.11564 16.2312C5.91087 16.2312 5.63562 16.2231 4.76996 16.1825C3.90632 16.1426 3.31793 16.0054 2.79989 15.8052C2.26561 15.5989 1.81316 15.3196 1.36207 14.8692C0.910979 14.418 0.633019 13.9643 0.426069 13.4313C0.225208 12.914 0.089272 12.3249 0.048693 11.4613C0.010144 10.5956 0 10.3204 0 8.11562C0 5.91087 0.008115 5.63562 0.048693 4.76996C0.08859 3.90564 0.225208 3.31726 0.426069 2.79989C0.632339 2.26561 0.910979 1.81317 1.36207 1.36207C1.81316 0.910978 2.26629 0.633018 2.79989 0.42607C3.31726 0.225209 3.90564 0.0892718 4.76996 0.0486937C5.63562 0.0101445 5.91087 0 8.11564 0Z" fill="white"/>
</svg>
