<svg width="30" height="30" viewBox="0 0 30 30" fill="none" xmlns="http://www.w3.org/2000/svg">
<path d="M14.8924 16.6013C13.2234 16.6013 11.6544 15.9514 10.4743 14.7712C9.29415 13.5911 8.64423 12.0221 8.64423 10.3531C8.64423 8.68421 9.29415 7.11515 10.4743 5.93504C11.6544 4.7549 13.2234 4.10498 14.8924 4.10498C16.5613 4.10498 18.1303 4.7549 19.3105 5.93502C20.4906 7.11514 21.1405 8.68419 21.1405 10.3531C21.1405 12.0221 20.4906 13.5911 19.3105 14.7712C18.1303 15.9513 16.5613 16.6013 14.8924 16.6013ZM14.8924 5.04245C11.964 5.04245 9.5817 7.42479 9.5817 10.3531C9.5817 13.2814 11.964 15.6638 14.8924 15.6638C17.8207 15.6638 20.203 13.2814 20.203 10.3531C20.203 7.42479 17.8207 5.04245 14.8924 5.04245Z" fill="white"/>
<path d="M12.0591 20.7067C11.8905 20.7067 11.722 20.6832 11.554 20.6287C10.8315 20.3941 10.4175 19.6868 10.0521 19.0627C9.81784 18.6625 9.57561 18.2487 9.3014 18.0492C9.02123 17.8453 8.54804 17.7407 8.09042 17.6396C7.38933 17.4847 6.59469 17.3091 6.15371 16.7032C5.71718 16.1034 5.79073 15.3324 5.86184 14.5868C5.9067 14.1165 5.95309 13.6302 5.84376 13.2935C5.74218 12.9807 5.44215 12.6438 5.12452 12.2871C4.64005 11.7431 4.09094 11.1265 4.09094 10.3533C4.09094 9.58012 4.64005 8.96354 5.12452 8.41955C5.44217 8.0629 5.74218 7.72602 5.84376 7.4132C5.95309 7.07647 5.90668 6.59016 5.86182 6.11984C5.79069 5.37424 5.71716 4.60325 6.15371 4.00341C6.59467 3.39749 7.38931 3.22191 8.09042 3.06701C8.54802 2.9659 9.02123 2.86135 9.3014 2.65746C9.57557 2.45791 9.81781 2.04412 10.0521 1.64393C10.4174 1.01987 10.8315 0.312551 11.5539 0.0779888C12.2476 -0.147258 12.9511 0.158026 13.6315 0.45325C14.0715 0.644182 14.5264 0.841616 14.8924 0.841616C15.2583 0.841616 15.7133 0.644182 16.1533 0.45325C16.8336 0.158026 17.5371 -0.147277 18.2308 0.0779888C18.9532 0.312551 19.3673 1.01989 19.7326 1.64395C19.9669 2.04412 20.2091 2.45791 20.4833 2.65746C20.7635 2.86135 21.2367 2.9659 21.6943 3.06701C22.3954 3.22193 23.1901 3.39749 23.631 4.00341C24.0676 4.60323 23.994 5.37422 23.9229 6.11984C23.878 6.59016 23.8317 7.07647 23.941 7.4132C24.0426 7.726 24.3426 8.06288 24.6602 8.41955C25.1447 8.96356 25.6938 9.58012 25.6938 10.3533C25.6938 11.1265 25.1447 11.7431 24.6602 12.2871C24.3426 12.6437 24.0426 12.9806 23.941 13.2934C23.8317 13.6302 23.878 14.1165 23.9229 14.5868C23.994 15.3324 24.0676 16.1034 23.631 16.7032C23.1901 17.3091 22.3954 17.4847 21.6943 17.6396C21.2367 17.7407 20.7635 17.8453 20.4833 18.0492C20.2092 18.2487 19.9669 18.6625 19.7326 19.0627C19.3673 19.6868 18.9532 20.3941 18.2308 20.6287C17.5371 20.8539 16.8336 20.5486 16.1533 20.2534C15.7133 20.0625 15.2583 19.865 14.8924 19.865C14.5264 19.865 14.0715 20.0625 13.6315 20.2534C13.1159 20.4771 12.587 20.7066 12.0591 20.7067ZM12.0599 0.938175C11.9828 0.938175 11.9103 0.947941 11.8435 0.969678C11.4603 1.09409 11.1557 1.6144 10.8612 2.11759C10.5782 2.60089 10.2857 3.10064 9.85306 3.41548C9.41462 3.73455 8.84426 3.86058 8.29268 3.98243C7.72782 4.10723 7.14369 4.23629 6.91171 4.55507C6.68414 4.86775 6.73802 5.43272 6.79507 6.03084C6.84902 6.59631 6.9048 7.18104 6.73541 7.70272C6.57309 8.20263 6.19259 8.62988 5.8246 9.04305C5.43316 9.48256 5.02841 9.93704 5.02841 10.3533C5.02841 10.7696 5.43318 11.2241 5.82462 11.6636C6.19259 12.0768 6.57309 12.504 6.73541 13.0039C6.9048 13.5256 6.84902 14.1103 6.79509 14.6758C6.73804 15.274 6.68414 15.8389 6.91171 16.1516C7.14369 16.4704 7.72782 16.5994 8.29268 16.7242C8.84426 16.8461 9.41462 16.9721 9.85306 17.2912C10.2857 17.606 10.5782 18.1058 10.8612 18.5891C11.1557 19.0923 11.4603 19.6126 11.8435 19.737C12.1998 19.8528 12.714 19.6296 13.2583 19.3934C13.7861 19.1643 14.3318 18.9275 14.8924 18.9275C15.453 18.9275 15.9987 19.1643 16.5265 19.3934C17.0708 19.6296 17.585 19.8527 17.9413 19.737C18.3244 19.6126 18.6291 19.0922 18.9236 18.5891C19.2065 18.1058 19.4991 17.606 19.9317 17.2912C20.3701 16.9721 20.9405 16.8461 21.4921 16.7242C22.057 16.5994 22.6411 16.4704 22.8731 16.1516C23.1006 15.8389 23.0467 15.2739 22.9897 14.6758C22.9358 14.1103 22.88 13.5256 23.0494 13.0039C23.2117 12.504 23.5922 12.0768 23.9602 11.6636C24.3516 11.2241 24.7564 10.7696 24.7564 10.3533C24.7564 9.93704 24.3516 9.48256 23.9602 9.04303C23.5922 8.62986 23.2117 8.20261 23.0494 7.70272C22.88 7.18104 22.9358 6.59631 22.9897 6.03084C23.0467 5.43272 23.1007 4.86775 22.8731 4.55507C22.6411 4.23629 22.057 4.10723 21.4921 3.98243C20.9405 3.86056 20.3702 3.73455 19.9317 3.41548C19.4991 3.10064 19.2065 2.60089 18.9236 2.11759C18.629 1.61438 18.3244 1.09407 17.9413 0.969659C17.5849 0.853901 17.0708 1.07708 16.5265 1.31328C15.9987 1.5423 15.453 1.77912 14.8924 1.77912C14.3318 1.77912 13.7861 1.54232 13.2583 1.31328C12.8161 1.12141 12.3939 0.938175 12.0599 0.938175Z" fill="white"/>
<path d="M11.6403 29.9997C11.5443 29.9997 11.4507 29.9702 11.372 29.9153C11.2933 29.8603 11.2334 29.7825 11.2003 29.6924L9.62233 25.3907L5.95025 28.1314C5.87131 28.1903 5.77583 28.2228 5.67736 28.2244C5.57888 28.2259 5.48242 28.1965 5.40166 28.1401C5.3209 28.0837 5.25994 28.0034 5.22744 27.9104C5.19493 27.8174 5.19254 27.7166 5.22058 27.6222L8.31033 17.2301C8.38409 16.9819 8.64504 16.8406 8.89322 16.9143C9.14135 16.9881 9.2827 17.2491 9.20893 17.4972L6.52185 26.535L9.56548 24.2634C9.62398 24.2197 9.69186 24.1903 9.76373 24.1775C9.8356 24.1647 9.90947 24.1689 9.97944 24.1897C10.0494 24.2105 10.1136 24.2474 10.1668 24.2973C10.22 24.3473 10.2608 24.409 10.2859 24.4776L11.5938 28.0429L14.199 19.2808C14.2728 19.0326 14.5338 18.8913 14.7819 18.9651C15.0301 19.0388 15.1714 19.2998 15.0976 19.5479L12.0897 29.6646C12.0609 29.7614 12.0016 29.8463 11.9206 29.9067C11.8397 29.9671 11.7413 29.9997 11.6403 29.9997Z" fill="white"/>
<path d="M18.1444 29.9999C18.0434 30 17.9451 29.9673 17.8641 29.9069C17.7831 29.8465 17.7238 29.7616 17.695 29.6648L14.6873 19.5482C14.6135 19.3 14.7549 19.0391 15.003 18.9653C15.2513 18.8916 15.5121 19.0328 15.5859 19.281L18.1909 28.0431L19.4988 24.4778C19.524 24.4093 19.5648 24.3476 19.618 24.2976C19.6712 24.2476 19.7353 24.2108 19.8053 24.19C19.8752 24.1691 19.9491 24.165 20.021 24.1778C20.0928 24.1905 20.1607 24.2199 20.2192 24.2636L23.2628 26.5352L20.5758 17.4975C20.502 17.2493 20.6433 16.9884 20.8915 16.9146C21.1396 16.8409 21.4006 16.9821 21.4744 17.2303L24.5641 27.6224C24.5922 27.7168 24.5898 27.8177 24.5573 27.9107C24.5248 28.0036 24.4638 28.084 24.3831 28.1404C24.3023 28.1967 24.2058 28.2262 24.1073 28.2247C24.0089 28.2231 23.9134 28.1906 23.8344 28.1316L20.1624 25.391L18.5843 29.6927C18.5513 29.7827 18.4914 29.8605 18.4127 29.9155C18.334 29.9704 18.2404 29.9999 18.1444 29.9999ZM12.8591 13.7493C12.7891 13.7493 12.72 13.7337 12.6568 13.7035C12.5937 13.6733 12.5381 13.6293 12.4942 13.5748C12.4502 13.5203 12.419 13.4566 12.4029 13.3885C12.3868 13.3203 12.3862 13.2495 12.401 13.1811L12.8429 11.148L11.2904 9.76291C11.2225 9.70234 11.1737 9.62332 11.15 9.53549C11.1262 9.44767 11.1286 9.35483 11.1567 9.2683C11.1848 9.18177 11.2375 9.1053 11.3083 9.0482C11.3791 8.99111 11.4651 8.95586 11.5556 8.94677L13.6257 8.73876L14.4632 6.83424C14.4999 6.75095 14.5599 6.68013 14.6361 6.6304C14.7123 6.58068 14.8013 6.5542 14.8923 6.5542C14.9833 6.5542 15.0723 6.58068 15.1485 6.6304C15.2247 6.68013 15.2848 6.75095 15.3214 6.83424L16.1589 8.73876L18.2291 8.94677C18.3196 8.95588 18.4055 8.99113 18.4763 9.04823C18.5472 9.10532 18.5998 9.1818 18.628 9.26832C18.6561 9.35485 18.6584 9.44768 18.6347 9.53551C18.6109 9.62333 18.5621 9.70235 18.4942 9.76293L16.9417 11.148L17.3836 13.1811C17.4029 13.27 17.396 13.3626 17.3636 13.4476C17.3312 13.5326 17.2747 13.6064 17.2011 13.6598C17.1275 13.7133 17.0399 13.7442 16.949 13.7488C16.8582 13.7533 16.768 13.7313 16.6894 13.6855L14.8923 12.6369L13.0953 13.6855C13.0236 13.7273 12.9421 13.7494 12.8591 13.7493ZM12.7099 9.77295L13.6711 10.6305C13.733 10.6857 13.7792 10.7565 13.8048 10.8354C13.8305 10.9143 13.8347 10.9987 13.8171 11.0798L13.5435 12.3386L14.6561 11.6894C14.7278 11.6476 14.8093 11.6255 14.8923 11.6255C14.9753 11.6255 15.0569 11.6476 15.1286 11.6894L16.2412 12.3386L15.9676 11.0798C15.9499 10.9987 15.9542 10.9144 15.9798 10.8354C16.0055 10.7565 16.0516 10.6858 16.1136 10.6305L17.0748 9.77297L15.7931 9.64418C15.7105 9.63588 15.6316 9.6058 15.5645 9.55701C15.4973 9.50821 15.4443 9.44246 15.4109 9.36648L14.8923 8.18732L14.3738 9.36648C14.3404 9.44246 14.2874 9.50821 14.2202 9.55701C14.1531 9.6058 14.0742 9.63588 13.9916 9.64418L12.7099 9.77295Z" fill="white"/>
</svg>
