<svg width="26" height="30" viewBox="0 0 26 30" fill="none" xmlns="http://www.w3.org/2000/svg">
<path d="M25.1199 5.18034C20.9923 4.04936 16.8404 2.28833 13.1131 0.0876711C13.0159 0.0302761 12.9051 0 12.7923 0C12.6794 0 12.5686 0.0302761 12.4715 0.0876711C8.63664 2.35155 4.70911 4.01731 0.464296 5.18034C0.330891 5.21688 0.213189 5.29624 0.129299 5.40622C0.0454091 5.51619 -2.05241e-05 5.65069 6.95594e-09 5.78901V12.237C6.95594e-09 18.877 3.06322 23.2722 5.63302 25.7901C8.39957 28.5009 11.6222 30 12.7923 30C13.9622 30 17.1849 28.5009 19.9514 25.7901C22.5212 23.2723 25.5842 18.8771 25.5842 12.237V5.78895C25.5842 5.50465 25.3941 5.2554 25.1199 5.18034ZM24.3221 12.2369C24.3221 18.4387 21.465 22.5399 19.0681 24.8885C16.3475 27.5542 13.4387 28.7378 12.7923 28.7378C12.1458 28.7378 9.23688 27.5542 6.51626 24.8885C4.11937 22.5399 1.26217 18.4387 1.26217 12.2369V6.26801C5.32142 5.11547 9.10176 3.50702 12.7924 1.36232C16.3909 3.45013 20.3598 5.13856 24.3221 6.26778V12.2369Z" fill="white"/>
<path d="M7.19864 6.19761C7.07091 5.87329 6.70452 5.71397 6.38015 5.84177C5.24852 6.28747 4.10141 6.69282 2.94099 7.05706C2.81278 7.09728 2.70076 7.17736 2.62123 7.28566C2.54169 7.39395 2.49879 7.5248 2.49878 7.65917V10.0961C2.49878 10.4447 2.78138 10.7272 3.12983 10.7272C3.47829 10.7272 3.76089 10.4447 3.76089 10.0961V8.12036C4.7994 7.7843 5.8272 7.41599 6.8428 7.01598C7.16712 6.88831 7.32644 6.52192 7.19864 6.19761ZM8.39741 6.31731C8.48208 6.31731 8.56804 6.30026 8.65048 6.26428L8.66208 6.25925C8.98136 6.11932 9.12515 5.74766 8.98523 5.4285C8.84519 5.10923 8.47142 4.96479 8.15249 5.1046L8.1423 5.10899C7.82284 5.2485 7.67858 5.61987 7.8181 5.93921C7.92163 6.17628 8.15395 6.31731 8.39741 6.31731ZM20.311 20.3488C20.0194 20.1582 19.6283 20.2402 19.4375 20.5319C18.9175 21.3279 18.3074 22.09 17.6239 22.7971C17.0618 23.3786 16.4567 23.9169 15.8138 24.4075C15.5367 24.6188 15.4834 25.0148 15.6946 25.292C15.7535 25.3694 15.8295 25.432 15.9166 25.4752C16.0038 25.5183 16.0997 25.5406 16.1969 25.5405C16.3304 25.5405 16.4648 25.4984 16.5791 25.4112C17.2724 24.882 17.925 24.3014 18.5313 23.6744C19.2702 22.9101 19.9305 22.0851 20.4941 21.2223C20.6848 20.9305 20.6027 20.5394 20.311 20.3488ZM14.3483 25.3973L14.312 25.4186C14.0105 25.5933 13.9074 25.9793 14.082 26.2808C14.1235 26.3526 14.1787 26.4155 14.2445 26.4659C14.3103 26.5163 14.3854 26.5532 14.4655 26.5745C14.5456 26.5959 14.6291 26.6013 14.7112 26.5903C14.7934 26.5794 14.8726 26.5523 14.9443 26.5108L14.986 26.4862C15.2868 26.3101 15.3878 25.9235 15.2117 25.6228C15.0354 25.3221 14.6488 25.2213 14.3483 25.3973ZM8.49069 13.7123C8.10321 13.3247 7.58788 13.1114 7.03979 13.1114C6.49171 13.1114 5.97632 13.3248 5.58866 13.7123C4.78868 14.5124 4.78868 15.8144 5.58866 16.6145L9.31499 20.3407C9.70253 20.7281 10.2179 20.9414 10.766 20.9414C11.3142 20.9414 11.8295 20.7281 12.2171 20.3406L19.996 12.5615C20.796 11.7612 20.796 10.4594 19.9959 9.65956C19.6084 9.27202 19.0931 9.05874 18.5449 9.05874C17.9967 9.05874 17.4814 9.27208 17.0938 9.65956L10.7659 15.9874L8.49069 13.7123ZM17.9863 10.5521C18.0595 10.4785 18.1466 10.4202 18.2424 10.3805C18.3383 10.3408 18.4411 10.3205 18.5449 10.3208C18.7561 10.3208 18.9544 10.4029 19.1036 10.5521C19.4115 10.86 19.4115 11.3612 19.1035 11.6692L11.3246 19.4481C11.1755 19.5972 10.9771 19.6793 10.766 19.6793C10.555 19.6793 10.3565 19.5972 10.2073 19.4481L6.4811 15.722C6.17308 15.414 6.17308 14.9128 6.48099 14.6049C6.63017 14.4558 6.82862 14.3735 7.03974 14.3735C7.25085 14.3735 7.44919 14.4556 7.59831 14.6048L10.3197 17.3262C10.4381 17.4445 10.5985 17.511 10.7659 17.511C10.9333 17.511 11.0938 17.4446 11.2121 17.3262L17.9863 10.5521Z" fill="white"/>
</svg>
